<?xml version="1.0" encoding="UTF-8" standalone="no"?>
<!-- Created with Inkscape (http://www.inkscape.org/) -->

<svg
   xmlns:dc="http://purl.org/dc/elements/1.1/"
   xmlns:cc="http://creativecommons.org/ns#"
   xmlns:rdf="http://www.w3.org/1999/02/22-rdf-syntax-ns#"
   xmlns:svg="http://www.w3.org/2000/svg"
   xmlns="http://www.w3.org/2000/svg"
   xmlns:xlink="http://www.w3.org/1999/xlink"
   xmlns:sodipodi="http://sodipodi.sourceforge.net/DTD/sodipodi-0.dtd"
   xmlns:inkscape="http://www.inkscape.org/namespaces/inkscape"
   width="480"
   height="600"
   viewBox="0 0 480 600"
   id="svg2"
   version="1.1"
   inkscape:version="0.91 r13725"
   sodipodi:docname="flappy.svg"
   enable-background="new">
  <script
     id="background_movement">// move the background

// configuration

var returnBackgroundToStartAfterRepetitions = 3;
var backgroundX = 0;
var backgroundVelocity = -1;

// variables to initialize
var backgroundWasInitialized = false;
var backgroundWidth = null;
var backgroundWidthElement = null;
var backgroundInitialTranslation = null;

function initializeBackground() {
    if (backgroundWasInitialized) {
        return;
    }
    backgroundWasInitialized = true;
    backgroundWidthElement = document.getElementById('backgroundWidth');
    backgroundWidth = backgroundWidthElement.getBBox().width;
    var backgroundlayer = layerNamed('background');
    backgroundInitialTranslation = backgroundlayer.getAttribute('transform');
}

function moveBackground() {
    initializeBackground();

    backgroundX += backgroundVelocity;
    var maximumX = returnBackgroundToStartAfterRepetitions * backgroundWidth;
    var direction = Math.sign(backgroundVelocity);
    if (backgroundX * direction &gt; maximumX) {
        backgroundX -= maximumX * direction;
    }

    var bg = layerNamed(&quot;background&quot;);

    // set the position according to 
    //    http://stackoverflow.com/questions/15254659/a-generic-js-function-to-move-any-svg-element
    bg.setAttribute('transform', backgroundInitialTranslation + ',translate(' + backgroundX + '0)');
}

var movingBackgoundIntervalID = null;

function startMovingBackgound() {
    if (movingBackgoundIntervalID == null) {
         movingBackgoundIntervalID = setInterval(moveBackground, 50);
    }
}

function stopMovingBackgound() {
    if (movingBackgoundIntervalID != null) {
         clearInterval(movingBackgoundIntervalID);
    }
}

</script>
  <script
     id="debug_help">// debug help

function getDebugElement() {
    return document.getElementById('debugString');
}

function setDebugString(string) {
    getDebugElement().textContent = string;
}</script>
  <script
     id="start_scale_to_fullscreen">// scale the game so it always fits the screen
// This way the zoom is not activated on tablets and phones

function scale_to_fullscreen() {
    // compute scales
    var svg = document.getElementsByTagName(&quot;svg&quot;)[0];

    var width = svg.getAttribute('width');
    var height = svg.getAttribute('height');

    // window height and width
    //    http://stackoverflow.com/questions/6850164/get-the-device-width-in-javascript
    var window_width = (window.innerWidth &gt; 0) ? window.innerWidth : screen.width;
    var window_height = (window.innerHeight &gt; 0) ? window.innerHeight : screen.height;

    var scale_width = window_width / width;
    var scale_height = window_height / height;

    // choose smallest scale
    //    http://www.w3schools.com/jsref/jsref_min.asp
    var scale = Math.min(scale_height, scale_width);

    // set the dimensions
    svg.setAttribute('width', width * scale);
    svg.setAttribute('height', height * scale);
}

  </script>
  <script
     id="layer_functions">// some functions that are useful

function layerNamed(name) {
    var layers = document.getElementsByTagName(&quot;g&quot;);
    for (var i = 0; i &lt; layers.length; i++) {
        var layer = layers[i];
        if (layer.getAttribute('inkscape:groupmode') == 'layer') {
            var label = layer.getAttribute('inkscape:label');
            if (label != null &amp;&amp; label.toLowerCase() == name.toLowerCase()) {
                return layer;
            }
        }
    }
    alert('Error: getLayerNamed: Can not find a layer named &quot;' + name + '&quot;. You should debug!');
    return null;
}
</script>
  <script
     id="startscreen_startGame">// startGame

function startGame() {
    layerNamed('startscreen').style.display = 'none'; // none = hide layer
    layerNamed('bird').style.display = 'inline'; // inline = show layer
    layerNamed('background').style.display = 'inline'; // inline = show layer
    startFlapping();
}
</script>
  <script
     id="startscreen_show">// startGame

function showStartScreen() {
    layerNamed('startscreen').style.display = 'inline'; // none = hide layer
    layerNamed('bird').style.display = 'none'; // inline = show layer
    layerNamed('background').style.display = 'inline'; // inline = show layer
    startFlapping();
}
</script>
  <script
     id="flapping">// setInterval http://www.w3schools.com/jsref/met_win_setinterval.asp
var flappingIntervalID = null;

function startFlapping() {
    if (flappingIntervalID == null) {
         flappingIntervalID = setInterval(fly, 50);
    }
    y = 0;
    velocity = 0;
}

function stopFlapping() {
    if (flappingIntervalID != null) {
         clearInterval(flappingIntervalID);
    }
}

var gravity = 1.8;
var velocity = 0;
var y = 0;
var flap_velocity = -18;

var bottom = 250;
var top = -bottom; // suppose we are in the middle

function fly() {
    var bird = layerNamed(&quot;bird&quot;);
    velocity += gravity;
    y += velocity;
    if (y &gt; bottom) {
        y = bottom;
    }
    // set the position according to 
    //    http://stackoverflow.com/questions/15254659/a-generic-js-function-to-move-any-svg-element
    bird.setAttribute(&quot;transform&quot;, &quot;translate(0,&quot; + y + &quot;)&quot;);
}

function flap() { 
    velocity = flap_velocity;
}

// set mouse down according to 
//    http://stackoverflow.com/questions/322378/javascript-check-if-mouse-button-down
var svg = document.getElementsByTagName(&quot;svg&quot;)[0];
svg.onmousedown = flap;
svg.touchend = flap;
</script>
  <script
     id="start">// Execute everything that should be started.
// This script must be the last script. Otherwise not all functions may be loaded.

window.onload = function() {
    startFlapping();
    scale_to_fullscreen();
    startMovingBackgound();
    showStartScreen();
}
    
</script>
  <defs
     id="defs4">
    <linearGradient
       id="linearGradient4847"
       inkscape:collect="always">
      <stop
         id="stop4851"
         offset="0"
         style="stop-color:#87cdde;stop-opacity:1;" />
      <stop
         id="stop4853"
         offset="1"
         style="stop-color:#87cdde;stop-opacity:0;" />
    </linearGradient>
    <pattern
       y="0"
       x="0"
       height="6"
       width="6"
       patternUnits="userSpaceOnUse"
       id="EMFhbasepattern" />
    <pattern
       y="0"
       x="0"
       height="6"
       width="6"
       patternUnits="userSpaceOnUse"
       id="EMFhbasepattern-1" />
    <pattern
       y="0"
       x="0"
       height="6"
       width="6"
       patternUnits="userSpaceOnUse"
       id="EMFhbasepattern-2" />
    <linearGradient
       inkscape:collect="always"
       xlink:href="#linearGradient4847"
       id="linearGradient4839"
       x1="6203.7036"
       y1="-100.15549"
       x2="6203.7036"
       y2="331.33569"
       gradientUnits="userSpaceOnUse"
       gradientTransform="translate(4329.1127,452.36216)" />
  </defs>
  <sodipodi:namedview
     id="base"
     pagecolor="#ffffff"
     bordercolor="#666666"
     borderopacity="1.0"
     inkscape:pageopacity="0.0"
     inkscape:pageshadow="2"
     inkscape:zoom="0.13028074"
     inkscape:cx="2770.8916"
     inkscape:cy="1543.1003"
     inkscape:document-units="px"
     inkscape:current-layer="layer4"
     showgrid="false"
     inkscape:window-width="1920"
     inkscape:window-height="1005"
     inkscape:window-x="-9"
     inkscape:window-y="-9"
     inkscape:window-maximized="1"
     units="px"
     inkscape:snap-smooth-nodes="true"
     inkscape:object-nodes="true" />
  <metadata
     id="metadata7">
    <rdf:RDF>
      <cc:Work
         rdf:about="">
        <dc:format>image/svg+xml</dc:format>
        <dc:type
           rdf:resource="http://purl.org/dc/dcmitype/StillImage" />
        <dc:title></dc:title>
        <cc:license
           rdf:resource="http://creativecommons.org/licenses/by-sa/3.0/" />
        <dc:creator>
          <cc:Agent>
            <dc:title>Nicco Kunzmann</dc:title>
          </cc:Agent>
        </dc:creator>
        <dc:contributor>
          <cc:Agent>
            <dc:title>Nicco Kunzmann, </dc:title>
          </cc:Agent>
        </dc:contributor>
      </cc:Work>
      <cc:License
         rdf:about="http://creativecommons.org/licenses/by-sa/3.0/">
        <cc:permits
           rdf:resource="http://creativecommons.org/ns#Reproduction" />
        <cc:permits
           rdf:resource="http://creativecommons.org/ns#Distribution" />
        <cc:requires
           rdf:resource="http://creativecommons.org/ns#Notice" />
        <cc:requires
           rdf:resource="http://creativecommons.org/ns#Attribution" />
        <cc:permits
           rdf:resource="http://creativecommons.org/ns#DerivativeWorks" />
        <cc:requires
           rdf:resource="http://creativecommons.org/ns#ShareAlike" />
      </cc:License>
    </rdf:RDF>
  </metadata>
  <g
     inkscape:groupmode="layer"
     id="layer3"
     inkscape:label="do not touch and show this layer"
     style="display:inline"
     transform="translate(0,-452.36216)"
     sodipodi:insensitive="true">
    <path
       inkscape:connector-curvature="0"
       id="backgroundWidth"
       d="m -41.522068,-191.05004 10051.881068,0 0,599.99618 -10051.881068,0 z"
       style="display:inline;fill:#000000;fill-opacity:1;fill-rule:nonzero;stroke:none"
       inkscape:label="#path4702" />
    <text
       sodipodi:linespacing="125%"
       id="text4202"
       y="173.09712"
       x="2019.0531"
       style="font-style:normal;font-variant:normal;font-weight:normal;font-stretch:normal;font-size:187.5px;line-height:125%;font-family:Aleo;-inkscape-font-specification:Aleo;letter-spacing:0px;word-spacing:0px;display:inline;fill:#000000;fill-opacity:1;stroke:none;stroke-width:1px;stroke-linecap:butt;stroke-linejoin:miter;stroke-opacity:1"
       xml:space="preserve"><tspan
         style="fill:#f2f2f2"
         y="173.09712"
         x="2019.0531"
         id="tspan4204"
         sodipodi:role="line">backgroundWidth - careful</tspan></text>
  </g>
  <g
     inkscape:groupmode="layer"
     id="layer2"
     inkscape:label="background"
     style="display:inline"
     transform="translate(0,-452.36216)">
    <path
       style="fill:url(#linearGradient4839);fill-opacity:1;fill-rule:evenodd;stroke:none"
       d="m -41.522068,408.94614 0,643.41606 20103.871068,0 20103.871,0 0,-643.41606 -20103.871,0 -20103.871068,0 z"
       id="path4704"
       inkscape:connector-curvature="0" />
    <path
       inkscape:connector-curvature="0"
       id="path4706"
       d="m 6274.6271,793.26352 c 0,0 186.4936,381.60138 213.1996,366.40138 26.694,-15.3066 3411.72,-180.10266 3453.588,-203.00268 41.867,-22.79868 70.2673,-189.99869 70.2673,-189.99869 0,0 -182.8003,-76.19869 -228.5343,-64.79869 -45.733,11.40001 7.601,11.40001 -102.799,11.40001 -110.534,0 -148.667,22.90002 -247.601,11.50001 -99.2,-11.50001 -102.934,-22.90002 -160,-34.30002 -57.2,-11.4 -45.867,-95.3 -179.2,-91.4 -133.2,3.79998 -156.134,-15.29868 -289.467,26.59999 -133.333,41.89999 -76.133,41.89999 -213.333,41.89999 -137.2,0 -133.334,11.50002 -209.601,0 -76.133,-11.4 -45.6,-11.4 -156.133,-11.4 -110.4,0 -83.867,-7.59997 -198.133,11.4 -114.16,19.10004 -64.667,0 -178.96,22.90002 -114.307,22.80001 -95.2,-22.90002 -205.707,22.80001 -110.493,45.79999 -76.2,34.30002 -163.8,45.79999 -87.6,11.39868 -49.493,0 -186.693,11.39868 -137.094,11.4 -182.801,22.8 -251.4,22.8 -68.6,0 38.106,11.50002 -114.294,0 -152.4,-11.4 -171.4,-11.4 -285.707,-11.4 -114.293,0 -57.2,11.4 -148.599,0 -91.401,-11.4 -60.894,-18.99865 -129.494,-11.4 -68.6,7.60001 -87.5996,22.8 -87.5996,22.8 z"
       style="fill:#8c7b5d;fill-opacity:1;fill-rule:evenodd;stroke:#000000;stroke-width:6.69995165px;stroke-linecap:butt;stroke-linejoin:miter;stroke-miterlimit:4;stroke-dasharray:none;stroke-opacity:1" />
    <path
       inkscape:connector-curvature="0"
       id="path4708"
       d="m 4710.1333,1181.665 c 16.2,-26.9067 242.5064,-409.5015 242.5064,-409.5015 l 199.2936,37.80001 c 21.6,10.70003 80.8001,26.90004 80.8001,26.90004 91.5998,32.29999 123.1064,-20.50002 123.1064,-20.50002 123.8934,0 183.1871,-16.09999 183.1871,-16.09999 l 215.5063,0 c 150.8004,0 247.8001,16.09999 247.8001,16.09999 199.4004,21.6 314.2002,-4.99999 314.2002,-4.99999 247.7872,5.4 326.8932,-16.5 326.8932,-16.5 183.201,-21.60001 237.894,15.09997 237.894,15.09997 166.999,16.10003 220.906,16.10003 220.906,16.10003 242.387,48.5 296.294,64.7 296.294,64.7 193.893,32.29999 328.6,32.29999 328.6,32.29999 172.4,0 269.36,-21.6 269.36,-21.6 220.933,-16.09999 258.667,-48.39998 258.667,-48.39998 l 150.8,0 264,0 c 161.6,26.89999 199.333,26.89999 199.333,26.89999 242.4,16.2 312.4,-16.2 312.4,-16.2 188.667,0 242.534,-21.49999 242.534,-21.49999 145.333,21.49999 220.933,5.4 220.933,5.4 150.8,16.09999 210,-5.4 210,-5.4 91.601,-10.8 118.534,-27.00001 118.534,-27.00001 86.2663,21.60001 113.0673,-5.7 113.0673,-5.7 26.799,21.49999 32.266,26.89999 32.266,26.89999 l 1249.733,89 c -86.134,70.09867 -1782.9343,466.29477 -1782.9343,466.29477 -1136.8,145.5067 -1460,161.6 -1460,161.6 -662.693,0 -1255.293,-53.8 -1255.293,-53.8 -1653.881,-91.6 -1907.1873,-113.2 -1907.1873,-113.2 -177.6936,-53.8933 -274.6938,-220.8933 -274.6938,-220.8933 z"
       style="fill:#e1c5ad;fill-opacity:1;fill-rule:evenodd;stroke:#000000;stroke-width:6.69995165px;stroke-linecap:butt;stroke-linejoin:miter;stroke-miterlimit:4;stroke-dasharray:none;stroke-opacity:1" />
    <path
       inkscape:connector-curvature="0"
       id="path4710"
       d="m 4522.2398,774.2635 c 0,0 -148.6002,-68.59867 -205.6933,-68.59867 -57.1999,0 -251.5068,15.3 -377.2003,15.3 -125.7066,0 -331.3999,87.59869 -331.3999,87.59869 l 533.2934,49.50002 z"
       style="fill:#efddc7;fill-opacity:1;fill-rule:evenodd;stroke:#000000;stroke-width:6.69995165px;stroke-linecap:butt;stroke-linejoin:miter;stroke-miterlimit:4;stroke-dasharray:none;stroke-opacity:1" />
    <path
       inkscape:connector-curvature="0"
       id="path4712"
       d="m 4838.4398,618.06481 c 0,0 182.8002,38.10001 198.0936,49.50001 15.1999,11.50002 156.1999,19.10004 171.3997,19.10004 15.2003,0 358.0938,-15.30001 358.0938,-15.30001 0,0 308.5999,-15.20003 335.1998,7.69999 26.7066,22.8 213.4002,26.59999 289.6002,53.29999 76.1065,26.70001 239.9998,91.39868 262.7998,79.99868 22.893,-11.4 -148.5999,68.60005 -201.8932,57.10003 -53.3065,-11.4 -369.5065,-57.10003 -472.3999,-57.10003 -102.8004,0 -468.4938,53.30004 -777.0937,38.10001 -308.6,-15.30001 -714.6933,-2.59999 -775.6934,-2.59999 -60.9067,0 144.1998,-67.90003 144.1998,-67.90003 l 6.6,-17.59866 c 26.8002,-10.99999 461.0935,-144.30003 461.0935,-144.30003 z"
       style="fill:#f3e4d1;fill-opacity:1;fill-rule:evenodd;stroke:#000000;stroke-width:6.69995165px;stroke-linecap:butt;stroke-linejoin:miter;stroke-miterlimit:4;stroke-dasharray:none;stroke-opacity:1" />
    <path
       inkscape:connector-curvature="0"
       id="path4714"
       d="m -5341.7893,1181.665 c 16.2,-26.9067 242.4992,-409.5015 242.4992,-409.5015 l 199.2974,37.80001 c 21.6,10.70003 80.7997,26.90004 80.7997,26.90004 91.5988,32.29999 123.0988,-20.50002 123.0988,-20.50002 123.9,0 183.1989,-16.09999 183.1989,-16.09999 l 215.4983,0 c 150.799,0 247.7991,16.09999 247.7991,16.09999 199.3957,21.6 314.196,-4.99999 314.196,-4.99999 247.8001,5.4 326.8933,-16.5 326.8933,-16.5 183.1999,-21.60001 237.9067,15.09997 237.9067,15.09997 166.9999,16.10003 220.8936,16.10003 220.8936,16.10003 242.4,48.5 296.2933,64.7 296.2933,64.7 193.9068,32.29999 328.6002,32.29999 328.6002,32.29999 172.3999,0 269.4001,-21.6 269.4001,-21.6 220.9063,-16.09999 258.6,-48.39998 258.6,-48.39998 l 150.7999,0 264.0001,0 c 161.6934,26.89999 199.3998,26.89999 199.3998,26.89999 242.40013,16.2 312.40033,-16.2 312.40033,-16.2 188.5866,0 242.493,-21.49999 242.493,-21.49999 145.4004,21.49999 220.8936,5.4 220.8936,5.4 150.7999,16.09999 210.1069,-5.4 210.1069,-5.4 91.5997,-10.8 118.493402,-27.00001 118.493402,-27.00001 86.1996997,21.60001 112.9998,-5.7 112.9998,-5.7 26.8933,21.49999 32.2933,26.89999 32.2933,26.89999 l 1249.800268,89 c -86.1997,70.09867 -1782.98687,466.29477 -1782.98687,466.29477 -1136.80043,145.5067 -1459.98693,161.6 -1459.98693,161.6 -662.7068,0 -1255.2938,-53.8 -1255.2938,-53.8 -1653.8909,-91.6 -1907.1897,-113.2 -1907.1897,-113.2 -177.6983,-53.8933 -274.6976,-220.8933 -274.6976,-220.8933 z"
       style="fill:#e1c5ad;fill-opacity:1;fill-rule:evenodd;stroke:#000000;stroke-width:6.69995165px;stroke-linecap:butt;stroke-linejoin:miter;stroke-miterlimit:4;stroke-dasharray:none;stroke-opacity:1" />
    <path
       inkscape:connector-curvature="0"
       id="path4716"
       d="m 3724.2396,789.76354 c 0,0 -215.4931,22.8 -255.8935,22.8 -40.3998,0 -414.7999,-4.00002 -433.6933,-1.30001 -18.7998,2.7 -289.6002,17.50001 -297.6001,17.50001 -8.0933,0 -330,-16.2 -335.4,-16.2 -5.4,0 -106.3999,79.50002 -106.3999,86.19999 0,6.80003 -1325.29397,-2.59999 -1325.29397,-2.59999 l -246.4933,78.09867 c -21.6,13.40003 -39.093,30.99999 -39.093,30.99999 -10.707,9.4 -55.2001,65.9 -55.2001,65.9 -5.4,6.8001 1414.18667,64.7027 1414.18667,64.7027 l 2258.6806,-8.1066 -301.6933,-352.8948 z"
       style="fill:#c19e7e;fill-opacity:1;fill-rule:evenodd;stroke:#000000;stroke-width:6.69995165px;stroke-linecap:butt;stroke-linejoin:miter;stroke-miterlimit:4;stroke-dasharray:none;stroke-opacity:1" />
    <path
       inkscape:connector-curvature="0"
       id="path4718"
       d="m 2876.5462,819.96353 -163.7868,-41.9 -76.2001,-38.09868 -87.6,-3.79998 c 0,0 -61.0001,-61.00003 -114.3066,-61.00003 -53.4,0 -129.6,-3.79999 -144.7999,-11.4 -15.2003,-7.60002 -57.0935,-30.5 -95.2002,-38.10001 -38.0934,-7.60002 -7.6932,-19.00002 -83.8001,-7.60002 -76.2001,11.4 -72.3997,26.70001 -125.7998,34.30002 -53.2937,7.60002 -45.6935,22.80001 -91.4003,22.80001 -45.6931,0 -22.8,11.50002 -64.6932,0 -42,-11.4 -91.4934,-64.7 -144.7999,-72.30002 -53.2932,-7.69998 -19.0932,-22.8987 -68.6003,-7.69998 -49.493,15.3 -26.5999,26.7 -95.1997,26.7 -68.6004,0 -99.0936,-49.49869 -160.0002,-49.49869 -61.0002,0 -11.4,-30.50004 -99.0931,0 -87.6,30.49867 -34.3068,26.69869 -114.3071,38.09869 -79.9999,11.4 -41.8933,-11.4 -159.99977,11.4 -117.9869,22.89998 -45.6935,15.30001 -148.4934,22.89998 -102.8934,7.60001 -79.9998,-26.70001 -152.4,7.60001 -72.4002,34.30003 -7.6002,34.30003 -110.4936,45.70003 -102.7998,11.4 -110.5063,0 -190.5066,11.4 -79.9999,11.49997 -64.6933,11.49997 -114.1999,22.89997 -49.6002,11.40001 -87.6936,22.80001 -87.6936,22.80001 0,0 -45.7063,-3.79999 30.4937,3.9 76.2001,7.59869 99.1064,15.19866 262.9064,15.19866 163.8,0 121.8936,-19.09866 179.0004,0 57.1998,19.00002 -57.1068,-22.89865 99.093,22.90002 156.2004,45.70003 -19.0932,57.10003 182.8002,45.70003 201.89347,-11.50002 224.80027,-11.50002 342.89347,-22.90002 118.1065,-11.40001 -91.4003,-11.40001 163.8,-11.40001 255.1999,0 156.1999,-11.4 289.5067,0 133.2931,11.40001 41.8933,0 156.1867,11.40001 114.3066,11.4 -205.6933,22.90002 186.7068,22.90002 l 407.5999,0 c 186.6936,0 99,34.29997 274.2936,0 55.0933,-2.7 58.5997,5.1 118.0933,-22.90002 z"
       style="fill:#575965;fill-opacity:1;fill-rule:evenodd;stroke:#000000;stroke-width:6.69995165px;stroke-linecap:butt;stroke-linejoin:miter;stroke-miterlimit:4;stroke-dasharray:none;stroke-opacity:1" />
    <path
       inkscape:connector-curvature="0"
       id="path4720"
       d="m 2358.4527,827.56354 c -87.6001,0 15.1998,-11.4 -198.0936,-11.4 -213.3998,0 -293.4001,-7.60002 -396.1999,-7.60002 -102.8935,0 -156.1999,-11.4 -312.4003,-11.4 l -293.2933,0 c -182.90647,0 -259.39987,-19.90002 -384.79987,-28.2 l -160.0002,-10.69867 c -53.1997,-3.6 -57.0931,22.89865 -186.6931,0 -129.507,-22.90001 -156.1068,-29.7 -220.9068,-6.9 -64.8,22.89865 -41.8933,22.89865 -95.2002,22.89865 -53.399998,0 -64.799998,-11.39863 -137.186498,-11.39863 -72.4002,0 -60.9066,-19.10003 -102.800402,0 -41.9064,18.99865 -72.3997,34.29865 -22.9062,45.69865 49.5066,11.40001 -72.4002,-26.7 118.106402,22.80001 190.493498,49.60003 118.0933,53.40001 236.186998,61.00003 118.1065,7.59997 11.4,-3.80003 148.5998,18.99997 137.1066,22.90002 -266.693498,22.90002 186.6,22.90002 453.4003,0 323.8002,-22.90002 495.29347,0 171.4002,22.89865 -133.38667,-3.79998 308.5068,34.29866 441.8935,38.09999 217.2001,26.60003 518.0935,38.09999 300.9998,11.4 163.8001,0 403.8001,0 240.0001,0 213.3997,3.8 274.2931,-22.89996 61.0002,-26.60004 56.7067,-74.49871 56.7067,-74.49871 -64.3063,-13.09999 -148.1065,-81.69999 -235.7065,-81.69999 z"
       style="fill:#f7e5cd;fill-opacity:1;fill-rule:evenodd;stroke:#000000;stroke-width:6.69995165px;stroke-linecap:butt;stroke-linejoin:miter;stroke-miterlimit:4;stroke-dasharray:none;stroke-opacity:1" />
    <path
       inkscape:connector-curvature="0"
       id="path4722"
       d="m 2846.146,1033.4622 c 32.3069,0 199.3068,-75.4 239.7067,-83.5 40.4003,-8.09863 -51.1999,-5.39863 132,-13.39866 183.2004,-8.1 255.8934,-48.5 379.8001,-53.9 123.8934,-5.4 250.4934,-21.6 331.2936,-21.6 80.8932,0 53.8932,-16.09999 274.8001,-24.19999 220.8931,-8.10001 158.8932,-16.20001 328.6002,-16.20001 169.7863,0 96.9865,-21.50003 245.1865,-5.4 148.1065,16.20001 150.7999,-18.80003 202.0002,40.39999 51.1998,59.3 18.9066,32.40001 61.9998,86.20004 43.1065,53.89863 10.7065,56.59863 72.7068,64.69863 61.8931,8.1 48.4933,-10.8 75.3997,8.1 27,18.8 62.0004,61.9 62.0004,61.9 0,0 121.2,67.3961 -207.4002,86.196 -328.7066,18.9068 150.7998,37.7067 -598.0934,105.1067 -748.8002,67.2934 -856.6003,80.8001 -1115.2004,56.6001 -258.6,-24.3067 -325.8931,-10.8 -379.8001,-40.4001 -53.8932,-29.7066 -105,-250.6027 -105,-250.6027 z"
       style="fill:#c4987b;fill-opacity:1;fill-rule:evenodd;stroke:#000000;stroke-width:6.69995165px;stroke-linecap:butt;stroke-linejoin:miter;stroke-miterlimit:4;stroke-dasharray:none;stroke-opacity:1" />
    <path
       inkscape:connector-curvature="0"
       id="path4724"
       d="m 12928.481,819.96353 -163.866,-41.9 -76.134,-38.09868 -87.6,-3.79998 c 0,0 -60.933,-61.00003 -114.266,-61.00003 -53.467,0 -129.6,-3.79999 -144.801,-11.4 -15.199,-7.60002 -57.066,-30.5 -95.199,-38.10001 -38.134,-7.60002 -7.734,-19.00002 -83.867,-7.60002 -76.133,11.4 -72.4,26.70001 -125.734,34.30002 -53.333,7.60002 -45.733,22.80001 -91.466,22.80001 -45.6,0 -22.8,11.50002 -64.667,0 -42,-11.4 -91.466,-64.7 -144.8,-72.30002 -53.333,-7.69998 -19.067,-22.8987 -68.533,-7.69998 -49.6,15.3 -26.667,26.7 -95.2,26.7 -68.667,0 -99.2,-49.49869 -160,-49.49869 -61.067,0 -11.467,-30.50004 -99.2,0 -87.6,30.49867 -34.267,26.69869 -114.267,38.09869 -80,11.4 -41.866,-11.4 -160,11.4 -118,22.89998 -45.733,15.30001 -148.533,22.89998 -102.8,7.60001 -80,-26.70001 -152.4,7.60001 -72.4,34.30003 -7.6,34.30003 -110.401,45.70003 -102.799,11.4 -110.533,0 -190.533,11.4 -80,11.49997 -64.666,11.49997 -114.267,22.89997 -49.599,11.40001 -87.6,22.80001 -87.6,22.80001 0,0 -45.733,-3.79999 30.401,3.9 76.266,7.59869 99.199,15.19866 262.933,15.19866 163.867,0 121.866,-19.09866 179.067,0 57.2,19.00002 -57.201,-22.89865 99.066,22.90002 156.134,45.70003 -19.066,57.10003 182.8,45.70003 201.867,-11.50002 224.8,-11.50002 342.934,-22.90002 118,-11.40001 -91.467,-11.40001 163.733,-11.40001 255.2,0 156.267,-11.4 289.467,0 133.333,11.40001 42,0 156.267,11.40001 114.266,11.4 -205.734,22.90002 186.666,22.90002 l 407.6,0 c 186.667,0 98.934,34.29997 274.267,0 55.067,-2.7 58.667,5.1 118.133,-22.90002 z"
       style="fill:#575965;fill-opacity:1;fill-rule:evenodd;stroke:#000000;stroke-width:6.69995165px;stroke-linecap:butt;stroke-linejoin:miter;stroke-miterlimit:4;stroke-dasharray:none;stroke-opacity:1" />
    <path
       inkscape:connector-curvature="0"
       id="path4726"
       d="m 16326.616,793.26352 c 0,0 186.399,381.60138 213.2,366.40138 26.666,-15.3066 3411.6,-180.10266 3453.467,-203.00268 42,-22.79868 70.4,-189.99869 70.4,-189.99869 0,0 -182.8,-76.19869 -228.667,-64.79869 -45.733,11.40001 7.734,11.40001 -102.8,11.40001 -110.533,0 -148.533,22.90002 -247.6,11.50001 -99.066,-11.50001 -102.933,-22.90002 -160,-34.30002 -57.2,-11.4 -45.733,-95.3 -179.067,-91.4 -133.333,3.79998 -156.266,-15.29868 -289.466,26.59999 -133.334,41.89999 -76.267,41.89999 -213.334,41.89999 -137.2,0 -133.467,11.50002 -209.599,0 -76.268,-11.4 -45.734,-11.4 -156.267,-11.4 -110.4,0 -83.734,-7.59997 -198.001,11.4 -114.266,19.10004 -64.8,0 -179.066,22.90002 -114.267,22.80001 -95.2,-22.90002 -205.733,22.80001 -110.4,45.79999 -76.134,34.30002 -163.734,45.79999 -87.6,11.39868 -49.467,0 -186.667,11.39868 -137.2,11.4 -182.8,22.8 -251.466,22.8 -68.534,0 38.133,11.50002 -114.267,0 -152.4,-11.4 -171.333,-11.4 -285.733,-11.4 -114.267,0 -57.2,11.4 -148.534,0 -91.466,-11.4 -60.933,-18.99865 -129.466,-11.4 -68.667,7.60001 -87.6,22.8 -87.6,22.8 z"
       style="fill:#8c7b5d;fill-opacity:1;fill-rule:evenodd;stroke:#000000;stroke-width:6.69995165px;stroke-linecap:butt;stroke-linejoin:miter;stroke-miterlimit:4;stroke-dasharray:none;stroke-opacity:1" />
    <path
       inkscape:connector-curvature="0"
       id="path4728"
       d="m 14762.082,1181.665 c 16.133,-26.9067 242.533,-409.5015 242.533,-409.5015 l 199.2,37.80001 c 21.6,10.70003 80.8,26.90004 80.8,26.90004 91.6,32.29999 123.2,-20.50002 123.2,-20.50002 123.867,0 183.2,-16.09999 183.2,-16.09999 l 215.467,0 c 150.8,0 247.734,16.09999 247.734,16.09999 199.466,21.6 314.266,-4.99999 314.266,-4.99999 247.733,5.4 326.933,-16.5 326.933,-16.5 183.201,-21.60001 237.867,15.09997 237.867,15.09997 166.934,16.10003 220.8,16.10003 220.8,16.10003 242.401,48.5 296.401,64.7 296.401,64.7 193.866,32.29999 328.533,32.29999 328.533,32.29999 172.4,0 269.466,-21.6 269.466,-21.6 220.8,-16.09999 258.534,-48.39998 258.534,-48.39998 l 150.8,0 264,0 c 161.733,26.89999 199.467,26.89999 199.467,26.89999 242.4,16.2 312.4,-16.2 312.4,-16.2 188.533,0 242.4,-21.49999 242.4,-21.49999 145.466,21.49999 220.933,5.4 220.933,5.4 150.8,16.09999 210.134,-5.4 210.134,-5.4 91.6,-10.8 118.533,-27.00001 118.533,-27.00001 86.133,21.60001 112.933,-5.7 112.933,-5.7 26.934,21.49999 32.267,26.89999 32.267,26.89999 l 1249.867,89 c -86.267,70.09867 -1783.067,466.29477 -1783.067,466.29477 -1136.801,145.5067 -1460,161.6 -1460,161.6 -662.667,0 -1255.201,-53.8 -1255.201,-53.8 -1653.867,-91.6 -1907.2,-113.2 -1907.2,-113.2 -177.733,-53.8933 -274.667,-220.8933 -274.667,-220.8933 z"
       style="fill:#e1c5ad;fill-opacity:1;fill-rule:evenodd;stroke:#000000;stroke-width:6.69995165px;stroke-linecap:butt;stroke-linejoin:miter;stroke-miterlimit:4;stroke-dasharray:none;stroke-opacity:1" />
    <path
       inkscape:connector-curvature="0"
       id="path4730"
       d="m 13776.215,789.76354 c 0,0 -215.6,22.8 -256,22.8 -40.4,0 -414.8,-4.00002 -433.6,-1.30001 -18.8,2.7 -289.6,17.50001 -297.6,17.50001 -8.134,0 -330,-16.2 -335.467,-16.2 -5.333,0 -106.4,79.50002 -106.4,86.19999 0,6.80003 -1325.2,-2.59999 -1325.2,-2.59999 l -246.534,78.09867 c -21.6,13.40003 -39.066,30.99999 -39.066,30.99999 -10.8,9.4 -55.2,65.9 -55.2,65.9 -5.467,6.8001 1414.133,64.7027 1414.133,64.7027 l 2258.667,-8.1066 -301.733,-352.8948 z"
       style="fill:#c19e7e;fill-opacity:1;fill-rule:evenodd;stroke:#000000;stroke-width:6.69995165px;stroke-linecap:butt;stroke-linejoin:miter;stroke-miterlimit:4;stroke-dasharray:none;stroke-opacity:1" />
    <path
       inkscape:connector-curvature="0"
       id="path4732"
       d="m 12410.348,827.56354 c -87.6,0 15.2,-11.4 -198,-11.4 -213.467,0 -293.467,-7.60002 -396.267,-7.60002 -102.933,0 -156.133,-11.4 -312.4,-11.4 l -293.333,0 c -182.8,0 -259.334,-19.90002 -384.8,-28.2 l -160,-10.69867 c -53.2,-3.6 -57.067,22.89865 -186.667,0 -129.467,-22.90001 -156.134,-29.7 -220.934,-6.9 -64.8,22.89865 -41.866,22.89865 -95.198,22.89865 -53.334,0 -64.8,-11.39863 -137.2,-11.39863 -72.4013,0 -60.8003,-19.10003 -102.8003,0 -41.867,18.99865 -72.401,34.29865 -22.8,45.69865 49.466,11.40001 -72.401,-26.7 117.9993,22.80001 190.533,49.60003 118.134,53.40001 236.266,61.00003 118.134,7.59997 11.334,-3.80003 148.534,18.99997 137.199,22.90002 -266.666,22.90002 186.666,22.90002 453.334,0 323.734,-22.90002 495.334,0 171.333,22.89865 -133.467,-3.79998 308.4,34.29866 442,38.09999 217.2,26.60003 518.133,38.09999 301.067,11.4 163.867,0 403.867,0 240,0 213.333,3.8 274.267,-22.89996 60.933,-26.60004 56.666,-74.49871 56.666,-74.49871 -64.266,-13.09999 -148.133,-81.69999 -235.733,-81.69999 z"
       style="fill:#f7e5cd;fill-opacity:1;fill-rule:evenodd;stroke:#000000;stroke-width:6.69995165px;stroke-linecap:butt;stroke-linejoin:miter;stroke-miterlimit:4;stroke-dasharray:none;stroke-opacity:1" />
    <path
       inkscape:connector-curvature="0"
       id="path4734"
       d="m 14574.215,774.2635 c 0,0 -148.667,-68.59867 -205.733,-68.59867 -57.2,0 -251.467,15.3 -377.201,15.3 -125.733,0 -331.466,87.59869 -331.466,87.59869 l 533.333,49.50002 z"
       style="fill:#efddc7;fill-opacity:1;fill-rule:evenodd;stroke:#000000;stroke-width:6.69995165px;stroke-linecap:butt;stroke-linejoin:miter;stroke-miterlimit:4;stroke-dasharray:none;stroke-opacity:1" />
    <path
       inkscape:connector-curvature="0"
       id="path4736"
       d="m 14890.349,618.06481 c 0,0 182.8,38.10001 198.133,49.50001 15.2,11.50002 156.133,19.10004 171.333,19.10004 15.2,0 358.134,-15.30001 358.134,-15.30001 0,0 308.666,-15.20003 335.2,7.69999 26.667,22.8 213.466,26.59999 289.6,53.29999 76.133,26.70001 240,91.39868 262.8,79.99868 22.933,-11.4 -148.534,68.60005 -201.867,57.10003 -53.333,-11.4 -369.466,-57.10003 -472.4,-57.10003 -102.8,0 -468.533,53.30004 -777.067,38.10001 -308.666,-15.30001 -714.8,-2.59999 -775.733,-2.59999 -60.933,0 144.133,-67.90003 144.133,-67.90003 l 6.667,-17.59866 c 26.8,-10.99999 461.067,-144.30003 461.067,-144.30003 z"
       style="fill:#f3e4d1;fill-opacity:1;fill-rule:evenodd;stroke:#000000;stroke-width:6.69995165px;stroke-linecap:butt;stroke-linejoin:miter;stroke-miterlimit:4;stroke-dasharray:none;stroke-opacity:1" />
    <path
       inkscape:connector-curvature="0"
       id="path4738"
       d="m 12898.081,1033.4622 c 32.267,0 199.334,-75.4 239.734,-83.5 40.4,-8.09863 -51.2,-5.39863 132,-13.39866 183.2,-8.1 255.866,-48.5 379.733,-53.9 123.867,-5.4 250.533,-21.6 331.334,-21.6 80.933,0 53.866,-16.09999 274.8,-24.19999 220.933,-8.10001 158.933,-16.20001 328.533,-16.20001 169.867,0 97.067,-21.50003 245.2,-5.4 148.133,16.20001 150.8,-18.80003 202,40.39999 51.2,59.3 18.934,32.40001 62,86.20004 43.2,53.89863 10.8,56.59863 72.8,64.69863 61.867,8.1 48.4,-10.8 75.333,8.1 27.067,18.8 62.001,61.9 62.001,61.9 0,0 121.2,67.3961 -207.334,86.196 -328.8,18.9068 150.8,37.7067 -598.133,105.1067 -748.8,67.2934 -856.667,80.8001 -1115.201,56.6001 -258.666,-24.3067 -325.866,-10.8 -379.866,-40.4001 -53.867,-29.7066 -104.934,-250.6027 -104.934,-250.6027 z"
       style="fill:#c4987b;fill-opacity:1;fill-rule:evenodd;stroke:#000000;stroke-width:6.69995165px;stroke-linecap:butt;stroke-linejoin:miter;stroke-miterlimit:4;stroke-dasharray:none;stroke-opacity:1" />
    <path
       inkscape:connector-curvature="0"
       id="path4742"
       d="m 26378.484,793.26352 c 0,0 186.534,381.60138 213.2,366.40138 26.667,-15.3066 3411.734,-180.10266 3453.601,-203.00268 41.867,-22.79868 70.267,-189.99869 70.267,-189.99869 0,0 -182.8,-76.19869 -228.534,-64.79869 -45.733,11.40001 7.6,11.40001 -102.8,11.40001 -110.533,0 -148.666,22.90002 -247.6,11.50001 -99.2,-11.50001 -102.933,-22.90002 -160,-34.30002 -57.2,-11.4 -45.866,-95.3 -179.2,-91.4 -133.2,3.79998 -156.133,-15.29868 -289.466,26.59999 -133.334,41.89999 -76.134,41.89999 -213.334,41.89999 -137.2,0 -133.333,11.50002 -209.6,0 -76.133,-11.4 -45.6,-11.4 -156.133,-11.4 -110.4,0 -83.867,-7.59997 -198.134,11.4 -114.133,19.10004 -64.666,0 -178.933,22.90002 -114.4,22.80001 -95.2,-22.90002 -205.733,22.80001 -110.534,45.79999 -76.267,34.30002 -163.867,45.79999 -87.6,11.39868 -49.467,0 -186.667,11.39868 -137.067,11.4 -182.8,22.8 -251.333,22.8 -68.667,0 38,11.50002 -114.4,0 -152.4,-11.4 -171.333,-11.4 -285.6,-11.4 -114.4,0 -57.2,11.4 -148.667,0 -91.333,-11.4 -60.933,-18.99865 -129.467,-11.4 -68.666,7.60001 -87.6,22.8 -87.6,22.8 z"
       style="fill:#8c7b5d;fill-opacity:1;fill-rule:evenodd;stroke:#000000;stroke-width:6.69995165px;stroke-linecap:butt;stroke-linejoin:miter;stroke-miterlimit:4;stroke-dasharray:none;stroke-opacity:1" />
    <path
       inkscape:connector-curvature="0"
       id="path4744"
       d="m 24813.951,1181.665 c 16.266,-26.9067 242.533,-409.5015 242.533,-409.5015 l 199.334,37.80001 c 21.6,10.70003 80.799,26.90004 80.799,26.90004 91.6,32.29999 123.067,-20.50002 123.067,-20.50002 123.867,0 183.2,-16.09999 183.2,-16.09999 l 215.467,0 c 150.8,0 247.867,16.09999 247.867,16.09999 199.333,21.6 314.133,-4.99999 314.133,-4.99999 247.867,5.4 326.933,-16.5 326.933,-16.5 183.201,-21.60001 237.867,15.09997 237.867,15.09997 167.067,16.10003 220.933,16.10003 220.933,16.10003 242.401,48.5 296.267,64.7 296.267,64.7 193.867,32.29999 328.667,32.29999 328.667,32.29999 172.4,0 269.334,-21.6 269.334,-21.6 220.933,-16.09999 258.666,-48.39998 258.666,-48.39998 l 150.8,0 264,0 c 161.6,26.89999 199.333,26.89999 199.333,26.89999 242.401,16.2 312.401,-16.2 312.401,-16.2 188.666,0 242.533,-21.49999 242.533,-21.49999 145.333,21.49999 220.933,5.4 220.933,5.4 150.801,16.09999 210,-5.4 210,-5.4 91.6,-10.8 118.534,-27.00001 118.534,-27.00001 86.267,21.60001 113.066,-5.7 113.066,-5.7 26.801,21.49999 32.267,26.89999 32.267,26.89999 l 1249.734,89 c -86.134,70.09867 -1782.934,466.29477 -1782.934,466.29477 -1136.8,145.5067 -1460,161.6 -1460,161.6 -662.667,0 -1255.334,-53.8 -1255.334,-53.8 -1653.867,-91.6 -1907.2,-113.2 -1907.2,-113.2 -177.6,-53.8933 -274.667,-220.8933 -274.667,-220.8933 z"
       style="fill:#e1c5ad;fill-opacity:1;fill-rule:evenodd;stroke:#000000;stroke-width:6.69995165px;stroke-linecap:butt;stroke-linejoin:miter;stroke-miterlimit:4;stroke-dasharray:none;stroke-opacity:1" />
    <path
       inkscape:connector-curvature="0"
       id="path4746"
       d="m 24626.084,774.2635 c 0,0 -148.533,-68.59867 -205.734,-68.59867 -57.199,0 -251.466,15.3 -377.199,15.3 -125.601,0 -331.334,87.59869 -331.334,87.59869 l 533.333,49.50002 z"
       style="fill:#efddc7;fill-opacity:1;fill-rule:evenodd;stroke:#000000;stroke-width:6.69995165px;stroke-linecap:butt;stroke-linejoin:miter;stroke-miterlimit:4;stroke-dasharray:none;stroke-opacity:1" />
    <path
       inkscape:connector-curvature="0"
       id="path4748"
       d="m 24942.351,618.06481 c 0,0 182.8,38.10001 198,49.50001 15.2,11.50002 156.267,19.10004 171.466,19.10004 15.2,0 358.134,-15.30001 358.134,-15.30001 0,0 308.533,-15.20003 335.2,7.69999 26.667,22.8 213.333,26.59999 289.467,53.29999 76.133,26.70001 240,91.39868 262.8,79.99868 22.933,-11.4 -148.534,68.60005 -201.867,57.10003 -53.333,-11.4 -369.467,-57.10003 -472.4,-57.10003 -102.8,0 -468.4,53.30004 -777.067,38.10001 -308.533,-15.30001 -714.667,-2.59999 -775.734,-2.59999 -60.799,0 144.267,-67.90003 144.267,-67.90003 l 6.534,-17.59866 c 26.8,-10.99999 461.2,-144.30003 461.2,-144.30003 z"
       style="fill:#f3e4d1;fill-opacity:1;fill-rule:evenodd;stroke:#000000;stroke-width:6.69995165px;stroke-linecap:butt;stroke-linejoin:miter;stroke-miterlimit:4;stroke-dasharray:none;stroke-opacity:1" />
    <path
       inkscape:connector-curvature="0"
       id="path4750"
       d="m 14762.082,1181.665 c 16.133,-26.9067 242.533,-409.5015 242.533,-409.5015 l 199.2,37.80001 c 21.6,10.70003 80.8,26.90004 80.8,26.90004 91.6,32.29999 123.2,-20.50002 123.2,-20.50002 123.867,0 183.2,-16.09999 183.2,-16.09999 l 215.467,0 c 150.8,0 247.734,16.09999 247.734,16.09999 199.466,21.6 314.266,-4.99999 314.266,-4.99999 247.733,5.4 326.933,-16.5 326.933,-16.5 183.201,-21.60001 237.867,15.09997 237.867,15.09997 166.934,16.10003 220.8,16.10003 220.8,16.10003 242.401,48.5 296.401,64.7 296.401,64.7 193.866,32.29999 328.533,32.29999 328.533,32.29999 172.4,0 269.466,-21.6 269.466,-21.6 220.8,-16.09999 258.534,-48.39998 258.534,-48.39998 l 150.8,0 264,0 c 161.733,26.89999 199.467,26.89999 199.467,26.89999 242.4,16.2 312.4,-16.2 312.4,-16.2 188.533,0 242.4,-21.49999 242.4,-21.49999 145.466,21.49999 220.933,5.4 220.933,5.4 150.8,16.09999 210.134,-5.4 210.134,-5.4 91.6,-10.8 118.533,-27.00001 118.533,-27.00001 86.133,21.60001 112.933,-5.7 112.933,-5.7 26.934,21.49999 32.267,26.89999 32.267,26.89999 l 1249.867,89 c -86.267,70.09867 -1783.067,466.29477 -1783.067,466.29477 -1136.801,145.5067 -1460,161.6 -1460,161.6 -662.667,0 -1255.201,-53.8 -1255.201,-53.8 -1653.867,-91.6 -1907.2,-113.2 -1907.2,-113.2 -177.733,-53.8933 -274.667,-220.8933 -274.667,-220.8933 z"
       style="fill:#e1c5ad;fill-opacity:1;fill-rule:evenodd;stroke:#000000;stroke-width:6.69995165px;stroke-linecap:butt;stroke-linejoin:miter;stroke-miterlimit:4;stroke-dasharray:none;stroke-opacity:1" />
    <path
       inkscape:connector-curvature="0"
       id="path4752"
       d="m 23828.084,789.76354 c 0,0 -215.467,22.8 -255.867,22.8 -40.4,0 -414.8,-4.00002 -433.733,-1.30001 -18.801,2.7 -289.6,17.50001 -297.6,17.50001 -8.134,0 -330,-16.2 -335.334,-16.2 -5.466,0 -106.4,79.50002 -106.4,86.19999 0,6.80003 -1325.333,-2.59999 -1325.333,-2.59999 l -246.534,78.09867 c -21.6,13.40003 -39.066,30.99999 -39.066,30.99999 -10.667,9.4 -55.2,65.9 -55.2,65.9 -5.334,6.8001 1414.133,64.7027 1414.133,64.7027 l 2258.8,-8.1066 -301.733,-352.8948 z"
       style="fill:#c19e7e;fill-opacity:1;fill-rule:evenodd;stroke:#000000;stroke-width:6.69995165px;stroke-linecap:butt;stroke-linejoin:miter;stroke-miterlimit:4;stroke-dasharray:none;stroke-opacity:1" />
    <path
       inkscape:connector-curvature="0"
       id="path4754"
       d="m 22980.35,819.96353 -163.733,-41.9 -76.267,-38.09868 -87.6,-3.79998 c 0,0 -60.933,-61.00003 -114.266,-61.00003 -53.334,0 -129.6,-3.79999 -144.801,-11.4 -15.2,-7.60002 -57.066,-30.5 -95.199,-38.10001 -38.134,-7.60002 -7.734,-19.00002 -83.734,-7.60002 -76.267,11.4 -72.4,26.70001 -125.867,34.30002 -53.333,7.60002 -45.733,22.80001 -91.333,22.80001 -45.733,0 -22.8,11.50002 -64.8,0 -42,-11.4 -91.467,-64.7 -144.8,-72.30002 -53.2,-7.69998 -19.067,-22.8987 -68.533,-7.69998 -49.467,15.3 -26.667,26.7 -95.2,26.7 -68.534,0 -99.067,-49.49869 -160.001,-49.49869 -60.933,0 -11.333,-30.50004 -99.066,0 -87.6,30.49867 -34.267,26.69869 -114.267,38.09869 -80,11.4 -42,-11.4 -160,11.4 -118,22.89998 -45.733,15.30001 -148.533,22.89998 -102.934,7.60001 -80,-26.70001 -152.4,7.60001 -72.4,34.30003 -7.6,34.30003 -110.534,45.70003 -102.8,11.4 -110.533,0 -190.533,11.4 -80,11.49997 -64.667,11.49997 -114.133,22.89997 -49.6,11.40001 -87.734,22.80001 -87.734,22.80001 0,0 -45.733,-3.79999 30.534,3.9 76.133,7.59869 99.066,15.19866 262.933,15.19866 163.733,0 121.867,-19.09866 178.934,0 57.199,19.00002 -57.067,-22.89865 99.066,22.90002 156.267,45.70003 -19.067,57.10003 182.8,45.70003 202,-11.50002 224.8,-11.50002 342.934,-22.90002 118.133,-11.40001 -91.334,-11.40001 163.866,-11.40001 255.067,0 156.134,-11.4 289.467,0 133.2,11.40001 41.867,0 156.134,11.40001 114.266,11.4 -205.734,22.90002 186.666,22.90002 l 407.6,0 c 186.8,0 99.067,34.29997 274.4,0 55.067,-2.7 58.534,5.1 118,-22.90002 z"
       style="fill:#575965;fill-opacity:1;fill-rule:evenodd;stroke:#000000;stroke-width:6.69995165px;stroke-linecap:butt;stroke-linejoin:miter;stroke-miterlimit:4;stroke-dasharray:none;stroke-opacity:1" />
    <path
       inkscape:connector-curvature="0"
       id="path4756"
       d="m 22462.35,827.56354 c -87.6,0 15.2,-11.4 -198.133,-11.4 -213.467,0 -293.467,-7.60002 -396.267,-7.60002 -102.8,0 -156.133,-11.4 -312.267,-11.4 l -293.333,0 c -182.933,0 -259.467,-19.90002 -384.8,-28.2 l -160,-10.69867 c -53.2,-3.6 -57.067,22.89865 -186.667,0 -129.6,-22.90001 -156.133,-29.7 -220.933,-6.9 -64.8,22.89865 -41.867,22.89865 -95.2,22.89865 -53.467,0 -64.8,-11.39863 -137.2,-11.39863 -72.4,0 -60.934,-19.10003 -102.8,0 -41.867,18.99865 -72.4,34.29865 -22.934,45.69865 49.467,11.40001 -72.4,-26.7 118.134,22.80001 190.533,49.60003 118.133,53.40001 236.133,61.00003 118.133,7.59997 11.467,-3.80003 148.667,18.99997 137.066,22.90002 -266.667,22.90002 186.533,22.90002 453.467,0 323.867,-22.90002 495.333,0 171.467,22.89865 -133.333,-3.79998 308.534,34.29866 441.867,38.09999 217.2,26.60003 518,38.09999 301.067,11.4 163.867,0 403.867,0 240,0 213.333,3.8 274.266,-22.89996 61.067,-26.60004 56.667,-74.49871 56.667,-74.49871 -64.267,-13.09999 -148,-81.69999 -235.6,-81.69999 z"
       style="fill:#f7e5cd;fill-opacity:1;fill-rule:evenodd;stroke:#000000;stroke-width:6.69995165px;stroke-linecap:butt;stroke-linejoin:miter;stroke-miterlimit:4;stroke-dasharray:none;stroke-opacity:1" />
    <path
       inkscape:connector-curvature="0"
       id="path4758"
       d="m 22949.95,1033.4622 c 32.4,0 199.334,-75.4 239.734,-83.5 40.399,-8.09863 -51.2,-5.39863 132,-13.39866 183.2,-8.1 255.867,-48.5 379.866,-53.9 123.867,-5.4 250.401,-21.6 331.2,-21.6 80.934,0 54,-16.09999 274.8,-24.19999 220.934,-8.10001 158.934,-16.20001 328.667,-16.20001 169.734,0 96.934,-21.50003 245.201,-5.4 148.133,16.20001 150.799,-18.80003 201.999,40.39999 51.201,59.3 18.934,32.40001 62.001,86.20004 43.066,53.89863 10.666,56.59863 72.666,64.69863 61.867,8.1 48.534,-10.8 75.467,8.1 26.933,18.8 62,61.9 62,61.9 0,0 121.2,67.3961 -207.467,86.196 -328.667,18.9068 150.8,37.7067 -598.133,105.1067 -748.801,67.2934 -856.534,80.8001 -1115.2,56.6001 -258.534,-24.3067 -325.868,-10.8 -379.734,-40.4001 -53.867,-29.7066 -105.067,-250.6027 -105.067,-250.6027 z"
       style="fill:#c4987b;fill-opacity:1;fill-rule:evenodd;stroke:#000000;stroke-width:6.69995165px;stroke-linecap:butt;stroke-linejoin:miter;stroke-miterlimit:4;stroke-dasharray:none;stroke-opacity:1" />
    <path
       inkscape:connector-curvature="0"
       id="path4760"
       d="m 33032.353,819.96353 -163.867,-41.9 -76.133,-38.09868 -87.6,-3.79998 c 0,0 -61.067,-61.00003 -114.267,-61.00003 -53.467,0 -129.6,-3.79999 -144.8,-11.4 -15.201,-7.60002 -57.201,-30.5 -95.2,-38.10001 -38.133,-7.60002 -7.734,-19.00002 -83.867,-7.60002 -76.134,11.4 -72.4,26.70001 -125.733,34.30002 -53.334,7.60002 -45.734,22.80001 -91.467,22.80001 -45.733,0 -22.8,11.50002 -64.667,0 -42,-11.4 -91.467,-64.7 -144.8,-72.30002 -53.333,-7.69998 -19.067,-22.8987 -68.666,-7.69998 -49.467,15.3 -26.534,26.7 -95.201,26.7 -68.533,0 -99.066,-49.49869 -160,-49.49869 -60.933,0 -11.333,-30.50004 -99.066,0 -87.6,30.49867 -34.267,26.69869 -114.267,38.09869 -80,11.4 -41.867,-11.4 -160,11.4 -118,22.89998 -45.733,15.30001 -148.533,22.89998 -102.934,7.60001 -80,-26.70001 -152.4,7.60001 -72.4,34.30003 -7.6,34.30003 -110.534,45.70003 -102.667,11.4 -110.4,0 -190.4,11.4 -80,11.49997 -64.667,11.49997 -114.266,22.89997 -49.6,11.40001 -87.6,22.80001 -87.6,22.80001 0,0 -45.734,-3.79999 30.399,3.9 76.267,7.59869 99.201,15.19866 262.934,15.19866 163.733,0 121.867,-19.09866 178.933,0 57.2,19.00002 -57.066,-22.89865 99.2,22.90002 156.134,45.70003 -19.2,57.10003 182.8,45.70003 201.867,-11.50002 224.8,-11.50002 342.8,-22.90002 118.134,-11.40001 -91.333,-11.40001 163.867,-11.40001 255.2,0 156.133,-11.4 289.467,0 133.333,11.40001 41.866,0 156.267,11.40001 114.266,11.4 -205.734,22.90002 186.666,22.90002 l 407.601,0 c 186.666,0 98.933,34.29997 274.266,0 55.067,-2.7 58.667,5.1 118.134,-22.90002 z"
       style="fill:#575965;fill-opacity:1;fill-rule:evenodd;stroke:#000000;stroke-width:6.69995165px;stroke-linecap:butt;stroke-linejoin:miter;stroke-miterlimit:4;stroke-dasharray:none;stroke-opacity:1" />
    <path
       inkscape:connector-curvature="0"
       id="path4762"
       d="m 36430.353,793.26352 c 0,0 186.534,381.60138 213.2,366.40138 26.8,-15.3066 3411.734,-180.10266 3453.601,-203.00268 41.867,-22.79868 70.267,-189.99869 70.267,-189.99869 0,0 -182.8,-76.19869 -228.534,-64.79869 -45.733,11.40001 7.733,11.40001 -102.8,11.40001 -110.533,0 -148.667,22.90002 -247.6,11.50001 -99.067,-11.50001 -102.933,-22.90002 -160,-34.30002 -57.2,-11.4 -45.733,-95.3 -179.067,-91.4 -133.333,3.79998 -156.266,-15.29868 -289.466,26.59999 -133.333,41.89999 -76.267,41.89999 -213.334,41.89999 -137.2,0 -133.466,11.50002 -209.6,0 -76.266,-11.4 -45.733,-11.4 -156.266,-11.4 -110.4,0 -83.734,-7.59997 -198,11.4 -114.267,19.10004 -64.8,0 -179.067,22.90002 -114.267,22.80001 -95.2,-22.90002 -205.734,22.80001 -110.4,45.79999 -76.133,34.30002 -163.733,45.79999 -87.6,11.39868 -49.466,0 -186.667,11.39868 -137.199,11.4 -182.799,22.8 -251.466,22.8 -68.534,0 38.133,11.50002 -114.267,0 -152.4,-11.4 -171.467,-11.4 -285.734,-11.4 -114.266,0 -57.199,11.4 -148.533,0 -91.467,-11.4 -60.933,-18.99865 -129.6,-11.4 -68.533,7.60001 -87.6,22.8 -87.6,22.8 z"
       style="fill:#8c7b5d;fill-opacity:1;fill-rule:evenodd;stroke:#000000;stroke-width:6.69995165px;stroke-linecap:butt;stroke-linejoin:miter;stroke-miterlimit:4;stroke-dasharray:none;stroke-opacity:1" />
    <path
       inkscape:connector-curvature="0"
       id="path4764"
       d="m 34865.953,1181.665 c 16.133,-26.9067 242.533,-409.5015 242.533,-409.5015 l 199.2,37.80001 c 21.6,10.70003 80.8,26.90004 80.8,26.90004 91.6,32.29999 123.067,-20.50002 123.067,-20.50002 124,0 183.2,-16.09999 183.2,-16.09999 l 215.6,0 c 150.8,0 247.733,16.09999 247.733,16.09999 199.467,21.6 314.267,-4.99999 314.267,-4.99999 247.734,5.4 326.8,-16.5 326.8,-16.5 183.2,-21.60001 238,15.09997 238,15.09997 166.933,16.10003 220.8,16.10003 220.8,16.10003 242.4,48.5 296.4,64.7 296.4,64.7 193.867,32.29999 328.534,32.29999 328.534,32.29999 172.4,0 269.467,-21.6 269.467,-21.6 220.8,-16.09999 258.533,-48.39998 258.533,-48.39998 l 150.8,0 264,0 c 161.734,26.89999 199.467,26.89999 199.467,26.89999 242.4,16.2 312.4,-16.2 312.4,-16.2 188.533,0 242.4,-21.49999 242.4,-21.49999 145.467,21.49999 220.933,5.4 220.933,5.4 150.8,16.09999 210.134,-5.4 210.134,-5.4 91.6,-10.8 118.4,-27.00001 118.4,-27.00001 86.266,21.60001 113.066,-5.7 113.066,-5.7 26.934,21.49999 32.267,26.89999 32.267,26.89999 l 1249.867,89 c -86.267,70.09867 -1783.067,466.29477 -1783.067,466.29477 -1136.8,145.5067 -1460.001,161.6 -1460.001,161.6 -662.666,0 -1255.2,-53.8 -1255.2,-53.8 -1654,-91.6 -1907.2,-113.2 -1907.2,-113.2 -177.734,-53.8933 -274.667,-220.8933 -274.667,-220.8933 z"
       style="fill:#e1c5ad;fill-opacity:1;fill-rule:evenodd;stroke:#000000;stroke-width:6.69995165px;stroke-linecap:butt;stroke-linejoin:miter;stroke-miterlimit:4;stroke-dasharray:none;stroke-opacity:1" />
    <path
       inkscape:connector-curvature="0"
       id="path4766"
       d="m 33880.086,789.76354 c 0,0 -215.6,22.8 -256,22.8 -40.4,0 -414.8,-4.00002 -433.6,-1.30001 -18.8,2.7 -289.6,17.50001 -297.6,17.50001 -8.133,0 -330,-16.2 -335.467,-16.2 -5.333,0 -106.4,79.50002 -106.4,86.19999 0,6.80003 -1325.334,-2.59999 -1325.334,-2.59999 l -246.4,78.09867 c -21.6,13.40003 -39.2,30.99999 -39.2,30.99999 -10.666,9.4 -55.2,65.9 -55.2,65.9 -5.333,6.8001 1414.267,64.7027 1414.267,64.7027 l 2258.667,-8.1066 -301.733,-352.8948 z"
       style="fill:#c19e7e;fill-opacity:1;fill-rule:evenodd;stroke:#000000;stroke-width:6.69995165px;stroke-linecap:butt;stroke-linejoin:miter;stroke-miterlimit:4;stroke-dasharray:none;stroke-opacity:1" />
    <path
       inkscape:connector-curvature="0"
       id="path4768"
       d="m 32514.219,827.56354 c -87.6,0 15.2,-11.4 -198.133,-11.4 -213.334,0 -293.334,-7.60002 -396.134,-7.60002 -102.933,0 -156.267,-11.4 -312.4,-11.4 l -293.333,0 c -182.934,0 -259.334,-19.90002 -384.8,-28.2 l -160,-10.69867 c -53.201,-3.6 -57.067,22.89865 -186.667,0 -129.467,-22.90001 -156.133,-29.7 -220.933,-6.9 -64.8,22.89865 -41.867,22.89865 -95.2,22.89865 -53.334,0 -64.8,-11.39863 -137.201,-11.39863 -72.399,0 -60.8,-19.10003 -102.8,0 -41.866,18.99865 -72.4,34.29865 -22.8,45.69865 49.467,11.40001 -72.4,-26.7 118.001,22.80001 190.533,49.60003 118.133,53.40001 236.266,61.00003 118.133,7.59997 11.333,-3.80003 148.534,18.99997 137.066,22.90002 -266.667,22.90002 186.666,22.90002 453.334,0 323.734,-22.90002 495.2,0 171.467,22.89865 -133.333,-3.79998 308.534,34.29866 441.867,38.09999 217.2,26.60003 518.133,38.09999 300.934,11.4 163.734,0 403.734,0 240,0 213.466,3.8 274.4,-22.89996 60.933,-26.60004 56.666,-74.49871 56.666,-74.49871 -64.266,-13.09999 -148.133,-81.69999 -235.733,-81.69999 z"
       style="fill:#f7e5cd;fill-opacity:1;fill-rule:evenodd;stroke:#000000;stroke-width:6.69995165px;stroke-linecap:butt;stroke-linejoin:miter;stroke-miterlimit:4;stroke-dasharray:none;stroke-opacity:1" />
    <path
       inkscape:connector-curvature="0"
       id="path4770"
       d="m 34678.086,774.2635 c 0,0 -148.666,-68.59867 -205.733,-68.59867 -57.2,0 -251.467,15.3 -377.2,15.3 -125.734,0 -331.467,87.59869 -331.467,87.59869 l 533.333,49.50002 z"
       style="fill:#efddc7;fill-opacity:1;fill-rule:evenodd;stroke:#000000;stroke-width:6.69995165px;stroke-linecap:butt;stroke-linejoin:miter;stroke-miterlimit:4;stroke-dasharray:none;stroke-opacity:1" />
    <path
       inkscape:connector-curvature="0"
       id="path4772"
       d="m 34994.219,618.06481 c 0,0 182.801,38.10001 198.134,49.50001 15.2,11.50002 156.133,19.10004 171.333,19.10004 15.2,0 358.134,-15.30001 358.134,-15.30001 0,0 308.533,-15.20003 335.2,7.69999 26.666,22.8 213.333,26.59999 289.6,53.29999 76.133,26.70001 240,91.39868 262.8,79.99868 22.933,-11.4 -148.667,68.60005 -201.867,57.10003 -53.333,-11.4 -369.6,-57.10003 -472.4,-57.10003 -102.8,0 -468.533,53.30004 -777.2,38.10001 -308.533,-15.30001 -714.667,-2.59999 -775.6,-2.59999 -60.934,0 144.133,-67.90003 144.133,-67.90003 l 6.667,-17.59866 c 26.8,-10.99999 461.066,-144.30003 461.066,-144.30003 z"
       style="fill:#f3e4d1;fill-opacity:1;fill-rule:evenodd;stroke:#000000;stroke-width:6.69995165px;stroke-linecap:butt;stroke-linejoin:miter;stroke-miterlimit:4;stroke-dasharray:none;stroke-opacity:1" />
    <path
       inkscape:connector-curvature="0"
       id="path4774"
       d="m 33001.953,1033.4622 c 32.266,0 199.333,-75.4 239.733,-83.5 40.4,-8.09863 -51.2,-5.39863 132,-13.39866 183.2,-8.1 255.867,-48.5 379.733,-53.9 123.867,-5.4 250.534,-21.6 331.334,-21.6 80.933,0 53.866,-16.09999 274.8,-24.19999 220.933,-8.10001 158.933,-16.20001 328.533,-16.20001 169.867,0 97.067,-21.50003 245.2,-5.4 148.134,16.20001 150.8,-18.80003 202,40.39999 51.2,59.3 18.934,32.40001 62,86.20004 43.067,53.89863 10.667,56.59863 72.667,64.69863 62,8.1 48.533,-10.8 75.467,8.1 26.933,18.8 62,61.9 62,61.9 0,0 121.2,67.3961 -207.467,86.196 -328.667,18.9068 150.8,37.7067 -598,105.1067 -748.8,67.2934 -856.667,80.8001 -1115.2,56.6001 -258.667,-24.3067 -325.867,-10.8 -379.867,-40.4001 -53.867,-29.7066 -104.933,-250.6027 -104.933,-250.6027 z"
       style="fill:#c4987b;fill-opacity:1;fill-rule:evenodd;stroke:#000000;stroke-width:6.69995165px;stroke-linecap:butt;stroke-linejoin:miter;stroke-miterlimit:4;stroke-dasharray:none;stroke-opacity:1" />
    <g
       id="g4210" />
  </g>
  <g
     inkscape:groupmode="layer"
     id="layer1"
     inkscape:label="bird"
     style="display:none">
    <g
       transform="matrix(-0.38499866,0,0,0.38499866,204.22603,49.462824)"
       id="layer1-5"
       inkscape:label="Ebene 1"
       style="fill:#a05a2c;stroke:#2b1100;stroke-width:12.98705864;stroke-miterlimit:4;stroke-dasharray:none">
      <path
         inkscape:connector-curvature="0"
         id="path5510"
         d="m 308.65625,495.28125 c -0.55306,0.0169 -1.10391,0.0556 -1.6875,0.125 C 288.29402,497.62708 292.29998,508.16124 285,517 c -7.29998,8.83876 -2.06309,21.69128 -9.65625,33.21875 -35.04614,32.50819 -41.06063,38.97216 -48.375,-22.15625 -28.74026,-34.30549 -50.72823,-23.44742 -49.65625,-5.6875 1.07198,17.75992 -9.51668,2.36043 -12.5,5.34375 -2.98332,2.98332 -7.14832,7.30678 -6.25,11.78125 0.89832,4.47447 7.54265,4.86449 9.28125,11.4375 1.7386,6.57301 -0.94812,15.38177 -3.03125,25.875 -2.08313,10.49323 -8.32309,24.24346 -6.96875,36.96875 1.35434,12.72529 3.62641,24.71317 13.59375,35 9.96734,10.28683 25.76344,22.0499 42.125,21.4375 16.36156,-0.6124 36.69944,-33.77652 43.59375,-26.4375 6.89431,7.33902 -18.97675,39.27129 17.84375,49.28125 4.64326,15.54583 8.09742,36.14471 5,45.71875 -3.09742,9.57404 9.09902,3.06607 15,1.4375 5.90098,-1.62857 -5.6833,-15.65064 -3.5625,-17.15625 2.1208,-1.50561 4.59714,-11.94235 4.09375,-17.3125 2.05565,-4.68632 4.68315,-7.62325 12.3125,-3.9375 3.3662,2.5287 4.22349,5.2497 5.71875,9.125 1.49526,3.8753 4.54219,4.01044 6.4375,10 1.89531,5.98956 0.52169,23.66253 0.71875,25.71875 0.19706,2.05622 17.40599,3.19509 17.84375,-2.875 0.43776,-6.07009 -7.96461,-19.55049 -7.5,-38.03125 0.46461,-18.48076 7.08805,-7.95804 9.28125,-27.84375 2.1932,-19.88571 14.77772,-3.13637 20.5625,-9.46875 5.78478,-6.33238 29.17471,-16.13199 34.4375,-23.5625 19.79595,24.37794 21.46039,12.39942 23.21875,29.625 1.75836,17.22558 -0.30817,24.15072 -0.15625,33.75 0.15191,9.59928 -8.49355,25.11989 -8.40625,31.25 0.0873,6.13011 -0.13308,-1.21983 7.84375,-0.53125 7.97682,0.68858 5.24181,-26.71277 12.15625,-26.59375 6.91444,0.11902 -0.95719,17.20233 2.15625,20 3.11344,2.79767 2.8134,5.52747 5,0 2.1866,-5.52747 2.70244,-36.7803 6.59375,-38.9375 3.89131,-2.15721 -9.78079,-23.68538 -7.5,-28.40625 2.28079,-4.72087 -1.39893,5.25744 4.28125,-3.21875 5.68018,-8.47619 9.60453,-46.47271 5.90625,-61.78125 -3.69828,-15.30854 -16.50761,-13.87654 -20,-24.09375 -3.49239,-10.21721 1.06132,-14.44104 -2.875,-26.25 -3.93632,-11.80896 -15.33796,-36.30546 -29.46875,-42.875 -14.13079,-6.56954 -27.73952,-3.66085 -37.65625,6.09375 -9.91673,9.7546 -6.24627,35.69903 -9.84375,39.09375 -3.59747,3.39472 -9.63918,-5.39159 -13.90625,-19.46875 -4.13371,-13.63725 -6.88648,-37.77257 -24.03125,-37.25 z m -110.78125,33.25 c 1.34771,-0.15955 2.49716,1.20929 3.6875,2.21875 -2.36417,1.74521 -4.601,2.62897 -6.375,0.125 1.01379,-1.61983 1.87887,-2.24802 2.6875,-2.34375 z m -33.78125,11.0625 15.46875,0.28125 c -0.23768,0.8081 -14.12505,1.36445 -15.46875,-0.28125 z"
         style="fill:#a05a2c;stroke:#2b1100;stroke-width:12.98705864;stroke-linecap:butt;stroke-linejoin:miter;stroke-miterlimit:4;stroke-dasharray:none;stroke-opacity:1" />
    </g>
  </g>
  <g
     inkscape:groupmode="layer"
     id="layer4"
     inkscape:label="startscreen"
     style="display:none">
    <text
       xml:space="preserve"
       style="font-style:normal;font-variant:normal;font-weight:normal;font-stretch:normal;font-size:70px;line-height:125%;font-family:Aleo;-inkscape-font-specification:Aleo;letter-spacing:0px;word-spacing:0px;fill:#000000;fill-opacity:1;stroke:none;stroke-width:1px;stroke-linecap:butt;stroke-linejoin:miter;stroke-opacity:1"
       x="243.67596"
       y="203.03279"
       id="text4138"
       sodipodi:linespacing="125%"><tspan
         sodipodi:role="line"
         id="tspan4140"
         x="251.1955"
         y="203.03279"
         style="text-align:center;text-anchor:middle">JoJo Let's </tspan><tspan
         sodipodi:role="line"
         x="243.67596"
         y="290.53278"
         id="tspan4146"
         style="text-align:center;text-anchor:middle">Gooo</tspan></text>
    <path
       style="fill:#008000;fill-rule:evenodd;stroke:#008000;stroke-width:1px;stroke-linecap:butt;stroke-linejoin:miter;stroke-opacity:1"
       d="M 187.83413,486.76013 301.50378,388.10268 182.81547,347.13244 Z"
       id="path4152"
       inkscape:connector-curvature="0"
       inkscape:label="#path4152"
       onclick="startGame();"
       onmouseup=""
       onload="" />
  </g>
  <g
     inkscape:groupmode="layer"
     id="layer5"
     inkscape:label="debugOverlay"
     style="display:none">
    <text
       xml:space="preserve"
       style="font-style:normal;font-variant:normal;font-weight:normal;font-stretch:normal;font-size:12.5px;line-height:125%;font-family:Aleo;-inkscape-font-specification:Aleo;letter-spacing:0px;word-spacing:0px;fill:#000000;fill-opacity:1;stroke:none;stroke-width:1px;stroke-linecap:butt;stroke-linejoin:miter;stroke-opacity:1"
       x="10.346291"
       y="18.742029"
       id="debugString"
       sodipodi:linespacing="125%"><tspan
         sodipodi:role="line"
         id="tspan4151"
         x="10.346291"
         y="18.742029">debugString</tspan></text>
  </g>
  <g
     inkscape:groupmode="layer"
     id="layer6"
     inkscape:label="hull"
     style="display:none">
    <path
       style="color:#000000;display:inline;overflow:visible;visibility:visible;opacity:0.65700001;fill:#000000;fill-opacity:1;fill-rule:nonzero;stroke:none;stroke-width:5;stroke-linecap:butt;stroke-linejoin:miter;stroke-miterlimit:4;stroke-dasharray:none;stroke-dashoffset:0;stroke-opacity:1;marker:none;enable-background:accumulate"
       d="m -1182.938,-474.408 0,1548.816 2825.876,0 0,-1548.816 z M 0,0 480,0 480,600 0,600 Z"
       id="rect4822"
       inkscape:connector-curvature="0"
       sodipodi:nodetypes="cccccccccc" />
  </g>
</svg>
