<?xml version="1.0" encoding="UTF-8" standalone="no"?>
<!-- Created with Inkscape (http://www.inkscape.org/) -->

<svg
   xmlns:dc="http://purl.org/dc/elements/1.1/"
   xmlns:cc="http://creativecommons.org/ns#"
   xmlns:rdf="http://www.w3.org/1999/02/22-rdf-syntax-ns#"
   xmlns:svg="http://www.w3.org/2000/svg"
   xmlns="http://www.w3.org/2000/svg"
   xmlns:xlink="http://www.w3.org/1999/xlink"
   xmlns:sodipodi="http://sodipodi.sourceforge.net/DTD/sodipodi-0.dtd"
   xmlns:inkscape="http://www.inkscape.org/namespaces/inkscape"
   width="480"
   height="600"
   viewBox="0 0 480 600"
   id="svg2"
   version="1.1"
   inkscape:version="0.91 r13725"
   sodipodi:docname="flappy.svg"
   enable-background="new">
  <script
     xlink:href="javascript/gameObject.js"
     id="script0" />
  <script
     xlink:href="javascript/threading.js"
     id="script0" />
  <script
     xlink:href="javascript/background.js"
     id="script0" />
  <script
     xlink:href="javascript/debug.js"
     id="script1" />
  <script
     xlink:href="javascript/flapping.js"
     id="script2" />
  <script
     xlink:href="javascript/layers.js"
     id="script3" />
  <script
     xlink:href="javascript/scaling.js"
     id="script4" />
  <script
     xlink:href="javascript/start.js"
     id="script5" />
  <script
     xlink:href="javascript/start_screen.js"
     id="script6" />
  <defs
     id="defs4">
    <linearGradient
       id="linearGradient4847"
       inkscape:collect="always">
      <stop
         id="stop4851"
         offset="0"
         style="stop-color:#87cdde;stop-opacity:1;" />
      <stop
         id="stop4853"
         offset="1"
         style="stop-color:#87cdde;stop-opacity:0;" />
    </linearGradient>
    <pattern
       y="0"
       x="0"
       height="6"
       width="6"
       patternUnits="userSpaceOnUse"
       id="EMFhbasepattern" />
    <pattern
       y="0"
       x="0"
       height="6"
       width="6"
       patternUnits="userSpaceOnUse"
       id="EMFhbasepattern-1" />
    <pattern
       y="0"
       x="0"
       height="6"
       width="6"
       patternUnits="userSpaceOnUse"
       id="EMFhbasepattern-2" />
    <linearGradient
       inkscape:collect="always"
       xlink:href="#linearGradient4847"
       id="linearGradient4839"
       x1="6203.7036"
       y1="-100.15549"
       x2="6203.7036"
       y2="331.33569"
       gradientUnits="userSpaceOnUse"
       gradientTransform="matrix(1.418405,0,0,1.2743821,-4525.7679,287.7329)" />
  </defs>
  <sodipodi:namedview
     id="base"
     pagecolor="#ffffff"
     bordercolor="#666666"
     borderopacity="1.0"
     inkscape:pageopacity="0.0"
     inkscape:pageshadow="2"
     inkscape:zoom="0.065140368"
     inkscape:cx="7826.0367"
     inkscape:cy="4605.3096"
     inkscape:document-units="px"
     inkscape:current-layer="layer2"
     showgrid="false"
     inkscape:window-width="1920"
     inkscape:window-height="1005"
     inkscape:window-x="-9"
     inkscape:window-y="-9"
     inkscape:window-maximized="1"
     units="px"
     inkscape:snap-smooth-nodes="true"
     inkscape:object-nodes="true" />
  <metadata
     id="metadata7">
    <rdf:RDF>
      <cc:Work
         rdf:about="">
        <dc:format>image/svg+xml</dc:format>
        <dc:type
           rdf:resource="http://purl.org/dc/dcmitype/StillImage" />
        <dc:title />
        <cc:license
           rdf:resource="http://creativecommons.org/licenses/by-sa/3.0/" />
        <dc:creator>
          <cc:Agent>
            <dc:title>Nicco Kunzmann</dc:title>
          </cc:Agent>
        </dc:creator>
        <dc:contributor>
          <cc:Agent>
            <dc:title>Nicco Kunzmann, </dc:title>
          </cc:Agent>
        </dc:contributor>
      </cc:Work>
      <cc:License
         rdf:about="http://creativecommons.org/licenses/by-sa/3.0/">
        <cc:permits
           rdf:resource="http://creativecommons.org/ns#Reproduction" />
        <cc:permits
           rdf:resource="http://creativecommons.org/ns#Distribution" />
        <cc:requires
           rdf:resource="http://creativecommons.org/ns#Notice" />
        <cc:requires
           rdf:resource="http://creativecommons.org/ns#Attribution" />
        <cc:permits
           rdf:resource="http://creativecommons.org/ns#DerivativeWorks" />
        <cc:requires
           rdf:resource="http://creativecommons.org/ns#ShareAlike" />
      </cc:License>
    </rdf:RDF>
  </metadata>
  <g
     inkscape:groupmode="layer"
     id="layer3"
     inkscape:label="show this layer but do not touch it"
     style="display:inline"
     transform="translate(0,-452.36216)" />
  <g
     inkscape:groupmode="layer"
     id="layer2"
     inkscape:label="background"
     style="display:inline"
     transform="translate(0,-452.36216)">
    <path
       style="fill:url(#linearGradient4839);fill-opacity:1;fill-rule:evenodd;stroke:none"
       d="m -10725.098,232.40431 0,819.95789 28515.43,0 28515.43,0 0,-819.95789 -28515.43,0 -28515.43,0 z"
       id="path4704"
       inkscape:connector-curvature="0" />
    <path
       inkscape:connector-curvature="0"
       id="path4706"
       d="m 6274.6271,793.26352 c 0,0 186.4936,381.60138 213.1996,366.40138 26.694,-15.3066 3411.72,-180.10266 3453.588,-203.00268 41.867,-22.79868 70.2673,-189.99869 70.2673,-189.99869 0,0 -182.8003,-76.19869 -228.5343,-64.79869 -45.733,11.40001 7.601,11.40001 -102.799,11.40001 -110.534,0 -148.667,22.90002 -247.601,11.50001 -99.2,-11.50001 -102.934,-22.90002 -160,-34.30002 -57.2,-11.4 -45.867,-95.3 -179.2,-91.4 -133.2,3.79998 -156.134,-15.29868 -289.467,26.59999 -133.333,41.89999 -76.133,41.89999 -213.333,41.89999 -137.2,0 -133.334,11.50002 -209.601,0 -76.133,-11.4 -45.6,-11.4 -156.133,-11.4 -110.4,0 -83.867,-7.59997 -198.133,11.4 -114.16,19.10004 -64.667,0 -178.96,22.90002 -114.307,22.80001 -95.2,-22.90002 -205.707,22.80001 -110.493,45.79999 -76.2,34.30002 -163.8,45.79999 -87.6,11.39868 -49.493,0 -186.693,11.39868 -137.094,11.4 -182.801,22.8 -251.4,22.8 -68.6,0 38.106,11.50002 -114.294,0 -152.4,-11.4 -171.4,-11.4 -285.707,-11.4 -114.293,0 -57.2,11.4 -148.599,0 -91.401,-11.4 -60.894,-18.99865 -129.494,-11.4 -68.6,7.60001 -87.5996,22.8 -87.5996,22.8 z"
       style="fill:#8c7b5d;fill-opacity:1;fill-rule:evenodd;stroke:#000000;stroke-width:6.69995165px;stroke-linecap:butt;stroke-linejoin:miter;stroke-miterlimit:4;stroke-dasharray:none;stroke-opacity:1" />
    <path
       inkscape:connector-curvature="0"
       id="path4708"
       d="m 4710.1333,1181.665 c 16.2,-26.9067 242.5064,-409.5015 242.5064,-409.5015 l 199.2936,37.80001 c 21.6,10.70003 80.8001,26.90004 80.8001,26.90004 91.5998,32.29999 123.1064,-20.50002 123.1064,-20.50002 123.8934,0 183.1871,-16.09999 183.1871,-16.09999 l 215.5063,0 c 150.8004,0 247.8001,16.09999 247.8001,16.09999 199.4004,21.6 314.2002,-4.99999 314.2002,-4.99999 247.7872,5.4 326.8932,-16.5 326.8932,-16.5 183.201,-21.60001 237.894,15.09997 237.894,15.09997 166.999,16.10003 220.906,16.10003 220.906,16.10003 242.387,48.5 296.294,64.7 296.294,64.7 193.893,32.29999 328.6,32.29999 328.6,32.29999 172.4,0 269.36,-21.6 269.36,-21.6 220.933,-16.09999 258.667,-48.39998 258.667,-48.39998 l 150.8,0 264,0 c 161.6,26.89999 199.333,26.89999 199.333,26.89999 242.4,16.2 312.4,-16.2 312.4,-16.2 188.667,0 242.534,-21.49999 242.534,-21.49999 145.333,21.49999 220.933,5.4 220.933,5.4 150.8,16.09999 210,-5.4 210,-5.4 91.601,-10.8 118.534,-27.00001 118.534,-27.00001 86.2663,21.60001 113.0673,-5.7 113.0673,-5.7 26.799,21.49999 32.266,26.89999 32.266,26.89999 l 1249.733,89 c -86.134,70.09867 -1782.9343,466.29477 -1782.9343,466.29477 -1136.8,145.5067 -1460,161.6 -1460,161.6 -662.693,0 -1255.293,-53.8 -1255.293,-53.8 -1653.881,-91.6 -1907.1873,-113.2 -1907.1873,-113.2 -177.6936,-53.8933 -274.6938,-220.8933 -274.6938,-220.8933 z"
       style="fill:#e1c5ad;fill-opacity:1;fill-rule:evenodd;stroke:#000000;stroke-width:6.69995165px;stroke-linecap:butt;stroke-linejoin:miter;stroke-miterlimit:4;stroke-dasharray:none;stroke-opacity:1" />
    <path
       inkscape:connector-curvature="0"
       id="path4710"
       d="m 4522.2398,774.2635 c 0,0 -148.6002,-68.59867 -205.6933,-68.59867 -57.1999,0 -251.5068,15.3 -377.2003,15.3 -125.7066,0 -331.3999,87.59869 -331.3999,87.59869 l 533.2934,49.50002 z"
       style="fill:#efddc7;fill-opacity:1;fill-rule:evenodd;stroke:#000000;stroke-width:6.69995165px;stroke-linecap:butt;stroke-linejoin:miter;stroke-miterlimit:4;stroke-dasharray:none;stroke-opacity:1" />
    <path
       inkscape:connector-curvature="0"
       id="path4712"
       d="m 4838.4398,618.06481 c 0,0 182.8002,38.10001 198.0936,49.50001 15.1999,11.50002 156.1999,19.10004 171.3997,19.10004 15.2003,0 358.0938,-15.30001 358.0938,-15.30001 0,0 308.5999,-15.20003 335.1998,7.69999 26.7066,22.8 213.4002,26.59999 289.6002,53.29999 76.1065,26.70001 239.9998,91.39868 262.7998,79.99868 22.893,-11.4 -148.5999,68.60005 -201.8932,57.10003 -53.3065,-11.4 -369.5065,-57.10003 -472.3999,-57.10003 -102.8004,0 -468.4938,53.30004 -777.0937,38.10001 -308.6,-15.30001 -714.6933,-2.59999 -775.6934,-2.59999 -60.9067,0 144.1998,-67.90003 144.1998,-67.90003 l 6.6,-17.59866 c 26.8002,-10.99999 461.0935,-144.30003 461.0935,-144.30003 z"
       style="fill:#f3e4d1;fill-opacity:1;fill-rule:evenodd;stroke:#000000;stroke-width:6.69995165px;stroke-linecap:butt;stroke-linejoin:miter;stroke-miterlimit:4;stroke-dasharray:none;stroke-opacity:1" />
    <path
       inkscape:connector-curvature="0"
       id="path4714"
       d="m -5341.7893,1181.665 c 16.2,-26.9067 242.4992,-409.5015 242.4992,-409.5015 l 199.2974,37.80001 c 21.6,10.70003 80.7997,26.90004 80.7997,26.90004 91.5988,32.29999 123.0988,-20.50002 123.0988,-20.50002 123.9,0 183.1989,-16.09999 183.1989,-16.09999 l 215.4983,0 c 150.799,0 247.7991,16.09999 247.7991,16.09999 199.3957,21.6 314.196,-4.99999 314.196,-4.99999 247.8001,5.4 326.8933,-16.5 326.8933,-16.5 183.1999,-21.60001 237.9067,15.09997 237.9067,15.09997 166.9999,16.10003 220.8936,16.10003 220.8936,16.10003 242.4,48.5 296.2933,64.7 296.2933,64.7 193.9068,32.29999 328.6002,32.29999 328.6002,32.29999 172.3999,0 269.4001,-21.6 269.4001,-21.6 220.9063,-16.09999 258.6,-48.39998 258.6,-48.39998 l 150.7999,0 264.0001,0 c 161.6934,26.89999 199.3998,26.89999 199.3998,26.89999 242.40013,16.2 312.40033,-16.2 312.40033,-16.2 188.5866,0 217.54687,-64.67598 217.54687,-64.67598 145.4004,21.49999 220.8936,5.4 220.8936,5.4 150.7999,16.09999 210.1069,-5.4 210.1069,-5.4 91.5997,-10.8 118.4934,-27.00001 118.4934,-27.00001 86.199703,21.60001 137.945932,37.47599 137.945932,37.47599 26.8933,21.49999 32.2933,26.89999 32.2933,26.89999 l 1249.800268,89 c -86.1997,70.09867 -1782.98687,466.29477 -1782.98687,466.29477 -1136.80043,145.5067 -1459.98693,161.6 -1459.98693,161.6 -662.7068,0 -1255.2938,-53.8 -1255.2938,-53.8 -1653.8909,-91.6 -1907.1897,-113.2 -1907.1897,-113.2 -177.6983,-53.8933 -274.6976,-220.8933 -274.6976,-220.8933 z"
       style="fill:#e1c5ad;fill-opacity:1;fill-rule:evenodd;stroke:#000000;stroke-width:6.69995165px;stroke-linecap:butt;stroke-linejoin:miter;stroke-miterlimit:4;stroke-dasharray:none;stroke-opacity:1"
       sodipodi:nodetypes="ccccccscccccccccccccccccccccccccc" />
    <path
       inkscape:connector-curvature="0"
       id="path4716"
       d="m 3724.2396,789.76354 c 0,0 -215.4931,22.8 -255.8935,22.8 -40.3998,0 -414.7999,-4.00002 -433.6933,-1.30001 -18.7998,2.7 -289.6002,17.50001 -297.6001,17.50001 -8.0933,0 -330,-16.2 -335.4,-16.2 -5.4,0 -106.3999,79.50002 -106.3999,86.19999 0,6.80003 -1325.29397,-2.59999 -1325.29397,-2.59999 l -246.4933,78.09867 c -21.6,13.40003 -39.093,30.99999 -39.093,30.99999 -10.707,9.4 -55.2001,65.9 -55.2001,65.9 -5.4,6.8001 1414.18667,64.7027 1414.18667,64.7027 l 2258.6806,-8.1066 -301.6933,-352.8948 z"
       style="fill:#c19e7e;fill-opacity:1;fill-rule:evenodd;stroke:#000000;stroke-width:6.69995165px;stroke-linecap:butt;stroke-linejoin:miter;stroke-miterlimit:4;stroke-dasharray:none;stroke-opacity:1" />
    <path
       inkscape:connector-curvature="0"
       id="path4718"
       d="m 2876.5462,819.96353 -163.7868,-41.9 -76.2001,-38.09868 -87.6,-3.79998 c 0,0 -61.0001,-61.00003 -114.3066,-61.00003 -53.4,0 -129.6,-3.79999 -144.7999,-11.4 -15.2003,-7.60002 -57.0935,-30.5 -95.2002,-38.10001 -38.0934,-7.60002 -7.6932,-19.00002 -83.8001,-7.60002 -76.2001,11.4 -72.3997,26.70001 -125.7998,34.30002 -53.2937,7.60002 -45.6935,22.80001 -91.4003,22.80001 -45.6931,0 -22.8,11.50002 -64.6932,0 -42,-11.4 -91.4934,-64.7 -144.7999,-72.30002 -53.2932,-7.69998 -19.0932,-22.8987 -68.6003,-7.69998 -49.493,15.3 -26.5999,26.7 -95.1997,26.7 -68.6004,0 -99.0936,-49.49869 -160.0002,-49.49869 -61.0002,0 -11.4,-30.50004 -99.0931,0 -87.6,30.49867 -34.3068,26.69869 -114.3071,38.09869 -79.9999,11.4 -41.8933,-11.4 -159.99977,11.4 -117.9869,22.89998 -45.6935,15.30001 -148.4934,22.89998 -102.8934,7.60001 -79.9998,-26.70001 -152.4,7.60001 -72.4002,34.30003 -7.6002,34.30003 -110.4936,45.70003 -102.7998,11.4 -110.5063,0 -190.5066,11.4 -79.9999,11.49997 -64.6933,11.49997 -114.1999,22.89997 -49.6002,11.40001 -87.6936,22.80001 -87.6936,22.80001 0,0 -45.7063,-3.79999 30.4937,3.9 76.2001,7.59869 99.1064,15.19866 262.9064,15.19866 163.8,0 121.8936,-19.09866 179.0004,0 57.1998,19.00002 -57.1068,-22.89865 99.093,22.90002 156.2004,45.70003 -19.0932,57.10003 182.8002,45.70003 201.89347,-11.50002 224.80027,-11.50002 342.89347,-22.90002 118.1065,-11.40001 -91.4003,-11.40001 163.8,-11.40001 255.1999,0 156.1999,-11.4 289.5067,0 133.2931,11.40001 41.8933,0 156.1867,11.40001 114.3066,11.4 -205.6933,22.90002 186.7068,22.90002 l 407.5999,0 c 186.6936,0 99,34.29997 274.2936,0 55.0933,-2.7 58.5997,5.1 118.0933,-22.90002 z"
       style="fill:#575965;fill-opacity:1;fill-rule:evenodd;stroke:#000000;stroke-width:6.69995165px;stroke-linecap:butt;stroke-linejoin:miter;stroke-miterlimit:4;stroke-dasharray:none;stroke-opacity:1" />
    <path
       inkscape:connector-curvature="0"
       id="path4720"
       d="m 2358.4527,827.56354 c -87.6001,0 15.1998,-11.4 -198.0936,-11.4 -213.3998,0 -293.4001,-7.60002 -396.1999,-7.60002 -102.8935,0 -156.1999,-11.4 -312.4003,-11.4 l -293.2933,0 c -182.90647,0 -259.39987,-19.90002 -384.79987,-28.2 l -160.0002,-10.69867 c -53.1997,-3.6 -57.0931,22.89865 -186.6931,0 -129.507,-22.90001 -156.1068,-29.7 -220.9068,-6.9 -64.8,22.89865 -41.8933,22.89865 -95.2002,22.89865 -53.399998,0 -64.799998,-11.39863 -137.186498,-11.39863 -72.4002,0 -60.9066,-19.10003 -102.800402,0 -41.9064,18.99865 -72.3997,34.29865 -22.9062,45.69865 49.5066,11.40001 -72.4002,-26.7 118.106402,22.80001 190.493498,49.60003 118.0933,53.40001 236.186998,61.00003 118.1065,7.59997 11.4,-3.80003 148.5998,18.99997 137.1066,22.90002 -266.693498,22.90002 186.6,22.90002 453.4003,0 323.8002,-22.90002 495.29347,0 171.4002,22.89865 -133.38667,-3.79998 308.5068,34.29866 441.8935,38.09999 217.2001,26.60003 518.0935,38.09999 300.9998,11.4 163.8001,0 403.8001,0 240.0001,0 213.3997,3.8 274.2931,-22.89996 61.0002,-26.60004 56.7067,-74.49871 56.7067,-74.49871 -64.3063,-13.09999 -148.1065,-81.69999 -235.7065,-81.69999 z"
       style="fill:#f7e5cd;fill-opacity:1;fill-rule:evenodd;stroke:#000000;stroke-width:6.69995165px;stroke-linecap:butt;stroke-linejoin:miter;stroke-miterlimit:4;stroke-dasharray:none;stroke-opacity:1" />
    <path
       inkscape:connector-curvature="0"
       id="path4722"
       d="m 2846.146,1033.4622 c 32.3069,0 199.3068,-75.4 239.7067,-83.5 40.4003,-8.09863 -51.1999,-5.39863 132,-13.39866 183.2004,-8.1 255.8934,-48.5 379.8001,-53.9 123.8934,-5.4 250.4934,-21.6 331.2936,-21.6 80.8932,0 53.8932,-16.09999 274.8001,-24.19999 220.8931,-8.10001 158.8932,-16.20001 328.6002,-16.20001 169.7863,0 96.9865,-21.50003 245.1865,-5.4 148.1065,16.20001 150.7999,-18.80003 202.0002,40.39999 51.1998,59.3 18.9066,32.40001 61.9998,86.20004 43.1065,53.89863 10.7065,56.59863 72.7068,64.69863 61.8931,8.1 48.4933,-10.8 75.3997,8.1 27,18.8 62.0004,61.9 62.0004,61.9 0,0 121.2,67.3961 -207.4002,86.196 -328.7066,18.9068 150.7998,37.7067 -598.0934,105.1067 -748.8002,67.2934 -856.6003,80.8001 -1115.2004,56.6001 -258.6,-24.3067 -325.8931,-10.8 -379.8001,-40.4001 -53.8932,-29.7066 -105,-250.6027 -105,-250.6027 z"
       style="fill:#c4987b;fill-opacity:1;fill-rule:evenodd;stroke:#000000;stroke-width:6.69995165px;stroke-linecap:butt;stroke-linejoin:miter;stroke-miterlimit:4;stroke-dasharray:none;stroke-opacity:1" />
    <path
       inkscape:connector-curvature="0"
       id="path4724"
       d="m 12928.481,819.96353 -163.866,-41.9 -76.134,-38.09868 -87.6,-3.79998 c 0,0 -60.933,-61.00003 -114.266,-61.00003 -53.467,0 -129.6,-3.79999 -144.801,-11.4 -15.199,-7.60002 -57.066,-30.5 -95.199,-38.10001 -38.134,-7.60002 -7.734,-19.00002 -83.867,-7.60002 -76.133,11.4 -72.4,26.70001 -125.734,34.30002 -53.333,7.60002 -45.733,22.80001 -91.466,22.80001 -45.6,0 -22.8,11.50002 -64.667,0 -42,-11.4 -91.466,-64.7 -144.8,-72.30002 -53.333,-7.69998 -19.067,-22.8987 -68.533,-7.69998 -49.6,15.3 -26.667,26.7 -95.2,26.7 -68.667,0 -99.2,-49.49869 -160,-49.49869 -61.067,0 -11.467,-30.50004 -99.2,0 -87.6,30.49867 -34.267,26.69869 -114.267,38.09869 -80,11.4 -41.866,-11.4 -160,11.4 -118,22.89998 -45.733,15.30001 -148.533,22.89998 -102.8,7.60001 -80,-26.70001 -152.4,7.60001 -72.4,34.30003 -7.6,34.30003 -110.401,45.70003 -102.799,11.4 -110.533,0 -190.533,11.4 -80,11.49997 -64.666,11.49997 -114.267,22.89997 -49.599,11.40001 -87.6,22.80001 -87.6,22.80001 0,0 -45.733,-3.79999 30.401,3.9 76.266,7.59869 99.199,15.19866 262.933,15.19866 163.867,0 121.866,-19.09866 179.067,0 57.2,19.00002 -57.201,-22.89865 99.066,22.90002 156.134,45.70003 -19.066,57.10003 182.8,45.70003 201.867,-11.50002 224.8,-11.50002 342.934,-22.90002 118,-11.40001 -91.467,-11.40001 163.733,-11.40001 255.2,0 156.267,-11.4 289.467,0 133.333,11.40001 42,0 156.267,11.40001 114.266,11.4 -205.734,22.90002 186.666,22.90002 l 407.6,0 c 186.667,0 98.934,34.29997 274.267,0 55.067,-2.7 58.667,5.1 118.133,-22.90002 z"
       style="fill:#575965;fill-opacity:1;fill-rule:evenodd;stroke:#000000;stroke-width:6.69995165px;stroke-linecap:butt;stroke-linejoin:miter;stroke-miterlimit:4;stroke-dasharray:none;stroke-opacity:1" />
    <path
       inkscape:connector-curvature="0"
       id="path4726"
       d="m 16326.616,793.26352 c 0,0 186.399,381.60138 213.2,366.40138 26.666,-15.3066 3411.6,-180.10266 3453.467,-203.00268 42,-22.79868 70.4,-189.99869 70.4,-189.99869 0,0 -182.8,-76.19869 -228.667,-64.79869 -45.733,11.40001 7.734,11.40001 -102.8,11.40001 -110.533,0 -148.533,22.90002 -247.6,11.50001 -99.066,-11.50001 -102.933,-22.90002 -160,-34.30002 -57.2,-11.4 -45.733,-95.3 -179.067,-91.4 -133.333,3.79998 -156.266,-15.29868 -289.466,26.59999 -133.334,41.89999 -76.267,41.89999 -213.334,41.89999 -137.2,0 -133.467,11.50002 -209.599,0 -76.268,-11.4 -45.734,-11.4 -156.267,-11.4 -110.4,0 -83.734,-7.59997 -198.001,11.4 -114.266,19.10004 -64.8,0 -179.066,22.90002 -114.267,22.80001 -95.2,-22.90002 -205.733,22.80001 -110.4,45.79999 -76.134,34.30002 -163.734,45.79999 -87.6,11.39868 -49.467,0 -186.667,11.39868 -137.2,11.4 -182.8,22.8 -251.466,22.8 -68.534,0 38.133,11.50002 -114.267,0 -152.4,-11.4 -171.333,-11.4 -285.733,-11.4 -114.267,0 -57.2,11.4 -148.534,0 -91.466,-11.4 -60.933,-18.99865 -129.466,-11.4 -68.667,7.60001 -87.6,22.8 -87.6,22.8 z"
       style="fill:#8c7b5d;fill-opacity:1;fill-rule:evenodd;stroke:#000000;stroke-width:6.69995165px;stroke-linecap:butt;stroke-linejoin:miter;stroke-miterlimit:4;stroke-dasharray:none;stroke-opacity:1" />
    <path
       inkscape:connector-curvature="0"
       id="path4728"
       d="m 14762.082,1181.665 c 16.133,-26.9067 242.533,-409.5015 242.533,-409.5015 l 199.2,37.80001 c 21.6,10.70003 80.8,26.90004 80.8,26.90004 91.6,32.29999 123.2,-20.50002 123.2,-20.50002 123.867,0 183.2,-16.09999 183.2,-16.09999 l 215.467,0 c 150.8,0 247.734,16.09999 247.734,16.09999 199.466,21.6 314.266,-4.99999 314.266,-4.99999 247.733,5.4 326.933,-16.5 326.933,-16.5 183.201,-21.60001 237.867,15.09997 237.867,15.09997 166.934,16.10003 220.8,16.10003 220.8,16.10003 242.401,48.5 296.401,64.7 296.401,64.7 193.866,32.29999 328.533,32.29999 328.533,32.29999 172.4,0 269.466,-21.6 269.466,-21.6 220.8,-16.09999 258.534,-48.39998 258.534,-48.39998 l 150.8,0 264,0 c 161.733,26.89999 199.467,26.89999 199.467,26.89999 242.4,16.2 312.4,-16.2 312.4,-16.2 188.533,0 242.4,-21.49999 242.4,-21.49999 145.466,21.49999 220.933,5.4 220.933,5.4 150.8,16.09999 210.134,-5.4 210.134,-5.4 91.6,-10.8 118.533,-27.00001 118.533,-27.00001 86.133,21.60001 112.933,-5.7 112.933,-5.7 26.934,21.49999 32.267,26.89999 32.267,26.89999 l 1249.867,89 c -86.267,70.09867 -1783.067,466.29477 -1783.067,466.29477 -1136.801,145.5067 -1460,161.6 -1460,161.6 -662.667,0 -1255.201,-53.8 -1255.201,-53.8 -1653.867,-91.6 -1907.2,-113.2 -1907.2,-113.2 -177.733,-53.8933 -274.667,-220.8933 -274.667,-220.8933 z"
       style="fill:#e1c5ad;fill-opacity:1;fill-rule:evenodd;stroke:#000000;stroke-width:6.69995165px;stroke-linecap:butt;stroke-linejoin:miter;stroke-miterlimit:4;stroke-dasharray:none;stroke-opacity:1" />
    <path
       inkscape:connector-curvature="0"
       id="path4730"
       d="m 13776.215,789.76354 c 0,0 -215.6,22.8 -256,22.8 -40.4,0 -414.8,-4.00002 -433.6,-1.30001 -18.8,2.7 -289.6,17.50001 -297.6,17.50001 -8.134,0 -330,-16.2 -335.467,-16.2 -5.333,0 -106.4,79.50002 -106.4,86.19999 0,6.80003 -1325.2,-2.59999 -1325.2,-2.59999 l -246.534,78.09867 c -21.6,13.40003 -39.066,30.99999 -39.066,30.99999 -10.8,9.4 -55.2,65.9 -55.2,65.9 -5.467,6.8001 1414.133,64.7027 1414.133,64.7027 l 2258.667,-8.1066 -301.733,-352.8948 z"
       style="fill:#c19e7e;fill-opacity:1;fill-rule:evenodd;stroke:#000000;stroke-width:6.69995165px;stroke-linecap:butt;stroke-linejoin:miter;stroke-miterlimit:4;stroke-dasharray:none;stroke-opacity:1" />
    <path
       inkscape:connector-curvature="0"
       id="path4732"
       d="m 12410.348,827.56354 c -87.6,0 15.2,-11.4 -198,-11.4 -213.467,0 -293.467,-7.60002 -396.267,-7.60002 -102.933,0 -156.133,-11.4 -312.4,-11.4 l -293.333,0 c -182.8,0 -259.334,-19.90002 -384.8,-28.2 l -160,-10.69867 c -53.2,-3.6 -57.067,22.89865 -186.667,0 -129.467,-22.90001 -156.134,-29.7 -220.934,-6.9 -64.8,22.89865 -41.866,22.89865 -95.198,22.89865 -53.334,0 -64.8,-11.39863 -137.2,-11.39863 -72.4013,0 -60.8003,-19.10003 -102.8003,0 -41.867,18.99865 -72.401,34.29865 -22.8,45.69865 49.466,11.40001 -72.401,-26.7 117.9993,22.80001 190.533,49.60003 118.134,53.40001 236.266,61.00003 118.134,7.59997 11.334,-3.80003 148.534,18.99997 137.199,22.90002 -266.666,22.90002 186.666,22.90002 453.334,0 323.734,-22.90002 495.334,0 171.333,22.89865 -133.467,-3.79998 308.4,34.29866 442,38.09999 217.2,26.60003 518.133,38.09999 301.067,11.4 163.867,0 403.867,0 240,0 213.333,3.8 274.267,-22.89996 60.933,-26.60004 56.666,-74.49871 56.666,-74.49871 -64.266,-13.09999 -148.133,-81.69999 -235.733,-81.69999 z"
       style="fill:#f7e5cd;fill-opacity:1;fill-rule:evenodd;stroke:#000000;stroke-width:6.69995165px;stroke-linecap:butt;stroke-linejoin:miter;stroke-miterlimit:4;stroke-dasharray:none;stroke-opacity:1" />
    <path
       inkscape:connector-curvature="0"
       id="path4734"
       d="m 14574.215,774.2635 c 0,0 -148.667,-68.59867 -205.733,-68.59867 -57.2,0 -251.467,15.3 -377.201,15.3 -125.733,0 -331.466,87.59869 -331.466,87.59869 l 533.333,49.50002 z"
       style="fill:#efddc7;fill-opacity:1;fill-rule:evenodd;stroke:#000000;stroke-width:6.69995165px;stroke-linecap:butt;stroke-linejoin:miter;stroke-miterlimit:4;stroke-dasharray:none;stroke-opacity:1" />
    <path
       inkscape:connector-curvature="0"
       id="path4736"
       d="m 14890.349,618.06481 c 0,0 182.8,38.10001 198.133,49.50001 15.2,11.50002 156.133,19.10004 171.333,19.10004 15.2,0 358.134,-15.30001 358.134,-15.30001 0,0 308.666,-15.20003 335.2,7.69999 26.667,22.8 213.466,26.59999 289.6,53.29999 76.133,26.70001 240,91.39868 262.8,79.99868 22.933,-11.4 -148.534,68.60005 -201.867,57.10003 -53.333,-11.4 -369.466,-57.10003 -472.4,-57.10003 -102.8,0 -468.533,53.30004 -777.067,38.10001 -308.666,-15.30001 -714.8,-2.59999 -775.733,-2.59999 -60.933,0 144.133,-67.90003 144.133,-67.90003 l 6.667,-17.59866 c 26.8,-10.99999 461.067,-144.30003 461.067,-144.30003 z"
       style="fill:#f3e4d1;fill-opacity:1;fill-rule:evenodd;stroke:#000000;stroke-width:6.69995165px;stroke-linecap:butt;stroke-linejoin:miter;stroke-miterlimit:4;stroke-dasharray:none;stroke-opacity:1" />
    <path
       inkscape:connector-curvature="0"
       id="path4738"
       d="m 12898.081,1033.4622 c 32.267,0 199.334,-75.4 239.734,-83.5 40.4,-8.09863 -51.2,-5.39863 132,-13.39866 183.2,-8.1 255.866,-48.5 379.733,-53.9 123.867,-5.4 250.533,-21.6 331.334,-21.6 80.933,0 53.866,-16.09999 274.8,-24.19999 220.933,-8.10001 158.933,-16.20001 328.533,-16.20001 169.867,0 97.067,-21.50003 245.2,-5.4 148.133,16.20001 150.8,-18.80003 202,40.39999 51.2,59.3 18.934,32.40001 62,86.20004 43.2,53.89863 10.8,56.59863 72.8,64.69863 61.867,8.1 48.4,-10.8 75.333,8.1 27.067,18.8 62.001,61.9 62.001,61.9 0,0 121.2,67.3961 -207.334,86.196 -328.8,18.9068 150.8,37.7067 -598.133,105.1067 -748.8,67.2934 -856.667,80.8001 -1115.201,56.6001 -258.666,-24.3067 -325.866,-10.8 -379.866,-40.4001 -53.867,-29.7066 -104.934,-250.6027 -104.934,-250.6027 z"
       style="fill:#c4987b;fill-opacity:1;fill-rule:evenodd;stroke:#000000;stroke-width:6.69995165px;stroke-linecap:butt;stroke-linejoin:miter;stroke-miterlimit:4;stroke-dasharray:none;stroke-opacity:1" />
    <path
       inkscape:connector-curvature="0"
       id="path4742"
       d="m 26378.484,793.26352 c 0,0 186.534,381.60138 213.2,366.40138 26.667,-15.3066 3411.734,-180.10266 3453.601,-203.00268 41.867,-22.79868 70.267,-189.99869 70.267,-189.99869 0,0 -182.8,-76.19869 -228.534,-64.79869 -45.733,11.40001 7.6,11.40001 -102.8,11.40001 -110.533,0 -148.666,22.90002 -247.6,11.50001 -99.2,-11.50001 -102.933,-22.90002 -160,-34.30002 -57.2,-11.4 -45.866,-95.3 -179.2,-91.4 -133.2,3.79998 -156.133,-15.29868 -289.466,26.59999 -133.334,41.89999 -76.134,41.89999 -213.334,41.89999 -137.2,0 -133.333,11.50002 -209.6,0 -76.133,-11.4 -45.6,-11.4 -156.133,-11.4 -110.4,0 -83.867,-7.59997 -198.134,11.4 -114.133,19.10004 -64.666,0 -178.933,22.90002 -114.4,22.80001 -95.2,-22.90002 -205.733,22.80001 -110.534,45.79999 -76.267,34.30002 -163.867,45.79999 -87.6,11.39868 -49.467,0 -186.667,11.39868 -137.067,11.4 -182.8,22.8 -251.333,22.8 -68.667,0 38,11.50002 -114.4,0 -152.4,-11.4 -171.333,-11.4 -285.6,-11.4 -114.4,0 -57.2,11.4 -148.667,0 -91.333,-11.4 -60.933,-18.99865 -129.467,-11.4 -68.666,7.60001 -87.6,22.8 -87.6,22.8 z"
       style="fill:#8c7b5d;fill-opacity:1;fill-rule:evenodd;stroke:#000000;stroke-width:6.69995165px;stroke-linecap:butt;stroke-linejoin:miter;stroke-miterlimit:4;stroke-dasharray:none;stroke-opacity:1" />
    <path
       inkscape:connector-curvature="0"
       id="path4744"
       d="m 24813.951,1181.665 c 16.266,-26.9067 242.533,-409.5015 242.533,-409.5015 l 199.334,37.80001 c 21.6,10.70003 80.799,26.90004 80.799,26.90004 91.6,32.29999 123.067,-20.50002 123.067,-20.50002 123.867,0 183.2,-16.09999 183.2,-16.09999 l 215.467,0 c 150.8,0 247.867,16.09999 247.867,16.09999 199.333,21.6 314.133,-4.99999 314.133,-4.99999 247.867,5.4 326.933,-16.5 326.933,-16.5 183.201,-21.60001 237.867,15.09997 237.867,15.09997 167.067,16.10003 220.933,16.10003 220.933,16.10003 242.401,48.5 296.267,64.7 296.267,64.7 193.867,32.29999 328.667,32.29999 328.667,32.29999 172.4,0 269.334,-21.6 269.334,-21.6 220.933,-16.09999 258.666,-48.39998 258.666,-48.39998 l 150.8,0 264,0 c 161.6,26.89999 199.333,26.89999 199.333,26.89999 242.401,16.2 312.401,-16.2 312.401,-16.2 188.666,0 242.533,-21.49999 242.533,-21.49999 145.333,21.49999 220.933,5.4 220.933,5.4 150.801,16.09999 210,-5.4 210,-5.4 91.6,-10.8 118.534,-27.00001 118.534,-27.00001 86.267,21.60001 113.066,-5.7 113.066,-5.7 26.801,21.49999 32.267,26.89999 32.267,26.89999 l 1249.734,89 c -86.134,70.09867 -1782.934,466.29477 -1782.934,466.29477 -1136.8,145.5067 -1460,161.6 -1460,161.6 -662.667,0 -1255.334,-53.8 -1255.334,-53.8 -1653.867,-91.6 -1907.2,-113.2 -1907.2,-113.2 -177.6,-53.8933 -274.667,-220.8933 -274.667,-220.8933 z"
       style="fill:#e1c5ad;fill-opacity:1;fill-rule:evenodd;stroke:#000000;stroke-width:6.69995165px;stroke-linecap:butt;stroke-linejoin:miter;stroke-miterlimit:4;stroke-dasharray:none;stroke-opacity:1" />
    <path
       inkscape:connector-curvature="0"
       id="path4746"
       d="m 24626.084,774.2635 c 0,0 -148.533,-68.59867 -205.734,-68.59867 -57.199,0 -251.466,15.3 -377.199,15.3 -125.601,0 -331.334,87.59869 -331.334,87.59869 l 533.333,49.50002 z"
       style="fill:#efddc7;fill-opacity:1;fill-rule:evenodd;stroke:#000000;stroke-width:6.69995165px;stroke-linecap:butt;stroke-linejoin:miter;stroke-miterlimit:4;stroke-dasharray:none;stroke-opacity:1" />
    <path
       inkscape:connector-curvature="0"
       id="path4748"
       d="m 24942.351,618.06481 c 0,0 182.8,38.10001 198,49.50001 15.2,11.50002 156.267,19.10004 171.466,19.10004 15.2,0 358.134,-15.30001 358.134,-15.30001 0,0 308.533,-15.20003 335.2,7.69999 26.667,22.8 213.333,26.59999 289.467,53.29999 76.133,26.70001 240,91.39868 262.8,79.99868 22.933,-11.4 -148.534,68.60005 -201.867,57.10003 -53.333,-11.4 -369.467,-57.10003 -472.4,-57.10003 -102.8,0 -468.4,53.30004 -777.067,38.10001 -308.533,-15.30001 -714.667,-2.59999 -775.734,-2.59999 -60.799,0 144.267,-67.90003 144.267,-67.90003 l 6.534,-17.59866 c 26.8,-10.99999 461.2,-144.30003 461.2,-144.30003 z"
       style="fill:#f3e4d1;fill-opacity:1;fill-rule:evenodd;stroke:#000000;stroke-width:6.69995165px;stroke-linecap:butt;stroke-linejoin:miter;stroke-miterlimit:4;stroke-dasharray:none;stroke-opacity:1" />
    <path
       inkscape:connector-curvature="0"
       id="path4750"
       d="m 14762.082,1181.665 c 16.133,-26.9067 242.533,-409.5015 242.533,-409.5015 l 199.2,37.80001 c 21.6,10.70003 80.8,26.90004 80.8,26.90004 91.6,32.29999 123.2,-20.50002 123.2,-20.50002 123.867,0 183.2,-16.09999 183.2,-16.09999 l 215.467,0 c 150.8,0 247.734,16.09999 247.734,16.09999 199.466,21.6 314.266,-4.99999 314.266,-4.99999 247.733,5.4 326.933,-16.5 326.933,-16.5 183.201,-21.60001 237.867,15.09997 237.867,15.09997 166.934,16.10003 220.8,16.10003 220.8,16.10003 242.401,48.5 296.401,64.7 296.401,64.7 193.866,32.29999 328.533,32.29999 328.533,32.29999 172.4,0 269.466,-21.6 269.466,-21.6 220.8,-16.09999 258.534,-48.39998 258.534,-48.39998 l 150.8,0 264,0 c 161.733,26.89999 199.467,26.89999 199.467,26.89999 242.4,16.2 312.4,-16.2 312.4,-16.2 188.533,0 242.4,-21.49999 242.4,-21.49999 145.466,21.49999 220.933,5.4 220.933,5.4 150.8,16.09999 210.134,-5.4 210.134,-5.4 91.6,-10.8 118.533,-27.00001 118.533,-27.00001 86.133,21.60001 112.933,-5.7 112.933,-5.7 26.934,21.49999 32.267,26.89999 32.267,26.89999 l 1249.867,89 c -86.267,70.09867 -1783.067,466.29477 -1783.067,466.29477 -1136.801,145.5067 -1460,161.6 -1460,161.6 -662.667,0 -1255.201,-53.8 -1255.201,-53.8 -1653.867,-91.6 -1907.2,-113.2 -1907.2,-113.2 -177.733,-53.8933 -274.667,-220.8933 -274.667,-220.8933 z"
       style="fill:#e1c5ad;fill-opacity:1;fill-rule:evenodd;stroke:#000000;stroke-width:6.69995165px;stroke-linecap:butt;stroke-linejoin:miter;stroke-miterlimit:4;stroke-dasharray:none;stroke-opacity:1" />
    <path
       inkscape:connector-curvature="0"
       id="path4752"
       d="m 23828.084,789.76354 c 0,0 -215.467,22.8 -255.867,22.8 -40.4,0 -414.8,-4.00002 -433.733,-1.30001 -18.801,2.7 -289.6,17.50001 -297.6,17.50001 -8.134,0 -330,-16.2 -335.334,-16.2 -5.466,0 -106.4,79.50002 -106.4,86.19999 0,6.80003 -1325.333,-2.59999 -1325.333,-2.59999 l -246.534,78.09867 c -21.6,13.40003 -39.066,30.99999 -39.066,30.99999 -10.667,9.4 -55.2,65.9 -55.2,65.9 -5.334,6.8001 1414.133,64.7027 1414.133,64.7027 l 2258.8,-8.1066 -301.733,-352.8948 z"
       style="fill:#c19e7e;fill-opacity:1;fill-rule:evenodd;stroke:#000000;stroke-width:6.69995165px;stroke-linecap:butt;stroke-linejoin:miter;stroke-miterlimit:4;stroke-dasharray:none;stroke-opacity:1" />
    <path
       inkscape:connector-curvature="0"
       id="path4754"
       d="m 22980.35,819.96353 -163.733,-41.9 -76.267,-38.09868 -87.6,-3.79998 c 0,0 -60.933,-61.00003 -114.266,-61.00003 -53.334,0 -129.6,-3.79999 -144.801,-11.4 -15.2,-7.60002 -57.066,-30.5 -95.199,-38.10001 -38.134,-7.60002 -7.734,-19.00002 -83.734,-7.60002 -76.267,11.4 -72.4,26.70001 -125.867,34.30002 -53.333,7.60002 -45.733,22.80001 -91.333,22.80001 -45.733,0 -22.8,11.50002 -64.8,0 -42,-11.4 -91.467,-64.7 -144.8,-72.30002 -53.2,-7.69998 -19.067,-22.8987 -68.533,-7.69998 -49.467,15.3 -26.667,26.7 -95.2,26.7 -68.534,0 -99.067,-49.49869 -160.001,-49.49869 -60.933,0 -11.333,-30.50004 -99.066,0 -87.6,30.49867 -34.267,26.69869 -114.267,38.09869 -80,11.4 -42,-11.4 -160,11.4 -118,22.89998 -45.733,15.30001 -148.533,22.89998 -102.934,7.60001 -80,-26.70001 -152.4,7.60001 -72.4,34.30003 -7.6,34.30003 -110.534,45.70003 -102.8,11.4 -110.533,0 -190.533,11.4 -80,11.49997 -64.667,11.49997 -114.133,22.89997 -49.6,11.40001 -87.734,22.80001 -87.734,22.80001 0,0 -45.733,-3.79999 30.534,3.9 76.133,7.59869 99.066,15.19866 262.933,15.19866 163.733,0 121.867,-19.09866 178.934,0 57.199,19.00002 -57.067,-22.89865 99.066,22.90002 156.267,45.70003 -19.067,57.10003 182.8,45.70003 202,-11.50002 224.8,-11.50002 342.934,-22.90002 118.133,-11.40001 -91.334,-11.40001 163.866,-11.40001 255.067,0 156.134,-11.4 289.467,0 133.2,11.40001 41.867,0 156.134,11.40001 114.266,11.4 -205.734,22.90002 186.666,22.90002 l 407.6,0 c 186.8,0 99.067,34.29997 274.4,0 55.067,-2.7 58.534,5.1 118,-22.90002 z"
       style="fill:#575965;fill-opacity:1;fill-rule:evenodd;stroke:#000000;stroke-width:6.69995165px;stroke-linecap:butt;stroke-linejoin:miter;stroke-miterlimit:4;stroke-dasharray:none;stroke-opacity:1" />
    <path
       inkscape:connector-curvature="0"
       id="path4756"
       d="m 22462.35,827.56354 c -87.6,0 15.2,-11.4 -198.133,-11.4 -213.467,0 -293.467,-7.60002 -396.267,-7.60002 -102.8,0 -156.133,-11.4 -312.267,-11.4 l -293.333,0 c -182.933,0 -259.467,-19.90002 -384.8,-28.2 l -160,-10.69867 c -53.2,-3.6 -57.067,22.89865 -186.667,0 -129.6,-22.90001 -156.133,-29.7 -220.933,-6.9 -64.8,22.89865 -41.867,22.89865 -95.2,22.89865 -53.467,0 -64.8,-11.39863 -137.2,-11.39863 -72.4,0 -60.934,-19.10003 -102.8,0 -41.867,18.99865 -72.4,34.29865 -22.934,45.69865 49.467,11.40001 -72.4,-26.7 118.134,22.80001 190.533,49.60003 118.133,53.40001 236.133,61.00003 118.133,7.59997 11.467,-3.80003 148.667,18.99997 137.066,22.90002 -266.667,22.90002 186.533,22.90002 453.467,0 323.867,-22.90002 495.333,0 171.467,22.89865 -133.333,-3.79998 308.534,34.29866 441.867,38.09999 217.2,26.60003 518,38.09999 301.067,11.4 163.867,0 403.867,0 240,0 213.333,3.8 274.266,-22.89996 61.067,-26.60004 56.667,-74.49871 56.667,-74.49871 -64.267,-13.09999 -148,-81.69999 -235.6,-81.69999 z"
       style="fill:#f7e5cd;fill-opacity:1;fill-rule:evenodd;stroke:#000000;stroke-width:6.69995165px;stroke-linecap:butt;stroke-linejoin:miter;stroke-miterlimit:4;stroke-dasharray:none;stroke-opacity:1" />
    <path
       inkscape:connector-curvature="0"
       id="path4758"
       d="m 22949.95,1033.4622 c 32.4,0 199.334,-75.4 239.734,-83.5 40.399,-8.09863 -51.2,-5.39863 132,-13.39866 183.2,-8.1 255.867,-48.5 379.866,-53.9 123.867,-5.4 250.401,-21.6 331.2,-21.6 80.934,0 54,-16.09999 274.8,-24.19999 220.934,-8.10001 158.934,-16.20001 328.667,-16.20001 169.734,0 96.934,-21.50003 245.201,-5.4 148.133,16.20001 150.799,-18.80003 201.999,40.39999 51.201,59.3 18.934,32.40001 62.001,86.20004 43.066,53.89863 10.666,56.59863 72.666,64.69863 61.867,8.1 48.534,-10.8 75.467,8.1 26.933,18.8 62,61.9 62,61.9 0,0 121.2,67.3961 -207.467,86.196 -328.667,18.9068 150.8,37.7067 -598.133,105.1067 -748.801,67.2934 -856.534,80.8001 -1115.2,56.6001 -258.534,-24.3067 -325.868,-10.8 -379.734,-40.4001 -53.867,-29.7066 -105.067,-250.6027 -105.067,-250.6027 z"
       style="fill:#c4987b;fill-opacity:1;fill-rule:evenodd;stroke:#000000;stroke-width:6.69995165px;stroke-linecap:butt;stroke-linejoin:miter;stroke-miterlimit:4;stroke-dasharray:none;stroke-opacity:1" />
    <path
       inkscape:connector-curvature="0"
       id="path4760"
       d="m 33032.353,819.96353 -163.867,-41.9 -76.133,-38.09868 -87.6,-3.79998 c 0,0 -61.067,-61.00003 -114.267,-61.00003 -53.467,0 -129.6,-3.79999 -144.8,-11.4 -15.201,-7.60002 -57.201,-30.5 -95.2,-38.10001 -38.133,-7.60002 -7.734,-19.00002 -83.867,-7.60002 -76.134,11.4 -72.4,26.70001 -125.733,34.30002 -53.334,7.60002 -45.734,22.80001 -91.467,22.80001 -45.733,0 -22.8,11.50002 -64.667,0 -42,-11.4 -91.467,-64.7 -144.8,-72.30002 -53.333,-7.69998 -19.067,-22.8987 -68.666,-7.69998 -49.467,15.3 -26.534,26.7 -95.201,26.7 -68.533,0 -99.066,-49.49869 -160,-49.49869 -60.933,0 -11.333,-30.50004 -99.066,0 -87.6,30.49867 -34.267,26.69869 -114.267,38.09869 -80,11.4 -41.867,-11.4 -160,11.4 -118,22.89998 -45.733,15.30001 -148.533,22.89998 -102.934,7.60001 -80,-26.70001 -152.4,7.60001 -72.4,34.30003 -7.6,34.30003 -110.534,45.70003 -102.667,11.4 -110.4,0 -190.4,11.4 -80,11.49997 -64.667,11.49997 -114.266,22.89997 -49.6,11.40001 -87.6,22.80001 -87.6,22.80001 0,0 -45.734,-3.79999 30.399,3.9 76.267,7.59869 99.201,15.19866 262.934,15.19866 163.733,0 121.867,-19.09866 178.933,0 57.2,19.00002 -57.066,-22.89865 99.2,22.90002 156.134,45.70003 -19.2,57.10003 182.8,45.70003 201.867,-11.50002 224.8,-11.50002 342.8,-22.90002 118.134,-11.40001 -91.333,-11.40001 163.867,-11.40001 255.2,0 156.133,-11.4 289.467,0 133.333,11.40001 41.866,0 156.267,11.40001 114.266,11.4 -205.734,22.90002 186.666,22.90002 l 407.601,0 c 186.666,0 98.933,34.29997 274.266,0 55.067,-2.7 58.667,5.1 118.134,-22.90002 z"
       style="fill:#575965;fill-opacity:1;fill-rule:evenodd;stroke:#000000;stroke-width:6.69995165px;stroke-linecap:butt;stroke-linejoin:miter;stroke-miterlimit:4;stroke-dasharray:none;stroke-opacity:1" />
    <path
       inkscape:connector-curvature="0"
       id="path4762"
       d="m 36430.353,793.26352 c 0,0 186.534,381.60138 213.2,366.40138 26.8,-15.3066 3411.734,-180.10266 3453.601,-203.00268 41.867,-22.79868 70.267,-189.99869 70.267,-189.99869 0,0 -182.8,-76.19869 -228.534,-64.79869 -45.733,11.40001 7.733,11.40001 -102.8,11.40001 -110.533,0 -148.667,22.90002 -247.6,11.50001 -99.067,-11.50001 -102.933,-22.90002 -160,-34.30002 -57.2,-11.4 -45.733,-95.3 -179.067,-91.4 -133.333,3.79998 -156.266,-15.29868 -289.466,26.59999 -133.333,41.89999 -76.267,41.89999 -213.334,41.89999 -137.2,0 -133.466,11.50002 -209.6,0 -76.266,-11.4 -45.733,-11.4 -156.266,-11.4 -110.4,0 -83.734,-7.59997 -198,11.4 -114.267,19.10004 -64.8,0 -179.067,22.90002 -114.267,22.80001 -95.2,-22.90002 -205.734,22.80001 -110.4,45.79999 -76.133,34.30002 -163.733,45.79999 -87.6,11.39868 -49.466,0 -186.667,11.39868 -137.199,11.4 -182.799,22.8 -251.466,22.8 -68.534,0 38.133,11.50002 -114.267,0 -152.4,-11.4 -171.467,-11.4 -285.734,-11.4 -114.266,0 -57.199,11.4 -148.533,0 -91.467,-11.4 -60.933,-18.99865 -129.6,-11.4 -68.533,7.60001 -87.6,22.8 -87.6,22.8 z"
       style="fill:#8c7b5d;fill-opacity:1;fill-rule:evenodd;stroke:#000000;stroke-width:6.69995165px;stroke-linecap:butt;stroke-linejoin:miter;stroke-miterlimit:4;stroke-dasharray:none;stroke-opacity:1" />
    <path
       inkscape:connector-curvature="0"
       id="path4764"
       d="m 34865.953,1181.665 c 16.133,-26.9067 242.533,-409.5015 242.533,-409.5015 l 199.2,37.80001 c 21.6,10.70003 80.8,26.90004 80.8,26.90004 91.6,32.29999 123.067,-20.50002 123.067,-20.50002 124,0 183.2,-16.09999 183.2,-16.09999 l 215.6,0 c 150.8,0 247.733,16.09999 247.733,16.09999 199.467,21.6 314.267,-4.99999 314.267,-4.99999 247.734,5.4 326.8,-16.5 326.8,-16.5 183.2,-21.60001 238,15.09997 238,15.09997 166.933,16.10003 220.8,16.10003 220.8,16.10003 242.4,48.5 296.4,64.7 296.4,64.7 193.867,32.29999 328.534,32.29999 328.534,32.29999 172.4,0 269.467,-21.6 269.467,-21.6 220.8,-16.09999 258.533,-48.39998 258.533,-48.39998 l 150.8,0 264,0 c 161.734,26.89999 199.467,26.89999 199.467,26.89999 242.4,16.2 312.4,-16.2 312.4,-16.2 188.533,0 242.4,-21.49999 242.4,-21.49999 145.467,21.49999 220.933,5.4 220.933,5.4 150.8,16.09999 210.134,-5.4 210.134,-5.4 91.6,-10.8 118.4,-27.00001 118.4,-27.00001 86.266,21.60001 113.066,-5.7 113.066,-5.7 26.934,21.49999 32.267,26.89999 32.267,26.89999 l 1249.867,89 c -86.267,70.09867 -1783.067,466.29477 -1783.067,466.29477 -1136.8,145.5067 -1460.001,161.6 -1460.001,161.6 -662.666,0 -1255.2,-53.8 -1255.2,-53.8 -1654,-91.6 -1907.2,-113.2 -1907.2,-113.2 -177.734,-53.8933 -274.667,-220.8933 -274.667,-220.8933 z"
       style="fill:#e1c5ad;fill-opacity:1;fill-rule:evenodd;stroke:#000000;stroke-width:6.69995165px;stroke-linecap:butt;stroke-linejoin:miter;stroke-miterlimit:4;stroke-dasharray:none;stroke-opacity:1" />
    <path
       inkscape:connector-curvature="0"
       id="path4766"
       d="m 33880.086,789.76354 c 0,0 -215.6,22.8 -256,22.8 -40.4,0 -414.8,-4.00002 -433.6,-1.30001 -18.8,2.7 -289.6,17.50001 -297.6,17.50001 -8.133,0 -330,-16.2 -335.467,-16.2 -5.333,0 -106.4,79.50002 -106.4,86.19999 0,6.80003 -1325.334,-2.59999 -1325.334,-2.59999 l -246.4,78.09867 c -21.6,13.40003 -39.2,30.99999 -39.2,30.99999 -10.666,9.4 -55.2,65.9 -55.2,65.9 -5.333,6.8001 1414.267,64.7027 1414.267,64.7027 l 2258.667,-8.1066 -301.733,-352.8948 z"
       style="fill:#c19e7e;fill-opacity:1;fill-rule:evenodd;stroke:#000000;stroke-width:6.69995165px;stroke-linecap:butt;stroke-linejoin:miter;stroke-miterlimit:4;stroke-dasharray:none;stroke-opacity:1" />
    <path
       inkscape:connector-curvature="0"
       id="path4768"
       d="m 32514.219,827.56354 c -87.6,0 15.2,-11.4 -198.133,-11.4 -213.334,0 -293.334,-7.60002 -396.134,-7.60002 -102.933,0 -156.267,-11.4 -312.4,-11.4 l -293.333,0 c -182.934,0 -259.334,-19.90002 -384.8,-28.2 l -160,-10.69867 c -53.201,-3.6 -57.067,22.89865 -186.667,0 -129.467,-22.90001 -156.133,-29.7 -220.933,-6.9 -64.8,22.89865 -41.867,22.89865 -95.2,22.89865 -53.334,0 -64.8,-11.39863 -137.201,-11.39863 -72.399,0 -60.8,-19.10003 -102.8,0 -41.866,18.99865 -72.4,34.29865 -22.8,45.69865 49.467,11.40001 -72.4,-26.7 118.001,22.80001 190.533,49.60003 118.133,53.40001 236.266,61.00003 118.133,7.59997 11.333,-3.80003 148.534,18.99997 137.066,22.90002 -266.667,22.90002 186.666,22.90002 453.334,0 323.734,-22.90002 495.2,0 171.467,22.89865 -133.333,-3.79998 308.534,34.29866 441.867,38.09999 217.2,26.60003 518.133,38.09999 300.934,11.4 163.734,0 403.734,0 240,0 213.466,3.8 274.4,-22.89996 60.933,-26.60004 56.666,-74.49871 56.666,-74.49871 -64.266,-13.09999 -148.133,-81.69999 -235.733,-81.69999 z"
       style="fill:#f7e5cd;fill-opacity:1;fill-rule:evenodd;stroke:#000000;stroke-width:6.69995165px;stroke-linecap:butt;stroke-linejoin:miter;stroke-miterlimit:4;stroke-dasharray:none;stroke-opacity:1" />
    <path
       inkscape:connector-curvature="0"
       id="path4770"
       d="m 34678.086,774.2635 c 0,0 -148.666,-68.59867 -205.733,-68.59867 -57.2,0 -251.467,15.3 -377.2,15.3 -125.734,0 -331.467,87.59869 -331.467,87.59869 l 533.333,49.50002 z"
       style="fill:#efddc7;fill-opacity:1;fill-rule:evenodd;stroke:#000000;stroke-width:6.69995165px;stroke-linecap:butt;stroke-linejoin:miter;stroke-miterlimit:4;stroke-dasharray:none;stroke-opacity:1" />
    <path
       inkscape:connector-curvature="0"
       id="path4772"
       d="m 34994.219,618.06481 c 0,0 182.801,38.10001 198.134,49.50001 15.2,11.50002 156.133,19.10004 171.333,19.10004 15.2,0 358.134,-15.30001 358.134,-15.30001 0,0 308.533,-15.20003 335.2,7.69999 26.666,22.8 213.333,26.59999 289.6,53.29999 76.133,26.70001 240,91.39868 262.8,79.99868 22.933,-11.4 -148.667,68.60005 -201.867,57.10003 -53.333,-11.4 -369.6,-57.10003 -472.4,-57.10003 -102.8,0 -468.533,53.30004 -777.2,38.10001 -308.533,-15.30001 -714.667,-2.59999 -775.6,-2.59999 -60.934,0 144.133,-67.90003 144.133,-67.90003 l 6.667,-17.59866 c 26.8,-10.99999 461.066,-144.30003 461.066,-144.30003 z"
       style="fill:#f3e4d1;fill-opacity:1;fill-rule:evenodd;stroke:#000000;stroke-width:6.69995165px;stroke-linecap:butt;stroke-linejoin:miter;stroke-miterlimit:4;stroke-dasharray:none;stroke-opacity:1" />
    <path
       inkscape:connector-curvature="0"
       id="path4774"
       d="m 33001.953,1033.4622 c 32.266,0 199.333,-75.4 239.733,-83.5 40.4,-8.09863 -51.2,-5.39863 132,-13.39866 183.2,-8.1 255.867,-48.5 379.733,-53.9 123.867,-5.4 250.534,-21.6 331.334,-21.6 80.933,0 53.866,-16.09999 274.8,-24.19999 220.933,-8.10001 158.933,-16.20001 328.533,-16.20001 169.867,0 97.067,-21.50003 245.2,-5.4 148.134,16.20001 150.8,-18.80003 202,40.39999 51.2,59.3 18.934,32.40001 62,86.20004 43.067,53.89863 10.667,56.59863 72.667,64.69863 62,8.1 48.533,-10.8 75.467,8.1 26.933,18.8 62,61.9 62,61.9 0,0 121.2,67.3961 -207.467,86.196 -328.667,18.9068 150.8,37.7067 -598,105.1067 -748.8,67.2934 -856.667,80.8001 -1115.2,56.6001 -258.667,-24.3067 -325.867,-10.8 -379.867,-40.4001 -53.867,-29.7066 -104.933,-250.6027 -104.933,-250.6027 z"
       style="fill:#c4987b;fill-opacity:1;fill-rule:evenodd;stroke:#000000;stroke-width:6.69995165px;stroke-linecap:butt;stroke-linejoin:miter;stroke-miterlimit:4;stroke-dasharray:none;stroke-opacity:1" />
    <g
       id="g4210" />
    <path
       style="display:inline;fill:#000000;fill-opacity:1;fill-rule:nonzero;stroke:none"
       d="M -41.521484 -2098 L -41.521484 -1498.0039 L 30114.121 -1498.0039 L 30114.121 -2098 L -41.521484 -2098 z M 2022.0527 -1871.9453 L 2036.8652 -1871.9453 L 2037.334 -1871.9453 L 2053.6465 -1871.9453 L 2053.6465 -1815.1328 C 2057.584 -1819.6328 2062.084 -1823.3828 2067.1465 -1826.1016 C 2072.209 -1828.9141 2078.1152 -1830.3203 2084.6777 -1830.3203 C 2090.1152 -1830.3203 2095.084 -1829.2891 2099.584 -1827.2266 C 2103.9902 -1825.1641 2107.7402 -1822.0703 2110.9277 -1817.9453 C 2114.0215 -1813.9141 2116.459 -1808.8516 2118.1465 -1802.7578 C 2119.834 -1796.7578 2120.6777 -1789.8203 2120.6777 -1781.9453 L 2120.6777 -1781.6641 L 2120.6777 -1781.3828 C 2120.6777 -1773.6016 2119.5527 -1766.6641 2117.3965 -1760.6641 C 2115.2402 -1754.5703 2112.334 -1749.5078 2108.584 -1745.2891 C 2104.834 -1741.1641 2100.334 -1737.9766 2095.2715 -1735.8203 C 2090.209 -1733.5703 2084.6777 -1732.5391 2078.7715 -1732.5391 C 2061.8027 -1732.5391 2036.8652 -1737.7891 2036.8652 -1737.7891 L 2036.8652 -1739.2891 L 2036.8652 -1752.8828 L 2036.8652 -1858.3516 C 2034.6152 -1858.7266 2026.2715 -1860.0391 2024.8652 -1860.3203 C 2023.1777 -1860.6953 2022.0527 -1862.1953 2022.0527 -1863.7891 L 2022.0527 -1871.9453 z M 2312.2559 -1871.9453 L 2325.7559 -1871.9453 L 2342.5371 -1871.9453 L 2342.5371 -1790.6641 L 2346.8496 -1790.6641 C 2349.0996 -1790.6641 2350.9746 -1791.5078 2352.6621 -1793.2891 L 2374.0371 -1816.2578 C 2373.3809 -1816.3516 2372.7246 -1816.4453 2371.9746 -1816.6328 C 2370.5684 -1816.8203 2369.5371 -1817.1016 2368.8809 -1817.2891 C 2366.9121 -1817.6641 2365.9746 -1818.7891 2365.9746 -1820.7578 L 2365.9746 -1828.8203 L 2389.2246 -1828.8203 L 2404.4121 -1828.8203 L 2405.5371 -1828.8203 L 2405.5371 -1820.7578 C 2405.4434 -1818.7891 2404.6934 -1817.6641 2403.1934 -1817.3828 C 2401.5996 -1817.0078 2397.6621 -1816.2578 2391.5684 -1815.1328 L 2369.4434 -1791.6016 C 2367.5684 -1789.2578 2365.6934 -1787.5703 2364.0059 -1786.6328 C 2366.0684 -1785.2266 2367.9434 -1783.2578 2369.6309 -1780.7266 L 2395.9746 -1747.5391 L 2400.7559 -1746.5078 C 2403.9434 -1745.8516 2405.9121 -1745.4766 2406.5684 -1745.3828 C 2408.4434 -1745.0078 2409.4746 -1743.7891 2409.4746 -1741.9141 L 2409.4746 -1733.8516 L 2391.7559 -1733.8516 C 2389.3184 -1733.8516 2387.1621 -1734.8828 2385.4746 -1737.1328 L 2354.2559 -1776.0391 C 2353.3184 -1777.3516 2352.3809 -1778.1953 2351.4434 -1778.5703 C 2350.5059 -1778.9453 2349.0996 -1779.2266 2347.2246 -1779.2266 L 2342.5371 -1779.2266 L 2342.5371 -1747.5391 C 2343.1934 -1747.3516 2346.7559 -1746.6953 2353.2246 -1745.3828 C 2355.0996 -1745.0078 2356.0371 -1743.7891 2356.0371 -1741.9141 L 2356.0371 -1733.8516 L 2312.2559 -1733.8516 L 2312.2559 -1741.9141 C 2312.2559 -1743.7891 2313.1934 -1745.0078 2315.0684 -1745.3828 L 2325.7559 -1747.5391 L 2325.7559 -1858.2578 C 2319.7559 -1859.3828 2316.1934 -1860.1328 2315.0684 -1860.4141 C 2313.1934 -1860.7891 2312.2559 -1861.9141 2312.2559 -1863.8828 L 2312.2559 -1871.9453 z M 2973.2441 -1871.9453 L 3005.3066 -1871.9453 L 3005.3066 -1747.5391 C 3011.3066 -1746.3203 3014.8691 -1745.5703 3015.9941 -1745.3828 C 3017.8691 -1745.0078 3018.8066 -1743.7891 3018.8066 -1741.9141 L 3018.8066 -1733.8516 L 2995.3691 -1733.8516 C 2992.9316 -1733.8516 2991.4316 -1734.9766 2990.8691 -1737.3203 L 2989.3691 -1748.8516 C 2980.3691 -1737.9766 2969.7754 -1732.5391 2957.4941 -1732.5391 C 2946.3379 -1732.5391 2937.6191 -1736.6641 2931.3379 -1744.9141 C 2924.7754 -1753.3516 2921.5879 -1765.3516 2921.5879 -1781.0078 C 2921.5879 -1795.3516 2925.2441 -1807.0703 2932.5566 -1816.2578 C 2940.0566 -1825.7266 2950.0879 -1830.5078 2962.6504 -1830.5078 C 2973.1504 -1830.5078 2981.7754 -1826.7578 2988.6191 -1819.2578 L 2988.6191 -1858.2578 C 2982.2441 -1859.1953 2978.0254 -1859.9453 2976.1504 -1860.3203 C 2974.1816 -1860.6953 2973.2441 -1861.9141 2973.2441 -1863.8828 L 2973.2441 -1871.9453 z M 3344.2148 -1871.9453 L 3376.2773 -1871.9453 L 3376.2773 -1747.5391 C 3382.2773 -1746.3203 3385.8398 -1745.5703 3386.9648 -1745.3828 C 3388.8398 -1745.0078 3389.7773 -1743.7891 3389.7773 -1741.9141 L 3389.7773 -1733.8516 L 3366.3398 -1733.8516 C 3363.9023 -1733.8516 3362.4023 -1734.9766 3361.8398 -1737.3203 L 3360.3398 -1748.8516 C 3351.3398 -1737.9766 3340.7461 -1732.5391 3328.4648 -1732.5391 C 3317.3086 -1732.5391 3308.5898 -1736.6641 3302.3086 -1744.9141 C 3295.7461 -1753.3516 3292.5586 -1765.3516 3292.5586 -1781.0078 C 3292.5586 -1795.3516 3296.2148 -1807.0703 3303.5273 -1816.2578 C 3311.0273 -1825.7266 3321.0586 -1830.5078 3333.6211 -1830.5078 C 3344.1211 -1830.5078 3352.7461 -1826.7578 3359.5898 -1819.2578 L 3359.5898 -1858.2578 C 3353.2148 -1859.1953 3348.9961 -1859.9453 3347.1211 -1860.3203 C 3345.1523 -1860.6953 3344.2148 -1861.9141 3344.2148 -1863.8828 L 3344.2148 -1871.9453 z M 3466.8848 -1871.9453 L 3498.9473 -1871.9453 L 3498.9473 -1816.0703 C 3507.8535 -1825.5391 3518.0723 -1830.3203 3529.5098 -1830.3203 C 3539.7285 -1830.3203 3547.6035 -1827.0391 3553.1348 -1820.4766 C 3558.5723 -1814.0078 3561.291 -1805.2891 3561.291 -1794.3203 L 3561.291 -1747.5391 C 3567.291 -1746.3203 3570.8535 -1745.5703 3571.9785 -1745.2891 C 3573.8535 -1744.9141 3574.791 -1743.7891 3574.791 -1741.8203 L 3574.791 -1733.7578 L 3544.6035 -1733.7578 L 3544.6035 -1794.2266 C 3544.6035 -1809.4141 3537.9473 -1816.9141 3524.6348 -1816.9141 C 3515.3535 -1816.9141 3506.8223 -1812.5078 3498.9473 -1803.6953 L 3498.9473 -1747.4453 L 3501.291 -1746.9766 C 3506.166 -1746.0391 3508.8848 -1745.4766 3509.6348 -1745.2891 C 3511.5098 -1744.9141 3512.4473 -1743.7891 3512.4473 -1741.8203 L 3512.4473 -1733.7578 L 3468.7598 -1733.7578 L 3468.7598 -1741.8203 C 3468.7598 -1743.7891 3469.6973 -1744.9141 3471.5723 -1745.2891 L 3482.2598 -1747.4453 L 3482.2598 -1858.1641 C 3474.9473 -1859.3828 3470.8223 -1860.1328 3469.6973 -1860.4141 C 3467.8223 -1860.7891 3466.8848 -1861.9141 3466.8848 -1863.8828 L 3466.8848 -1871.9453 z M 4264.8926 -1871.9453 L 4295.0801 -1871.9453 L 4295.0801 -1747.5391 C 4301.0801 -1746.3203 4304.6426 -1745.5703 4305.7676 -1745.3828 C 4307.6426 -1745.0078 4308.6738 -1743.7891 4308.6738 -1741.9141 L 4308.6738 -1733.8516 L 4264.8926 -1733.8516 L 4264.8926 -1741.9141 C 4264.8926 -1743.7891 4265.8301 -1745.0078 4267.7051 -1745.3828 L 4278.3926 -1747.5391 L 4278.3926 -1858.2578 C 4272.3926 -1859.3828 4268.8301 -1860.1328 4267.7051 -1860.4141 C 4265.8301 -1860.7891 4264.8926 -1861.9141 4264.8926 -1863.8828 L 4264.8926 -1871.9453 z M 3261.9844 -1870.5391 C 3263.5781 -1870.5391 3265.0781 -1870.2578 3266.5781 -1869.6016 C 3267.9844 -1869.0391 3269.2969 -1868.1953 3270.3281 -1867.0703 C 3271.4531 -1865.9453 3272.2969 -1864.7266 3272.9531 -1863.2266 C 3273.6094 -1861.7266 3273.9844 -1860.2266 3273.9844 -1858.5391 C 3273.9844 -1856.9453 3273.6094 -1855.4453 3272.9531 -1854.0391 C 3272.2969 -1852.6328 3271.4531 -1851.4141 3270.3281 -1850.2891 C 3269.2969 -1849.1641 3267.9844 -1848.3203 3266.5781 -1847.6641 C 3265.0781 -1847.1016 3263.5781 -1846.7266 3261.9844 -1846.7266 C 3260.2969 -1846.7266 3258.7969 -1847.1016 3257.3906 -1847.6641 C 3255.9844 -1848.3203 3254.7656 -1849.1641 3253.6406 -1850.2891 C 3252.6094 -1851.4141 3251.6719 -1852.6328 3251.1094 -1854.0391 C 3250.4531 -1855.4453 3250.1719 -1856.9453 3250.1719 -1858.5391 C 3250.1719 -1860.2266 3250.4531 -1861.7266 3251.1094 -1863.2266 C 3251.6719 -1864.7266 3252.6094 -1865.9453 3253.6406 -1867.0703 C 3254.7656 -1868.1953 3255.9844 -1869.0391 3257.3906 -1869.6016 C 3258.7969 -1870.2578 3260.2969 -1870.5391 3261.9844 -1870.5391 z M 4128.2969 -1870.1641 C 4132.5156 -1870.1641 4136.4531 -1869.5078 4140.1094 -1868.2891 L 4139.7344 -1859.9453 C 4139.6406 -1858.6328 4139.0781 -1857.8828 4138.0469 -1857.6953 C 4137.1094 -1857.4141 4135.7031 -1857.2266 4133.8281 -1857.3203 L 4130.9219 -1857.3203 C 4118.1719 -1857.3203 4111.8906 -1850.1016 4111.8906 -1835.6641 L 4111.8906 -1826.9453 L 4139.3594 -1826.9453 L 4139.3594 -1814.8516 L 4112.4531 -1814.8516 L 4112.4531 -1747.5391 C 4119.7656 -1746.2266 4123.9844 -1745.5703 4124.9219 -1745.3828 C 4126.7969 -1745.0078 4127.7344 -1743.7891 4127.7344 -1741.9141 L 4127.7344 -1733.8516 L 4081.1406 -1733.8516 L 4081.1406 -1741.9141 C 4081.1406 -1743.7891 4082.0781 -1745.0078 4084.0469 -1745.3828 L 4095.6719 -1747.5391 L 4095.6719 -1814.5703 L 4085.1719 -1815.7891 C 4082.1719 -1816.4453 4080.6719 -1817.8516 4080.6719 -1820.0078 L 4080.6719 -1826.8516 L 4095.6719 -1826.8516 L 4095.6719 -1836.0391 C 4095.6719 -1846.8203 4098.5781 -1855.2578 4104.4844 -1861.3516 C 4110.2969 -1867.1641 4118.1719 -1870.1641 4128.2969 -1870.1641 z M 3026.6719 -1868.1953 L 3072.2344 -1868.1953 L 3072.2344 -1860.1328 C 3072.2344 -1858.1641 3071.2969 -1856.9453 3069.4219 -1856.6641 C 3063.0469 -1855.3516 3059.4844 -1854.6016 3058.7344 -1854.5078 L 3083.6719 -1770.5078 C 3084.4219 -1767.6953 3085.2656 -1763.8516 3086.2031 -1758.9766 C 3087.3281 -1764.5078 3088.2656 -1768.3516 3089.0156 -1770.5078 L 3120.6094 -1863.8828 C 3120.9844 -1864.9141 3121.6406 -1865.8516 3122.7656 -1866.7891 C 3123.8906 -1867.7266 3125.2031 -1868.1953 3126.7969 -1868.1953 L 3132.0469 -1868.1953 C 3135.1406 -1868.1016 3137.2031 -1866.6953 3138.2344 -1863.8828 L 3169.6406 -1770.5078 C 3170.7656 -1767.2266 3171.7031 -1763.4766 3172.6406 -1759.3516 C 3173.0156 -1761.3203 3173.2969 -1763.2891 3173.6719 -1765.1641 C 3173.9531 -1767.0391 3174.3281 -1768.8203 3174.8906 -1770.5078 L 3199.9219 -1854.5078 C 3199.1719 -1854.6016 3195.6094 -1855.3516 3189.3281 -1856.6641 C 3187.3594 -1857.0391 3186.3281 -1858.1641 3186.4219 -1860.1328 L 3186.4219 -1868.1953 L 3222.9844 -1868.1953 L 3230.9531 -1868.1016 L 3230.9531 -1860.0391 C 3230.9531 -1858.1641 3230.0156 -1856.9453 3228.1406 -1856.5703 L 3218.7656 -1854.4141 L 3181.0781 -1733.7578 L 3164.7656 -1733.7578 L 3130.7344 -1836.2266 C 3129.9844 -1838.1953 3129.4219 -1840.4453 3128.8594 -1842.9766 C 3128.4844 -1841.8516 3128.2031 -1840.7266 3127.9219 -1839.5078 C 3127.6406 -1838.2891 3127.3594 -1837.1641 3127.0781 -1836.2266 L 3092.8594 -1733.7578 L 3076.5469 -1733.7578 L 3038.9531 -1854.4141 C 3033.7031 -1855.6328 3030.6094 -1856.3828 3029.4844 -1856.6641 C 3027.6094 -1857.0391 3026.6719 -1858.1641 3026.6719 -1860.1328 L 3026.6719 -1868.1953 z M 3419.7695 -1859.6641 L 3428.207 -1859.6641 L 3428.207 -1826.9453 L 3455.3945 -1826.9453 L 3455.3945 -1814.8516 L 3428.207 -1814.8516 L 3428.207 -1757.8516 C 3428.207 -1753.8203 3429.1445 -1750.8203 3431.1133 -1748.9453 C 3432.9883 -1746.9766 3435.5195 -1746.0391 3438.6133 -1746.0391 C 3440.3008 -1746.0391 3441.8008 -1746.2266 3443.1133 -1746.6953 C 3444.4258 -1747.1641 3445.5508 -1747.7266 3446.4883 -1748.2891 C 3447.4258 -1748.8516 3448.1758 -1749.3203 3448.832 -1749.7891 C 3449.4883 -1750.2578 3450.0508 -1750.5391 3450.6133 -1750.5391 C 3451.457 -1750.5391 3452.207 -1749.9766 3452.957 -1748.9453 L 3457.832 -1740.9766 C 3454.9258 -1738.2578 3451.457 -1736.1016 3447.4258 -1734.6016 C 3443.3008 -1733.1016 3439.082 -1732.3516 3434.7695 -1732.3516 C 3427.2695 -1732.3516 3421.5508 -1734.4141 3417.5195 -1738.6328 C 3413.4883 -1742.7578 3411.5195 -1748.8516 3411.5195 -1756.7266 L 3411.5195 -1814.8516 L 3400.082 -1814.8516 C 3399.0508 -1814.8516 3398.207 -1815.1328 3397.5508 -1815.6953 C 3396.8008 -1816.2578 3396.5195 -1817.1953 3396.5195 -1818.5078 L 3396.5195 -1825.1641 L 3412.082 -1827.1328 L 3415.9258 -1856.4766 C 3416.0195 -1857.4141 3416.3945 -1858.1641 3417.1445 -1858.7266 C 3417.8008 -1859.2891 3418.6445 -1859.6641 3419.7695 -1859.6641 z M 2170.9199 -1830.6953 C 2176.2637 -1830.6953 2180.9512 -1829.7578 2185.0762 -1827.9766 C 2189.2012 -1826.2891 2192.6699 -1823.8516 2195.4824 -1820.6641 C 2198.2949 -1817.5703 2200.4512 -1813.8203 2201.8574 -1809.3203 C 2203.2637 -1804.9141 2204.0137 -1800.0391 2204.0137 -1794.7891 L 2204.0137 -1747.3516 C 2206.6387 -1746.8828 2212.0762 -1745.7578 2213.2949 -1745.5703 C 2214.9824 -1745.1953 2216.1074 -1743.7891 2216.1074 -1742.1016 L 2216.1074 -1734.0391 L 2204.0137 -1734.0391 L 2202.6074 -1734.0391 L 2196.6074 -1734.0391 C 2195.0137 -1734.0391 2193.7012 -1734.2266 2192.6699 -1734.7891 C 2191.6387 -1735.2578 2190.9824 -1736.2891 2190.7012 -1737.9766 L 2188.8262 -1746.7891 C 2186.2949 -1744.5391 2183.8574 -1742.4766 2181.5137 -1740.6953 C 2179.1699 -1738.9141 2176.6387 -1737.4141 2174.0137 -1736.1953 C 2171.3887 -1734.9766 2168.5762 -1734.0391 2165.6699 -1733.4766 C 2162.6699 -1732.8203 2159.3887 -1732.4453 2155.7324 -1732.4453 C 2152.0762 -1732.4453 2148.6074 -1733.0078 2145.4199 -1734.0391 C 2142.1387 -1735.0703 2139.4199 -1736.6641 2136.9824 -1738.7266 C 2134.6387 -1740.7891 2132.7637 -1743.4141 2131.3574 -1746.6016 C 2129.9512 -1749.6953 2129.2012 -1753.4453 2129.2012 -1757.7578 C 2129.2012 -1761.6016 2130.2324 -1765.1641 2132.2949 -1768.6328 C 2134.3574 -1772.1016 2137.7324 -1775.1953 2142.3262 -1777.9141 C 2146.9199 -1780.6328 2152.9199 -1782.7891 2160.3262 -1784.5703 C 2167.8262 -1786.2578 2176.9199 -1787.1953 2187.6074 -1787.1953 L 2187.6074 -1794.6016 C 2187.6074 -1802.0078 2186.0137 -1807.6328 2182.9199 -1811.4766 C 2179.7324 -1815.2266 2175.0449 -1817.1953 2168.8574 -1817.1953 C 2164.8262 -1817.1953 2161.3574 -1816.6328 2158.6387 -1815.6016 C 2155.8262 -1814.5703 2153.3887 -1813.4453 2151.4199 -1812.1328 C 2149.3574 -1810.8203 2147.5762 -1809.6953 2146.1699 -1808.6641 C 2144.6699 -1807.6328 2143.1699 -1807.0703 2141.7637 -1807.0703 C 2140.6387 -1807.0703 2139.7012 -1807.4453 2138.8574 -1808.0078 C 2138.0137 -1808.5703 2137.3574 -1809.3203 2136.7949 -1810.2578 L 2133.7949 -1815.5078 C 2139.0449 -1820.6641 2144.6699 -1824.4141 2150.7637 -1826.8516 C 2156.8574 -1829.3828 2163.6074 -1830.6953 2170.9199 -1830.6953 z M 3855.123 -1830.6953 C 3860.4668 -1830.6953 3865.1543 -1829.7578 3869.2793 -1827.9766 C 3873.4043 -1826.2891 3876.873 -1823.8516 3879.6855 -1820.6641 C 3882.498 -1817.5703 3884.6543 -1813.8203 3886.0605 -1809.3203 C 3887.4668 -1804.9141 3888.2168 -1800.0391 3888.2168 -1794.7891 L 3888.2168 -1747.3516 C 3890.8418 -1746.8828 3896.2793 -1745.7578 3897.498 -1745.5703 C 3899.1855 -1745.1953 3900.3105 -1743.7891 3900.3105 -1742.1016 L 3900.3105 -1734.0391 L 3888.2168 -1734.0391 L 3886.8105 -1734.0391 L 3880.8105 -1734.0391 C 3879.2168 -1734.0391 3877.9043 -1734.2266 3876.873 -1734.7891 C 3875.8418 -1735.2578 3875.1855 -1736.2891 3874.9043 -1737.9766 L 3873.0293 -1746.7891 C 3870.498 -1744.5391 3868.0605 -1742.4766 3865.7168 -1740.6953 C 3863.373 -1738.9141 3860.8418 -1737.4141 3858.2168 -1736.1953 C 3855.5918 -1734.9766 3852.7793 -1734.0391 3849.873 -1733.4766 C 3846.873 -1732.8203 3843.5918 -1732.4453 3839.9355 -1732.4453 C 3836.2793 -1732.4453 3832.8105 -1733.0078 3829.623 -1734.0391 C 3826.3418 -1735.0703 3823.623 -1736.6641 3821.1855 -1738.7266 C 3818.8418 -1740.7891 3816.9668 -1743.4141 3815.5605 -1746.6016 C 3814.1543 -1749.6953 3813.4043 -1753.4453 3813.4043 -1757.7578 C 3813.4043 -1761.6016 3814.4355 -1765.1641 3816.498 -1768.6328 C 3818.5605 -1772.1016 3821.9355 -1775.1953 3826.5293 -1777.9141 C 3831.123 -1780.6328 3837.123 -1782.7891 3844.5293 -1784.5703 C 3852.0293 -1786.2578 3861.123 -1787.1953 3871.8105 -1787.1953 L 3871.8105 -1794.6016 C 3871.8105 -1802.0078 3870.2168 -1807.6328 3867.123 -1811.4766 C 3863.9355 -1815.2266 3859.248 -1817.1953 3853.0605 -1817.1953 C 3849.0293 -1817.1953 3845.5605 -1816.6328 3842.8418 -1815.6016 C 3840.0293 -1814.5703 3837.5918 -1813.4453 3835.623 -1812.1328 C 3833.5605 -1810.8203 3831.7793 -1809.6953 3830.373 -1808.6641 C 3828.873 -1807.6328 3827.373 -1807.0703 3825.9668 -1807.0703 C 3824.8418 -1807.0703 3823.9043 -1807.4453 3823.0605 -1808.0078 C 3822.2168 -1808.5703 3821.5605 -1809.3203 3820.998 -1810.2578 L 3817.998 -1815.5078 C 3823.248 -1820.6641 3828.873 -1824.4141 3834.9668 -1826.8516 C 3841.0605 -1829.3828 3847.8105 -1830.6953 3855.123 -1830.6953 z M 2574.2754 -1830.5078 C 2579.1504 -1830.5078 2583.4629 -1829.3828 2587.3066 -1827.1328 L 2585.1504 -1814.6641 C 2584.6816 -1813.0703 2583.8379 -1812.3203 2582.7129 -1812.3203 C 2581.4941 -1812.3203 2579.9941 -1812.6016 2578.2129 -1813.1641 C 2576.3379 -1813.7266 2573.8066 -1814.1016 2570.6191 -1814.1016 C 2559.7441 -1814.1016 2551.5879 -1807.4453 2546.2441 -1794.3203 L 2546.2441 -1747.5391 C 2547.7441 -1747.1641 2551.3066 -1746.5078 2556.9316 -1745.3828 C 2558.8066 -1745.0078 2559.7441 -1743.7891 2559.7441 -1741.9141 L 2559.7441 -1733.8516 L 2516.0566 -1733.8516 L 2516.0566 -1741.9141 C 2516.0566 -1743.7891 2516.9941 -1745.0078 2518.8691 -1745.3828 L 2529.5566 -1747.5391 L 2529.5566 -1815.1328 C 2523.5566 -1816.2578 2519.9941 -1817.0078 2518.8691 -1817.2891 C 2516.9941 -1817.6641 2516.0566 -1818.7891 2516.0566 -1820.7578 L 2516.0566 -1828.8203 L 2529.5566 -1828.8203 L 2539.1191 -1828.8203 C 2540.9004 -1828.7266 2542.1191 -1828.4453 2542.8691 -1827.7891 C 2543.5254 -1827.0391 2543.9941 -1825.8203 2544.2754 -1824.2266 L 2545.4004 -1809.4141 C 2552.3379 -1823.4766 2561.9004 -1830.5078 2574.2754 -1830.5078 z M 3969.9062 -1830.5078 C 3974.7812 -1830.5078 3979.0938 -1829.3828 3982.9375 -1827.1328 L 3980.7812 -1814.6641 C 3980.3125 -1813.0703 3979.4688 -1812.3203 3978.3438 -1812.3203 C 3977.125 -1812.3203 3975.625 -1812.6016 3973.8438 -1813.1641 C 3971.9688 -1813.7266 3969.4375 -1814.1016 3966.25 -1814.1016 C 3955.375 -1814.1016 3947.2188 -1807.4453 3941.875 -1794.3203 L 3941.875 -1747.5391 C 3943.375 -1747.1641 3946.9375 -1746.5078 3952.5625 -1745.3828 C 3954.4375 -1745.0078 3955.375 -1743.7891 3955.375 -1741.9141 L 3955.375 -1733.8516 L 3911.6875 -1733.8516 L 3911.6875 -1741.9141 C 3911.6875 -1743.7891 3912.625 -1745.0078 3914.5 -1745.3828 L 3925.1875 -1747.5391 L 3925.1875 -1815.1328 C 3919.1875 -1816.2578 3915.625 -1817.0078 3914.5 -1817.2891 C 3912.625 -1817.6641 3911.6875 -1818.7891 3911.6875 -1820.7578 L 3911.6875 -1828.8203 L 3925.1875 -1828.8203 L 3934.75 -1828.8203 C 3936.5312 -1828.7266 3937.75 -1828.4453 3938.5 -1827.7891 C 3939.1562 -1827.0391 3939.625 -1825.8203 3939.9062 -1824.2266 L 3941.0312 -1809.4141 C 3947.9688 -1823.4766 3957.5312 -1830.5078 3969.9062 -1830.5078 z M 2457.873 -1830.4141 C 2461.998 -1830.3203 2465.8418 -1829.9453 2469.4043 -1829.0078 C 2472.9668 -1828.0703 2476.248 -1826.7578 2479.248 -1825.0703 L 2505.0293 -1825.0703 L 2505.0293 -1818.8828 C 2505.0293 -1816.8203 2503.7168 -1815.5078 2501.0918 -1814.9453 L 2490.3105 -1813.4453 C 2492.373 -1809.3203 2493.498 -1804.8203 2493.498 -1799.8516 C 2493.498 -1795.1641 2492.5605 -1790.9453 2490.7793 -1787.1953 C 2488.998 -1783.4453 2486.5605 -1780.1641 2483.373 -1777.5391 C 2480.1855 -1774.8203 2476.4355 -1772.7578 2472.123 -1771.3516 C 2467.8105 -1769.8516 2463.0293 -1769.1953 2457.873 -1769.1953 C 2453.373 -1769.1953 2449.248 -1769.6641 2445.3105 -1770.7891 C 2443.248 -1769.4766 2441.748 -1768.1641 2440.7168 -1766.7578 C 2439.6855 -1765.2578 2439.2168 -1763.8516 2439.2168 -1762.5391 C 2439.2168 -1760.2891 2440.0605 -1758.5078 2441.9355 -1757.3828 C 2443.7168 -1756.2578 2446.1543 -1755.4141 2449.1543 -1754.9453 C 2452.1543 -1754.3828 2455.5293 -1754.1016 2459.373 -1754.0078 C 2463.123 -1753.8203 2467.0605 -1753.6328 2470.998 -1753.3516 C 2474.9355 -1753.0703 2478.873 -1752.6016 2482.7168 -1751.9453 C 2486.4668 -1751.1953 2489.9355 -1750.0703 2492.9355 -1748.5703 C 2495.9355 -1746.9766 2498.2793 -1744.8203 2500.1543 -1742.1016 C 2501.9355 -1739.2891 2502.873 -1735.7266 2502.873 -1731.4141 C 2502.873 -1727.2891 2501.8418 -1723.3516 2499.7793 -1719.6016 C 2497.7168 -1715.7578 2494.8105 -1712.3828 2491.0605 -1709.3828 C 2487.2168 -1706.3828 2482.5293 -1704.0391 2477.0918 -1702.2578 C 2471.5605 -1700.4766 2465.373 -1699.6328 2458.4355 -1699.6328 C 2451.498 -1699.6328 2445.4043 -1700.2891 2440.1543 -1701.6953 C 2434.9043 -1703.0078 2430.5918 -1704.8828 2427.2168 -1707.2266 C 2423.748 -1709.4766 2421.123 -1712.1953 2419.4355 -1715.1953 C 2417.748 -1718.1953 2416.9043 -1721.3828 2416.9043 -1724.7578 C 2416.9043 -1729.4453 2418.3105 -1733.3828 2421.3105 -1736.6641 C 2424.3105 -1739.9453 2428.3418 -1742.5703 2433.5918 -1744.5391 C 2430.873 -1745.7578 2428.7168 -1747.4453 2427.123 -1749.5078 C 2425.5293 -1751.5703 2424.7793 -1754.3828 2424.7793 -1757.9453 C 2424.7793 -1759.2578 2424.9668 -1760.6641 2425.5293 -1762.1641 C 2425.998 -1763.6641 2426.748 -1765.0703 2427.7793 -1766.5703 C 2428.8105 -1767.9766 2430.123 -1769.3828 2431.623 -1770.6953 C 2433.123 -1772.0078 2434.8105 -1773.1328 2436.873 -1774.1641 C 2432.1855 -1776.7891 2428.4355 -1780.2578 2425.8105 -1784.5703 C 2423.1855 -1788.8828 2421.873 -1794.0391 2421.873 -1799.8516 C 2421.873 -1804.4453 2422.7168 -1808.6641 2424.498 -1812.4141 C 2426.2793 -1816.1641 2428.8105 -1819.4453 2431.998 -1822.0703 C 2435.1855 -1824.6953 2438.9355 -1826.7578 2443.3418 -1828.2578 C 2447.748 -1829.6641 2452.623 -1830.4141 2457.873 -1830.4141 z M 2270.0449 -1830.3203 C 2277.2637 -1830.3203 2286.6387 -1827.9766 2298.1699 -1823.3828 L 2298.1699 -1798.7266 L 2290.6699 -1798.7266 C 2288.7949 -1798.7266 2287.7637 -1799.5703 2287.4824 -1801.3516 C 2287.2012 -1802.0078 2287.0137 -1804.3516 2286.7324 -1808.3828 C 2286.3574 -1812.3203 2286.1699 -1814.4766 2286.2637 -1814.6641 C 2283.1699 -1815.6016 2280.9199 -1816.1641 2279.2324 -1816.4453 C 2275.6699 -1817.0078 2272.1074 -1817.1953 2268.7324 -1817.1953 C 2265.3574 -1817.1016 2261.8887 -1816.2578 2258.4199 -1814.6641 C 2255.0449 -1813.0703 2252.0449 -1810.7266 2249.6074 -1807.6328 C 2244.8262 -1801.2578 2242.3887 -1792.5391 2242.3887 -1781.3828 C 2242.3887 -1770.0391 2244.9199 -1761.1328 2249.8887 -1754.7578 C 2254.7637 -1748.5703 2261.5137 -1745.4766 2270.0449 -1745.4766 C 2277.9199 -1745.4766 2284.8574 -1748.1016 2290.9512 -1753.3516 C 2292.1699 -1754.2891 2293.2949 -1754.8516 2294.6074 -1754.8516 C 2295.9199 -1754.8516 2296.8574 -1754.2891 2297.5137 -1753.2578 L 2302.2012 -1747.1641 C 2294.3262 -1737.4141 2282.6074 -1732.5391 2267.2324 -1732.5391 C 2255.0449 -1732.5391 2245.1074 -1736.7578 2237.4199 -1745.3828 C 2229.3574 -1754.1953 2225.3262 -1766.1953 2225.3262 -1781.3828 C 2225.3262 -1795.9141 2229.1699 -1807.6328 2236.8574 -1816.5391 C 2244.9199 -1825.7266 2255.9824 -1830.3203 2270.0449 -1830.3203 z M 2636.9121 -1830.3203 C 2643.8496 -1830.3203 2650.0371 -1829.1016 2655.6621 -1826.8516 C 2661.2871 -1824.5078 2665.9746 -1821.2266 2669.9121 -1817.0078 C 2673.8496 -1812.6953 2676.8496 -1807.5391 2678.9121 -1801.5391 C 2680.9746 -1795.5391 2682.0996 -1788.7891 2682.0996 -1781.3828 C 2682.0996 -1773.8828 2680.9746 -1767.1328 2678.9121 -1761.1328 C 2676.8496 -1755.1328 2673.8496 -1749.9766 2669.9121 -1745.7578 C 2665.9746 -1741.4453 2661.2871 -1738.1641 2655.6621 -1735.9141 C 2650.0371 -1733.6641 2643.8496 -1732.5391 2636.9121 -1732.5391 C 2629.9746 -1732.5391 2623.6934 -1733.6641 2618.0684 -1735.9141 C 2612.4434 -1738.1641 2607.7559 -1741.4453 2603.8184 -1745.7578 C 2599.8809 -1749.9766 2596.7871 -1755.1328 2594.7246 -1761.1328 C 2592.5684 -1767.1328 2591.5371 -1773.8828 2591.5371 -1781.3828 C 2591.5371 -1788.7891 2592.5684 -1795.5391 2594.7246 -1801.5391 C 2596.7871 -1807.5391 2599.8809 -1812.6953 2603.8184 -1817.0078 C 2607.7559 -1821.2266 2612.4434 -1824.5078 2618.0684 -1826.8516 C 2623.6934 -1829.1016 2629.9746 -1830.3203 2636.9121 -1830.3203 z M 2867.2129 -1830.3203 C 2877.4316 -1830.3203 2885.3066 -1826.9453 2890.9316 -1820.3828 C 2896.2754 -1814.0078 2898.9941 -1805.2891 2898.9941 -1794.3203 L 2898.9941 -1747.5391 C 2904.9941 -1746.3203 2908.5566 -1745.5703 2909.6816 -1745.3828 C 2911.5566 -1745.0078 2912.5879 -1743.7891 2912.5879 -1741.9141 L 2912.5879 -1733.8516 L 2882.3066 -1733.8516 L 2882.3066 -1794.3203 C 2882.3066 -1809.4141 2875.6504 -1817.0078 2862.3379 -1817.0078 C 2853.0566 -1817.0078 2844.5254 -1812.6016 2836.6504 -1803.7891 L 2836.6504 -1747.5391 C 2837.0254 -1747.4453 2840.5879 -1746.6953 2847.3379 -1745.3828 C 2849.2129 -1745.0078 2850.2441 -1743.7891 2850.2441 -1741.9141 L 2850.2441 -1733.8516 L 2806.4629 -1733.8516 L 2806.4629 -1741.9141 C 2806.4629 -1743.7891 2807.4004 -1745.0078 2809.2754 -1745.3828 L 2819.9629 -1747.5391 L 2819.9629 -1815.1328 C 2813.9629 -1816.2578 2810.4004 -1817.0078 2809.2754 -1817.2891 C 2807.4004 -1817.6641 2806.4629 -1818.7891 2806.4629 -1820.7578 L 2806.4629 -1828.8203 L 2819.9629 -1828.8203 L 2829.9004 -1828.8203 C 2832.2441 -1828.8203 2833.7441 -1827.6016 2834.4004 -1825.3516 L 2835.7129 -1815.0391 C 2844.9004 -1825.1641 2855.4004 -1830.3203 2867.2129 -1830.3203 z M 3772.9746 -1830.3203 C 3780.1934 -1830.3203 3789.5684 -1827.9766 3801.0996 -1823.3828 L 3801.0996 -1798.7266 L 3793.5996 -1798.7266 C 3791.7246 -1798.7266 3790.6934 -1799.5703 3790.4121 -1801.3516 C 3790.1309 -1802.0078 3789.9434 -1804.3516 3789.6621 -1808.3828 C 3789.2871 -1812.3203 3789.0996 -1814.4766 3789.1934 -1814.6641 C 3786.0996 -1815.6016 3783.8496 -1816.1641 3782.1621 -1816.4453 C 3778.5996 -1817.0078 3775.0371 -1817.1953 3771.6621 -1817.1953 C 3768.2871 -1817.1016 3764.8184 -1816.2578 3761.3496 -1814.6641 C 3757.9746 -1813.0703 3754.9746 -1810.7266 3752.5371 -1807.6328 C 3747.7559 -1801.2578 3745.3184 -1792.5391 3745.3184 -1781.3828 C 3745.3184 -1770.0391 3747.8496 -1761.1328 3752.8184 -1754.7578 C 3757.6934 -1748.5703 3764.4434 -1745.4766 3772.9746 -1745.4766 C 3780.8496 -1745.4766 3787.7871 -1748.1016 3793.8809 -1753.3516 C 3795.0996 -1754.2891 3796.2246 -1754.8516 3797.5371 -1754.8516 C 3798.8496 -1754.8516 3799.7871 -1754.2891 3800.4434 -1753.2578 L 3805.1309 -1747.1641 C 3797.2559 -1737.4141 3785.5371 -1732.5391 3770.1621 -1732.5391 C 3757.9746 -1732.5391 3748.0371 -1736.7578 3740.3496 -1745.3828 C 3732.2871 -1754.1953 3728.2559 -1766.1953 3728.2559 -1781.3828 C 3728.2559 -1795.9141 3732.0996 -1807.6328 3739.7871 -1816.5391 C 3747.8496 -1825.7266 3758.9121 -1830.3203 3772.9746 -1830.3203 z M 4031.418 -1830.3203 C 4037.043 -1830.2266 4042.293 -1829.2891 4047.168 -1827.4141 C 4051.9492 -1825.5391 4056.0742 -1822.7266 4059.6367 -1819.1641 C 4063.1055 -1815.6016 4065.8242 -1811.1016 4067.793 -1805.8516 C 4069.7617 -1800.6016 4070.793 -1794.6016 4070.793 -1787.8516 C 4070.793 -1785.2266 4070.5117 -1783.4453 4069.9492 -1782.6016 C 4069.3867 -1781.6641 4068.2617 -1781.2891 4066.7617 -1781.2891 L 4003.5742 -1781.2891 C 4003.668 -1775.2891 4004.5117 -1770.0391 4006.0117 -1765.6328 C 4007.5117 -1761.1328 4009.5742 -1757.4766 4012.1992 -1754.4766 C 4014.8242 -1751.4766 4017.918 -1749.3203 4021.5742 -1747.8203 C 4025.1367 -1746.3203 4029.2617 -1745.6641 4033.7617 -1745.6641 C 4037.8867 -1745.6641 4041.543 -1746.1328 4044.543 -1747.0703 C 4047.543 -1748.0078 4050.168 -1749.1328 4052.418 -1750.2578 C 4054.5742 -1751.3828 4056.3555 -1752.4141 4057.8555 -1753.3516 C 4059.3555 -1754.2891 4060.5742 -1754.8516 4061.6992 -1754.8516 C 4063.0117 -1754.8516 4064.1367 -1754.2891 4064.8867 -1753.2578 L 4069.5742 -1747.1641 C 4067.5117 -1744.6328 4064.9805 -1742.4766 4062.168 -1740.6016 C 4059.2617 -1738.7266 4056.168 -1737.2266 4052.8867 -1736.1016 C 4049.6055 -1734.8828 4046.2305 -1733.9453 4042.7617 -1733.3828 C 4039.1992 -1732.8203 4035.7305 -1732.5391 4032.3555 -1732.5391 C 4025.793 -1732.5391 4019.6992 -1733.5703 4014.168 -1735.8203 C 4008.6367 -1738.0703 4003.8555 -1741.2578 3999.8242 -1745.5703 C 3995.793 -1749.8828 3992.6992 -1755.1328 3990.4492 -1761.5078 C 3988.1992 -1767.7891 3987.0742 -1775.0078 3987.0742 -1783.2578 C 3987.0742 -1789.8203 3988.0117 -1796.0078 3990.0742 -1801.8203 C 3992.1367 -1807.5391 3995.043 -1812.5078 3998.8867 -1816.7266 C 4002.6367 -1820.9453 4007.3242 -1824.2266 4012.8555 -1826.6641 C 4018.293 -1829.1016 4024.4805 -1830.3203 4031.418 -1830.3203 z M 2688.9141 -1828.8203 L 2719.1016 -1828.8203 L 2719.1016 -1768.2578 C 2719.1016 -1761.0391 2720.6953 -1755.5078 2724.0703 -1751.5703 C 2727.3516 -1747.6328 2732.3203 -1745.6641 2738.9766 -1745.6641 C 2748.4453 -1745.6641 2757.0703 -1749.9766 2764.7578 -1758.7891 L 2764.7578 -1815.1328 C 2763.6328 -1815.3203 2760.0703 -1816.0703 2754.1641 -1817.2891 C 2752.1953 -1817.6641 2751.2578 -1818.7891 2751.2578 -1820.7578 L 2751.2578 -1828.8203 L 2764.7578 -1828.8203 L 2781.4453 -1828.8203 L 2781.4453 -1747.5391 C 2787.4453 -1746.3203 2791.0078 -1745.5703 2792.1328 -1745.2891 C 2794.0078 -1744.9141 2795.0391 -1743.7891 2795.0391 -1741.8203 L 2795.0391 -1733.7578 L 2771.5078 -1733.7578 C 2769.0703 -1733.7578 2767.5703 -1734.9766 2767.0078 -1737.2266 L 2765.6953 -1747.4453 C 2756.5078 -1737.3203 2746.0078 -1732.2578 2734.1953 -1732.2578 C 2724.0703 -1732.2578 2716.1016 -1735.5391 2710.4766 -1742.1016 C 2705.0391 -1748.3828 2702.4141 -1757.1016 2702.4141 -1768.2578 L 2702.4141 -1815.1328 C 2696.4141 -1816.2578 2692.8516 -1817.0078 2691.7266 -1817.2891 C 2689.8516 -1817.6641 2688.9141 -1818.7891 2688.9141 -1820.7578 L 2688.9141 -1828.8203 z M 4147.5332 -1828.8203 L 4177.7207 -1828.8203 L 4177.7207 -1768.2578 C 4177.7207 -1761.0391 4179.3145 -1755.5078 4182.6895 -1751.5703 C 4185.9707 -1747.6328 4190.9395 -1745.6641 4197.5957 -1745.6641 C 4207.0645 -1745.6641 4215.6895 -1749.9766 4223.377 -1758.7891 L 4223.377 -1815.1328 C 4222.252 -1815.3203 4218.6895 -1816.0703 4212.7832 -1817.2891 C 4210.8145 -1817.6641 4209.877 -1818.7891 4209.877 -1820.7578 L 4209.877 -1828.8203 L 4223.377 -1828.8203 L 4240.0645 -1828.8203 L 4240.0645 -1747.5391 C 4246.0645 -1746.3203 4249.627 -1745.5703 4250.752 -1745.2891 C 4252.627 -1744.9141 4253.6582 -1743.7891 4253.6582 -1741.8203 L 4253.6582 -1733.7578 L 4230.127 -1733.7578 C 4227.6895 -1733.7578 4226.1895 -1734.9766 4225.627 -1737.2266 L 4224.3145 -1747.4453 C 4215.127 -1737.3203 4204.627 -1732.2578 4192.8145 -1732.2578 C 4182.6895 -1732.2578 4174.7207 -1735.5391 4169.0957 -1742.1016 C 4163.6582 -1748.3828 4161.0332 -1757.1016 4161.0332 -1768.2578 L 4161.0332 -1815.1328 C 4155.0332 -1816.2578 4151.4707 -1817.0078 4150.3457 -1817.2891 C 4148.4707 -1817.6641 4147.5332 -1818.7891 4147.5332 -1820.7578 L 4147.5332 -1828.8203 z M 3240.0469 -1828.7266 L 3270.2344 -1828.7266 L 3270.2344 -1747.4453 C 3270.2344 -1747.4453 3279.2344 -1745.6641 3280.9219 -1745.3828 C 3282.5156 -1745.0078 3283.7344 -1743.6016 3283.7344 -1741.9141 L 3283.7344 -1733.8516 L 3240.0469 -1733.8516 L 3240.0469 -1741.9141 C 3240.0469 -1743.6016 3241.1719 -1745.0078 3242.8594 -1745.3828 C 3244.4531 -1745.6641 3253.5469 -1747.4453 3253.5469 -1747.4453 L 3253.5469 -1815.1328 C 3253.5469 -1815.1328 3244.4531 -1816.9141 3242.8594 -1817.1953 C 3241.1719 -1817.5703 3240.0469 -1818.9766 3240.0469 -1820.6641 L 3240.0469 -1828.7266 z M 2457.873 -1818.4141 C 2451.123 -1818.4141 2446.0605 -1816.6328 2442.498 -1813.2578 C 2438.9355 -1809.7891 2437.248 -1805.1953 2437.248 -1799.3828 C 2437.248 -1796.5703 2437.623 -1793.9453 2438.5605 -1791.6016 C 2439.498 -1789.2578 2440.8105 -1787.2891 2442.5918 -1785.6016 C 2444.2793 -1783.9141 2446.4355 -1782.6016 2449.0605 -1781.6641 C 2451.5918 -1780.7266 2454.498 -1780.2578 2457.873 -1780.2578 C 2461.248 -1780.2578 2464.1543 -1780.7266 2466.7793 -1781.6641 C 2469.4043 -1782.6016 2471.5605 -1783.9141 2473.3418 -1785.6016 C 2475.0293 -1787.2891 2476.3418 -1789.2578 2477.2793 -1791.6016 C 2478.123 -1793.9453 2478.5918 -1796.5703 2478.5918 -1799.3828 C 2478.5918 -1805.1953 2476.8105 -1809.7891 2473.248 -1813.2578 C 2469.6855 -1816.6328 2464.623 -1818.4141 2457.873 -1818.4141 z M 4031.793 -1818.0391 C 4023.7305 -1818.0391 4017.3555 -1815.6953 4012.7617 -1811.0078 C 4008.0742 -1806.3203 4005.2617 -1799.9453 4004.1367 -1791.6953 L 4055.793 -1791.6953 C 4055.793 -1795.5391 4055.2305 -1799.1016 4054.1992 -1802.2891 C 4053.0742 -1805.4766 4051.5742 -1808.2891 4049.5117 -1810.6328 C 4047.4492 -1812.9766 4044.918 -1814.7578 4041.918 -1816.0703 C 4038.918 -1817.3828 4035.543 -1818.0391 4031.793 -1818.0391 z M 2966.6816 -1817.4766 C 2957.5879 -1817.4766 2950.6504 -1814.2891 2945.9629 -1808.0078 C 2941.1816 -1801.6328 2938.8379 -1792.6328 2938.8379 -1781.0078 C 2938.8379 -1763.0078 2943.4316 -1752.0391 2952.7129 -1748.0078 C 2955.7129 -1746.6953 2959.0879 -1746.0391 2963.0254 -1746.0391 C 2972.8691 -1746.0391 2981.4004 -1750.8203 2988.5254 -1760.3828 L 2988.5254 -1806.3203 C 2983.0879 -1813.7266 2975.7754 -1817.4766 2966.6816 -1817.4766 z M 3337.6523 -1817.4766 C 3328.5586 -1817.4766 3321.6211 -1814.2891 3316.9336 -1808.0078 C 3312.1523 -1801.6328 3309.8086 -1792.6328 3309.8086 -1781.0078 C 3309.8086 -1763.0078 3314.4023 -1752.0391 3323.6836 -1748.0078 C 3326.6836 -1746.6953 3330.0586 -1746.0391 3333.9961 -1746.0391 C 3343.8398 -1746.0391 3352.3711 -1750.8203 3359.4961 -1760.3828 L 3359.4961 -1806.3203 C 3354.0586 -1813.7266 3346.7461 -1817.4766 3337.6523 -1817.4766 z M 2636.9121 -1817.1953 C 2632.1309 -1817.1016 2628.0059 -1816.3516 2624.5371 -1814.7578 C 2620.9746 -1813.0703 2618.0684 -1810.7266 2615.7246 -1807.7266 C 2613.3809 -1804.6328 2611.5996 -1800.8828 2610.4746 -1796.3828 C 2609.3496 -1791.8828 2608.7871 -1786.9141 2608.7871 -1781.2891 C 2608.7871 -1775.6641 2609.3496 -1770.6016 2610.4746 -1766.1953 C 2611.5996 -1761.6953 2613.3809 -1757.9453 2615.7246 -1754.9453 C 2618.0684 -1751.9453 2620.9746 -1749.6016 2624.5371 -1748.0078 C 2628.0059 -1746.3203 2632.1309 -1745.5703 2636.9121 -1745.5703 C 2646.2871 -1745.5703 2653.2246 -1748.6641 2657.9121 -1754.9453 C 2662.5059 -1761.2266 2664.8496 -1770.0391 2664.8496 -1781.2891 C 2664.8496 -1792.5391 2662.5059 -1801.3516 2657.9121 -1807.7266 C 2653.2246 -1814.0078 2646.2871 -1817.1953 2636.9121 -1817.1953 z M 2079.2402 -1817.0078 C 2073.8027 -1817.0078 2069.0215 -1815.6953 2064.8965 -1813.2578 C 2060.7715 -1810.7266 2057.0215 -1807.1641 2053.6465 -1802.6641 L 2053.6465 -1780.4453 L 2053.6465 -1756.7266 L 2053.6465 -1748.5703 C 2056.084 -1748.0078 2064.1465 -1746.0391 2072.3027 -1745.5703 C 2073.5215 -1745.5703 2074.7402 -1745.4766 2075.8652 -1745.4766 L 2077.084 -1745.4766 C 2080.834 -1745.6641 2084.209 -1746.4141 2087.3027 -1747.8203 C 2090.6777 -1749.4141 2093.584 -1751.7578 2096.0215 -1754.7578 C 2098.3652 -1757.8516 2100.2402 -1761.6016 2101.5527 -1766.0078 C 2102.7715 -1770.2266 2103.334 -1775.1016 2103.334 -1780.4453 C 2103.4277 -1780.9141 2103.4277 -1781.3828 2103.4277 -1781.9453 C 2103.4277 -1788.1328 2102.8652 -1793.3828 2101.7402 -1797.8828 C 2100.6152 -1802.2891 2099.1152 -1805.9453 2097.0527 -1808.7578 C 2094.9902 -1811.6641 2092.459 -1813.7266 2089.459 -1815.0391 C 2086.459 -1816.3516 2082.9902 -1817.0078 2079.2402 -1817.0078 z M 3628.668 -1797.1328 L 3674.9805 -1797.1328 L 3674.9805 -1782.9766 L 3628.668 -1782.9766 L 3628.668 -1797.1328 z M 2187.6074 -1776.5078 C 2179.9199 -1776.5078 2173.3574 -1776.0391 2168.0137 -1775.1016 C 2162.6699 -1774.0703 2158.2637 -1772.8516 2154.8887 -1771.2578 C 2151.5137 -1769.6641 2149.0762 -1767.8828 2147.5762 -1765.7266 C 2145.9824 -1763.5703 2145.2324 -1761.2266 2145.2324 -1758.5078 C 2145.2324 -1756.0703 2145.6074 -1753.8203 2146.4512 -1752.0391 C 2147.2949 -1750.2578 2148.3262 -1748.7578 2149.7324 -1747.5391 C 2151.1387 -1746.4141 2152.7324 -1745.5703 2154.6074 -1745.0078 C 2156.4824 -1744.4453 2158.5449 -1744.1641 2160.7012 -1744.1641 C 2163.6074 -1744.1641 2166.3262 -1744.5391 2168.7637 -1745.1016 C 2171.2012 -1745.6641 2173.5449 -1746.5078 2175.7012 -1747.6328 C 2177.8574 -1748.7578 2179.9199 -1750.0703 2181.8887 -1751.5703 C 2183.8574 -1753.1641 2185.7324 -1754.9453 2187.6074 -1756.9141 L 2187.6074 -1776.5078 z M 3871.8105 -1776.5078 C 3864.123 -1776.5078 3857.5605 -1776.0391 3852.2168 -1775.1016 C 3846.873 -1774.0703 3842.4668 -1772.8516 3839.0918 -1771.2578 C 3835.7168 -1769.6641 3833.2793 -1767.8828 3831.7793 -1765.7266 C 3830.1855 -1763.5703 3829.4355 -1761.2266 3829.4355 -1758.5078 C 3829.4355 -1756.0703 3829.8105 -1753.8203 3830.6543 -1752.0391 C 3831.498 -1750.2578 3832.5293 -1748.7578 3833.9355 -1747.5391 C 3835.3418 -1746.4141 3836.9355 -1745.5703 3838.8105 -1745.0078 C 3840.6855 -1744.4453 3842.748 -1744.1641 3844.9043 -1744.1641 C 3847.8105 -1744.1641 3850.5293 -1744.5391 3852.9668 -1745.1016 C 3855.4043 -1745.6641 3857.748 -1746.5078 3859.9043 -1747.6328 C 3862.0605 -1748.7578 3864.123 -1750.0703 3866.0918 -1751.5703 C 3868.0605 -1753.1641 3869.9355 -1754.9453 3871.8105 -1756.9141 L 3871.8105 -1776.5078 z M 2443.5293 -1741.8203 C 2439.9668 -1740.1328 2437.0605 -1738.0703 2434.8105 -1735.6328 C 2432.5605 -1733.1953 2431.5293 -1730.2891 2431.5293 -1726.9141 C 2431.5293 -1724.7578 2431.998 -1722.7891 2433.123 -1720.9141 C 2434.248 -1719.0391 2435.9355 -1717.4453 2438.1855 -1716.1328 C 2440.4355 -1714.8203 2443.248 -1713.6953 2446.623 -1712.9453 C 2449.998 -1712.1953 2454.0293 -1711.8203 2458.7168 -1711.8203 C 2463.2168 -1711.8203 2467.248 -1712.1953 2470.8105 -1713.0391 C 2474.373 -1713.7891 2477.373 -1715.0078 2479.8105 -1716.5078 C 2482.248 -1718.0078 2484.2168 -1719.7891 2485.5293 -1721.8516 C 2486.8418 -1723.9141 2487.498 -1726.1641 2487.498 -1728.6953 C 2487.498 -1731.0391 2486.8418 -1732.9141 2485.5293 -1734.4141 C 2484.2168 -1735.8203 2482.4355 -1736.9453 2480.1855 -1737.6953 C 2477.9355 -1738.4453 2475.3105 -1739.1016 2472.4043 -1739.4766 C 2469.4043 -1739.8516 2466.3105 -1740.0391 2463.123 -1740.2266 C 2459.8418 -1740.4141 2456.5605 -1740.6016 2453.1855 -1740.7891 C 2449.8105 -1740.9766 2446.5293 -1741.2578 2443.5293 -1741.8203 z "
       transform="translate(0,452.36216)"
       id="path21"
       inkscape:label="width" />
  </g>
  <g
     inkscape:groupmode="layer"
     id="layer1"
     inkscape:label="bird"
     style="display:none">
    <g
       transform="matrix(-0.38499866,0,0,0.38499866,204.22603,49.462824)"
       id="layer1-5"
       inkscape:label="Ebene 1"
       style="fill:#a05a2c;stroke:#2b1100;stroke-width:12.98705864;stroke-miterlimit:4;stroke-dasharray:none">
      <path
         inkscape:connector-curvature="0"
         id="path5510"
         d="m 308.65625,495.28125 c -0.55306,0.0169 -1.10391,0.0556 -1.6875,0.125 C 288.29402,497.62708 292.29998,508.16124 285,517 c -7.29998,8.83876 -2.06309,21.69128 -9.65625,33.21875 -35.04614,32.50819 -41.06063,38.97216 -48.375,-22.15625 -28.74026,-34.30549 -50.72823,-23.44742 -49.65625,-5.6875 1.07198,17.75992 -9.51668,2.36043 -12.5,5.34375 -2.98332,2.98332 -7.14832,7.30678 -6.25,11.78125 0.89832,4.47447 7.54265,4.86449 9.28125,11.4375 1.7386,6.57301 -0.94812,15.38177 -3.03125,25.875 -2.08313,10.49323 -8.32309,24.24346 -6.96875,36.96875 1.35434,12.72529 3.62641,24.71317 13.59375,35 9.96734,10.28683 25.76344,22.0499 42.125,21.4375 16.36156,-0.6124 36.69944,-33.77652 43.59375,-26.4375 6.89431,7.33902 -18.97675,39.27129 17.84375,49.28125 4.64326,15.54583 8.09742,36.14471 5,45.71875 -3.09742,9.57404 9.09902,3.06607 15,1.4375 5.90098,-1.62857 -5.6833,-15.65064 -3.5625,-17.15625 2.1208,-1.50561 4.59714,-11.94235 4.09375,-17.3125 2.05565,-4.68632 4.68315,-7.62325 12.3125,-3.9375 3.3662,2.5287 4.22349,5.2497 5.71875,9.125 1.49526,3.8753 4.54219,4.01044 6.4375,10 1.89531,5.98956 0.52169,23.66253 0.71875,25.71875 0.19706,2.05622 17.40599,3.19509 17.84375,-2.875 0.43776,-6.07009 -7.96461,-19.55049 -7.5,-38.03125 0.46461,-18.48076 7.08805,-7.95804 9.28125,-27.84375 2.1932,-19.88571 14.77772,-3.13637 20.5625,-9.46875 5.78478,-6.33238 29.17471,-16.13199 34.4375,-23.5625 19.79595,24.37794 21.46039,12.39942 23.21875,29.625 1.75836,17.22558 -0.30817,24.15072 -0.15625,33.75 0.15191,9.59928 -8.49355,25.11989 -8.40625,31.25 0.0873,6.13011 -0.13308,-1.21983 7.84375,-0.53125 7.97682,0.68858 5.24181,-26.71277 12.15625,-26.59375 6.91444,0.11902 -0.95719,17.20233 2.15625,20 3.11344,2.79767 2.8134,5.52747 5,0 2.1866,-5.52747 2.70244,-36.7803 6.59375,-38.9375 3.89131,-2.15721 -9.78079,-23.68538 -7.5,-28.40625 2.28079,-4.72087 -1.39893,5.25744 4.28125,-3.21875 5.68018,-8.47619 9.60453,-46.47271 5.90625,-61.78125 -3.69828,-15.30854 -16.50761,-13.87654 -20,-24.09375 -3.49239,-10.21721 1.06132,-14.44104 -2.875,-26.25 -3.93632,-11.80896 -15.33796,-36.30546 -29.46875,-42.875 -14.13079,-6.56954 -27.73952,-3.66085 -37.65625,6.09375 -9.91673,9.7546 -6.24627,35.69903 -9.84375,39.09375 -3.59747,3.39472 -9.63918,-5.39159 -13.90625,-19.46875 -4.13371,-13.63725 -6.88648,-37.77257 -24.03125,-37.25 z m -110.78125,33.25 c 1.34771,-0.15955 2.49716,1.20929 3.6875,2.21875 -2.36417,1.74521 -4.601,2.62897 -6.375,0.125 1.01379,-1.61983 1.87887,-2.24802 2.6875,-2.34375 z m -33.78125,11.0625 15.46875,0.28125 c -0.23768,0.8081 -14.12505,1.36445 -15.46875,-0.28125 z"
         style="fill:#a05a2c;stroke:#2b1100;stroke-width:12.98705864;stroke-linecap:butt;stroke-linejoin:miter;stroke-miterlimit:4;stroke-dasharray:none;stroke-opacity:1" />
    </g>
  </g>
  <g
     inkscape:groupmode="layer"
     id="layer4"
     inkscape:label="startscreen"
     style="display:none">
    <text
       xml:space="preserve"
       style="font-style:normal;font-variant:normal;font-weight:normal;font-stretch:normal;font-size:70px;line-height:125%;font-family:Aleo;-inkscape-font-specification:Aleo;letter-spacing:0px;word-spacing:0px;fill:#000000;fill-opacity:1;stroke:none;stroke-width:1px;stroke-linecap:butt;stroke-linejoin:miter;stroke-opacity:1"
       x="243.67596"
       y="203.03279"
       id="text4138"
       sodipodi:linespacing="125%"><tspan
         sodipodi:role="line"
         id="tspan4140"
         x="251.1955"
         y="203.03279"
         style="text-align:center;text-anchor:middle">JoJo Let's </tspan><tspan
         sodipodi:role="line"
         x="243.67596"
         y="290.53278"
         id="tspan4146"
         style="text-align:center;text-anchor:middle">Gooo</tspan></text>
    <path
       style="fill:#008000;fill-rule:evenodd;stroke:#008000;stroke-width:1px;stroke-linecap:butt;stroke-linejoin:miter;stroke-opacity:1"
       d="M 187.83413,486.76013 301.50378,388.10268 182.81547,347.13244 Z"
       id="path4152"
       inkscape:connector-curvature="0"
       inkscape:label="#path4152"
       onclick="startGame();"
       onmouseup=""
       onload="" />
  </g>
  <g
     inkscape:groupmode="layer"
     id="layer5"
     inkscape:label="debugOverlay"
     style="display:none">
    <text
       xml:space="preserve"
       style="font-style:normal;font-variant:normal;font-weight:normal;font-stretch:normal;font-size:12.5px;line-height:125%;font-family:Aleo;-inkscape-font-specification:Aleo;letter-spacing:0px;word-spacing:0px;fill:#000000;fill-opacity:1;stroke:none;stroke-width:1px;stroke-linecap:butt;stroke-linejoin:miter;stroke-opacity:1"
       x="10.346291"
       y="18.742029"
       id="debugString"
       sodipodi:linespacing="125%"><tspan
         sodipodi:role="line"
         id="tspan4151"
         x="10.346291"
         y="18.742029">debugString</tspan></text>
  </g>
  <g
     inkscape:groupmode="layer"
     id="layer6"
     inkscape:label="hull"
     style="display:inline">
    <path
       style="color:#000000;display:inline;overflow:visible;visibility:visible;opacity:1;fill:#000000;fill-opacity:1;fill-rule:nonzero;stroke:none;stroke-width:5;stroke-linecap:butt;stroke-linejoin:miter;stroke-miterlimit:4;stroke-dasharray:none;stroke-dashoffset:0;stroke-opacity:1;marker:none;enable-background:accumulate"
       d="m -1182.938,-474.408 0,1548.816 2825.876,0 0,-1548.816 z M 0,0 480,0 480,600 0,600 Z"
       id="rect4822"
       inkscape:connector-curvature="0"
       sodipodi:nodetypes="cccccccccc" />
  </g>
</svg>
