<?xml version="1.0" encoding="utf-8"?>
<!-- Generator: Adobe Illustrator 19.0.0, SVG Export Plug-In . SVG Version: 6.00 Build 0)  -->
<svg
   xmlns:dc="http://purl.org/dc/elements/1.1/"
   xmlns:cc="http://creativecommons.org/ns#"
   xmlns:rdf="http://www.w3.org/1999/02/22-rdf-syntax-ns#"
   xmlns:svg="http://www.w3.org/2000/svg"
   xmlns="http://www.w3.org/2000/svg"
   xmlns:sodipodi="http://sodipodi.sourceforge.net/DTD/sodipodi-0.dtd"
   xmlns:inkscape="http://www.inkscape.org/namespaces/inkscape"
   version="1.1"
   id="Layer_1"
   x="0px"
   y="0px"
   viewBox="0 0 128 128"
   style="enable-background:new 0 0 128 128;"
   xml:space="preserve"
   inkscape:version="0.91 r13725"
   sodipodi:docname="icon.svg"
   inkscape:export-xdpi="43"
   inkscape:export-ydpi="43"><title
     id="title4145">Flappy SVG</title><metadata
     id="metadata17"><rdf:RDF><cc:Work
         rdf:about=""><dc:format>image/svg+xml</dc:format><dc:type
           rdf:resource="http://purl.org/dc/dcmitype/StillImage" /><dc:title>Flappy SVG</dc:title><cc:license
           rdf:resource="http://creativecommons.org/licenses/by/4.0/" /><dc:relation>https://fossasia.github.io/flappy-svg/</dc:relation><dc:identifier>https://github.com/fossasia/flappy-svg</dc:identifier></cc:Work><cc:License
         rdf:about="http://creativecommons.org/licenses/by/4.0/"><cc:permits
           rdf:resource="http://creativecommons.org/ns#Reproduction" /><cc:permits
           rdf:resource="http://creativecommons.org/ns#Distribution" /><cc:requires
           rdf:resource="http://creativecommons.org/ns#Notice" /><cc:requires
           rdf:resource="http://creativecommons.org/ns#Attribution" /><cc:permits
           rdf:resource="http://creativecommons.org/ns#DerivativeWorks" /></cc:License></rdf:RDF></metadata>
<style type="text/css">
	.st0{fill:#ABDEE2;}
	.st1{opacity:0.66;fill:#016861;}
	.st2{fill:#0E100B;}
	.st3{fill:none;}
	.st4{fill:#4F2E10;}
	.st5{fill:#AC7E2C;}
</style>
<path id="XMLID_1_" class="st0" d="M0.7,59c2.5-31.7,29-57.6,61.2-58.7c34.6-1.2,65,27.3,65.7,63.5c0.7,35.9-28.7,63.4-63.4,63.5
	C34.6,127.5,11.3,106.7,3.2,84C-1.3,71.7,0.5,61.5,0.7,59z"/>
<path id="XMLID_4_" class="st1" d="M16.3,41.8l11.4,74c33.5,24.3,69.6,2.4,69.6,2.4C129.5,97.5,127.5,65,127.5,65L77,10.5l-24.5,29
	L16.3,41.8z"/>
<path id="XMLID_5_" class="st2" d="M16.3,41.8c8.8-5.5,10.3-12,10.3-12c10.4,8.3,17.4,7.8,17.4,7.8c1.6-5.5-1-7.5-0.3-7.7l2.9,1.8
	l0.4-0.8l1.4,0.1l1.3-2.3l0,0c0,0-0.3-0.4,0.7,1.1c0.9,1.5,2.5,3,2.5,3c6.9-7.2,7.3-18.7,7.3-18.7c7.5,2.1,16.8-3.6,16.8-3.6
	c-3.9,6.1-5.1,11.8-5.1,11.8l-0.2,1.3c0,0-0.9-0.2-3.7,1.8c-6.6,4.7-4.6,12.9-4.6,12.9c-9.7,2.3-8.9,11.3-8.9,11.3s0.4,0.8-0.4,0
	c-6.6-6.2-14.9-0.2-14.9-0.2c-3.3-9.2-12.7-3.2-12.7-3.2C23.5,40.2,16.3,41.8,16.3,41.8z"/>
<line id="XMLID_3_" class="st3" x1="1.2" y1="77.2" x2="1.2" y2="77.2"/>
<path id="XMLID_7_" class="st3" d="M111.5,22.4"/>
<path id="XMLID_6_" class="st3" d="M1.2,77.2"/>
<path id="XMLID_9_" class="st4" d="M27.8,115.8l1.3-2.3c28.5-46,96.7-33.9,96.7-33.9c-13,44.6-53.8,46.9-53.8,46.9
	C46.7,131,27.8,115.8,27.8,115.8z"/>
<path id="XMLID_2_" class="st5" d="M94.3,69.8c3-0.2,4-6,4-6v-6.3l-1-1.2l0.2-1.3h2.7l4.7-2.2l3,1h3.5l2.7,0.5l1.3,1.5v1.5v1.2
	l-1.8,0.3l-4,2.5l-2.2,2l-0.8,3.7l-1.7,6.8C101.1,81,89.9,82,89.9,82c-7.2,6.5-6.8,18.5-6.8,18.5l0,5.3l0.8,3.7l2.5,1.7l1.3,1.3
	l-0.2,1.2h-3.5h-3.3v-2.3c0,0,0.8-0.3,0-0.8s-0.8-1.7-0.8-2.2s0-4.2,0-4.2v-2.7c0,0,0.7-0.7,0-1.3c-0.7-0.7-1.2-1.3-1.2-1.3v-2.3
	v-1.3c0,0,0.3-0.2-1.8,2.2c-2.2,2.3-4.3,10.3-4.3,10.3s0.5,1,1,1s1.2,0.3,1.2,0.3l1,1l0.2,1.2c0,0-0.7,0.7-1.2,0.7s2.2-0.2-0.5,0
	c-2.7,0.2-1.3,0.2-2.7,0.2c-1.3,0-2.5-0.2-2.5-0.2s0.3-1,0-1.7c-0.3-0.7,0,0.2,0-1.5c0-1.7-0.5-1.8-0.1-2.3c0.3-0.5,1.3-2.8,1.3-2.8
	l1.2-3.2l1.3-3.2l0.7-3.2l1.3-2.8l1.2-1.8v-2.2c-8.3,0.3-16-2.7-16-2.7c0.2,4.3-4.8,8.8-4.8,9.3s0,2,0,2v3.3v4c0,0,1.2,1.2,1.3,2
	c0.2,0.8,1.3,2.2,1.3,2.2l2,1.2c0,0,2-0.2,1.8,0.3c-0.2,0.5,0,1.5,0,1.5s0,0.5-1.2,0.8c-1.2,0.3-5.3,0.3-5.3,0.3v-1.8
	c0,0,0.7-0.7,0-1.2c-0.7-0.5-2.2-3.2-2.2-3.2l-3.3-6.7v-1.3c0,0,0.8-2,0.8-2.7c0-0.7,0.3-2.5,0.3-2.5l-0.2-3l-1,2.5
	c0,0-0.3,0-1.2,0.8c-0.8,0.8-2,2.2-2,2.2l-2,1.3l-1.2,2.5l-1.2,3.5v7.2l0.8,1.2l1.5,0.8l1,0.8l-1,1.7l-2.3,0.8l-2.3-1
	c0,0-1-1.7-1-2.2s0-4.2,0-4.2v-5.3v-3.2v-2.5c4.8-3.5,4.2-7.2,4.2-7.2l0.2-2l0.3-3.3l1-2.3l1.2-3.7l0.3-1.5l-1.5,1l-1.2,2l-1,2.3
	l-2.5,1h-1l1.3-2.7c0,0,0.7-1.7,1.3-2.2c0.7-0.5,3-1.7,3-1.7l1.2-1.5l2.5-2.5l2.2-2.8c4.7-4.2,6.2-3.5,6.2-3.5
	c13.7-15.7,21.5-3.3,21.5-3.3c11.2,1.7,12.3,6.2,12.3,6.2L94.3,69.8z"/>
</svg>
