<?xml version="1.0" encoding="UTF-8" standalone="no"?>
<!-- Created with Inkscape (http://www.inkscape.org/) -->

<svg
   xmlns:osb="http://www.openswatchbook.org/uri/2009/osb"
   xmlns:dc="http://purl.org/dc/elements/1.1/"
   xmlns:cc="http://creativecommons.org/ns#"
   xmlns:rdf="http://www.w3.org/1999/02/22-rdf-syntax-ns#"
   xmlns:svg="http://www.w3.org/2000/svg"
   xmlns="http://www.w3.org/2000/svg"
   xmlns:xlink="http://www.w3.org/1999/xlink"
   xmlns:sodipodi="http://sodipodi.sourceforge.net/DTD/sodipodi-0.dtd"
   xmlns:inkscape="http://www.inkscape.org/namespaces/inkscape"
   width="480"
   height="600"
   viewBox="0 0 480 600"
   id="svg2"
   version="1.1"
   inkscape:version="0.91 r13725"
   sodipodi:docname="background.svg"
   enable-background="new">
  <defs
     id="defs4">
    <inkscape:path-effect
       is_visible="true"
       id="path-effect16485"
       effect="spiro" />
    <inkscape:path-effect
       is_visible="true"
       id="path-effect16481"
       effect="spiro" />
    <inkscape:path-effect
       is_visible="true"
       id="path-effect16477"
       effect="spiro" />
    <inkscape:path-effect
       is_visible="true"
       id="path-effect16473"
       effect="spiro" />
    <inkscape:path-effect
       is_visible="true"
       id="path-effect16469"
       effect="spiro" />
    <inkscape:path-effect
       is_visible="true"
       id="path-effect16465"
       effect="spiro" />
    <inkscape:path-effect
       is_visible="true"
       id="path-effect16461"
       effect="spiro" />
    <inkscape:path-effect
       is_visible="true"
       id="path-effect16457"
       effect="spiro" />
    <inkscape:path-effect
       is_visible="true"
       id="path-effect16453"
       effect="spiro" />
    <inkscape:path-effect
       is_visible="true"
       id="path-effect16449"
       effect="spiro" />
    <inkscape:path-effect
       is_visible="true"
       id="path-effect16445"
       effect="spiro" />
    <inkscape:path-effect
       is_visible="true"
       id="path-effect16441"
       effect="spiro" />
    <inkscape:path-effect
       is_visible="true"
       id="path-effect16437"
       effect="spiro" />
    <inkscape:path-effect
       is_visible="true"
       id="path-effect16433"
       effect="spiro" />
    <inkscape:path-effect
       is_visible="true"
       id="path-effect16429"
       effect="spiro" />
    <inkscape:path-effect
       is_visible="true"
       id="path-effect16425"
       effect="spiro" />
    <inkscape:path-effect
       is_visible="true"
       id="path-effect16421"
       effect="spiro" />
    <inkscape:path-effect
       is_visible="true"
       id="path-effect16417"
       effect="spiro" />
    <inkscape:path-effect
       is_visible="true"
       id="path-effect16413"
       effect="spiro" />
    <inkscape:path-effect
       is_visible="true"
       id="path-effect16409"
       effect="spiro" />
    <inkscape:path-effect
       is_visible="true"
       id="path-effect16405"
       effect="spiro" />
    <inkscape:path-effect
       is_visible="true"
       id="path-effect16401"
       effect="spiro" />
    <inkscape:path-effect
       is_visible="true"
       id="path-effect16397"
       effect="spiro" />
    <inkscape:path-effect
       is_visible="true"
       id="path-effect16393"
       effect="spiro" />
    <inkscape:path-effect
       is_visible="true"
       id="path-effect16389"
       effect="spiro" />
    <inkscape:path-effect
       is_visible="true"
       id="path-effect16385"
       effect="spiro" />
    <linearGradient
       id="linearGradient7279">
      <stop
         id="stop7281"
         style="stop-color:#ffffff"
         offset="0" />
      <stop
         id="stop7283"
         style="stop-color:#ff0000;stop-opacity:1"
         offset="1" />
    </linearGradient>
    <inkscape:path-effect
       effect="spiro"
       id="path-effect7311"
       is_visible="true" />
    <inkscape:path-effect
       effect="spiro"
       id="path-effect7147"
       is_visible="true" />
    <inkscape:path-effect
       effect="spiro"
       id="path-effect18731"
       is_visible="true" />
    <inkscape:path-effect
       effect="spiro"
       id="path-effect18367"
       is_visible="true" />
    <inkscape:path-effect
       effect="spiro"
       id="path-effect18115"
       is_visible="true" />
    <linearGradient
       id="linearGradient4105">
      <stop
         id="stop10732"
         style="stop-color:#ffffff"
         offset="0" />
      <stop
         id="stop10734"
         style="stop-color:#a3bcdf"
         offset="1" />
    </linearGradient>
    <linearGradient
       id="linearGradient8147"
       osb:paint="solid">
      <stop
         style="stop-color:#ffd80c;stop-opacity:1;"
         offset="0"
         id="stop8149" />
    </linearGradient>
    <pattern
       y="0"
       x="0"
       height="6"
       width="6"
       patternUnits="userSpaceOnUse"
       id="EMFhbasepattern" />
    <pattern
       y="0"
       x="0"
       height="6"
       width="6"
       patternUnits="userSpaceOnUse"
       id="EMFhbasepattern-1" />
    <pattern
       y="0"
       x="0"
       height="6"
       width="6"
       patternUnits="userSpaceOnUse"
       id="EMFhbasepattern-2" />
    <filter
       inkscape:label="In and Out"
       inkscape:menu="Shadows and Glows"
       inkscape:menu-tooltip="Inner colorized shadow, outer black shadow"
       style="color-interpolation-filters:sRGB;"
       id="filter5144">
      <feGaussianBlur
         result="result0"
         in="SourceAlpha"
         stdDeviation="4"
         id="feGaussianBlur5146" />
      <feOffset
         dx="5"
         dy="5"
         result="result4"
         id="feOffset5148" />
      <feComposite
         in="SourceGraphic"
         in2="result4"
         operator="xor"
         result="result3"
         id="feComposite5150" />
    </filter>
    <linearGradient
       id="linearGradient10736">
      <stop
         offset="0"
         style="stop-color:#ffffff"
         id="stop4107" />
      <stop
         offset="1"
         style="stop-color:#d3ebf2;stop-opacity:1"
         id="stop4109" />
    </linearGradient>
  </defs>
  <sodipodi:namedview
     id="base"
     pagecolor="#ffffff"
     bordercolor="#666666"
     borderopacity="1.0"
     inkscape:pageopacity="0.0"
     inkscape:pageshadow="2"
     inkscape:zoom="1.28"
     inkscape:cx="-271.25055"
     inkscape:cy="405.34835"
     inkscape:document-units="px"
     inkscape:current-layer="g35107"
     showgrid="false"
     inkscape:window-width="1301"
     inkscape:window-height="744"
     inkscape:window-x="65"
     inkscape:window-y="24"
     inkscape:window-maximized="1"
     units="px"
     inkscape:snap-smooth-nodes="false"
     inkscape:object-nodes="false"
     inkscape:snap-others="false"
     inkscape:object-paths="false"
     inkscape:snap-intersection-paths="false"
     inkscape:snap-nodes="false"
     inkscape:snap-object-midpoints="true"
     inkscape:snap-global="false" />
  <metadata
     id="metadata7">
    <rdf:RDF>
      <cc:Work
         rdf:about="">
        <dc:format>image/svg+xml</dc:format>
        <dc:type
           rdf:resource="http://purl.org/dc/dcmitype/StillImage" />
        <dc:title></dc:title>
        <cc:license
           rdf:resource="http://creativecommons.org/licenses/by/3.0/" />
        <dc:creator>
          <cc:Agent>
            <dc:title>Nicco Kunzmann</dc:title>
          </cc:Agent>
        </dc:creator>
        <dc:contributor>
          <cc:Agent>
            <dc:title>Nicco Kunzmann, </dc:title>
          </cc:Agent>
        </dc:contributor>
      </cc:Work>
      <cc:License
         rdf:about="http://creativecommons.org/licenses/by/3.0/">
        <cc:permits
           rdf:resource="http://creativecommons.org/ns#Reproduction" />
        <cc:permits
           rdf:resource="http://creativecommons.org/ns#Distribution" />
        <cc:requires
           rdf:resource="http://creativecommons.org/ns#Notice" />
        <cc:requires
           rdf:resource="http://creativecommons.org/ns#Attribution" />
        <cc:permits
           rdf:resource="http://creativecommons.org/ns#DerivativeWorks" />
      </cc:License>
    </rdf:RDF>
  </metadata>
  <g
     sodipodi:insensitive="true"
     transform="translate(0,-452.36216)"
     inkscape:label="background"
     id="g35107"
     inkscape:groupmode="layer"><path
   style="fill:#8c7b5d;fill-opacity:1;fill-rule:evenodd;stroke:#000000;stroke-width:6.69995165px;stroke-linecap:butt;stroke-linejoin:miter;stroke-miterlimit:4;stroke-dasharray:none;stroke-opacity:1"
   d="m 6274.6271,793.26352 c 0,0 186.4936,381.60138 213.1996,366.40138 26.694,-15.3066 3411.72,-180.10266 3453.588,-203.00268 41.867,-22.79868 70.2673,-189.99869 70.2673,-189.99869 0,0 -182.8003,-76.19869 -228.5343,-64.79869 -45.733,11.40001 7.601,11.40001 -102.799,11.40001 -110.534,0 -148.667,22.90002 -247.601,11.50001 -99.2,-11.50001 -102.934,-22.90002 -160,-34.30002 -57.2,-11.4 -45.867,-95.3 -179.2,-91.4 -133.2,3.79998 -156.134,-15.29868 -289.467,26.59999 -133.333,41.89999 -76.133,41.89999 -213.333,41.89999 -137.2,0 -133.334,11.50002 -209.601,0 -76.133,-11.4 -45.6,-11.4 -156.133,-11.4 -110.4,0 -83.867,-7.59997 -198.133,11.4 -114.16,19.10004 -64.667,0 -178.96,22.90002 -114.307,22.80001 -95.2,-22.90002 -205.707,22.80001 -110.493,45.79999 -76.2,34.30002 -163.8,45.79999 -87.6,11.39868 -49.493,0 -186.693,11.39868 -137.094,11.4 -182.801,22.8 -251.4,22.8 -68.6,0 38.106,11.50002 -114.294,0 -152.4,-11.4 -171.4,-11.4 -285.707,-11.4 -114.293,0 -57.2,11.4 -148.599,0 -91.401,-11.4 -60.894,-18.99865 -129.494,-11.4 -68.6,7.60001 -87.5996,22.8 -87.5996,22.8 z"
   id="path35109"
   inkscape:connector-curvature="0" />
<path
   style="fill:#e1c5ad;fill-opacity:1;fill-rule:evenodd;stroke:#000000;stroke-width:6.69995165px;stroke-linecap:butt;stroke-linejoin:miter;stroke-miterlimit:4;stroke-dasharray:none;stroke-opacity:1"
   d="m 4710.1333,1181.665 c 16.2,-26.9067 242.5064,-409.5015 242.5064,-409.5015 l 199.2936,37.80001 c 21.6,10.70003 80.8001,26.90004 80.8001,26.90004 91.5998,32.29999 123.1064,-20.50002 123.1064,-20.50002 123.8934,0 183.1871,-16.09999 183.1871,-16.09999 l 215.5063,0 c 150.8004,0 247.8001,16.09999 247.8001,16.09999 199.4004,21.6 314.2002,-4.99999 314.2002,-4.99999 247.7872,5.4 326.8932,-16.5 326.8932,-16.5 183.201,-21.60001 237.894,15.09997 237.894,15.09997 166.999,16.10003 220.906,16.10003 220.906,16.10003 242.387,48.5 296.294,64.7 296.294,64.7 193.893,32.29999 328.6,32.29999 328.6,32.29999 172.4,0 269.36,-21.6 269.36,-21.6 220.933,-16.09999 258.667,-48.39998 258.667,-48.39998 l 150.8,0 264,0 c 161.6,26.89999 199.333,26.89999 199.333,26.89999 242.4,16.2 312.4,-16.2 312.4,-16.2 188.667,0 242.534,-21.49999 242.534,-21.49999 145.333,21.49999 220.933,5.4 220.933,5.4 150.8,16.09999 210,-5.4 210,-5.4 91.601,-10.8 118.534,-27.00001 118.534,-27.00001 86.2663,21.60001 113.0673,-5.7 113.0673,-5.7 26.799,21.49999 32.266,26.89999 32.266,26.89999 l 1249.733,89 c -86.134,70.09867 -1782.9343,466.29477 -1782.9343,466.29477 -1136.8,145.5067 -1460,161.6 -1460,161.6 -662.693,0 -1255.293,-53.8 -1255.293,-53.8 -1653.881,-91.6 -1907.1873,-113.2 -1907.1873,-113.2 -177.6936,-53.8933 -274.6938,-220.8933 -274.6938,-220.8933 z"
   id="path35111"
   inkscape:connector-curvature="0" />
<path
   style="fill:#efddc7;fill-opacity:1;fill-rule:evenodd;stroke:#000000;stroke-width:6.69995165px;stroke-linecap:butt;stroke-linejoin:miter;stroke-miterlimit:4;stroke-dasharray:none;stroke-opacity:1"
   d="m 4522.2398,774.2635 c 0,0 -148.6002,-68.59867 -205.6933,-68.59867 -57.1999,0 -251.5068,15.3 -377.2003,15.3 -125.7066,0 -331.3999,87.59869 -331.3999,87.59869 l 533.2934,49.50002 z"
   id="path35113"
   inkscape:connector-curvature="0" />
<path
   style="fill:#f3e4d1;fill-opacity:1;fill-rule:evenodd;stroke:#000000;stroke-width:6.69995165px;stroke-linecap:butt;stroke-linejoin:miter;stroke-miterlimit:4;stroke-dasharray:none;stroke-opacity:1"
   d="m 4838.4398,618.06481 c 0,0 182.8002,38.10001 198.0936,49.50001 15.1999,11.50002 156.1999,19.10004 171.3997,19.10004 15.2003,0 358.0938,-15.30001 358.0938,-15.30001 0,0 308.5999,-15.20003 335.1998,7.69999 26.7066,22.8 213.4002,26.59999 289.6002,53.29999 76.1065,26.70001 239.9998,91.39868 262.7998,79.99868 22.893,-11.4 -148.5999,68.60005 -201.8932,57.10003 -53.3065,-11.4 -369.5065,-57.10003 -472.3999,-57.10003 -102.8004,0 -468.4938,53.30004 -777.0937,38.10001 -308.6,-15.30001 -714.6933,-2.59999 -775.6934,-2.59999 -60.9067,0 144.1998,-67.90003 144.1998,-67.90003 l 6.6,-17.59866 c 26.8002,-10.99999 461.0935,-144.30003 461.0935,-144.30003 z"
   id="path35115"
   inkscape:connector-curvature="0" />
<path
   sodipodi:nodetypes="ccccccscccccccccccccccccccccccccc"
   style="fill:#e1c5ad;fill-opacity:1;fill-rule:evenodd;stroke:#000000;stroke-width:6.69995165px;stroke-linecap:butt;stroke-linejoin:miter;stroke-miterlimit:4;stroke-dasharray:none;stroke-opacity:1"
   d="m -5341.7893,1181.665 c 16.2,-26.9067 242.4992,-409.5015 242.4992,-409.5015 l 199.2974,37.80001 c 21.6,10.70003 80.7997,26.90004 80.7997,26.90004 91.5988,32.29999 123.0988,-20.50002 123.0988,-20.50002 123.9,0 183.1989,-16.09999 183.1989,-16.09999 l 215.4983,0 c 150.799,0 247.7991,16.09999 247.7991,16.09999 199.3957,21.6 314.196,-4.99999 314.196,-4.99999 247.8001,5.4 326.8933,-16.5 326.8933,-16.5 183.1999,-21.60001 237.9067,15.09997 237.9067,15.09997 166.9999,16.10003 220.8936,16.10003 220.8936,16.10003 242.4,48.5 296.2933,64.7 296.2933,64.7 193.9068,32.29999 328.6002,32.29999 328.6002,32.29999 172.3999,0 269.4001,-21.6 269.4001,-21.6 220.9063,-16.09999 258.6,-48.39998 258.6,-48.39998 l 150.7999,0 264.0001,0 c 161.6934,26.89999 199.3998,26.89999 199.3998,26.89999 242.40013,16.2 312.40033,-16.2 312.40033,-16.2 188.5866,0 217.54687,-64.67598 217.54687,-64.67598 145.4004,21.49999 220.8936,5.4 220.8936,5.4 150.7999,16.09999 210.1069,-5.4 210.1069,-5.4 91.5997,-10.8 118.4934,-27.00001 118.4934,-27.00001 86.199703,21.60001 137.945932,37.47599 137.945932,37.47599 26.8933,21.49999 32.2933,26.89999 32.2933,26.89999 l 1249.800268,89 c -86.1997,70.09867 -1782.98687,466.29477 -1782.98687,466.29477 -1136.80043,145.5067 -1459.98693,161.6 -1459.98693,161.6 -662.7068,0 -1255.2938,-53.8 -1255.2938,-53.8 -1653.8909,-91.6 -1907.1897,-113.2 -1907.1897,-113.2 -177.6983,-53.8933 -274.6976,-220.8933 -274.6976,-220.8933 z"
   id="path35117"
   inkscape:connector-curvature="0" />
<path
   style="fill:#c19e7e;fill-opacity:1;fill-rule:evenodd;stroke:#000000;stroke-width:6.69995165px;stroke-linecap:butt;stroke-linejoin:miter;stroke-miterlimit:4;stroke-dasharray:none;stroke-opacity:1"
   d="m 3724.2396,789.76354 c 0,0 -215.4931,22.8 -255.8935,22.8 -40.3998,0 -414.7999,-4.00002 -433.6933,-1.30001 -18.7998,2.7 -289.6002,17.50001 -297.6001,17.50001 -8.0933,0 -330,-16.2 -335.4,-16.2 -5.4,0 -106.3999,79.50002 -106.3999,86.19999 0,6.80003 -1325.29397,-2.59999 -1325.29397,-2.59999 l -246.4933,78.09867 c -21.6,13.40003 -39.093,30.99999 -39.093,30.99999 -10.707,9.4 -55.2001,65.9 -55.2001,65.9 -5.4,6.8001 1414.18667,64.7027 1414.18667,64.7027 l 2258.6806,-8.1066 -301.6933,-352.8948 z"
   id="path35119"
   inkscape:connector-curvature="0" />
<path
   style="fill:#575965;fill-opacity:1;fill-rule:evenodd;stroke:#000000;stroke-width:6.69995165px;stroke-linecap:butt;stroke-linejoin:miter;stroke-miterlimit:4;stroke-dasharray:none;stroke-opacity:1"
   d="m 2876.5462,819.96353 -163.7868,-41.9 -76.2001,-38.09868 -87.6,-3.79998 c 0,0 -61.0001,-61.00003 -114.3066,-61.00003 -53.4,0 -129.6,-3.79999 -144.7999,-11.4 -15.2003,-7.60002 -57.0935,-30.5 -95.2002,-38.10001 -38.0934,-7.60002 -7.6932,-19.00002 -83.8001,-7.60002 -76.2001,11.4 -72.3997,26.70001 -125.7998,34.30002 -53.2937,7.60002 -45.6935,22.80001 -91.4003,22.80001 -45.6931,0 -22.8,11.50002 -64.6932,0 -42,-11.4 -91.4934,-64.7 -144.7999,-72.30002 -53.2932,-7.69998 -19.0932,-22.8987 -68.6003,-7.69998 -49.493,15.3 -26.5999,26.7 -95.1997,26.7 -68.6004,0 -99.0936,-49.49869 -160.0002,-49.49869 -61.0002,0 -11.4,-30.50004 -99.0931,0 -87.6,30.49867 -34.3068,26.69869 -114.3071,38.09869 -79.9999,11.4 -41.8933,-11.4 -159.99977,11.4 -117.9869,22.89998 -45.6935,15.30001 -148.4934,22.89998 -102.8934,7.60001 -79.9998,-26.70001 -152.4,7.60001 -72.4002,34.30003 -7.6002,34.30003 -110.4936,45.70003 -102.7998,11.4 -110.5063,0 -190.5066,11.4 -79.9999,11.49997 -64.6933,11.49997 -114.1999,22.89997 -49.6002,11.40001 -87.6936,22.80001 -87.6936,22.80001 0,0 -45.7063,-3.79999 30.4937,3.9 76.2001,7.59869 99.1064,15.19866 262.9064,15.19866 163.8,0 121.8936,-19.09866 179.0004,0 57.1998,19.00002 -57.1068,-22.89865 99.093,22.90002 156.2004,45.70003 -19.0932,57.10003 182.8002,45.70003 201.89347,-11.50002 224.80027,-11.50002 342.89347,-22.90002 118.1065,-11.40001 -91.4003,-11.40001 163.8,-11.40001 255.1999,0 156.1999,-11.4 289.5067,0 133.2931,11.40001 41.8933,0 156.1867,11.40001 114.3066,11.4 -205.6933,22.90002 186.7068,22.90002 l 407.5999,0 c 186.6936,0 99,34.29997 274.2936,0 55.0933,-2.7 58.5997,5.1 118.0933,-22.90002 z"
   id="path35121"
   inkscape:connector-curvature="0" />
<path
   style="fill:#f7e5cd;fill-opacity:1;fill-rule:evenodd;stroke:#000000;stroke-width:6.69995165px;stroke-linecap:butt;stroke-linejoin:miter;stroke-miterlimit:4;stroke-dasharray:none;stroke-opacity:1"
   d="m 2358.4527,827.56354 c -87.6001,0 15.1998,-11.4 -198.0936,-11.4 -213.3998,0 -293.4001,-7.60002 -396.1999,-7.60002 -102.8935,0 -156.1999,-11.4 -312.4003,-11.4 l -293.2933,0 c -182.90647,0 -259.39987,-19.90002 -384.79987,-28.2 l -160.0002,-10.69867 c -53.1997,-3.6 -57.0931,22.89865 -186.6931,0 -129.507,-22.90001 -156.1068,-29.7 -220.9068,-6.9 -64.8,22.89865 -41.8933,22.89865 -95.2002,22.89865 -53.399998,0 -64.799998,-11.39863 -137.186498,-11.39863 -72.4002,0 -60.9066,-19.10003 -102.800402,0 -41.9064,18.99865 -72.3997,34.29865 -22.9062,45.69865 49.5066,11.40001 -72.4002,-26.7 118.106402,22.80001 190.493498,49.60003 118.0933,53.40001 236.186998,61.00003 118.1065,7.59997 11.4,-3.80003 148.5998,18.99997 137.1066,22.90002 -266.693498,22.90002 186.6,22.90002 453.4003,0 323.8002,-22.90002 495.29347,0 171.4002,22.89865 -133.38667,-3.79998 308.5068,34.29866 441.8935,38.09999 217.2001,26.60003 518.0935,38.09999 300.9998,11.4 163.8001,0 403.8001,0 240.0001,0 213.3997,3.8 274.2931,-22.89996 61.0002,-26.60004 56.7067,-74.49871 56.7067,-74.49871 -64.3063,-13.09999 -148.1065,-81.69999 -235.7065,-81.69999 z"
   id="path35123"
   inkscape:connector-curvature="0" />
<path
   style="fill:#c4987b;fill-opacity:1;fill-rule:evenodd;stroke:#000000;stroke-width:6.69995165px;stroke-linecap:butt;stroke-linejoin:miter;stroke-miterlimit:4;stroke-dasharray:none;stroke-opacity:1"
   d="m 2846.146,1033.4622 c 32.3069,0 199.3068,-75.4 239.7067,-83.5 40.4003,-8.09863 -51.1999,-5.39863 132,-13.39866 183.2004,-8.1 255.8934,-48.5 379.8001,-53.9 123.8934,-5.4 250.4934,-21.6 331.2936,-21.6 80.8932,0 53.8932,-16.09999 274.8001,-24.19999 220.8931,-8.10001 158.8932,-16.20001 328.6002,-16.20001 169.7863,0 96.9865,-21.50003 245.1865,-5.4 148.1065,16.20001 150.7999,-18.80003 202.0002,40.39999 51.1998,59.3 18.9066,32.40001 61.9998,86.20004 43.1065,53.89863 10.7065,56.59863 72.7068,64.69863 61.8931,8.1 48.4933,-10.8 75.3997,8.1 27,18.8 62.0004,61.9 62.0004,61.9 0,0 121.2,67.3961 -207.4002,86.196 -328.7066,18.9068 150.7998,37.7067 -598.0934,105.1067 -748.8002,67.2934 -856.6003,80.8001 -1115.2004,56.6001 -258.6,-24.3067 -325.8931,-10.8 -379.8001,-40.4001 -53.8932,-29.7066 -105,-250.6027 -105,-250.6027 z"
   id="path35125"
   inkscape:connector-curvature="0" />
<path
   style="fill:#575965;fill-opacity:1;fill-rule:evenodd;stroke:#000000;stroke-width:6.69995165px;stroke-linecap:butt;stroke-linejoin:miter;stroke-miterlimit:4;stroke-dasharray:none;stroke-opacity:1"
   d="m 12928.481,819.96353 -163.866,-41.9 -76.134,-38.09868 -87.6,-3.79998 c 0,0 -60.933,-61.00003 -114.266,-61.00003 -53.467,0 -129.6,-3.79999 -144.801,-11.4 -15.199,-7.60002 -57.066,-30.5 -95.199,-38.10001 -38.134,-7.60002 -7.734,-19.00002 -83.867,-7.60002 -76.133,11.4 -72.4,26.70001 -125.734,34.30002 -53.333,7.60002 -45.733,22.80001 -91.466,22.80001 -45.6,0 -22.8,11.50002 -64.667,0 -42,-11.4 -91.466,-64.7 -144.8,-72.30002 -53.333,-7.69998 -19.067,-22.8987 -68.533,-7.69998 -49.6,15.3 -26.667,26.7 -95.2,26.7 -68.667,0 -99.2,-49.49869 -160,-49.49869 -61.067,0 -11.467,-30.50004 -99.2,0 -87.6,30.49867 -34.267,26.69869 -114.267,38.09869 -80,11.4 -41.866,-11.4 -160,11.4 -118,22.89998 -45.733,15.30001 -148.533,22.89998 -102.8,7.60001 -80,-26.70001 -152.4,7.60001 -72.4,34.30003 -7.6,34.30003 -110.401,45.70003 -102.799,11.4 -110.533,0 -190.533,11.4 -80,11.49997 -64.666,11.49997 -114.267,22.89997 -49.599,11.40001 -87.6,22.80001 -87.6,22.80001 0,0 -45.733,-3.79999 30.401,3.9 76.266,7.59869 99.199,15.19866 262.933,15.19866 163.867,0 121.866,-19.09866 179.067,0 57.2,19.00002 -57.201,-22.89865 99.066,22.90002 156.134,45.70003 -19.066,57.10003 182.8,45.70003 201.867,-11.50002 224.8,-11.50002 342.934,-22.90002 118,-11.40001 -91.467,-11.40001 163.733,-11.40001 255.2,0 156.267,-11.4 289.467,0 133.333,11.40001 42,0 156.267,11.40001 114.266,11.4 -205.734,22.90002 186.666,22.90002 l 407.6,0 c 186.667,0 98.934,34.29997 274.267,0 55.067,-2.7 58.667,5.1 118.133,-22.90002 z"
   id="path35127"
   inkscape:connector-curvature="0" />
<path
   style="fill:#8c7b5d;fill-opacity:1;fill-rule:evenodd;stroke:#000000;stroke-width:6.69995165px;stroke-linecap:butt;stroke-linejoin:miter;stroke-miterlimit:4;stroke-dasharray:none;stroke-opacity:1"
   d="m 16326.616,793.26352 c 0,0 186.399,381.60138 213.2,366.40138 26.666,-15.3066 3411.6,-180.10266 3453.467,-203.00268 42,-22.79868 70.4,-189.99869 70.4,-189.99869 0,0 -182.8,-76.19869 -228.667,-64.79869 -45.733,11.40001 7.734,11.40001 -102.8,11.40001 -110.533,0 -148.533,22.90002 -247.6,11.50001 -99.066,-11.50001 -102.933,-22.90002 -160,-34.30002 -57.2,-11.4 -45.733,-95.3 -179.067,-91.4 -133.333,3.79998 -156.266,-15.29868 -289.466,26.59999 -133.334,41.89999 -76.267,41.89999 -213.334,41.89999 -137.2,0 -133.467,11.50002 -209.599,0 -76.268,-11.4 -45.734,-11.4 -156.267,-11.4 -110.4,0 -83.734,-7.59997 -198.001,11.4 -114.266,19.10004 -64.8,0 -179.066,22.90002 -114.267,22.80001 -95.2,-22.90002 -205.733,22.80001 -110.4,45.79999 -76.134,34.30002 -163.734,45.79999 -87.6,11.39868 -49.467,0 -186.667,11.39868 -137.2,11.4 -182.8,22.8 -251.466,22.8 -68.534,0 38.133,11.50002 -114.267,0 -152.4,-11.4 -171.333,-11.4 -285.733,-11.4 -114.267,0 -57.2,11.4 -148.534,0 -91.466,-11.4 -60.933,-18.99865 -129.466,-11.4 -68.667,7.60001 -87.6,22.8 -87.6,22.8 z"
   id="path35129"
   inkscape:connector-curvature="0" />
<path
   style="fill:#e1c5ad;fill-opacity:1;fill-rule:evenodd;stroke:#000000;stroke-width:6.69995165px;stroke-linecap:butt;stroke-linejoin:miter;stroke-miterlimit:4;stroke-dasharray:none;stroke-opacity:1"
   d="m 14762.082,1181.665 c 16.133,-26.9067 242.533,-409.5015 242.533,-409.5015 l 199.2,37.80001 c 21.6,10.70003 80.8,26.90004 80.8,26.90004 91.6,32.29999 123.2,-20.50002 123.2,-20.50002 123.867,0 183.2,-16.09999 183.2,-16.09999 l 215.467,0 c 150.8,0 247.734,16.09999 247.734,16.09999 199.466,21.6 314.266,-4.99999 314.266,-4.99999 247.733,5.4 326.933,-16.5 326.933,-16.5 183.201,-21.60001 237.867,15.09997 237.867,15.09997 166.934,16.10003 220.8,16.10003 220.8,16.10003 242.401,48.5 296.401,64.7 296.401,64.7 193.866,32.29999 328.533,32.29999 328.533,32.29999 172.4,0 269.466,-21.6 269.466,-21.6 220.8,-16.09999 258.534,-48.39998 258.534,-48.39998 l 150.8,0 264,0 c 161.733,26.89999 199.467,26.89999 199.467,26.89999 242.4,16.2 312.4,-16.2 312.4,-16.2 188.533,0 242.4,-21.49999 242.4,-21.49999 145.466,21.49999 220.933,5.4 220.933,5.4 150.8,16.09999 210.134,-5.4 210.134,-5.4 91.6,-10.8 118.533,-27.00001 118.533,-27.00001 86.133,21.60001 112.933,-5.7 112.933,-5.7 26.934,21.49999 32.267,26.89999 32.267,26.89999 l 1249.867,89 c -86.267,70.09867 -1783.067,466.29477 -1783.067,466.29477 -1136.801,145.5067 -1460,161.6 -1460,161.6 -662.667,0 -1255.201,-53.8 -1255.201,-53.8 -1653.867,-91.6 -1907.2,-113.2 -1907.2,-113.2 -177.733,-53.8933 -274.667,-220.8933 -274.667,-220.8933 z"
   id="path35131"
   inkscape:connector-curvature="0" />
<path
   style="fill:#c19e7e;fill-opacity:1;fill-rule:evenodd;stroke:#000000;stroke-width:6.69995165px;stroke-linecap:butt;stroke-linejoin:miter;stroke-miterlimit:4;stroke-dasharray:none;stroke-opacity:1"
   d="m 13776.215,789.76354 c 0,0 -215.6,22.8 -256,22.8 -40.4,0 -414.8,-4.00002 -433.6,-1.30001 -18.8,2.7 -289.6,17.50001 -297.6,17.50001 -8.134,0 -330,-16.2 -335.467,-16.2 -5.333,0 -106.4,79.50002 -106.4,86.19999 0,6.80003 -1325.2,-2.59999 -1325.2,-2.59999 l -246.534,78.09867 c -21.6,13.40003 -39.066,30.99999 -39.066,30.99999 -10.8,9.4 -55.2,65.9 -55.2,65.9 -5.467,6.8001 1414.133,64.7027 1414.133,64.7027 l 2258.667,-8.1066 -301.733,-352.8948 z"
   id="path35133"
   inkscape:connector-curvature="0" />
<path
   style="fill:#f7e5cd;fill-opacity:1;fill-rule:evenodd;stroke:#000000;stroke-width:6.69995165px;stroke-linecap:butt;stroke-linejoin:miter;stroke-miterlimit:4;stroke-dasharray:none;stroke-opacity:1"
   d="m 12410.348,827.56354 c -87.6,0 15.2,-11.4 -198,-11.4 -213.467,0 -293.467,-7.60002 -396.267,-7.60002 -102.933,0 -156.133,-11.4 -312.4,-11.4 l -293.333,0 c -182.8,0 -259.334,-19.90002 -384.8,-28.2 l -160,-10.69867 c -53.2,-3.6 -57.067,22.89865 -186.667,0 -129.467,-22.90001 -156.134,-29.7 -220.934,-6.9 -64.8,22.89865 -41.866,22.89865 -95.198,22.89865 -53.334,0 -64.8,-11.39863 -137.2,-11.39863 -72.4013,0 -60.8003,-19.10003 -102.8003,0 -41.867,18.99865 -72.401,34.29865 -22.8,45.69865 49.466,11.40001 -72.401,-26.7 117.9993,22.80001 190.533,49.60003 118.134,53.40001 236.266,61.00003 118.134,7.59997 11.334,-3.80003 148.534,18.99997 137.199,22.90002 -266.666,22.90002 186.666,22.90002 453.334,0 323.734,-22.90002 495.334,0 171.333,22.89865 -133.467,-3.79998 308.4,34.29866 442,38.09999 217.2,26.60003 518.133,38.09999 301.067,11.4 163.867,0 403.867,0 240,0 213.333,3.8 274.267,-22.89996 60.933,-26.60004 56.666,-74.49871 56.666,-74.49871 -64.266,-13.09999 -148.133,-81.69999 -235.733,-81.69999 z"
   id="path35135"
   inkscape:connector-curvature="0" />
<path
   style="fill:#efddc7;fill-opacity:1;fill-rule:evenodd;stroke:#000000;stroke-width:6.69995165px;stroke-linecap:butt;stroke-linejoin:miter;stroke-miterlimit:4;stroke-dasharray:none;stroke-opacity:1"
   d="m 14574.215,774.2635 c 0,0 -148.667,-68.59867 -205.733,-68.59867 -57.2,0 -251.467,15.3 -377.201,15.3 -125.733,0 -331.466,87.59869 -331.466,87.59869 l 533.333,49.50002 z"
   id="path35137"
   inkscape:connector-curvature="0" />
<path
   style="fill:#f3e4d1;fill-opacity:1;fill-rule:evenodd;stroke:#000000;stroke-width:6.69995165px;stroke-linecap:butt;stroke-linejoin:miter;stroke-miterlimit:4;stroke-dasharray:none;stroke-opacity:1"
   d="m 14890.349,618.06481 c 0,0 182.8,38.10001 198.133,49.50001 15.2,11.50002 156.133,19.10004 171.333,19.10004 15.2,0 358.134,-15.30001 358.134,-15.30001 0,0 308.666,-15.20003 335.2,7.69999 26.667,22.8 213.466,26.59999 289.6,53.29999 76.133,26.70001 240,91.39868 262.8,79.99868 22.933,-11.4 -148.534,68.60005 -201.867,57.10003 -53.333,-11.4 -369.466,-57.10003 -472.4,-57.10003 -102.8,0 -468.533,53.30004 -777.067,38.10001 -308.666,-15.30001 -714.8,-2.59999 -775.733,-2.59999 -60.933,0 144.133,-67.90003 144.133,-67.90003 l 6.667,-17.59866 c 26.8,-10.99999 461.067,-144.30003 461.067,-144.30003 z"
   id="path35139"
   inkscape:connector-curvature="0" />
<path
   style="fill:#c4987b;fill-opacity:1;fill-rule:evenodd;stroke:#000000;stroke-width:6.69995165px;stroke-linecap:butt;stroke-linejoin:miter;stroke-miterlimit:4;stroke-dasharray:none;stroke-opacity:1"
   d="m 12898.081,1033.4622 c 32.267,0 199.334,-75.4 239.734,-83.5 40.4,-8.09863 -51.2,-5.39863 132,-13.39866 183.2,-8.1 255.866,-48.5 379.733,-53.9 123.867,-5.4 250.533,-21.6 331.334,-21.6 80.933,0 53.866,-16.09999 274.8,-24.19999 220.933,-8.10001 158.933,-16.20001 328.533,-16.20001 169.867,0 97.067,-21.50003 245.2,-5.4 148.133,16.20001 150.8,-18.80003 202,40.39999 51.2,59.3 18.934,32.40001 62,86.20004 43.2,53.89863 10.8,56.59863 72.8,64.69863 61.867,8.1 48.4,-10.8 75.333,8.1 27.067,18.8 62.001,61.9 62.001,61.9 0,0 121.2,67.3961 -207.334,86.196 -328.8,18.9068 150.8,37.7067 -598.133,105.1067 -748.8,67.2934 -856.667,80.8001 -1115.201,56.6001 -258.666,-24.3067 -325.866,-10.8 -379.866,-40.4001 -53.867,-29.7066 -104.934,-250.6027 -104.934,-250.6027 z"
   id="path35141"
   inkscape:connector-curvature="0" />
<path
   style="fill:#8c7b5d;fill-opacity:1;fill-rule:evenodd;stroke:#000000;stroke-width:6.69995165px;stroke-linecap:butt;stroke-linejoin:miter;stroke-miterlimit:4;stroke-dasharray:none;stroke-opacity:1"
   d="m 26378.484,793.26352 c 0,0 186.534,381.60138 213.2,366.40138 26.667,-15.3066 3411.734,-180.10266 3453.601,-203.00268 41.867,-22.79868 70.267,-189.99869 70.267,-189.99869 0,0 -182.8,-76.19869 -228.534,-64.79869 -45.733,11.40001 7.6,11.40001 -102.8,11.40001 -110.533,0 -148.666,22.90002 -247.6,11.50001 -99.2,-11.50001 -102.933,-22.90002 -160,-34.30002 -57.2,-11.4 -45.866,-95.3 -179.2,-91.4 -133.2,3.79998 -156.133,-15.29868 -289.466,26.59999 -133.334,41.89999 -76.134,41.89999 -213.334,41.89999 -137.2,0 -133.333,11.50002 -209.6,0 -76.133,-11.4 -45.6,-11.4 -156.133,-11.4 -110.4,0 -83.867,-7.59997 -198.134,11.4 -114.133,19.10004 -64.666,0 -178.933,22.90002 -114.4,22.80001 -95.2,-22.90002 -205.733,22.80001 -110.534,45.79999 -76.267,34.30002 -163.867,45.79999 -87.6,11.39868 -49.467,0 -186.667,11.39868 -137.067,11.4 -182.8,22.8 -251.333,22.8 -68.667,0 38,11.50002 -114.4,0 -152.4,-11.4 -171.333,-11.4 -285.6,-11.4 -114.4,0 -57.2,11.4 -148.667,0 -91.333,-11.4 -60.933,-18.99865 -129.467,-11.4 -68.666,7.60001 -87.6,22.8 -87.6,22.8 z"
   id="path35143"
   inkscape:connector-curvature="0" />
<path
   style="fill:#e1c5ad;fill-opacity:1;fill-rule:evenodd;stroke:#000000;stroke-width:6.69995165px;stroke-linecap:butt;stroke-linejoin:miter;stroke-miterlimit:4;stroke-dasharray:none;stroke-opacity:1"
   d="m 24813.951,1181.665 c 16.266,-26.9067 242.533,-409.5015 242.533,-409.5015 l 199.334,37.80001 c 21.6,10.70003 80.799,26.90004 80.799,26.90004 91.6,32.29999 123.067,-20.50002 123.067,-20.50002 123.867,0 183.2,-16.09999 183.2,-16.09999 l 215.467,0 c 150.8,0 247.867,16.09999 247.867,16.09999 199.333,21.6 314.133,-4.99999 314.133,-4.99999 247.867,5.4 326.933,-16.5 326.933,-16.5 183.201,-21.60001 237.867,15.09997 237.867,15.09997 167.067,16.10003 220.933,16.10003 220.933,16.10003 242.401,48.5 296.267,64.7 296.267,64.7 193.867,32.29999 328.667,32.29999 328.667,32.29999 172.4,0 269.334,-21.6 269.334,-21.6 220.933,-16.09999 258.666,-48.39998 258.666,-48.39998 l 150.8,0 264,0 c 161.6,26.89999 199.333,26.89999 199.333,26.89999 242.401,16.2 312.401,-16.2 312.401,-16.2 188.666,0 242.533,-21.49999 242.533,-21.49999 145.333,21.49999 220.933,5.4 220.933,5.4 150.801,16.09999 210,-5.4 210,-5.4 91.6,-10.8 118.534,-27.00001 118.534,-27.00001 86.267,21.60001 113.066,-5.7 113.066,-5.7 26.801,21.49999 32.267,26.89999 32.267,26.89999 l 1249.734,89 c -86.134,70.09867 -1782.934,466.29477 -1782.934,466.29477 -1136.8,145.5067 -1460,161.6 -1460,161.6 -662.667,0 -1255.334,-53.8 -1255.334,-53.8 -1653.867,-91.6 -1907.2,-113.2 -1907.2,-113.2 -177.6,-53.8933 -274.667,-220.8933 -274.667,-220.8933 z"
   id="path35145"
   inkscape:connector-curvature="0" />
<path
   style="fill:#efddc7;fill-opacity:1;fill-rule:evenodd;stroke:#000000;stroke-width:6.69995165px;stroke-linecap:butt;stroke-linejoin:miter;stroke-miterlimit:4;stroke-dasharray:none;stroke-opacity:1"
   d="m 24626.084,774.2635 c 0,0 -148.533,-68.59867 -205.734,-68.59867 -57.199,0 -251.466,15.3 -377.199,15.3 -125.601,0 -331.334,87.59869 -331.334,87.59869 l 533.333,49.50002 z"
   id="path35147"
   inkscape:connector-curvature="0" />
<path
   style="fill:#f3e4d1;fill-opacity:1;fill-rule:evenodd;stroke:#000000;stroke-width:6.69995165px;stroke-linecap:butt;stroke-linejoin:miter;stroke-miterlimit:4;stroke-dasharray:none;stroke-opacity:1"
   d="m 24942.351,618.06481 c 0,0 182.8,38.10001 198,49.50001 15.2,11.50002 156.267,19.10004 171.466,19.10004 15.2,0 358.134,-15.30001 358.134,-15.30001 0,0 308.533,-15.20003 335.2,7.69999 26.667,22.8 213.333,26.59999 289.467,53.29999 76.133,26.70001 240,91.39868 262.8,79.99868 22.933,-11.4 -148.534,68.60005 -201.867,57.10003 -53.333,-11.4 -369.467,-57.10003 -472.4,-57.10003 -102.8,0 -468.4,53.30004 -777.067,38.10001 -308.533,-15.30001 -714.667,-2.59999 -775.734,-2.59999 -60.799,0 144.267,-67.90003 144.267,-67.90003 l 6.534,-17.59866 c 26.8,-10.99999 461.2,-144.30003 461.2,-144.30003 z"
   id="path35149"
   inkscape:connector-curvature="0" />
<path
   style="fill:#e1c5ad;fill-opacity:1;fill-rule:evenodd;stroke:#000000;stroke-width:6.69995165px;stroke-linecap:butt;stroke-linejoin:miter;stroke-miterlimit:4;stroke-dasharray:none;stroke-opacity:1"
   d="m 14762.082,1181.665 c 16.133,-26.9067 242.533,-409.5015 242.533,-409.5015 l 199.2,37.80001 c 21.6,10.70003 80.8,26.90004 80.8,26.90004 91.6,32.29999 123.2,-20.50002 123.2,-20.50002 123.867,0 183.2,-16.09999 183.2,-16.09999 l 215.467,0 c 150.8,0 247.734,16.09999 247.734,16.09999 199.466,21.6 314.266,-4.99999 314.266,-4.99999 247.733,5.4 326.933,-16.5 326.933,-16.5 183.201,-21.60001 237.867,15.09997 237.867,15.09997 166.934,16.10003 220.8,16.10003 220.8,16.10003 242.401,48.5 296.401,64.7 296.401,64.7 193.866,32.29999 328.533,32.29999 328.533,32.29999 172.4,0 269.466,-21.6 269.466,-21.6 220.8,-16.09999 258.534,-48.39998 258.534,-48.39998 l 150.8,0 264,0 c 161.733,26.89999 199.467,26.89999 199.467,26.89999 242.4,16.2 312.4,-16.2 312.4,-16.2 188.533,0 242.4,-21.49999 242.4,-21.49999 145.466,21.49999 220.933,5.4 220.933,5.4 150.8,16.09999 210.134,-5.4 210.134,-5.4 91.6,-10.8 118.533,-27.00001 118.533,-27.00001 86.133,21.60001 112.933,-5.7 112.933,-5.7 26.934,21.49999 32.267,26.89999 32.267,26.89999 l 1249.867,89 c -86.267,70.09867 -1783.067,466.29477 -1783.067,466.29477 -1136.801,145.5067 -1460,161.6 -1460,161.6 -662.667,0 -1255.201,-53.8 -1255.201,-53.8 -1653.867,-91.6 -1907.2,-113.2 -1907.2,-113.2 -177.733,-53.8933 -274.667,-220.8933 -274.667,-220.8933 z"
   id="path35151"
   inkscape:connector-curvature="0" />
<path
   style="fill:#c19e7e;fill-opacity:1;fill-rule:evenodd;stroke:#000000;stroke-width:6.69995165px;stroke-linecap:butt;stroke-linejoin:miter;stroke-miterlimit:4;stroke-dasharray:none;stroke-opacity:1"
   d="m 23828.084,789.76354 c 0,0 -215.467,22.8 -255.867,22.8 -40.4,0 -414.8,-4.00002 -433.733,-1.30001 -18.801,2.7 -289.6,17.50001 -297.6,17.50001 -8.134,0 -330,-16.2 -335.334,-16.2 -5.466,0 -106.4,79.50002 -106.4,86.19999 0,6.80003 -1325.333,-2.59999 -1325.333,-2.59999 l -246.534,78.09867 c -21.6,13.40003 -39.066,30.99999 -39.066,30.99999 -10.667,9.4 -55.2,65.9 -55.2,65.9 -5.334,6.8001 1414.133,64.7027 1414.133,64.7027 l 2258.8,-8.1066 -301.733,-352.8948 z"
   id="path35153"
   inkscape:connector-curvature="0" />
<path
   style="fill:#575965;fill-opacity:1;fill-rule:evenodd;stroke:#000000;stroke-width:6.69995165px;stroke-linecap:butt;stroke-linejoin:miter;stroke-miterlimit:4;stroke-dasharray:none;stroke-opacity:1"
   d="m 22980.35,819.96353 -163.733,-41.9 -76.267,-38.09868 -87.6,-3.79998 c 0,0 -60.933,-61.00003 -114.266,-61.00003 -53.334,0 -129.6,-3.79999 -144.801,-11.4 -15.2,-7.60002 -57.066,-30.5 -95.199,-38.10001 -38.134,-7.60002 -7.734,-19.00002 -83.734,-7.60002 -76.267,11.4 -72.4,26.70001 -125.867,34.30002 -53.333,7.60002 -45.733,22.80001 -91.333,22.80001 -45.733,0 -22.8,11.50002 -64.8,0 -42,-11.4 -91.467,-64.7 -144.8,-72.30002 -53.2,-7.69998 -19.067,-22.8987 -68.533,-7.69998 -49.467,15.3 -26.667,26.7 -95.2,26.7 -68.534,0 -99.067,-49.49869 -160.001,-49.49869 -60.933,0 -11.333,-30.50004 -99.066,0 -87.6,30.49867 -34.267,26.69869 -114.267,38.09869 -80,11.4 -42,-11.4 -160,11.4 -118,22.89998 -45.733,15.30001 -148.533,22.89998 -102.934,7.60001 -80,-26.70001 -152.4,7.60001 -72.4,34.30003 -7.6,34.30003 -110.534,45.70003 -102.8,11.4 -110.533,0 -190.533,11.4 -80,11.49997 -64.667,11.49997 -114.133,22.89997 -49.6,11.40001 -87.734,22.80001 -87.734,22.80001 0,0 -45.733,-3.79999 30.534,3.9 76.133,7.59869 99.066,15.19866 262.933,15.19866 163.733,0 121.867,-19.09866 178.934,0 57.199,19.00002 -57.067,-22.89865 99.066,22.90002 156.267,45.70003 -19.067,57.10003 182.8,45.70003 202,-11.50002 224.8,-11.50002 342.934,-22.90002 118.133,-11.40001 -91.334,-11.40001 163.866,-11.40001 255.067,0 156.134,-11.4 289.467,0 133.2,11.40001 41.867,0 156.134,11.40001 114.266,11.4 -205.734,22.90002 186.666,22.90002 l 407.6,0 c 186.8,0 99.067,34.29997 274.4,0 55.067,-2.7 58.534,5.1 118,-22.90002 z"
   id="path35155"
   inkscape:connector-curvature="0" />
<path
   style="fill:#f7e5cd;fill-opacity:1;fill-rule:evenodd;stroke:#000000;stroke-width:6.69995165px;stroke-linecap:butt;stroke-linejoin:miter;stroke-miterlimit:4;stroke-dasharray:none;stroke-opacity:1"
   d="m 22462.35,827.56354 c -87.6,0 15.2,-11.4 -198.133,-11.4 -213.467,0 -293.467,-7.60002 -396.267,-7.60002 -102.8,0 -156.133,-11.4 -312.267,-11.4 l -293.333,0 c -182.933,0 -259.467,-19.90002 -384.8,-28.2 l -160,-10.69867 c -53.2,-3.6 -57.067,22.89865 -186.667,0 -129.6,-22.90001 -156.133,-29.7 -220.933,-6.9 -64.8,22.89865 -41.867,22.89865 -95.2,22.89865 -53.467,0 -64.8,-11.39863 -137.2,-11.39863 -72.4,0 -60.934,-19.10003 -102.8,0 -41.867,18.99865 -72.4,34.29865 -22.934,45.69865 49.467,11.40001 -72.4,-26.7 118.134,22.80001 190.533,49.60003 118.133,53.40001 236.133,61.00003 118.133,7.59997 11.467,-3.80003 148.667,18.99997 137.066,22.90002 -266.667,22.90002 186.533,22.90002 453.467,0 323.867,-22.90002 495.333,0 171.467,22.89865 -133.333,-3.79998 308.534,34.29866 441.867,38.09999 217.2,26.60003 518,38.09999 301.067,11.4 163.867,0 403.867,0 240,0 213.333,3.8 274.266,-22.89996 61.067,-26.60004 56.667,-74.49871 56.667,-74.49871 -64.267,-13.09999 -148,-81.69999 -235.6,-81.69999 z"
   id="path35157"
   inkscape:connector-curvature="0" />




















    path
       inkscape:connector-curvature=&quot;0&quot;
       id=&quot;path4758&quot;
       d=&quot;m 22949.95,1033.4622 c 32.4,0 199.334,-75.4 239.734,-83.5 40.399,-8.09863 -51.2,-5.39863 132,-13.39866 183.2,-8.1 255.867,-48.5 379.866,-53.9 123.867,-5.4 250.401,-21.6 331.2,-21.6 80.934,0 54,-16.09999 274.8,-24.19999 220.934,-8.10001 158.934,-16.20001 328.667,-16.20001 169.734,0 96.934,-21.50003 245.201,-5.4 148.133,16.20001 150.799,-18.80003 201.999,40.39999 51.201,59.3 18.934,32.40001 62.001,86.20004 43.066,53.89863 10.666,56.59863 72.666,64.69863 61.867,8.1 48.534,-10.8 75.467,8.1 26.933,18.8 62,61.9 62,61.9 0,0 121.2,67.3961 -207.467,86.196 -328.667,18.9068 150.8,37.7067 -598.133,105.1067 -748.801,67.2934 -856.534,80.8001 -1115.2,56.6001 -258.534,-24.3067 -325.868,-10.8 -379.734,-40.4001 -53.867,-29.7066 -105.067,-250.6027 -105.067,-250.6027 z&quot;
       style=&quot;fill:#c4987b;fill-opacity:1;fill-rule:evenodd;stroke:#000000;stroke-width:6.69995165px;stroke-linecap:butt;stroke-linejoin:miter;stroke-miterlimit:4;stroke-dasharray:none;stroke-opacity:1&quot; /&gt;
    <path
   style="fill:#575965;fill-opacity:1;fill-rule:evenodd;stroke:#000000;stroke-width:6.69995165px;stroke-linecap:butt;stroke-linejoin:miter;stroke-miterlimit:4;stroke-dasharray:none;stroke-opacity:1"
   d="m 33032.353,819.96353 -163.867,-41.9 -76.133,-38.09868 -87.6,-3.79998 c 0,0 -61.067,-61.00003 -114.267,-61.00003 -53.467,0 -129.6,-3.79999 -144.8,-11.4 -15.201,-7.60002 -57.201,-30.5 -95.2,-38.10001 -38.133,-7.60002 -7.734,-19.00002 -83.867,-7.60002 -76.134,11.4 -72.4,26.70001 -125.733,34.30002 -53.334,7.60002 -45.734,22.80001 -91.467,22.80001 -45.733,0 -22.8,11.50002 -64.667,0 -42,-11.4 -91.467,-64.7 -144.8,-72.30002 -53.333,-7.69998 -19.067,-22.8987 -68.666,-7.69998 -49.467,15.3 -26.534,26.7 -95.201,26.7 -68.533,0 -99.066,-49.49869 -160,-49.49869 -60.933,0 -11.333,-30.50004 -99.066,0 -87.6,30.49867 -34.267,26.69869 -114.267,38.09869 -80,11.4 -41.867,-11.4 -160,11.4 -118,22.89998 -45.733,15.30001 -148.533,22.89998 -102.934,7.60001 -80,-26.70001 -152.4,7.60001 -72.4,34.30003 -7.6,34.30003 -110.534,45.70003 -102.667,11.4 -110.4,0 -190.4,11.4 -80,11.49997 -64.667,11.49997 -114.266,22.89997 -49.6,11.40001 -87.6,22.80001 -87.6,22.80001 0,0 -45.734,-3.79999 30.399,3.9 76.267,7.59869 99.201,15.19866 262.934,15.19866 163.733,0 121.867,-19.09866 178.933,0 57.2,19.00002 -57.066,-22.89865 99.2,22.90002 156.134,45.70003 -19.2,57.10003 182.8,45.70003 201.867,-11.50002 224.8,-11.50002 342.8,-22.90002 118.134,-11.40001 -91.333,-11.40001 163.867,-11.40001 255.2,0 156.133,-11.4 289.467,0 133.333,11.40001 41.866,0 156.267,11.40001 114.266,11.4 -205.734,22.90002 186.666,22.90002 l 407.601,0 c 186.666,0 98.933,34.29997 274.266,0 55.067,-2.7 58.667,5.1 118.134,-22.90002 z"
   id="path35159"
   inkscape:connector-curvature="0" />
<path
   style="fill:#8c7b5d;fill-opacity:1;fill-rule:evenodd;stroke:#000000;stroke-width:6.69995165px;stroke-linecap:butt;stroke-linejoin:miter;stroke-miterlimit:4;stroke-dasharray:none;stroke-opacity:1"
   d="m 36430.353,793.26352 c 0,0 186.534,381.60138 213.2,366.40138 26.8,-15.3066 3411.734,-180.10266 3453.601,-203.00268 41.867,-22.79868 70.267,-189.99869 70.267,-189.99869 0,0 -182.8,-76.19869 -228.534,-64.79869 -45.733,11.40001 7.733,11.40001 -102.8,11.40001 -110.533,0 -148.667,22.90002 -247.6,11.50001 -99.067,-11.50001 -102.933,-22.90002 -160,-34.30002 -57.2,-11.4 -45.733,-95.3 -179.067,-91.4 -133.333,3.79998 -156.266,-15.29868 -289.466,26.59999 -133.333,41.89999 -76.267,41.89999 -213.334,41.89999 -137.2,0 -133.466,11.50002 -209.6,0 -76.266,-11.4 -45.733,-11.4 -156.266,-11.4 -110.4,0 -83.734,-7.59997 -198,11.4 -114.267,19.10004 -64.8,0 -179.067,22.90002 -114.267,22.80001 -95.2,-22.90002 -205.734,22.80001 -110.4,45.79999 -76.133,34.30002 -163.733,45.79999 -87.6,11.39868 -49.466,0 -186.667,11.39868 -137.199,11.4 -182.799,22.8 -251.466,22.8 -68.534,0 38.133,11.50002 -114.267,0 -152.4,-11.4 -171.467,-11.4 -285.734,-11.4 -114.266,0 -57.199,11.4 -148.533,0 -91.467,-11.4 -60.933,-18.99865 -129.6,-11.4 -68.533,7.60001 -87.6,22.8 -87.6,22.8 z"
   id="path35161"
   inkscape:connector-curvature="0" />
<path
   style="fill:#e1c5ad;fill-opacity:1;fill-rule:evenodd;stroke:#000000;stroke-width:6.69995165px;stroke-linecap:butt;stroke-linejoin:miter;stroke-miterlimit:4;stroke-dasharray:none;stroke-opacity:1"
   d="m 34865.953,1181.665 c 16.133,-26.9067 242.533,-409.5015 242.533,-409.5015 l 199.2,37.80001 c 21.6,10.70003 80.8,26.90004 80.8,26.90004 91.6,32.29999 123.067,-20.50002 123.067,-20.50002 124,0 183.2,-16.09999 183.2,-16.09999 l 215.6,0 c 150.8,0 247.733,16.09999 247.733,16.09999 199.467,21.6 314.267,-4.99999 314.267,-4.99999 247.734,5.4 326.8,-16.5 326.8,-16.5 183.2,-21.60001 238,15.09997 238,15.09997 166.933,16.10003 220.8,16.10003 220.8,16.10003 242.4,48.5 296.4,64.7 296.4,64.7 193.867,32.29999 328.534,32.29999 328.534,32.29999 172.4,0 269.467,-21.6 269.467,-21.6 220.8,-16.09999 258.533,-48.39998 258.533,-48.39998 l 150.8,0 264,0 c 161.734,26.89999 199.467,26.89999 199.467,26.89999 242.4,16.2 312.4,-16.2 312.4,-16.2 188.533,0 242.4,-21.49999 242.4,-21.49999 145.467,21.49999 220.933,5.4 220.933,5.4 150.8,16.09999 210.134,-5.4 210.134,-5.4 91.6,-10.8 118.4,-27.00001 118.4,-27.00001 86.266,21.60001 113.066,-5.7 113.066,-5.7 26.934,21.49999 32.267,26.89999 32.267,26.89999 l 1249.867,89 c -86.267,70.09867 -1783.067,466.29477 -1783.067,466.29477 -1136.8,145.5067 -1460.001,161.6 -1460.001,161.6 -662.666,0 -1255.2,-53.8 -1255.2,-53.8 -1654,-91.6 -1907.2,-113.2 -1907.2,-113.2 -177.734,-53.8933 -274.667,-220.8933 -274.667,-220.8933 z"
   id="path35163"
   inkscape:connector-curvature="0" />
<path
   style="fill:#c19e7e;fill-opacity:1;fill-rule:evenodd;stroke:#000000;stroke-width:6.69995165px;stroke-linecap:butt;stroke-linejoin:miter;stroke-miterlimit:4;stroke-dasharray:none;stroke-opacity:1"
   d="m 33880.086,789.76354 c 0,0 -215.6,22.8 -256,22.8 -40.4,0 -414.8,-4.00002 -433.6,-1.30001 -18.8,2.7 -289.6,17.50001 -297.6,17.50001 -8.133,0 -330,-16.2 -335.467,-16.2 -5.333,0 -106.4,79.50002 -106.4,86.19999 0,6.80003 -1325.334,-2.59999 -1325.334,-2.59999 l -246.4,78.09867 c -21.6,13.40003 -39.2,30.99999 -39.2,30.99999 -10.666,9.4 -55.2,65.9 -55.2,65.9 -5.333,6.8001 1414.267,64.7027 1414.267,64.7027 l 2258.667,-8.1066 -301.733,-352.8948 z"
   id="path35165"
   inkscape:connector-curvature="0" />
<path
   style="fill:#f7e5cd;fill-opacity:1;fill-rule:evenodd;stroke:#000000;stroke-width:6.69995165px;stroke-linecap:butt;stroke-linejoin:miter;stroke-miterlimit:4;stroke-dasharray:none;stroke-opacity:1"
   d="m 32514.219,827.56354 c -87.6,0 15.2,-11.4 -198.133,-11.4 -213.334,0 -293.334,-7.60002 -396.134,-7.60002 -102.933,0 -156.267,-11.4 -312.4,-11.4 l -293.333,0 c -182.934,0 -259.334,-19.90002 -384.8,-28.2 l -160,-10.69867 c -53.201,-3.6 -57.067,22.89865 -186.667,0 -129.467,-22.90001 -156.133,-29.7 -220.933,-6.9 -64.8,22.89865 -41.867,22.89865 -95.2,22.89865 -53.334,0 -64.8,-11.39863 -137.201,-11.39863 -72.399,0 -60.8,-19.10003 -102.8,0 -41.866,18.99865 -72.4,34.29865 -22.8,45.69865 49.467,11.40001 -72.4,-26.7 118.001,22.80001 190.533,49.60003 118.133,53.40001 236.266,61.00003 118.133,7.59997 11.333,-3.80003 148.534,18.99997 137.066,22.90002 -266.667,22.90002 186.666,22.90002 453.334,0 323.734,-22.90002 495.2,0 171.467,22.89865 -133.333,-3.79998 308.534,34.29866 441.867,38.09999 217.2,26.60003 518.133,38.09999 300.934,11.4 163.734,0 403.734,0 240,0 213.466,3.8 274.4,-22.89996 60.933,-26.60004 56.666,-74.49871 56.666,-74.49871 -64.266,-13.09999 -148.133,-81.69999 -235.733,-81.69999 z"
   id="path35167"
   inkscape:connector-curvature="0" />
<path
   style="fill:#efddc7;fill-opacity:1;fill-rule:evenodd;stroke:#000000;stroke-width:6.69995165px;stroke-linecap:butt;stroke-linejoin:miter;stroke-miterlimit:4;stroke-dasharray:none;stroke-opacity:1"
   d="m 34678.086,774.2635 c 0,0 -148.666,-68.59867 -205.733,-68.59867 -57.2,0 -251.467,15.3 -377.2,15.3 -125.734,0 -331.467,87.59869 -331.467,87.59869 l 533.333,49.50002 z"
   id="path35169"
   inkscape:connector-curvature="0" />
<path
   style="fill:#f3e4d1;fill-opacity:1;fill-rule:evenodd;stroke:#000000;stroke-width:6.69995165px;stroke-linecap:butt;stroke-linejoin:miter;stroke-miterlimit:4;stroke-dasharray:none;stroke-opacity:1"
   d="m 34994.219,618.06481 c 0,0 182.801,38.10001 198.134,49.50001 15.2,11.50002 156.133,19.10004 171.333,19.10004 15.2,0 358.134,-15.30001 358.134,-15.30001 0,0 308.533,-15.20003 335.2,7.69999 26.666,22.8 213.333,26.59999 289.6,53.29999 76.133,26.70001 240,91.39868 262.8,79.99868 22.933,-11.4 -148.667,68.60005 -201.867,57.10003 -53.333,-11.4 -369.6,-57.10003 -472.4,-57.10003 -102.8,0 -468.533,53.30004 -777.2,38.10001 -308.533,-15.30001 -714.667,-2.59999 -775.6,-2.59999 -60.934,0 144.133,-67.90003 144.133,-67.90003 l 6.667,-17.59866 c 26.8,-10.99999 461.066,-144.30003 461.066,-144.30003 z"
   id="path35171"
   inkscape:connector-curvature="0" />
<path
   style="fill:#c4987b;fill-opacity:1;fill-rule:evenodd;stroke:#000000;stroke-width:6.69995165px;stroke-linecap:butt;stroke-linejoin:miter;stroke-miterlimit:4;stroke-dasharray:none;stroke-opacity:1"
   d="m 33001.953,1033.4622 c 32.266,0 199.333,-75.4 239.733,-83.5 40.4,-8.09863 -51.2,-5.39863 132,-13.39866 183.2,-8.1 255.867,-48.5 379.733,-53.9 123.867,-5.4 250.534,-21.6 331.334,-21.6 80.933,0 53.866,-16.09999 274.8,-24.19999 220.933,-8.10001 158.933,-16.20001 328.533,-16.20001 169.867,0 97.067,-21.50003 245.2,-5.4 148.134,16.20001 150.8,-18.80003 202,40.39999 51.2,59.3 18.934,32.40001 62,86.20004 43.067,53.89863 10.667,56.59863 72.667,64.69863 62,8.1 48.533,-10.8 75.467,8.1 26.933,18.8 62,61.9 62,61.9 0,0 121.2,67.3961 -207.467,86.196 -328.667,18.9068 150.8,37.7067 -598,105.1067 -748.8,67.2934 -856.667,80.8001 -1115.2,56.6001 -258.667,-24.3067 -325.867,-10.8 -379.867,-40.4001 -53.867,-29.7066 -104.933,-250.6027 -104.933,-250.6027 z"
   id="path35173"
   inkscape:connector-curvature="0" />
<g
   id="g35175" />




















    path
       style=&quot;display:inline;fill:#000000;fill-opacity:1;fill-rule:nonzero;stroke:none&quot;
       d=&quot;m -41.521484,-2098 0,599.9961 30155.642484,0 0,-599.9961 -30155.642484,0 z m 2063.574184,226.0547 14.8125,0 0.4688,0 16.3125,0 0,56.8125 c 3.9375,-4.5 8.4375,-8.25 13.5,-10.9688 5.0625,-2.8125 10.9687,-4.2187 17.5312,-4.2187 5.4375,0 10.4063,1.0312 14.9063,3.0937 4.4062,2.0625 8.1562,5.1563 11.3437,9.2813 3.0938,4.0312 5.5313,9.0937 7.2188,15.1875 1.6875,6 2.5312,12.9375 2.5312,20.8125 l 0,0.2812 0,0.2813 c 0,7.7812 -1.125,14.7187 -3.2812,20.7187 -2.1563,6.0938 -5.0625,11.1563 -8.8125,15.375 -3.75,4.125 -8.25,7.3125 -13.3125,9.4688 -5.0625,2.25 -10.5938,3.2812 -16.5,3.2812 -16.9688,0 -41.9063,-5.25 -41.9063,-5.25 l 0,-1.5 0,-13.5937 0,-105.4688 c -2.25,-0.375 -10.5937,-1.6875 -12,-1.9687 -1.6875,-0.375 -2.8125,-1.875 -2.8125,-3.4688 l 0,-8.1562 z m 290.2032,0 13.5,0 16.7812,0 0,81.2812 4.3125,0 c 2.25,0 4.125,-0.8437 5.8125,-2.625 l 21.375,-22.9687 c -0.6562,-0.094 -1.3125,-0.1875 -2.0625,-0.375 -1.4062,-0.1875 -2.4375,-0.4688 -3.0937,-0.6563 -1.9688,-0.375 -2.9063,-1.5 -2.9063,-3.4687 l 0,-8.0625 23.25,0 15.1875,0 1.125,0 0,8.0625 c -0.094,1.9687 -0.8437,3.0937 -2.3437,3.375 -1.5938,0.375 -5.5313,1.125 -11.625,2.25 l -22.125,23.5312 c -1.875,2.3438 -3.75,4.0313 -5.4375,4.9688 2.0625,1.4062 3.9375,3.375 5.625,5.9062 l 26.3437,33.1875 4.7813,1.0313 c 3.1875,0.6562 5.1562,1.0312 5.8125,1.125 1.875,0.375 2.9062,1.5937 2.9062,3.4687 l 0,8.0625 -17.7187,0 c -2.4375,0 -4.5938,-1.0312 -6.2813,-3.2812 l -31.2187,-38.9063 c -0.9375,-1.3125 -1.875,-2.1562 -2.8125,-2.5312 -0.9375,-0.375 -2.3438,-0.6563 -4.2188,-0.6563 l -4.6875,0 0,31.6875 c 0.6563,0.1875 4.2188,0.8438 10.6875,2.1563 1.875,0.375 2.8125,1.5937 2.8125,3.4687 l 0,8.0625 -43.7812,0 0,-8.0625 c 0,-1.875 0.9375,-3.0937 2.8125,-3.4687 l 10.6875,-2.1563 0,-110.7187 c -6,-1.125 -9.5625,-1.875 -10.6875,-2.1563 -1.875,-0.375 -2.8125,-1.5 -2.8125,-3.4687 l 0,-8.0625 z m 660.9882,0 32.0625,0 0,124.4062 c 6,1.2188 9.5625,1.9688 10.6875,2.1563 1.875,0.375 2.8125,1.5937 2.8125,3.4687 l 0,8.0625 -23.4375,0 c -2.4375,0 -3.9375,-1.125 -4.5,-3.4687 l -1.5,-11.5313 c -9,10.875 -19.5937,16.3125 -31.875,16.3125 -11.1562,0 -19.875,-4.125 -26.1562,-12.375 -6.5625,-8.4375 -9.75,-20.4375 -9.75,-36.0937 0,-14.3438 3.6562,-26.0625 10.9687,-35.25 7.5,-9.4688 17.5313,-14.25 30.0938,-14.25 10.5,0 19.125,3.75 25.9687,11.25 l 0,-39 c -6.375,-0.9375 -10.5937,-1.6875 -12.4687,-2.0625 -1.9688,-0.375 -2.9063,-1.5938 -2.9063,-3.5625 l 0,-8.0625 z m 370.9707,0 32.0625,0 0,124.4062 c 6,1.2188 9.5625,1.9688 10.6875,2.1563 1.875,0.375 2.8125,1.5937 2.8125,3.4687 l 0,8.0625 -23.4375,0 c -2.4375,0 -3.9375,-1.125 -4.5,-3.4687 l -1.5,-11.5313 c -9,10.875 -19.5937,16.3125 -31.875,16.3125 -11.1562,0 -19.875,-4.125 -26.1562,-12.375 -6.5625,-8.4375 -9.75,-20.4375 -9.75,-36.0937 0,-14.3438 3.6562,-26.0625 10.9687,-35.25 7.5,-9.4688 17.5313,-14.25 30.0938,-14.25 10.5,0 19.125,3.75 25.9687,11.25 l 0,-39 c -6.375,-0.9375 -10.5937,-1.6875 -12.4687,-2.0625 -1.9688,-0.375 -2.9063,-1.5938 -2.9063,-3.5625 l 0,-8.0625 z m 122.67,0 32.0625,0 0,55.875 c 8.9062,-9.4688 19.125,-14.25 30.5625,-14.25 10.2187,0 18.0937,3.2812 23.625,9.8437 5.4375,6.4688 8.1562,15.1875 8.1562,26.1563 l 0,46.7812 c 6,1.2188 9.5625,1.9688 10.6875,2.25 1.875,0.375 2.8125,1.5 2.8125,3.4688 l 0,8.0625 -30.1875,0 0,-60.4688 c 0,-15.1875 -6.6562,-22.6875 -19.9687,-22.6875 -9.2813,0 -17.8125,4.4063 -25.6875,13.2188 l 0,56.25 2.3437,0.4687 c 4.875,0.9375 7.5938,1.5 8.3438,1.6875 1.875,0.375 2.8125,1.5 2.8125,3.4688 l 0,8.0625 -43.6875,0 0,-8.0625 c 0,-1.9688 0.9375,-3.0938 2.8125,-3.4688 l 10.6875,-2.1562 0,-110.7188 c -7.3125,-1.2187 -11.4375,-1.9687 -12.5625,-2.25 -1.875,-0.375 -2.8125,-1.5 -2.8125,-3.4687 l 0,-8.0625 z m 798.0078,0 30.1875,0 0,124.4062 c 6,1.2188 9.5625,1.9688 10.6875,2.1563 1.875,0.375 2.9062,1.5937 2.9062,3.4687 l 0,8.0625 -43.7812,0 0,-8.0625 c 0,-1.875 0.9375,-3.0937 2.8125,-3.4687 l 10.6875,-2.1563 0,-110.7187 c -6,-1.125 -9.5625,-1.875 -10.6875,-2.1563 -1.875,-0.375 -2.8125,-1.5 -2.8125,-3.4687 l 0,-8.0625 z m -1002.9082,1.4062 c 1.5937,0 3.0937,0.2813 4.5937,0.9375 1.4063,0.5625 2.7188,1.4063 3.75,2.5313 1.125,1.125 1.9688,2.3437 2.625,3.8437 0.6563,1.5 1.0313,3 1.0313,4.6875 0,1.5938 -0.375,3.0938 -1.0313,4.5 -0.6562,1.4063 -1.5,2.625 -2.625,3.75 -1.0312,1.125 -2.3437,1.9688 -3.75,2.625 -1.5,0.5625 -3,0.9375 -4.5937,0.9375 -1.6875,0 -3.1875,-0.375 -4.5938,-0.9375 -1.4062,-0.6562 -2.625,-1.5 -3.75,-2.625 -1.0312,-1.125 -1.9687,-2.3437 -2.5312,-3.75 -0.6563,-1.4062 -0.9375,-2.9062 -0.9375,-4.5 0,-1.6875 0.2812,-3.1875 0.9375,-4.6875 0.5625,-1.5 1.5,-2.7187 2.5312,-3.8437 1.125,-1.125 2.3438,-1.9688 3.75,-2.5313 1.4063,-0.6562 2.9063,-0.9375 4.5938,-0.9375 z m 866.3125,0.375 c 4.2187,0 8.1562,0.6563 11.8125,1.875 l -0.375,8.3438 c -0.094,1.3125 -0.6563,2.0625 -1.6875,2.25 -0.9375,0.2812 -2.3438,0.4687 -4.2188,0.375 l -2.9062,0 c -12.75,0 -19.0313,7.2187 -19.0313,21.6562 l 0,8.7188 27.4688,0 0,12.0937 -26.9063,0 0,67.3125 c 7.3125,1.3125 11.5313,1.9688 12.4688,2.1563 1.875,0.375 2.8125,1.5937 2.8125,3.4687 l 0,8.0625 -46.5938,0 0,-8.0625 c 0,-1.875 0.9375,-3.0937 2.9063,-3.4687 l 11.625,-2.1563 0,-67.0312 -10.5,-1.2188 c -3,-0.6562 -4.5,-2.0625 -4.5,-4.2187 l 0,-6.8438 15,0 0,-9.1875 c 0,-10.7812 2.9062,-19.2187 8.8125,-25.3125 5.8125,-5.8125 13.6875,-8.8125 23.8125,-8.8125 z m -1101.625,1.9688 45.5625,0 0,8.0625 c 0,1.9687 -0.9375,3.1875 -2.8125,3.4687 -6.375,1.3125 -9.9375,2.0625 -10.6875,2.1563 l 24.9375,84 c 0.75,2.8125 1.5937,6.6562 2.5312,11.5312 1.125,-5.5312 2.0625,-9.375 2.8125,-11.5312 l 31.5938,-93.375 c 0.375,-1.0313 1.0312,-1.9688 2.1562,-2.9063 1.125,-0.9375 2.4375,-1.4062 4.0313,-1.4062 l 5.25,0 c 3.0937,0.094 5.1562,1.5 6.1875,4.3125 l 31.4062,93.375 c 1.125,3.2812 2.0625,7.0312 3,11.1562 0.375,-1.9687 0.6563,-3.9375 1.0313,-5.8125 0.2812,-1.875 0.6562,-3.6562 1.2187,-5.3437 l 25.0313,-84 c -0.75,-0.094 -4.3125,-0.8438 -10.5938,-2.1563 -1.9687,-0.375 -3,-1.5 -2.9062,-3.4687 l 0,-8.0625 36.5625,0 7.9687,0.094 0,8.0625 c 0,1.875 -0.9375,3.0938 -2.8125,3.4688 l -9.375,2.1562 -37.6875,120.6563 -16.3125,0 -34.0312,-102.4688 c -0.75,-1.9687 -1.3125,-4.2187 -1.875,-6.75 -0.375,1.125 -0.6563,2.25 -0.9375,3.4688 -0.2813,1.2187 -0.5625,2.3437 -0.8438,3.2812 l -34.2187,102.4688 -16.3125,0 -37.5938,-120.6563 c -5.25,-1.2187 -8.3437,-1.9687 -9.4687,-2.25 -1.875,-0.375 -2.8125,-1.5 -2.8125,-3.4687 l 0,-8.0625 z m 393.0976,8.5312 8.4375,0 0,32.7188 27.1875,0 0,12.0937 -27.1875,0 0,57 c 0,4.0313 0.9375,7.0313 2.9063,8.9063 1.875,1.9687 4.4062,2.9062 7.5,2.9062 1.6875,0 3.1875,-0.1875 4.5,-0.6562 1.3125,-0.4688 2.4375,-1.0313 3.375,-1.5938 0.9375,-0.5625 1.6875,-1.0312 2.3437,-1.5 0.6563,-0.4687 1.2188,-0.75 1.7813,-0.75 0.8437,0 1.5937,0.5625 2.3437,1.5938 l 4.875,7.9687 c -2.9062,2.7188 -6.375,4.875 -10.4062,6.375 -4.125,1.5 -8.3438,2.25 -12.6563,2.25 -7.5,0 -13.2187,-2.0625 -17.25,-6.2812 -4.0312,-4.125 -6,-10.2188 -6,-18.0938 l 0,-58.125 -11.4375,0 c -1.0312,0 -1.875,-0.2812 -2.5312,-0.8437 -0.75,-0.5625 -1.0313,-1.5 -1.0313,-2.8125 l 0,-6.6563 15.5625,-1.9687 3.8438,-29.3438 c 0.094,-0.9375 0.4687,-1.6875 1.2187,-2.25 0.6563,-0.5625 1.5,-0.9375 2.625,-0.9375 z m -1248.8496,28.9688 c 5.3438,0 10.0313,0.9375 14.1563,2.7187 4.125,1.6875 7.5937,4.125 10.4062,7.3125 2.8125,3.0938 4.9688,6.8438 6.375,11.3438 1.4063,4.4062 2.1563,9.2812 2.1563,14.5312 l 0,47.4375 c 2.625,0.4688 8.0625,1.5938 9.2812,1.7813 1.6875,0.375 2.8125,1.7812 2.8125,3.4687 l 0,8.0625 -12.0937,0 -1.4063,0 -6,0 c -1.5937,0 -2.9062,-0.1875 -3.9375,-0.75 -1.0312,-0.4687 -1.6875,-1.5 -1.9687,-3.1875 l -1.875,-8.8125 c -2.5313,2.25 -4.9688,4.3125 -7.3125,6.0938 -2.3438,1.7812 -4.875,3.2812 -7.5,4.5 -2.625,1.2187 -5.4375,2.1562 -8.3438,2.7187 -3,0.6563 -6.2812,1.0313 -9.9375,1.0313 -3.6562,0 -7.125,-0.5625 -10.3125,-1.5938 -3.2812,-1.0312 -6,-2.625 -8.4375,-4.6875 -2.3437,-2.0625 -4.2187,-4.6875 -5.625,-7.875 -1.4062,-3.0937 -2.1562,-6.8437 -2.1562,-11.1562 0,-3.8438 1.0312,-7.4063 3.0937,-10.875 2.0625,-3.4688 5.4375,-6.5625 10.0313,-9.2813 4.5937,-2.7187 10.5937,-4.875 18,-6.6562 7.5,-1.6875 16.5937,-2.625 27.2812,-2.625 l 0,-7.4063 c 0,-7.4062 -1.5937,-13.0312 -4.6875,-16.875 -3.1875,-3.75 -7.875,-5.7187 -14.0625,-5.7187 -4.0312,0 -7.5,0.5625 -10.2187,1.5937 -2.8125,1.0313 -5.25,2.1563 -7.2188,3.4688 -2.0625,1.3125 -3.8437,2.4375 -5.25,3.4687 -1.5,1.0313 -3,1.5938 -4.4062,1.5938 -1.125,0 -2.0625,-0.375 -2.9063,-0.9375 -0.8437,-0.5625 -1.5,-1.3125 -2.0625,-2.25 l -3,-5.25 c 5.25,-5.1563 10.875,-8.9063 16.9688,-11.3438 6.0937,-2.5312 12.8437,-3.8437 20.1562,-3.8437 z m 1684.2031,0 c 5.3438,0 10.0313,0.9375 14.1563,2.7187 4.125,1.6875 7.5937,4.125 10.4062,7.3125 2.8125,3.0938 4.9688,6.8438 6.375,11.3438 1.4063,4.4062 2.1563,9.2812 2.1563,14.5312 l 0,47.4375 c 2.625,0.4688 8.0625,1.5938 9.2812,1.7813 1.6875,0.375 2.8125,1.7812 2.8125,3.4687 l 0,8.0625 -12.0937,0 -1.4063,0 -6,0 c -1.5937,0 -2.9062,-0.1875 -3.9375,-0.75 -1.0312,-0.4687 -1.6875,-1.5 -1.9687,-3.1875 l -1.875,-8.8125 c -2.5313,2.25 -4.9688,4.3125 -7.3125,6.0938 -2.3438,1.7812 -4.875,3.2812 -7.5,4.5 -2.625,1.2187 -5.4375,2.1562 -8.3438,2.7187 -3,0.6563 -6.2812,1.0313 -9.9375,1.0313 -3.6562,0 -7.125,-0.5625 -10.3125,-1.5938 -3.2812,-1.0312 -6,-2.625 -8.4375,-4.6875 -2.3437,-2.0625 -4.2187,-4.6875 -5.625,-7.875 -1.4062,-3.0937 -2.1562,-6.8437 -2.1562,-11.1562 0,-3.8438 1.0312,-7.4063 3.0937,-10.875 2.0625,-3.4688 5.4375,-6.5625 10.0313,-9.2813 4.5937,-2.7187 10.5937,-4.875 18,-6.6562 7.5,-1.6875 16.5937,-2.625 27.2812,-2.625 l 0,-7.4063 c 0,-7.4062 -1.5937,-13.0312 -4.6875,-16.875 -3.1875,-3.75 -7.875,-5.7187 -14.0625,-5.7187 -4.0312,0 -7.5,0.5625 -10.2187,1.5937 -2.8125,1.0313 -5.25,2.1563 -7.2188,3.4688 -2.0625,1.3125 -3.8437,2.4375 -5.25,3.4687 -1.5,1.0313 -3,1.5938 -4.4062,1.5938 -1.125,0 -2.0625,-0.375 -2.9063,-0.9375 -0.8437,-0.5625 -1.5,-1.3125 -2.0625,-2.25 l -3,-5.25 c 5.25,-5.1563 10.875,-8.9063 16.9688,-11.3438 6.0937,-2.5312 12.8437,-3.8437 20.1562,-3.8437 z m -1280.8476,0.1875 c 4.875,0 9.1875,1.125 13.0312,3.375 l -2.1562,12.4687 c -0.4688,1.5938 -1.3125,2.3438 -2.4375,2.3438 -1.2188,0 -2.7188,-0.2813 -4.5,-0.8438 -1.875,-0.5625 -4.4063,-0.9375 -7.5938,-0.9375 -10.875,0 -19.0312,6.6563 -24.375,19.7813 l 0,46.7812 c 1.5,0.375 5.0625,1.0313 10.6875,2.1563 1.875,0.375 2.8125,1.5937 2.8125,3.4687 l 0,8.0625 -43.6875,0 0,-8.0625 c 0,-1.875 0.9375,-3.0937 2.8125,-3.4687 l 10.6875,-2.1563 0,-67.5937 c -6,-1.125 -9.5625,-1.875 -10.6875,-2.1563 -1.875,-0.375 -2.8125,-1.5 -2.8125,-3.4687 l 0,-8.0625 13.5,0 9.5625,0 c 1.7813,0.094 3,0.375 3.75,1.0312 0.6563,0.75 1.125,1.9688 1.4063,3.5625 l 1.125,14.8125 c 6.9375,-14.0625 16.5,-21.0937 28.875,-21.0937 z m 1395.6308,0 c 4.875,0 9.1876,1.125 13.0313,3.375 l -2.1563,12.4687 c -0.4687,1.5938 -1.3124,2.3438 -2.4374,2.3438 -1.2188,0 -2.7188,-0.2813 -4.5,-0.8438 -1.875,-0.5625 -4.4063,-0.9375 -7.5938,-0.9375 -10.875,0 -19.0312,6.6563 -24.375,19.7813 l 0,46.7812 c 1.5,0.375 5.0625,1.0313 10.6875,2.1563 1.875,0.375 2.8125,1.5937 2.8125,3.4687 l 0,8.0625 -43.6875,0 0,-8.0625 c 0,-1.875 0.9375,-3.0937 2.8125,-3.4687 l 10.6875,-2.1563 0,-67.5937 c -6,-1.125 -9.5625,-1.875 -10.6875,-2.1563 -1.875,-0.375 -2.8125,-1.5 -2.8125,-3.4687 l 0,-8.0625 13.5,0 9.5625,0 c 1.7812,0.094 3,0.375 3.75,1.0312 0.6562,0.75 1.125,1.9688 1.4062,3.5625 l 1.125,14.8125 c 6.9376,-14.0625 16.5,-21.0937 28.875,-21.0937 z m -1512.0332,0.094 c 4.125,0.094 7.9688,0.4688 11.5313,1.4063 3.5625,0.9375 6.8437,2.25 9.8437,3.9375 l 25.7813,0 0,6.1875 c 0,2.0625 -1.3125,3.375 -3.9375,3.9375 l -10.7813,1.5 c 2.0625,4.125 3.1875,8.625 3.1875,13.5937 0,4.6875 -0.9375,8.9063 -2.7187,12.6563 -1.7813,3.75 -4.2188,7.0312 -7.4063,9.6562 -3.1875,2.7188 -6.9375,4.7813 -11.25,6.1875 -4.3125,1.5 -9.0937,2.1563 -14.25,2.1563 -4.5,0 -8.625,-0.4688 -12.5625,-1.5938 -2.0625,1.3125 -3.5625,2.625 -4.5937,4.0313 -1.0313,1.5 -1.5,2.9062 -1.5,4.2187 0,2.25 0.8437,4.0313 2.7187,5.1563 1.7813,1.125 4.2188,1.9687 7.2188,2.4375 3,0.5625 6.375,0.8437 10.2187,0.9375 3.75,0.1875 7.6875,0.375 11.625,0.6562 3.9375,0.2813 7.875,0.75 11.7188,1.4063 3.75,0.75 7.2187,1.875 10.2187,3.375 3,1.5937 5.3438,3.75 7.2188,6.4687 1.7812,2.8125 2.7187,6.375 2.7187,10.6875 0,4.125 -1.0312,8.0625 -3.0937,11.8125 -2.0625,3.8438 -4.9688,7.2188 -8.7188,10.2188 -3.8437,3 -8.5312,5.3437 -13.9687,7.125 -5.5313,1.7812 -11.7188,2.625 -18.6563,2.625 -6.9375,0 -13.0312,-0.6563 -18.2812,-2.0625 -5.25,-1.3125 -9.5625,-3.1875 -12.9375,-5.5313 -3.4688,-2.25 -6.0938,-4.9687 -7.7813,-7.9687 -1.6875,-3 -2.5312,-6.1875 -2.5312,-9.5625 0,-4.6875 1.4062,-8.625 4.4062,-11.9063 3,-3.2812 7.0313,-5.9062 12.2813,-7.875 -2.7188,-1.2187 -4.875,-2.9062 -6.4688,-4.9687 -1.5937,-2.0625 -2.3437,-4.875 -2.3437,-8.4375 0,-1.3125 0.1875,-2.7188 0.75,-4.2188 0.4687,-1.5 1.2187,-2.9062 2.25,-4.4062 1.0312,-1.4063 2.3437,-2.8125 3.8437,-4.125 1.5,-1.3125 3.1875,-2.4375 5.25,-3.4688 -4.6875,-2.625 -8.4375,-6.0937 -11.0625,-10.4062 -2.625,-4.3125 -3.9375,-9.4688 -3.9375,-15.2813 0,-4.5937 0.8438,-8.8125 2.625,-12.5625 1.7813,-3.75 4.3125,-7.0312 7.5,-9.6562 3.1875,-2.625 6.9375,-4.6875 11.3438,-6.1875 4.4062,-1.4063 9.2812,-2.1563 14.5312,-2.1563 z m -187.8281,0.094 c 7.2188,0 16.5938,2.3437 28.125,6.9375 l 0,24.6562 -7.5,0 c -1.875,0 -2.9062,-0.8437 -3.1875,-2.625 -0.2812,-0.6562 -0.4687,-3 -0.75,-7.0312 -0.375,-3.9375 -0.5625,-6.0938 -0.4687,-6.2813 -3.0938,-0.9375 -5.3438,-1.5 -7.0313,-1.7812 -3.5625,-0.5625 -7.125,-0.75 -10.5,-0.75 -3.375,0.094 -6.8437,0.9375 -10.3125,2.5312 -3.375,1.5938 -6.375,3.9375 -8.8125,7.0313 -4.7812,6.375 -7.2187,15.0937 -7.2187,26.25 0,11.3437 2.5312,20.25 7.5,26.625 4.875,6.1875 11.625,9.2812 20.1562,9.2812 7.875,0 14.8125,-2.625 20.9063,-7.875 1.2187,-0.9375 2.3437,-1.5 3.6562,-1.5 1.3125,0 2.25,0.5625 2.9063,1.5938 l 4.6875,6.0937 c -7.875,9.75 -19.5938,14.625 -34.9688,14.625 -12.1875,0 -22.125,-4.2187 -29.8125,-12.8437 -8.0625,-8.8125 -12.0937,-20.8125 -12.0937,-36 0,-14.5313 3.8437,-26.25 11.5312,-35.1563 8.0625,-9.1875 19.125,-13.7812 33.1875,-13.7812 z m 366.8672,0 c 6.9375,0 13.125,1.2187 18.75,3.4687 5.625,2.3438 10.3125,5.625 14.25,9.8438 3.9375,4.3125 6.9375,9.4687 9,15.4687 2.0625,6 3.1875,12.75 3.1875,20.1563 0,7.5 -1.125,14.25 -3.1875,20.25 -2.0625,6 -5.0625,11.1562 -9,15.375 -3.9375,4.3125 -8.625,7.5937 -14.25,9.8437 -5.625,2.25 -11.8125,3.375 -18.75,3.375 -6.9375,0 -13.2187,-1.125 -18.8437,-3.375 -5.625,-2.25 -10.3125,-5.5312 -14.25,-9.8437 -3.9375,-4.2188 -7.0313,-9.375 -9.0938,-15.375 -2.1562,-6 -3.1875,-12.75 -3.1875,-20.25 0,-7.4063 1.0313,-14.1563 3.1875,-20.1563 2.0625,-6 5.1563,-11.1562 9.0938,-15.4687 3.9375,-4.2188 8.625,-7.5 14.25,-9.8438 5.625,-2.25 11.9062,-3.4687 18.8437,-3.4687 z m 230.3008,0 c 10.2187,0 18.0937,3.375 23.7187,9.9375 5.3438,6.375 8.0625,15.0937 8.0625,26.0625 l 0,46.7812 c 6,1.2188 9.5625,1.9688 10.6875,2.1563 1.875,0.375 2.9063,1.5937 2.9063,3.4687 l 0,8.0625 -30.2813,0 0,-60.4687 c 0,-15.0938 -6.6562,-22.6875 -19.9687,-22.6875 -9.2813,0 -17.8125,4.4062 -25.6875,13.2187 l 0,56.25 c 0.375,0.094 3.9375,0.8438 10.6875,2.1563 1.875,0.375 2.9062,1.5937 2.9062,3.4687 l 0,8.0625 -43.7812,0 0,-8.0625 c 0,-1.875 0.9375,-3.0937 2.8125,-3.4687 l 10.6875,-2.1563 0,-67.5937 c -6,-1.125 -9.5625,-1.875 -10.6875,-2.1563 -1.875,-0.375 -2.8125,-1.5 -2.8125,-3.4687 l 0,-8.0625 13.5,0 9.9375,0 c 2.3437,0 3.8437,1.2187 4.5,3.4687 l 1.3125,10.3125 c 9.1875,-10.125 19.6875,-15.2812 31.5,-15.2812 z m 905.7617,0 c 7.2188,0 16.5938,2.3437 28.125,6.9375 l 0,24.6562 -7.5,0 c -1.875,0 -2.9062,-0.8437 -3.1875,-2.625 -0.2812,-0.6562 -0.4687,-3 -0.75,-7.0312 -0.375,-3.9375 -0.5625,-6.0938 -0.4687,-6.2813 -3.0938,-0.9375 -5.3438,-1.5 -7.0313,-1.7812 -3.5625,-0.5625 -7.125,-0.75 -10.5,-0.75 -3.375,0.094 -6.8437,0.9375 -10.3125,2.5312 -3.375,1.5938 -6.375,3.9375 -8.8125,7.0313 -4.7812,6.375 -7.2187,15.0937 -7.2187,26.25 0,11.3437 2.5312,20.25 7.5,26.625 4.875,6.1875 11.625,9.2812 20.1562,9.2812 7.875,0 14.8125,-2.625 20.9063,-7.875 1.2187,-0.9375 2.3437,-1.5 3.6562,-1.5 1.3125,0 2.25,0.5625 2.9063,1.5938 l 4.6875,6.0937 c -7.875,9.75 -19.5938,14.625 -34.9688,14.625 -12.1875,0 -22.125,-4.2187 -29.8125,-12.8437 -8.0625,-8.8125 -12.0937,-20.8125 -12.0937,-36 0,-14.5313 3.8437,-26.25 11.5312,-35.1563 8.0625,-9.1875 19.125,-13.7812 33.1875,-13.7812 z m 258.4434,0 c 5.625,0.094 10.875,1.0312 15.75,2.9062 4.7812,1.875 8.9062,4.6875 12.4687,8.25 3.4688,3.5625 6.1875,8.0625 8.1563,13.3125 1.9687,5.25 3,11.25 3,18 0,2.625 -0.2813,4.4063 -0.8438,5.25 -0.5625,0.9375 -1.6875,1.3125 -3.1875,1.3125 l -63.1875,0 c 0.094,6 0.9375,11.25 2.4375,15.6563 1.5,4.5 3.5625,8.1562 6.1875,11.1562 2.625,3 5.7188,5.1563 9.375,6.6563 3.5625,1.5 7.6875,2.1562 12.1875,2.1562 4.125,0 7.7813,-0.4687 10.7813,-1.4062 3,-0.9375 5.625,-2.0625 7.875,-3.1875 2.1562,-1.125 3.9375,-2.1563 5.4375,-3.0938 1.5,-0.9375 2.7187,-1.5 3.8437,-1.5 1.3125,0 2.4375,0.5625 3.1875,1.5938 l 4.6875,6.0937 c -2.0625,2.5313 -4.5937,4.6875 -7.4062,6.5625 -2.9063,1.875 -6,3.375 -9.2813,4.5 -3.2812,1.2188 -6.6562,2.1563 -10.125,2.7188 -3.5625,0.5625 -7.0312,0.8437 -10.4062,0.8437 -6.5625,0 -12.6563,-1.0312 -18.1875,-3.2812 -5.5313,-2.25 -10.3125,-5.4375 -14.3438,-9.75 -4.0312,-4.3125 -7.125,-9.5625 -9.375,-15.9375 -2.25,-6.2813 -3.375,-13.5 -3.375,-21.75 0,-6.5625 0.9375,-12.75 3,-18.5625 2.0625,-5.7188 4.9688,-10.6875 8.8125,-14.9063 3.75,-4.2187 8.4375,-7.5 13.9688,-9.9375 5.4375,-2.4375 11.625,-3.6562 18.5625,-3.6562 z m -1342.5039,1.5 30.1875,0 0,60.5625 c 0,7.2187 1.5937,12.75 4.9687,16.6875 3.2813,3.9375 8.25,5.9062 14.9063,5.9062 9.4687,0 18.0937,-4.3125 25.7812,-13.125 l 0,-56.3437 c -1.125,-0.1875 -4.6875,-0.9375 -10.5937,-2.1563 -1.9688,-0.375 -2.9063,-1.5 -2.9063,-3.4687 l 0,-8.0625 13.5,0 16.6875,0 0,81.2812 c 6,1.2188 9.5625,1.9688 10.6875,2.25 1.875,0.375 2.9063,1.5 2.9063,3.4688 l 0,8.0625 -23.5313,0 c -2.4375,0 -3.9375,-1.2188 -4.5,-3.4688 l -1.3125,-10.2187 c -9.1875,10.125 -19.6875,15.1875 -31.5,15.1875 -10.125,0 -18.0937,-3.2813 -23.7187,-9.8438 -5.4375,-6.2812 -8.0625,-15 -8.0625,-26.1562 l 0,-46.875 c -6,-1.125 -9.5625,-1.875 -10.6875,-2.1563 -1.875,-0.375 -2.8125,-1.5 -2.8125,-3.4687 l 0,-8.0625 z m 1458.6191,0 30.1875,0 0,60.5625 c 0,7.2187 1.5938,12.75 4.9688,16.6875 3.2812,3.9375 8.25,5.9062 14.9062,5.9062 9.4688,0 18.0938,-4.3125 25.7813,-13.125 l 0,-56.3437 c -1.125,-0.1875 -4.6875,-0.9375 -10.5938,-2.1563 -1.9687,-0.375 -2.9062,-1.5 -2.9062,-3.4687 l 0,-8.0625 13.5,0 16.6875,0 0,81.2812 c 6,1.2188 9.5625,1.9688 10.6875,2.25 1.875,0.375 2.9062,1.5 2.9062,3.4688 l 0,8.0625 -23.5312,0 c -2.4375,0 -3.9375,-1.2188 -4.5,-3.4688 l -1.3125,-10.2187 c -9.1875,10.125 -19.6875,15.1875 -31.5,15.1875 -10.125,0 -18.0938,-3.2813 -23.7188,-9.8438 -5.4375,-6.2812 -8.0625,-15 -8.0625,-26.1562 l 0,-46.875 c -6,-1.125 -9.5625,-1.875 -10.6875,-2.1563 -1.875,-0.375 -2.8125,-1.5 -2.8125,-3.4687 l 0,-8.0625 z m -907.4863,0.094 30.1875,0 0,81.2813 c 0,0 9,1.7812 10.6875,2.0625 1.5937,0.375 2.8125,1.7812 2.8125,3.4687 l 0,8.0625 -43.6875,0 0,-8.0625 c 0,-1.6875 1.125,-3.0937 2.8125,-3.4687 1.5937,-0.2813 10.6875,-2.0625 10.6875,-2.0625 l 0,-67.6875 c 0,0 -9.0938,-1.7813 -10.6875,-2.0625 -1.6875,-0.375 -2.8125,-1.7813 -2.8125,-3.4688 l 0,-8.0625 z m -782.1739,10.3125 c -6.75,0 -11.8125,1.7813 -15.375,5.1563 -3.5625,3.4687 -5.25,8.0625 -5.25,13.875 0,2.8125 0.375,5.4375 1.3125,7.7812 0.9375,2.3438 2.25,4.3125 4.0313,6 1.6875,1.6875 3.8437,3 6.4687,3.9375 2.5313,0.9375 5.4375,1.4063 8.8125,1.4063 3.375,0 6.2813,-0.4688 8.9063,-1.4063 2.625,-0.9375 4.7812,-2.25 6.5625,-3.9375 1.6875,-1.6875 3,-3.6562 3.9375,-6 0.8437,-2.3437 1.3125,-4.9687 1.3125,-7.7812 0,-5.8125 -1.7813,-10.4063 -5.3438,-13.875 -3.5625,-3.375 -8.625,-5.1563 -15.375,-5.1563 z m 1573.92,0.375 c -8.0625,0 -14.4375,2.3438 -19.0313,7.0313 -4.6875,4.6875 -7.5,11.0625 -8.625,19.3125 l 51.6563,0 c 0,-3.8438 -0.5625,-7.4063 -1.5938,-10.5938 -1.125,-3.1875 -2.625,-6 -4.6875,-8.3437 -2.0625,-2.3438 -4.5937,-4.125 -7.5937,-5.4375 -3,-1.3125 -6.375,-1.9688 -10.125,-1.9688 z m -1065.1114,0.5625 c -9.0937,0 -16.0312,3.1875 -20.7187,9.4688 -4.7813,6.375 -7.125,15.375 -7.125,27 0,18 4.5937,28.9687 13.875,33 3,1.3125 6.375,1.9687 10.3125,1.9687 9.8437,0 18.375,-4.7812 25.5,-14.3437 l 0,-45.9375 c -5.4375,-7.4063 -12.75,-11.1563 -21.8438,-11.1563 z m 370.9707,0 c -9.0937,0 -16.0312,3.1875 -20.7187,9.4688 -4.7813,6.375 -7.125,15.375 -7.125,27 0,18 4.5937,28.9687 13.875,33 3,1.3125 6.375,1.9687 10.3125,1.9687 9.8437,0 18.375,-4.7812 25.5,-14.3437 l 0,-45.9375 c -5.4375,-7.4063 -12.75,-11.1563 -21.8438,-11.1563 z m -700.7402,0.2813 c -4.7812,0.094 -8.9062,0.8437 -12.375,2.4375 -3.5625,1.6875 -6.4687,4.0312 -8.8125,7.0312 -2.3437,3.0938 -4.125,6.8438 -5.25,11.3438 -1.125,4.5 -1.6875,9.4687 -1.6875,15.0937 0,5.625 0.5625,10.6875 1.6875,15.0938 1.125,4.5 2.9063,8.25 5.25,11.25 2.3438,3 5.25,5.3437 8.8125,6.9375 3.4688,1.6875 7.5938,2.4375 12.375,2.4375 9.375,0 16.3125,-3.0938 21,-9.375 4.5938,-6.2813 6.9375,-15.0938 6.9375,-26.3438 0,-11.25 -2.3437,-20.0625 -6.9375,-26.4375 -4.6875,-6.2812 -11.625,-9.4687 -21,-9.4687 z m -557.6719,0.1875 c -5.4375,0 -10.2187,1.3125 -14.3437,3.75 -4.125,2.5312 -7.875,6.0937 -11.25,10.5937 l 0,22.2188 0,23.7187 0,8.1563 c 2.4375,0.5625 10.5,2.5312 18.6562,3 1.2188,0 2.4375,0.094 3.5625,0.094 l 1.2188,0 c 3.75,-0.1875 7.125,-0.9375 10.2187,-2.3437 3.375,-1.5938 6.2813,-3.9375 8.7188,-6.9375 2.3437,-3.0938 4.2187,-6.8438 5.5312,-11.25 1.2188,-4.2188 1.7813,-9.0938 1.7813,-14.4375 0.094,-0.4688 0.094,-0.9375 0.094,-1.5 0,-6.1875 -0.5625,-11.4375 -1.6875,-15.9375 -1.125,-4.4063 -2.625,-8.0625 -4.6875,-10.875 -2.0625,-2.9063 -4.5937,-4.9688 -7.5937,-6.2813 -3,-1.3125 -6.4688,-1.9687 -10.2188,-1.9687 z m 1549.4278,19.875 46.3125,0 0,14.1562 -46.3125,0 0,-14.1562 z m -1441.0606,20.625 c -7.6875,0 -14.25,0.4687 -19.5937,1.4062 -5.3438,1.0313 -9.75,2.25 -13.125,3.8438 -3.375,1.5937 -5.8125,3.375 -7.3125,5.5312 -1.5938,2.1563 -2.3438,4.5 -2.3438,7.2188 0,2.4375 0.375,4.6875 1.2188,6.4687 0.8437,1.7813 1.875,3.2813 3.2812,4.5 1.4063,1.125 3,1.9688 4.875,2.5313 1.875,0.5625 3.9375,0.8437 6.0938,0.8437 2.9062,0 5.625,-0.375 8.0625,-0.9375 2.4375,-0.5625 4.7812,-1.4062 6.9375,-2.5312 2.1562,-1.125 4.2187,-2.4375 6.1875,-3.9375 1.9687,-1.5938 3.8437,-3.375 5.7187,-5.3438 l 0,-19.5937 z m 1684.2031,0 c -7.6875,0 -14.25,0.4687 -19.5937,1.4062 -5.3438,1.0313 -9.75,2.25 -13.125,3.8438 -3.375,1.5937 -5.8125,3.375 -7.3125,5.5312 -1.5938,2.1563 -2.3438,4.5 -2.3438,7.2188 0,2.4375 0.375,4.6875 1.2188,6.4687 0.8437,1.7813 1.875,3.2813 3.2812,4.5 1.4063,1.125 3,1.9688 4.875,2.5313 1.875,0.5625 3.9375,0.8437 6.0938,0.8437 2.9062,0 5.625,-0.375 8.0625,-0.9375 2.4375,-0.5625 4.7812,-1.4062 6.9375,-2.5312 2.1562,-1.125 4.2187,-2.4375 6.1875,-3.9375 1.9687,-1.5938 3.8437,-3.375 5.7187,-5.3438 l 0,-19.5937 z m -1428.2812,34.6875 c -3.5625,1.6875 -6.4688,3.75 -8.7188,6.1875 -2.25,2.4375 -3.2812,5.3437 -3.2812,8.7187 0,2.1563 0.4687,4.125 1.5937,6 1.125,1.875 2.8125,3.4688 5.0625,4.7813 2.25,1.3125 5.0625,2.4375 8.4375,3.1875 3.375,0.75 7.4063,1.125 12.0938,1.125 4.5,0 8.5312,-0.375 12.0937,-1.2188 3.5625,-0.75 6.5625,-1.9687 9,-3.4687 2.4375,-1.5 4.4063,-3.2813 5.7188,-5.3438 1.3125,-2.0625 1.9687,-4.3125 1.9687,-6.8437 0,-2.3438 -0.6562,-4.2188 -1.9687,-5.7188 -1.3125,-1.4062 -3.0938,-2.5312 -5.3438,-3.2812 -2.25,-0.75 -4.875,-1.4063 -7.7812,-1.7813 -3,-0.375 -6.0938,-0.5625 -9.2813,-0.75 -3.2812,-0.1875 -6.5625,-0.375 -9.9375,-0.5625 -3.375,-0.1875 -6.6562,-0.4687 -9.6562,-1.0312 z&quot;
       transform=&quot;translate(0,452.36216)&quot;
       id=&quot;path21&quot;
       inkscape:label=&quot;width&quot;
       inkscape:connector-curvature=&quot;0&quot; /&gt;
  </g>
</svg>
