<svg xmlns:osb="http://www.openswatchbook.org/uri/2009/osb"
     xmlns:dc="http://purl.org/dc/elements/1.1/"
     xmlns:cc="http://creativecommons.org/ns#"
     xmlns:rdf="http://www.w3.org/1999/02/22-rdf-syntax-ns#"
     xmlns="http://www.w3.org/2000/svg"
     xmlns:xlink="http://www.w3.org/1999/xlink"
     xmlns:sodipodi="http://sodipodi.sourceforge.net/DTD/sodipodi-0.dtd"
     xmlns:inkscape="http://www.inkscape.org/namespaces/inkscape"
     width="480px"
     height="600px"
     viewBox="0 0 480 600"
     id="svg2"
     version="1.1"
     inkscape:version="0.91 r13725"
     sodipodi:docname="binarybg.svg"
     enable-background="new"
     preserveAspectRatio="xMidYMid meet" >
  <rect id="svgEditorBackground" x="0" y="0" width="480" height="600" style="fill: none; stroke: none;"/>
  <defs id="defs4">
    <inkscape:path-effect is_visible="true" id="path-effect16485" effect="spiro"/>
    <inkscape:path-effect is_visible="true" id="path-effect16481" effect="spiro"/>
    <inkscape:path-effect is_visible="true" id="path-effect16477" effect="spiro"/>
    <inkscape:path-effect is_visible="true" id="path-effect16473" effect="spiro"/>
    <inkscape:path-effect is_visible="true" id="path-effect16469" effect="spiro"/>
    <inkscape:path-effect is_visible="true" id="path-effect16465" effect="spiro"/>
    <inkscape:path-effect is_visible="true" id="path-effect16461" effect="spiro"/>
    <inkscape:path-effect is_visible="true" id="path-effect16457" effect="spiro"/>
    <inkscape:path-effect is_visible="true" id="path-effect16453" effect="spiro"/>
    <inkscape:path-effect is_visible="true" id="path-effect16449" effect="spiro"/>
    <inkscape:path-effect is_visible="true" id="path-effect16445" effect="spiro"/>
    <inkscape:path-effect is_visible="true" id="path-effect16441" effect="spiro"/>
    <inkscape:path-effect is_visible="true" id="path-effect16437" effect="spiro"/>
    <inkscape:path-effect is_visible="true" id="path-effect16433" effect="spiro"/>
    <inkscape:path-effect is_visible="true" id="path-effect16429" effect="spiro"/>
    <inkscape:path-effect is_visible="true" id="path-effect16425" effect="spiro"/>
    <inkscape:path-effect is_visible="true" id="path-effect16421" effect="spiro"/>
    <inkscape:path-effect is_visible="true" id="path-effect16417" effect="spiro"/>
    <inkscape:path-effect is_visible="true" id="path-effect16413" effect="spiro"/>
    <inkscape:path-effect is_visible="true" id="path-effect16409" effect="spiro"/>
    <inkscape:path-effect is_visible="true" id="path-effect16405" effect="spiro"/>
    <inkscape:path-effect is_visible="true" id="path-effect16401" effect="spiro"/>
    <inkscape:path-effect is_visible="true" id="path-effect16397" effect="spiro"/>
    <inkscape:path-effect is_visible="true" id="path-effect16393" effect="spiro"/>
    <inkscape:path-effect is_visible="true" id="path-effect16389" effect="spiro"/>
    <inkscape:path-effect is_visible="true" id="path-effect16385" effect="spiro"/>
    <linearGradient id="linearGradient7279">
      <stop id="stop7281" style="stop-color:#ffffff" offset="0"/>
      <stop id="stop7283" style="stop-color:#ff0000;stop-opacity:1" offset="1"/>
    </linearGradient>
    <inkscape:path-effect effect="spiro" id="path-effect7311" is_visible="true"/>
    <inkscape:path-effect effect="spiro" id="path-effect7147" is_visible="true"/>
    <inkscape:path-effect effect="spiro" id="path-effect18731" is_visible="true"/>
    <inkscape:path-effect effect="spiro" id="path-effect18367" is_visible="true"/>
    <inkscape:path-effect effect="spiro" id="path-effect18115" is_visible="true"/>
    <linearGradient id="linearGradient4105">
      <stop id="stop10732" style="stop-color:#ffffff" offset="0"/>
      <stop id="stop10734" style="stop-color:#a3bcdf" offset="1"/>
    </linearGradient>
    <linearGradient id="linearGradient8147" osb:paint="solid">
      <stop style="stop-color:#ffd80c;stop-opacity:1;" offset="0" id="stop8149"/>
    </linearGradient>
    <pattern y="0" x="0" height="6" width="6" patternUnits="userSpaceOnUse" id="EMFhbasepattern"/>
    <pattern y="0" x="0" height="6" width="6" patternUnits="userSpaceOnUse" id="EMFhbasepattern-1"/>
    <pattern y="0" x="0" height="6" width="6" patternUnits="userSpaceOnUse" id="EMFhbasepattern-2"/>
    <filter inkscape:label="In and Out" inkscape:menu="Shadows and Glows" inkscape:menu-tooltip="Inner colorized shadow, outer black shadow" style="color-interpolation-filters:sRGB;" id="filter5144">
      <feGaussianBlur result="result0" in="SourceAlpha" stdDeviation="4" id="feGaussianBlur5146"/>
      <feOffset dx="5" dy="5" result="result4" id="feOffset5148"/>
      <feComposite in="SourceGraphic" in2="result4" operator="xor" result="result3" id="feComposite5150"/>
    </filter>
    <linearGradient id="linearGradient10736">
      <stop offset="0" style="stop-color:#ffffff" id="stop4107"/>
      <stop offset="1" style="stop-color:#d3ebf2;stop-opacity:1" id="stop4109"/>
    </linearGradient>
  </defs>
  <sodipodi:namedview id="base" pagecolor="#ffffff" bordercolor="#666666" borderopacity="1.0" inkscape:pageopacity="0.0" inkscape:pageshadow="2" inkscape:zoom="1.28" inkscape:cx="-271.25055" inkscape:cy="405.34835" inkscape:document-units="px" inkscape:current-layer="g35107" showgrid="false" inkscape:window-width="1301" inkscape:window-height="744" inkscape:window-x="65" inkscape:window-y="24" inkscape:window-maximized="1" units="px" inkscape:snap-smooth-nodes="false" inkscape:object-nodes="false" inkscape:snap-others="false" inkscape:object-paths="false" inkscape:snap-intersection-paths="false" inkscape:snap-nodes="false" inkscape:snap-object-midpoints="true" inkscape:snap-global="false"/>
  <metadata id="metadata7">
    <rdf:RDF>
      <cc:Work rdf:about="">
        <dc:format>image/svg+xml</dc:format>
        <dc:type rdf:resource="http://purl.org/dc/dcmitype/StillImage"/>
        <dc:title/>
        <cc:license rdf:resource="http://creativecommons.org/licenses/by/3.0/"/>
        <dc:creator>
          <cc:Agent>
            <dc:title>Nicco Kunzmann</dc:title>
          </cc:Agent>
        </dc:creator>
        <dc:contributor>
          <cc:Agent>
            <dc:title>Nicco Kunzmann, </dc:title>
          </cc:Agent>
        </dc:contributor>
      </cc:Work>
      <cc:License rdf:about="http://creativecommons.org/licenses/by/3.0/">
        <cc:permits rdf:resource="http://creativecommons.org/ns#Reproduction"/>
        <cc:permits rdf:resource="http://creativecommons.org/ns#Distribution"/>
        <cc:requires rdf:resource="http://creativecommons.org/ns#Notice"/>
        <cc:requires rdf:resource="http://creativecommons.org/ns#Attribution"/>
        <cc:permits rdf:resource="http://creativecommons.org/ns#DerivativeWorks"/>
      </cc:License>
    </rdf:RDF>
  </metadata>
   </g>
     <rect style="fill: rgb(0, 128, 0); fill-opacity: 0.3;" id="rect8515" width="663.593" height="667.409" x="38.5031" y="76.0242" transform="matrix(10.9295 0 0 1.91451 -514.165 -442.536)" rx="0" ry="0"/>
     <ellipse id="e121_ellipse" cx="1058.30536583707" cy="401.185773667419" stroke="black" style="stroke-width: 5px; fill: none;" rx="215.734" ry="107.867" transform="matrix(0.346726 0 0 1.37255 181.708 4.10307)"/><ellipse id="e174_ellipse" cx="295.16689148302817" cy="241.66689148302814" stroke="black" style="stroke-width: 5px; fill: none;" rx="215.734" ry="107.867" transform="matrix(0.346726 0 0 1.37255 181.708 4.10307)"/><ellipse id="e186_ellipse" cx="2020.7377510221245" cy="349.53378689998" stroke="black" style="stroke-width: 5px; fill: none;" rx="215.734" ry="107.867" transform="matrix(0.346726 0 0 1.37255 181.708 4.10307)"/><ellipse id="e198_ellipse" cx="6048.413813090887" cy="206.04362810730015" stroke="black" style="stroke-width: 5px; fill: none;" rx="215.734" ry="107.867" transform="matrix(0.346726 0 0 1.37255 181.708 4.10307)"/><ellipse id="e210_ellipse" cx="3014.3185959056486" cy="172.34937672060823" stroke="black" style="stroke-width: 5px; fill: none;" rx="215.734" ry="107.867" transform="matrix(0.346726 0 0 1.37255 181.708 4.10307)"/><ellipse id="e222_ellipse" cx="1442.1848990514573" cy="122.9906220638102" stroke="black" style="stroke-width: 5px; fill: none;" rx="215.734" ry="107.867" transform="matrix(0.346726 0 0 1.37255 181.708 4.10307)"/><ellipse id="e234_ellipse" cx="4598.859763230605" cy="175.85038147843267" stroke="black" style="stroke-width: 5px; fill: none;" rx="215.734" ry="107.867" transform="matrix(0.346726 0 0 1.37255 181.708 4.10307)"/><ellipse id="e318_ellipse" cx="5317.5765777298975" cy="412.9197179076976" stroke="black" style="stroke-width: 5px; fill: none;" rx="215.734" ry="107.867" transform="matrix(0.346726 0 0 1.37255 181.708 4.10307)"/><ellipse id="e330_ellipse" cx="3667.2845521351833" cy="408.62517779070987" stroke="black" style="stroke-width: 5px; fill: none;" rx="215.734" ry="107.867" transform="matrix(0.346726 0 0 1.37255 181.708 4.10307)"/><ellipse id="e380_ellipse" cx="7186.487497485394" cy="176.8627845868514" stroke="black" style="stroke-width: 5px; fill: none;" rx="215.734" ry="107.867" transform="matrix(0.346726 0 0 1.37255 181.708 4.10307)"/><ellipse id="e392_ellipse" cx="8025.191102746792" cy="345.23942370365444" stroke="black" style="stroke-width: 5px; fill: none;" rx="215.734" ry="107.867" transform="matrix(0.346726 0 0 1.37255 181.708 4.10307)"/><ellipse id="e404_ellipse" cx="8987.915094912172" cy="168.2735035863833" stroke="black" style="stroke-width: 5px; fill: none;" rx="215.734" ry="107.867" transform="matrix(0.346726 0 0 1.37255 181.708 4.10307)"/><line id="e472_line" x1="1045.5242117157125" y1="212.8749980770354" x2="1045.5242117157125" y2="358.4949626766448" stroke="black" style="stroke-width: 5px; fill: none;" transform="matrix(1 0 0 1.27847 0 -142.93)"/><line id="e486_line" x1="1017.22073341887" y1="179.1597997077637" x2="1044.1805722860574" y2="136.00979055249027" stroke="black" style="stroke-width: 5px; fill: none;"/><line id="e723_line" x1="272.91677808076696" y1="607.9392831923712" x2="299.8768000534232" y2="564.7894418837775" stroke="black" style="stroke-width: 5px; fill: none;"/><line id="e724_line" x1="301.2450256751372" y1="550.3647461285466" x2="301.2450256751372" y2="695.9847412457341" stroke="black" style="stroke-width: 5px; fill: none;" transform="matrix(1 0 0 1.27847 0 -142.93)"/><line id="e733_line" x1="1049.5703474025738" y1="562.0798555328707" x2="1076.5300641994488" y2="518.9298311188082" stroke="black" style="stroke-width: 5px; fill: none;"/><line id="e734_line" x1="1077.8851667385113" y1="516.6136564581969" x2="1077.8851667385113" y2="662.2336515753844" stroke="black" style="stroke-width: 5px; fill: none;" transform="matrix(1 0 0 1.27847 0 -142.93)"/><line id="e1051_line" x1="434.7174619611973" y1="127.93124857496235" x2="461.6774839338535" y2="84.78126993726704" stroke="black" style="stroke-width: 5px; fill: none;"/><line id="e1052_line" x1="463.0457090315098" y1="174.9097572133219" x2="463.0457090315098" y2="320.5303626820719" stroke="black" style="stroke-width: 5px; fill: none;" transform="matrix(1 0 0 1.27847 0 -142.93)"/><line id="e1131_line" x1="1675.2120855663575" y1="518.9227936473428" x2="1702.1720465038575" y2="475.7728913035928" stroke="black" style="stroke-width: 5px; fill: none;"/><line id="e1132_line" x1="1703.54033263667" y1="480.7368271336554" x2="1703.54033263667" y2="626.3568222508429" stroke="black" style="stroke-width: 5px; fill: none;" transform="matrix(1 0 0 1.27847 0 -142.93)"/><line id="e1141_line" x1="1427.1114074497416" y1="162.92264884670175" x2="1454.0713683872416" y2="119.772807538108" stroke="black" style="stroke-width: 5px; fill: none;"/><line id="e1142_line" x1="1455.439654520054" y1="202.27889096721955" x2="1455.439654520054" y2="347.8989166019852" stroke="black" style="stroke-width: 5px; fill: none;" transform="matrix(1 0 0 1.27847 0 -142.93)"/><line id="e1151_line" x1="2483.811519711813" y1="507.92270400998314" x2="2510.771236508688" y2="464.77283218381126" stroke="black" style="stroke-width: 5px; fill: none;"/><line id="e1152_line" x1="2512.139400571188" y1="472.1327472197537" x2="2512.139400571188" y2="617.7527423369412" stroke="black" style="stroke-width: 5px; fill: none;" transform="matrix(1 0 0 1.27847 0 -142.93)"/><line id="e1161_line" x1="2051.8098627526597" y1="140.9227210677691" x2="2078.7695795495347" y2="97.77284924159721" stroke="black" style="stroke-width: 5px; fill: none;"/><line id="e1162_line" x1="2080.1377436120347" y1="185.0707978463994" x2="2080.1377436120347" y2="330.690823481165" stroke="black" style="stroke-width: 5px; fill: none;" transform="matrix(1 0 0 1.27847 0 -142.93)"/><line id="e1171_line" x1="3259.8115927234794" y1="550.922744910561" x2="3286.7713095203544" y2="507.77284256681105" stroke="black" style="stroke-width: 5px; fill: none;"/><line id="e1172_line" x1="3288.1394735828544" y1="505.76671319054776" x2="3288.1394735828544" y2="651.3867083077353" stroke="black" style="stroke-width: 5px; fill: none;" transform="matrix(1 0 0 1.27847 0 -142.93)"/><line id="e1181_line" x1="3000.8103496608455" y1="162.92272625926853" x2="3027.7700664577205" y2="119.77288495067478" stroke="black" style="stroke-width: 5px; fill: none;"/><line id="e1182_line" x1="3029.1382305202205" y1="202.27889411304608" x2="3029.1382305202205" y2="347.89885871265545" stroke="black" style="stroke-width: 5px; fill: none;" transform="matrix(1 0 0 1.27847 0 -142.93)"/><line id="e1191_line" x1="2288.8116506818405" y1="615.9228342383676" x2="2315.7713674787155" y2="572.7729318946176" stroke="black" style="stroke-width: 5px; fill: none;"/><line id="e1192_line" x1="2317.1395315412155" y1="556.6087479991845" x2="2317.1395315412155" y2="702.228743116372" stroke="black" style="stroke-width: 5px; fill: none;" transform="matrix(1 0 0 1.27847 0 -142.93)"/><ellipse id="e1329_ellipse" cx="17980.722306229487" cy="-90.00551007817498" stroke="black" style="stroke-width: 5px; fill: none;" rx="215.734" ry="107.867" transform="matrix(0.346726 0 0 1.37255 181.708 4.10307)"/><ellipse id="e1341_ellipse" cx="10263.27096189954" cy="109.18247205307263" stroke="black" style="stroke-width: 5px; fill: none;" rx="215.734" ry="107.867" transform="matrix(0.346726 0 0 1.37255 181.708 4.10307)"/><ellipse id="e1353_ellipse" cx="18378.607313671513" cy="261.5307082373038" stroke="black" style="stroke-width: 5px; fill: none;" rx="215.734" ry="107.867" transform="matrix(0.346726 0 0 1.37255 181.708 4.10307)"/><ellipse id="e1401_ellipse" cx="14087.038494721999" cy="199.6021001755209" stroke="black" style="stroke-width: 5px; fill: none;" rx="215.734" ry="107.867" transform="matrix(0.346726 0 0 1.37255 181.708 4.10307)"/><ellipse id="e1413_ellipse" cx="10694.737432828873" cy="383.2786610570864" stroke="black" style="stroke-width: 5px; fill: none;" rx="215.734" ry="107.867" transform="matrix(0.346726 0 0 1.37255 181.708 4.10307)"/><ellipse id="e1425_ellipse" cx="15141.476554464856" cy="33.64143272920725" stroke="black" style="stroke-width: 5px; fill: none;" rx="215.734" ry="107.867" transform="matrix(0.346726 0 0 1.37255 181.708 4.10307)"/><ellipse id="e1437_ellipse" cx="12617.294688062533" cy="28.618472187474595" stroke="black" style="stroke-width: 5px; fill: none;" rx="215.734" ry="107.867" transform="matrix(0.346726 0 0 1.37255 181.708 4.10307)"/><ellipse id="e1509_ellipse" cx="15389.509757589856" cy="284.26989311509084" stroke="black" style="stroke-width: 5px; fill: none;" rx="215.734" ry="107.867" transform="matrix(0.346726 0 0 1.37255 181.708 4.10307)"/><ellipse id="e1521_ellipse" cx="11622.272394107784" cy="154.66101369138084" stroke="black" style="stroke-width: 5px; fill: none;" rx="215.734" ry="107.867" transform="matrix(0.346726 0 0 1.37255 181.708 4.10307)"/><ellipse id="e1533_ellipse" cx="12959.928559979164" cy="244.3519887594807" stroke="black" style="stroke-width: 5px; fill: none;" rx="215.734" ry="107.867" transform="matrix(0.346726 0 0 1.37255 181.708 4.10307)"/><line id="e1671_line" x1="3694.292665450821" y1="470.5968064243716" x2="3721.252870528946" y2="427.44635476421536" stroke="black" style="stroke-width: 5px; fill: none;"/><line id="e1672_line" x1="3722.621034591446" y1="442.9364560353133" x2="3722.621034591446" y2="588.5555356251571" stroke="black" style="stroke-width: 5px; fill: none;" transform="matrix(1 0 0 1.27847 0 -142.93)"/><line id="e1681_line" x1="5291.296741555212" y1="556.5967719200416" x2="5318.257190773962" y2="513.4463202598854" stroke="black" style="stroke-width: 5px; fill: none;"/><line id="e1682_line" x1="5319.625354836462" y1="510.2043820443146" x2="5319.625354836462" y2="655.8233395638458" stroke="black" style="stroke-width: 5px; fill: none;" transform="matrix(1 0 0 1.27847 0 -142.93)"/><line id="e1691_line" x1="4817.294515004025" y1="38.59680443964862" x2="4844.254964222775" y2="-4.553673923388487" stroke="black" style="stroke-width: 5px; fill: none;"/><line id="e1692_line" x1="4845.623128285275" y1="105.03252578073295" x2="4845.623128285275" y2="250.65156722360405" stroke="black" style="stroke-width: 5px; fill: none;" transform="matrix(1 0 0 1.27847 0 -142.93)"/><line id="e1701_line" x1="4903.29489585774" y1="470.59682197311304" x2="4930.25534507649" y2="427.44633979537866" stroke="black" style="stroke-width: 5px; fill: none;"/><line id="e1702_line" x1="4931.62350913899" y1="442.93647739731273" x2="4931.62350913899" y2="588.5554654344221" stroke="black" style="stroke-width: 5px; fill: none;" transform="matrix(1 0 0 1.27847 0 -142.93)"/><line id="e1711_line" x1="4299.293589726614" y1="513.5967987769254" x2="4326.254038945364" y2="470.4463471167692" stroke="black" style="stroke-width: 5px; fill: none;"/><line id="e1712_line" x1="4327.622203007864" y1="476.57042310599155" x2="4327.622203007864" y2="622.1894111431009" stroke="black" style="stroke-width: 5px; fill: none;" transform="matrix(1 0 0 1.27847 0 -142.93)"/><line id="e1995_line" x1="6105.835696627677" y1="321.9179719292024" x2="6132.796145846427" y2="278.76816113818677" stroke="black" style="stroke-width: 5px; fill: none;"/><line id="e1996_line" x1="6134.164309908927" y1="326.6431930453805" x2="6134.164309908927" y2="472.263188162568" stroke="black" style="stroke-width: 5px; fill: none;" transform="matrix(1 0 0 1.27847 0 -142.93)"/><line id="e2005_line" x1="5890.835210775105" y1="623.9179266981264" x2="5917.795659993855" y2="580.7681464246889" stroke="black" style="stroke-width: 5px; fill: none;"/><line id="e2006_line" x1="5919.163824056355" y1="562.8630572239424" x2="5919.163824056355" y2="708.4829302708174" stroke="black" style="stroke-width: 5px; fill: none;" transform="matrix(1 0 0 1.27847 0 -142.93)"/><line id="e2015_line" x1="6839.838853313624" y1="105.91791451938298" x2="6866.799302532374" y2="62.768107543064616" stroke="black" style="stroke-width: 5px; fill: none;"/><line id="e2016_line" x1="6868.167466594874" y1="157.69117498172352" x2="6868.167466594874" y2="303.31110906375477" stroke="black" style="stroke-width: 5px; fill: none;" transform="matrix(1 0 0 1.27847 0 -142.93)"/><line id="e2025_line" x1="5889.835264488873" y1="-23.082074036525228" x2="5916.795713707623" y2="-66.23189627163265" stroke="black" style="stroke-width: 5px; fill: none;"/><line id="e2026_line" x1="5918.163877770123" y1="56.7893309570653" x2="5918.163877770123" y2="202.40922307742665" stroke="black" style="stroke-width: 5px; fill: none;" transform="matrix(1 0 0 1.27847 0 -142.93)"/><ellipse id="e2047_ellipse" cx="19309.029438508405" cy="504.2983053569437" stroke="black" style="stroke-width: 5px; fill: none;" rx="215.734" ry="107.867" transform="matrix(0.346726 0 0 1.37255 181.708 4.10307)"/></svg>
  <g inkscape:groupmode="layer" id="layer31" inkscape:label="binarybg" style="display:none" sodipodi:insensitive="true">
     <rect style="fill: rgb(0, 128, 0); fill-opacity: 0.3;" id="rect8515" width="663.593" height="667.409" x="38.5031" y="76.0242" transform="matrix(10.9295 0 0 1.91451 -514.165 -442.536)" rx="0" ry="0"/>
     <ellipse id="e121_ellipse" cx="1058.30536583707" cy="401.185773667419" stroke="black" style="stroke-width: 5px; fill: none;" rx="215.734" ry="107.867" transform="matrix(0.346726 0 0 1.37255 181.708 4.10307)"/><ellipse id="e174_ellipse" cx="295.16689148302817" cy="241.66689148302814" stroke="black" style="stroke-width: 5px; fill: none;" rx="215.734" ry="107.867" transform="matrix(0.346726 0 0 1.37255 181.708 4.10307)"/><ellipse id="e186_ellipse" cx="2020.7377510221245" cy="349.53378689998" stroke="black" style="stroke-width: 5px; fill: none;" rx="215.734" ry="107.867" transform="matrix(0.346726 0 0 1.37255 181.708 4.10307)"/><ellipse id="e198_ellipse" cx="6048.413813090887" cy="206.04362810730015" stroke="black" style="stroke-width: 5px; fill: none;" rx="215.734" ry="107.867" transform="matrix(0.346726 0 0 1.37255 181.708 4.10307)"/><ellipse id="e210_ellipse" cx="3014.3185959056486" cy="172.34937672060823" stroke="black" style="stroke-width: 5px; fill: none;" rx="215.734" ry="107.867" transform="matrix(0.346726 0 0 1.37255 181.708 4.10307)"/><ellipse id="e222_ellipse" cx="1442.1848990514573" cy="122.9906220638102" stroke="black" style="stroke-width: 5px; fill: none;" rx="215.734" ry="107.867" transform="matrix(0.346726 0 0 1.37255 181.708 4.10307)"/><ellipse id="e234_ellipse" cx="4598.859763230605" cy="175.85038147843267" stroke="black" style="stroke-width: 5px; fill: none;" rx="215.734" ry="107.867" transform="matrix(0.346726 0 0 1.37255 181.708 4.10307)"/><ellipse id="e318_ellipse" cx="5317.5765777298975" cy="412.9197179076976" stroke="black" style="stroke-width: 5px; fill: none;" rx="215.734" ry="107.867" transform="matrix(0.346726 0 0 1.37255 181.708 4.10307)"/><ellipse id="e330_ellipse" cx="3667.2845521351833" cy="408.62517779070987" stroke="black" style="stroke-width: 5px; fill: none;" rx="215.734" ry="107.867" transform="matrix(0.346726 0 0 1.37255 181.708 4.10307)"/><ellipse id="e380_ellipse" cx="7186.487497485394" cy="176.8627845868514" stroke="black" style="stroke-width: 5px; fill: none;" rx="215.734" ry="107.867" transform="matrix(0.346726 0 0 1.37255 181.708 4.10307)"/><ellipse id="e392_ellipse" cx="8025.191102746792" cy="345.23942370365444" stroke="black" style="stroke-width: 5px; fill: none;" rx="215.734" ry="107.867" transform="matrix(0.346726 0 0 1.37255 181.708 4.10307)"/><ellipse id="e404_ellipse" cx="8987.915094912172" cy="168.2735035863833" stroke="black" style="stroke-width: 5px; fill: none;" rx="215.734" ry="107.867" transform="matrix(0.346726 0 0 1.37255 181.708 4.10307)"/><line id="e472_line" x1="1045.5242117157125" y1="212.8749980770354" x2="1045.5242117157125" y2="358.4949626766448" stroke="black" style="stroke-width: 5px; fill: none;" transform="matrix(1 0 0 1.27847 0 -142.93)"/><line id="e486_line" x1="1017.22073341887" y1="179.1597997077637" x2="1044.1805722860574" y2="136.00979055249027" stroke="black" style="stroke-width: 5px; fill: none;"/><line id="e723_line" x1="272.91677808076696" y1="607.9392831923712" x2="299.8768000534232" y2="564.7894418837775" stroke="black" style="stroke-width: 5px; fill: none;"/><line id="e724_line" x1="301.2450256751372" y1="550.3647461285466" x2="301.2450256751372" y2="695.9847412457341" stroke="black" style="stroke-width: 5px; fill: none;" transform="matrix(1 0 0 1.27847 0 -142.93)"/><line id="e733_line" x1="1049.5703474025738" y1="562.0798555328707" x2="1076.5300641994488" y2="518.9298311188082" stroke="black" style="stroke-width: 5px; fill: none;"/><line id="e734_line" x1="1077.8851667385113" y1="516.6136564581969" x2="1077.8851667385113" y2="662.2336515753844" stroke="black" style="stroke-width: 5px; fill: none;" transform="matrix(1 0 0 1.27847 0 -142.93)"/><line id="e1051_line" x1="434.7174619611973" y1="127.93124857496235" x2="461.6774839338535" y2="84.78126993726704" stroke="black" style="stroke-width: 5px; fill: none;"/><line id="e1052_line" x1="463.0457090315098" y1="174.9097572133219" x2="463.0457090315098" y2="320.5303626820719" stroke="black" style="stroke-width: 5px; fill: none;" transform="matrix(1 0 0 1.27847 0 -142.93)"/><line id="e1131_line" x1="1675.2120855663575" y1="518.9227936473428" x2="1702.1720465038575" y2="475.7728913035928" stroke="black" style="stroke-width: 5px; fill: none;"/><line id="e1132_line" x1="1703.54033263667" y1="480.7368271336554" x2="1703.54033263667" y2="626.3568222508429" stroke="black" style="stroke-width: 5px; fill: none;" transform="matrix(1 0 0 1.27847 0 -142.93)"/><line id="e1141_line" x1="1427.1114074497416" y1="162.92264884670175" x2="1454.0713683872416" y2="119.772807538108" stroke="black" style="stroke-width: 5px; fill: none;"/><line id="e1142_line" x1="1455.439654520054" y1="202.27889096721955" x2="1455.439654520054" y2="347.8989166019852" stroke="black" style="stroke-width: 5px; fill: none;" transform="matrix(1 0 0 1.27847 0 -142.93)"/><line id="e1151_line" x1="2483.811519711813" y1="507.92270400998314" x2="2510.771236508688" y2="464.77283218381126" stroke="black" style="stroke-width: 5px; fill: none;"/><line id="e1152_line" x1="2512.139400571188" y1="472.1327472197537" x2="2512.139400571188" y2="617.7527423369412" stroke="black" style="stroke-width: 5px; fill: none;" transform="matrix(1 0 0 1.27847 0 -142.93)"/><line id="e1161_line" x1="2051.8098627526597" y1="140.9227210677691" x2="2078.7695795495347" y2="97.77284924159721" stroke="black" style="stroke-width: 5px; fill: none;"/><line id="e1162_line" x1="2080.1377436120347" y1="185.0707978463994" x2="2080.1377436120347" y2="330.690823481165" stroke="black" style="stroke-width: 5px; fill: none;" transform="matrix(1 0 0 1.27847 0 -142.93)"/><line id="e1171_line" x1="3259.8115927234794" y1="550.922744910561" x2="3286.7713095203544" y2="507.77284256681105" stroke="black" style="stroke-width: 5px; fill: none;"/><line id="e1172_line" x1="3288.1394735828544" y1="505.76671319054776" x2="3288.1394735828544" y2="651.3867083077353" stroke="black" style="stroke-width: 5px; fill: none;" transform="matrix(1 0 0 1.27847 0 -142.93)"/><line id="e1181_line" x1="3000.8103496608455" y1="162.92272625926853" x2="3027.7700664577205" y2="119.77288495067478" stroke="black" style="stroke-width: 5px; fill: none;"/><line id="e1182_line" x1="3029.1382305202205" y1="202.27889411304608" x2="3029.1382305202205" y2="347.89885871265545" stroke="black" style="stroke-width: 5px; fill: none;" transform="matrix(1 0 0 1.27847 0 -142.93)"/><line id="e1191_line" x1="2288.8116506818405" y1="615.9228342383676" x2="2315.7713674787155" y2="572.7729318946176" stroke="black" style="stroke-width: 5px; fill: none;"/><line id="e1192_line" x1="2317.1395315412155" y1="556.6087479991845" x2="2317.1395315412155" y2="702.228743116372" stroke="black" style="stroke-width: 5px; fill: none;" transform="matrix(1 0 0 1.27847 0 -142.93)"/><ellipse id="e1329_ellipse" cx="17980.722306229487" cy="-90.00551007817498" stroke="black" style="stroke-width: 5px; fill: none;" rx="215.734" ry="107.867" transform="matrix(0.346726 0 0 1.37255 181.708 4.10307)"/><ellipse id="e1341_ellipse" cx="10263.27096189954" cy="109.18247205307263" stroke="black" style="stroke-width: 5px; fill: none;" rx="215.734" ry="107.867" transform="matrix(0.346726 0 0 1.37255 181.708 4.10307)"/><ellipse id="e1353_ellipse" cx="18378.607313671513" cy="261.5307082373038" stroke="black" style="stroke-width: 5px; fill: none;" rx="215.734" ry="107.867" transform="matrix(0.346726 0 0 1.37255 181.708 4.10307)"/><ellipse id="e1401_ellipse" cx="14087.038494721999" cy="199.6021001755209" stroke="black" style="stroke-width: 5px; fill: none;" rx="215.734" ry="107.867" transform="matrix(0.346726 0 0 1.37255 181.708 4.10307)"/><ellipse id="e1413_ellipse" cx="10694.737432828873" cy="383.2786610570864" stroke="black" style="stroke-width: 5px; fill: none;" rx="215.734" ry="107.867" transform="matrix(0.346726 0 0 1.37255 181.708 4.10307)"/><ellipse id="e1425_ellipse" cx="15141.476554464856" cy="33.64143272920725" stroke="black" style="stroke-width: 5px; fill: none;" rx="215.734" ry="107.867" transform="matrix(0.346726 0 0 1.37255 181.708 4.10307)"/><ellipse id="e1437_ellipse" cx="12617.294688062533" cy="28.618472187474595" stroke="black" style="stroke-width: 5px; fill: none;" rx="215.734" ry="107.867" transform="matrix(0.346726 0 0 1.37255 181.708 4.10307)"/><ellipse id="e1509_ellipse" cx="15389.509757589856" cy="284.26989311509084" stroke="black" style="stroke-width: 5px; fill: none;" rx="215.734" ry="107.867" transform="matrix(0.346726 0 0 1.37255 181.708 4.10307)"/><ellipse id="e1521_ellipse" cx="11622.272394107784" cy="154.66101369138084" stroke="black" style="stroke-width: 5px; fill: none;" rx="215.734" ry="107.867" transform="matrix(0.346726 0 0 1.37255 181.708 4.10307)"/><ellipse id="e1533_ellipse" cx="12959.928559979164" cy="244.3519887594807" stroke="black" style="stroke-width: 5px; fill: none;" rx="215.734" ry="107.867" transform="matrix(0.346726 0 0 1.37255 181.708 4.10307)"/><line id="e1671_line" x1="3694.292665450821" y1="470.5968064243716" x2="3721.252870528946" y2="427.44635476421536" stroke="black" style="stroke-width: 5px; fill: none;"/><line id="e1672_line" x1="3722.621034591446" y1="442.9364560353133" x2="3722.621034591446" y2="588.5555356251571" stroke="black" style="stroke-width: 5px; fill: none;" transform="matrix(1 0 0 1.27847 0 -142.93)"/><line id="e1681_line" x1="5291.296741555212" y1="556.5967719200416" x2="5318.257190773962" y2="513.4463202598854" stroke="black" style="stroke-width: 5px; fill: none;"/><line id="e1682_line" x1="5319.625354836462" y1="510.2043820443146" x2="5319.625354836462" y2="655.8233395638458" stroke="black" style="stroke-width: 5px; fill: none;" transform="matrix(1 0 0 1.27847 0 -142.93)"/><line id="e1691_line" x1="4817.294515004025" y1="38.59680443964862" x2="4844.254964222775" y2="-4.553673923388487" stroke="black" style="stroke-width: 5px; fill: none;"/><line id="e1692_line" x1="4845.623128285275" y1="105.03252578073295" x2="4845.623128285275" y2="250.65156722360405" stroke="black" style="stroke-width: 5px; fill: none;" transform="matrix(1 0 0 1.27847 0 -142.93)"/><line id="e1701_line" x1="4903.29489585774" y1="470.59682197311304" x2="4930.25534507649" y2="427.44633979537866" stroke="black" style="stroke-width: 5px; fill: none;"/><line id="e1702_line" x1="4931.62350913899" y1="442.93647739731273" x2="4931.62350913899" y2="588.5554654344221" stroke="black" style="stroke-width: 5px; fill: none;" transform="matrix(1 0 0 1.27847 0 -142.93)"/><line id="e1711_line" x1="4299.293589726614" y1="513.5967987769254" x2="4326.254038945364" y2="470.4463471167692" stroke="black" style="stroke-width: 5px; fill: none;"/><line id="e1712_line" x1="4327.622203007864" y1="476.57042310599155" x2="4327.622203007864" y2="622.1894111431009" stroke="black" style="stroke-width: 5px; fill: none;" transform="matrix(1 0 0 1.27847 0 -142.93)"/><line id="e1995_line" x1="6105.835696627677" y1="321.9179719292024" x2="6132.796145846427" y2="278.76816113818677" stroke="black" style="stroke-width: 5px; fill: none;"/><line id="e1996_line" x1="6134.164309908927" y1="326.6431930453805" x2="6134.164309908927" y2="472.263188162568" stroke="black" style="stroke-width: 5px; fill: none;" transform="matrix(1 0 0 1.27847 0 -142.93)"/><line id="e2005_line" x1="5890.835210775105" y1="623.9179266981264" x2="5917.795659993855" y2="580.7681464246889" stroke="black" style="stroke-width: 5px; fill: none;"/><line id="e2006_line" x1="5919.163824056355" y1="562.8630572239424" x2="5919.163824056355" y2="708.4829302708174" stroke="black" style="stroke-width: 5px; fill: none;" transform="matrix(1 0 0 1.27847 0 -142.93)"/><line id="e2015_line" x1="6839.838853313624" y1="105.91791451938298" x2="6866.799302532374" y2="62.768107543064616" stroke="black" style="stroke-width: 5px; fill: none;"/><line id="e2016_line" x1="6868.167466594874" y1="157.69117498172352" x2="6868.167466594874" y2="303.31110906375477" stroke="black" style="stroke-width: 5px; fill: none;" transform="matrix(1 0 0 1.27847 0 -142.93)"/><line id="e2025_line" x1="5889.835264488873" y1="-23.082074036525228" x2="5916.795713707623" y2="-66.23189627163265" stroke="black" style="stroke-width: 5px; fill: none;"/><line id="e2026_line" x1="5918.163877770123" y1="56.7893309570653" x2="5918.163877770123" y2="202.40922307742665" stroke="black" style="stroke-width: 5px; fill: none;" transform="matrix(1 0 0 1.27847 0 -142.93)"/><ellipse id="e2047_ellipse" cx="19309.029438508405" cy="504.2983053569437" stroke="black" style="stroke-width: 5px; fill: none;" rx="215.734" ry="107.867" transform="matrix(0.346726 0 0 1.37255 181.708 4.10307)"/>
   </g></svg>
