<?xml version="1.0" encoding="UTF-8" standalone="no"?>
<!-- Generator: Adobe Illustrator 16.0.0, SVG Export Plug-In . SVG Version: 6.00 Build 0)  -->

<svg
   xmlns:dc="http://purl.org/dc/elements/1.1/"
   xmlns:cc="http://creativecommons.org/ns#"
   xmlns:rdf="http://www.w3.org/1999/02/22-rdf-syntax-ns#"
   xmlns:svg="http://www.w3.org/2000/svg"
   xmlns="http://www.w3.org/2000/svg"
   xmlns:sodipodi="http://sodipodi.sourceforge.net/DTD/sodipodi-0.dtd"
   xmlns:inkscape="http://www.inkscape.org/namespaces/inkscape"
   version="1.1"
   id="Layer_2"
   x="0px"
   y="0px"
   width="864px"
   height="864px"
   viewBox="0 0 864 864"
   enable-background="new 0 0 864 864"
   xml:space="preserve"
   inkscape:version="0.91 r13725"
   sodipodi:docname="Pokeball.svg"><metadata
     id="metadata25182"><rdf:RDF><cc:Work
         rdf:about=""><dc:format>image/svg+xml</dc:format><dc:type
           rdf:resource="http://purl.org/dc/dcmitype/StillImage" /></cc:Work></rdf:RDF></metadata><defs
     id="defs25180" /><sodipodi:namedview
     pagecolor="#ffffff"
     bordercolor="#666666"
     borderopacity="1"
     objecttolerance="10"
     gridtolerance="10"
     guidetolerance="10"
     inkscape:pageopacity="0"
     inkscape:pageshadow="2"
     inkscape:window-width="1301"
     inkscape:window-height="744"
     id="namedview25178"
     showgrid="false"
     inkscape:zoom="0.27314815"
     inkscape:cx="432"
     inkscape:cy="432"
     inkscape:window-x="65"
     inkscape:window-y="24"
     inkscape:window-maximized="1"
     inkscape:current-layer="Layer_2" /><ellipse
     cx="92.059364"
     cy="303.02884"
     id="circle25168"
     rx="51.460617"
     ry="56.952141"
     style="clip-rule:evenodd;fill-rule:evenodd" /><g
     id="g25170"
     transform="matrix(0.14787406,0,0,0.16365418,25.933335,229.77085)"><path
       d="m 573.713,473.543 c -11.995,58.904 -64.089,103.231 -126.535,103.231 -62.447,0 -114.54,-44.327 -126.535,-103.231 l -179.474,0 c 13.155,157.485 145.125,281.202 306.008,281.202 160.884,0 292.855,-123.717 306.011,-281.202 l -179.475,0 z"
       id="path25172"
       inkscape:connector-curvature="0"
       style="clip-rule:evenodd;fill:#ffffff;fill-rule:evenodd" /><path
       d="m 447.178,357.277 c -49.904,0 -90.36,40.456 -90.36,90.362 0,49.904 40.456,90.361 90.36,90.361 49.906,0 90.361,-40.457 90.361,-90.361 0,-49.906 -40.455,-90.362 -90.361,-90.362 z m 10e-4,134.941 c -24.621,0 -44.579,-19.958 -44.579,-44.578 0,-24.621 19.958,-44.579 44.579,-44.579 24.62,0 44.578,19.958 44.578,44.579 0,24.62 -19.958,44.578 -44.578,44.578 z"
       id="path25174"
       inkscape:connector-curvature="0"
       style="clip-rule:evenodd;fill:#ffffff;fill-rule:evenodd" /></g><path
     d="m 92.059359,281.89536 c 9.234151,0 16.937501,7.2543 18.711251,16.89435 l 26.5397,0 c -1.94528,-25.77308 -21.46052,-46.02004 -45.251092,-46.02004 -23.790279,0 -43.305217,20.24696 -45.250647,46.02004 l 26.539544,0 c 1.77375,-9.64005 9.476807,-16.89435 18.711244,-16.89435 z"
     id="path25176"
     inkscape:connector-curvature="0"
     style="clip-rule:evenodd;fill:#ed1c24;fill-rule:evenodd" /></svg>