<?xml version="1.0" encoding="UTF-8" standalone="no"?>
<!-- Created with Inkscape (http://www.inkscape.org/) -->

<svg
   xmlns:dc="http://purl.org/dc/elements/1.1/"
   xmlns:cc="http://creativecommons.org/ns#"
   xmlns:rdf="http://www.w3.org/1999/02/22-rdf-syntax-ns#"
   xmlns:svg="http://www.w3.org/2000/svg"
   xmlns="http://www.w3.org/2000/svg"
   xmlns:xlink="http://www.w3.org/1999/xlink"
   xmlns:sodipodi="http://sodipodi.sourceforge.net/DTD/sodipodi-0.dtd"
   xmlns:inkscape="http://www.inkscape.org/namespaces/inkscape"
   width="210mm"
   height="297mm"
   viewBox="0 0 744.09448819 1052.3622047"
   id="svg37616"
   version="1.1"
   inkscape:version="0.91 r13725"
   sodipodi:docname="dog.svg">
  <defs
     id="defs37618">
    <linearGradient
       gradientUnits="userSpaceOnUse"
       y2="247.69899"
       x2="629.53369"
       y1="186.5591"
       x1="487.04663"
       id="linearGradient3548"
       xlink:href="#linearGradient3550"
       inkscape:collect="always"
       gradientTransform="matrix(0.52236107,0,0,0.54392084,-206.40955,100.99225)" />
    <linearGradient
       id="linearGradient3550"
       inkscape:collect="always">
      <stop
         id="stop3552"
         offset="0"
         style="stop-color:#b3b3b3;stop-opacity:1;" />
      <stop
         id="stop3554"
         offset="1"
         style="stop-color:#00ffff;stop-opacity:1" />
    </linearGradient>
    <linearGradient
       gradientUnits="userSpaceOnUse"
       y2="190.70418"
       x2="607.25391"
       y1="211.94769"
       x1="509.84457"
       id="linearGradient3558"
       xlink:href="#linearGradient3550"
       inkscape:collect="always"
       gradientTransform="matrix(0.52236107,0,0,0.54392084,-206.40955,100.99225)" />
  </defs>
  <sodipodi:namedview
     id="base"
     pagecolor="#ffffff"
     bordercolor="#666666"
     borderopacity="1.0"
     inkscape:pageopacity="0.0"
     inkscape:pageshadow="2"
     inkscape:zoom="0.35"
     inkscape:cx="375"
     inkscape:cy="520"
     inkscape:document-units="px"
     inkscape:current-layer="layer1"
     showgrid="false"
     inkscape:window-width="1301"
     inkscape:window-height="744"
     inkscape:window-x="65"
     inkscape:window-y="24"
     inkscape:window-maximized="1" />
  <metadata
     id="metadata37621">
    <rdf:RDF>
      <cc:Work
         rdf:about="">
        <dc:format>image/svg+xml</dc:format>
        <dc:type
           rdf:resource="http://purl.org/dc/dcmitype/StillImage" />
        <dc:title></dc:title>
      </cc:Work>
    </rdf:RDF>
  </metadata>
  <g
     inkscape:label="Layer 1"
     inkscape:groupmode="layer"
     id="layer1">
  <g
     inkscape:groupmode="layer"
     id="layer23"
     inkscape:label="dog"
     style="display:none"
     onclick="characterChange('bird');"
     sodipodi:insensitive="true">
     
    <path
       style="fill:none;fill-rule:evenodd;stroke:#000000;stroke-width:0.53303194px;stroke-linecap:butt;stroke-linejoin:miter;stroke-opacity:1"
       d="m 66.628835,219.3676 4.435139,6.63866 2.217574,10.96822 -1.940374,8.08184 1.940374,-12.98868 z"
       id="path3354"
       inkscape:connector-curvature="0" />
    <path
       style="fill:none;fill-rule:evenodd;stroke:#000000;stroke-width:0.53303194px;stroke-linecap:butt;stroke-linejoin:miter;stroke-opacity:1"
       d="m 91.576506,233.51083 4.989531,4.32957 6.375523,1.73182 6.65271,-0.28864 8.31588,-0.86591 -15.52299,0.57727 z"
       id="path3358"
       inkscape:connector-curvature="0" />
    <path
       style="fill:none;fill-rule:evenodd;stroke:#000000;stroke-width:0.53303194px;stroke-linecap:butt;stroke-linejoin:miter;stroke-opacity:1"
       d="m 97.120425,210.41985 0,-2.59774 1.66319,-2.88637 1.940375,2.3091 -0.5544,3.46365 -1.385975,1.15455 z"
       id="path3360"
       inkscape:connector-curvature="0" />
    <path
       style="fill:none;fill-rule:evenodd;stroke:#000000;stroke-width:0.53303194px;stroke-linecap:butt;stroke-linejoin:miter;stroke-opacity:1"
       d="m 134.26474,218.50169 6.65271,0.57728 1.10878,4.32956 -0.27719,3.75227 -2.21757,1.4432 -3.88074,0.28864 -1.94039,-2.02048 0.8316,-0.57726 z"
       id="path3362"
       inkscape:connector-curvature="0" />
    <path
       style="fill:none;fill-rule:evenodd;stroke:#000000;stroke-width:0.53303194px;stroke-linecap:butt;stroke-linejoin:miter;stroke-opacity:1"
       d="m 84.369402,255.44726 16.077388,-0.28864 z"
       id="path3364"
       inkscape:connector-curvature="0" />
    <path
       style="fill:none;fill-rule:evenodd;stroke:#000000;stroke-width:0.53303194px;stroke-linecap:butt;stroke-linejoin:miter;stroke-opacity:1"
       d="m 98.506415,277.67233 1.940375,12.70004 -2.771975,4.61819 -2.494761,0.86592 -1.663173,-4.6182 0.554391,4.6182 -4.989531,1.15455 -4.435139,-1.15455 -0.554391,-3.46365 2.217565,-2.59773 -2.494766,4.32955 -2.217574,-4.04092 0.554391,-4.90683 2.494775,-2.59774 -2.217575,-6.06138 2.771957,5.48411 -3.603548,4.61819 0.2772,6.63866 3.880748,3.17501 4.989531,0 3.049166,0.28864 0,-4.90683 2.494765,3.75228 3.880744,-4.32956 z"
       id="path3366"
       inkscape:connector-curvature="0" />
    <path
       style="fill:none;fill-rule:evenodd;stroke:#000000;stroke-width:0.53303194px;stroke-linecap:butt;stroke-linejoin:miter;stroke-opacity:1"
       d="m 117.07857,309.9997 3.88075,5.19547 z"
       id="path3368"
       inkscape:connector-curvature="0" />
    <path
       style="fill:none;fill-rule:evenodd;stroke:#000000;stroke-width:0.53303194px;stroke-linecap:butt;stroke-linejoin:miter;stroke-opacity:1"
       d="m 121.79091,301.62922 4.15794,6.06138 z"
       id="path3370"
       inkscape:connector-curvature="0" />
    <path
       style="fill:none;fill-rule:evenodd;stroke:#000000;stroke-width:0.53303194px;stroke-linecap:butt;stroke-linejoin:miter;stroke-opacity:1"
       d="m 89.081741,190.21524 1.385974,-2.88637 2.217583,-1.15454 3.049157,0.8659 -2.494765,-0.8659 z"
       id="path3372"
       inkscape:connector-curvature="0" />
    <path
       style="fill:#000000;fill-opacity:1;fill-rule:nonzero;stroke:none;stroke-width:1px;stroke-linecap:butt;stroke-linejoin:miter;stroke-opacity:1"
       id="path3374"
       d="m 96.43567,209.67902 c 0.130939,-0.34733 0.212303,-0.7105 0.294858,-1.07246 0,0 3.665272,-1.84098 3.665272,-1.84098 l 0,0 c -0.0725,0.36662 -0.14731,0.73268 -0.24041,1.09441 0,0 -3.71972,1.81903 -3.71972,1.81903 z"
       inkscape:connector-curvature="0" />
    <path
       style="fill:#000000;fill-opacity:1;fill-rule:nonzero;stroke:none;stroke-width:1px;stroke-linecap:butt;stroke-linejoin:miter;stroke-opacity:1"
       id="path3376"
       d="m 96.969985,208.84374 c 0.0963,-0.65853 0.27668,-1.34543 0.14418,-2.00955 -0.0611,-0.2904 -0.188363,-0.44213 -0.443224,-0.55223 0,0 3.447839,-2.32767 3.447839,-2.32767 l 0,0 c 0.29952,0.22291 0.51674,0.47247 0.60213,0.85892 0.16667,0.71313 0.007,1.43025 -0.0574,2.15023 0,0 -3.693565,1.8803 -3.693565,1.8803 z"
       inkscape:connector-curvature="0" />
    <path
       style="fill:#000000;fill-opacity:1;fill-rule:nonzero;stroke:none;stroke-width:1px;stroke-linecap:butt;stroke-linejoin:miter;stroke-opacity:1"
       id="path3378"
       d="m 97.506095,211.47326 c -0.0298,-0.58894 -0.11813,-1.20622 -0.41964,-1.71529 -0.0269,-0.0173 -0.0539,-0.0348 -0.0808,-0.0521 0,0 3.519795,-2.23976 3.519795,-2.23976 l 0,0 c 0.0394,0.0535 0.0788,0.10697 0.11835,0.16046 0.29335,0.5948 0.4322,1.24436 0.52608,1.90279 0,0 -3.663815,1.94385 -3.663815,1.94385 z"
       inkscape:connector-curvature="0" />
    <path
       style="fill:#000000;fill-opacity:1;fill-rule:nonzero;stroke:none;stroke-width:1px;stroke-linecap:butt;stroke-linejoin:miter;stroke-opacity:1"
       id="path3380"
       d="m 97.228895,211.47326 c -0.0379,-0.73241 -0.14479,-1.45898 -0.2051,-2.19002 -0.0261,-0.32737 -0.038,-0.65558 -0.0497,-0.98374 0,0 3.637365,-1.94376 3.637365,-1.94376 l 0,0 c 0.007,0.32362 0.0133,0.64731 0.0324,0.97048 0.0474,0.73821 0.11978,1.47504 0.24883,2.20319 0,0 -3.663815,1.94385 -3.663815,1.94385 z"
       inkscape:connector-curvature="0" />
    <path
       style="fill:#000000;fill-opacity:1;fill-rule:nonzero;stroke:none;stroke-width:1px;stroke-linecap:butt;stroke-linejoin:miter;stroke-opacity:1"
       id="path3382"
       d="m 101.44369,208.82551 c -0.0193,0.41061 -0.0178,0.82182 -0.0189,1.23279 0,0 -3.619215,1.92019 -3.619215,1.92019 l 0,0 c -9.3e-4,-0.40428 5.2e-4,-0.80884 -0.0189,-1.21275 0,0 3.656995,-1.94023 3.656995,-1.94023 z"
       inkscape:connector-curvature="0" />
    <path
       style="fill:#000000;fill-opacity:1;fill-rule:nonzero;stroke:none;stroke-width:1px;stroke-linecap:butt;stroke-linejoin:miter;stroke-opacity:1"
       id="path3384"
       d="m 49.6114,213.696 c -0.0273,0.73436 -0.01801,1.46964 -0.01464,2.20437 0.0038,0.62371 0.0056,1.24742 0.0066,1.87113 5.26e-4,0.57776 5.26e-4,1.1555 5.26e-4,1.73326 -1e-5,0.57657 -3.8e-5,1.15316 -4.7e-5,1.72973 -1.9e-5,0.57722 -1.9e-5,1.15445 -1.9e-5,1.73166 -0.0084,0.6565 -0.0047,1.31308 -0.0028,1.96961 0.0019,0.59467 0.0019,1.18934 0.0028,1.78401 0.03565,0.43871 0.160738,0.86306 0.214723,1.29871 0.101892,1.65482 0.08454,0.38776 -3.67778,2.30906 -0.01323,0.006 -0.639114,-0.51392 -0.702519,-0.57407 -0.378867,-0.26366 -0.593197,-0.69218 -0.888158,-1.04028 -0.407727,-0.26363 -0.591639,-0.68555 -0.710259,-1.15026 -0.145051,-0.58519 0.04053,-1.1446 0.195959,-1.70304 0.13518,-0.55344 0.417475,-1.02244 0.739917,-1.47426 0.890681,-1.40063 3.491072,-4.11638 4.40338,-2.2102 0.167071,0.5826 0.141316,1.20373 0.148362,1.80609 0.02027,0.67847 -0.123902,1.34506 -0.195527,2.01666 -0.06117,0.62116 -0.07412,1.24574 -0.08163,1.86962 -0.03481,0.53268 0.0075,1.04748 0.108853,1.56805 0.12243,0.48531 0.282708,0.95259 0.500359,1.40008 0.201372,0.47822 0.447864,0.9322 0.603526,1.42992 0.147059,0.4184 0.337979,0.81612 0.496418,1.22919 0.262377,0.39746 0.299981,0.80794 0.290251,1.27513 0.0075,0.53242 -0.149206,1.04207 -0.236565,1.56159 -0.07224,0.5073 -0.116622,1.01677 -0.03415,1.52414 0.04607,0.46352 0.226133,0.69847 0.525691,1.00589 0.359793,0.27059 0.736417,0.51055 1.101408,0.77419 0.446523,0.28914 0.922928,0.51275 1.396378,0.74796 0.07281,0.0277 0.148138,0.049 0.218439,0.083 0.525091,0.25401 -0.08163,0.007 0.408525,0.22577 0.204759,0.0913 0.409359,0.13175 0.612017,0.23163 0.401985,0.16398 0.801831,0.33478 1.190737,0.53221 0.500903,0.26304 0.930979,0.63173 1.376,0.98299 0.389582,0.35161 0.733856,0.75624 1.161962,1.05882 0.333306,0.33541 0.589274,0.66107 1.047328,0.79622 0.489269,0.0984 0.990819,0.092 1.487096,0.0945 0.558313,0.0427 1.094596,-0.12476 1.643293,-0.20522 0.529471,-0.036 1.035441,-0.0709 1.517719,-0.31571 1.247453,-0.62372 3.044006,-1.74696 -2.870198,1.73234 -0.07487,0.044 0.140097,-0.10406 0.21053,-0.1555 0.151665,-0.11076 0.304352,-0.22 0.456477,-0.33009 1.506461,-1.0979 3.107074,-2.07888 4.785334,-2.84336 -1.115059,0.66298 -2.228448,1.32898 -3.345149,1.98894 -0.05995,0.0354 0.114989,-0.0796 0.174839,-0.11532 1.235228,-0.73733 2.462284,-1.48999 3.710206,-2.20376 1.128007,-0.64518 -2.232211,1.33445 -3.350366,1.99795 -0.114558,0.068 0.224856,-0.14348 0.339245,-0.21174 0.383127,-0.23348 0.607861,-0.57534 0.822707,-0.96837 0.287445,-0.40118 0.404912,-0.85995 0.469697,-1.3468 0.04907,-0.52181 0.07834,-1.04447 -0.01398,-1.56156 -0.105767,-0.48181 -0.135274,-0.97346 -0.257666,-1.45099 -0.09204,-0.47019 -0.201757,-0.93068 -0.326364,-1.3925 -0.09818,-0.5604 -0.20535,-1.10866 -0.393344,-1.64451 -0.148803,-0.50714 -0.286808,-1.01588 -0.432712,-1.52427 -0.08041,-0.50657 -0.240581,-0.98758 -0.400465,-1.47153 -0.189288,-0.56162 -0.237729,-1.15522 -0.385247,-1.72749 -0.0912,-0.4674 -0.23346,-0.9193 -0.393137,-1.36581 -0.255227,-0.48519 -0.42819,-1.00682 -0.638551,-1.51296 -0.155183,-0.42272 -0.345485,-0.83088 -0.544221,-1.23322 -0.123058,-0.3714 -0.334001,-0.66672 -0.742225,-0.60775 -0.697734,1.3769 -0.07074,0.0643 3.292506,-1.84122 0.06624,-0.0375 -0.100879,0.11721 -0.144066,0.18156 -0.15189,0.22631 -0.231687,0.47519 -0.310254,0.73548 -0.162417,0.63566 -0.136822,1.29726 -0.190592,1.94695 -0.06305,0.58184 -0.161263,1.15263 -0.316287,1.71495 -0.103131,0.46209 -0.268616,0.90326 -0.396253,1.35819 -0.208034,0.50982 -0.282792,1.05638 -0.33067,1.60342 -0.08425,0.69865 0.02796,1.39264 0.108929,2.0849 0.09397,0.70608 0.06052,1.42446 0.147499,2.13 -0.01689,0.42823 0.203737,-0.0182 0.153767,0.008 -1.171813,0.62174 -2.306847,1.31594 -3.462588,1.96945 -0.0471,0.0267 0.09851,-0.0493 0.136531,-0.0888 0.04485,-0.0465 0.07131,-0.1091 0.106883,-0.16365 0.204647,-0.49334 0.213364,-1.0411 0.231396,-1.56992 -0.0056,-0.59587 0.123228,-1.17958 0.196034,-1.76793 0.06446,-0.56877 0.07515,-1.14183 0.08257,-1.71384 -0.0028,-2.29886 0.870303,-1.50194 3.90319,-3.02792 0.5459,0.72645 0.861071,1.58209 1.134547,2.44885 0.352624,0.93941 0.577058,1.92328 0.725674,2.91798 0.11985,0.62413 0.340118,1.2168 0.479755,1.83613 0.18091,0.83525 0.303537,1.68203 0.386157,2.53344 0.0094,0.12074 0.01492,0.24179 0.02702,0.36223 0.02224,0.22038 0.05873,0.79739 0.194355,0.97721 0.01276,0.017 -0.0056,-0.0426 -0.0075,-0.0639 -3.910424,2.47471 -3.532242,3.07103 -3.722572,0.59977 -0.114192,-0.69303 -0.218279,-1.38625 -0.282642,-2.08656 -0.01801,-0.74526 -0.07309,-1.48293 -0.170974,-2.22113 -0.130761,-0.52836 -0.254195,-1.05891 -0.438726,-1.56989 -0.233085,-0.37827 -0.355758,-0.88928 -0.719951,-0.27134 5.190696,-3.22884 3.448083,-2.52819 2.623847,-1.00059 -0.299089,0.55432 -0.530964,1.14698 -0.776124,1.72809 -0.466966,0.99845 -0.68229,2.06341 -0.786331,3.15953 -0.06033,0.84939 -0.05254,1.7016 -0.04438,2.55259 0.0075,0.59947 0.01145,1.19897 0.0137,1.7985 0.01351,2.24261 0.352925,0.76938 -3.651107,2.70222 0.09195,-0.3914 0.312994,-0.71688 0.425338,-1.10191 0.106602,-0.5535 0.23224,-1.10293 0.3896,-1.64319 0.614701,-1.72351 2.907559,-3.7112 4.564306,-2.72576 0.462088,0.22364 0.775119,0.61321 1.092757,1.0087 0.03715,0.0281 0.06708,0.0726 0.111697,0.0841 0.09778,0.0256 0.09901,-0.25818 0.03856,-0.2244 -6.079652,3.39879 -3.651585,3.32268 -3.336518,1.81166 0.0897,-0.53361 0.02618,-1.05805 -0.05836,-1.58564 -0.0213,-0.0721 -0.120666,-1.32179 -0.342914,-0.99981 1.179328,-0.64896 2.354068,-1.307 3.537966,-1.94686 0.04006,-0.0216 -0.07994,0.0507 -0.1036,0.0907 -0.0349,0.059 -0.04926,0.12927 -0.06577,0.19643 -0.06493,0.26222 -0.07365,0.53893 -0.09054,0.80747 -0.06108,0.55805 0.0028,1.09763 0.09082,1.6457 0.06746,0.22105 0.106376,0.45892 0.216206,0.664 0.01192,0.0223 0.04841,0.0823 0.04973,0.0567 0.0028,-0.0545 0.0019,-0.18173 -0.04457,-0.1571 -1.196442,0.62965 -2.344555,1.35425 -3.516827,2.03138 0.17938,-0.66827 -0.09975,-1.28054 -0.376137,-1.86797 -0.269056,-0.56422 -0.554691,-1.13258 -0.901021,-1.65065 -0.273137,-0.48151 -0.553274,-0.96402 -0.782709,-1.47061 -0.200613,-0.47504 -0.565697,-0.59239 -1.023301,-0.65615 -0.535523,-0.1 -1.041689,0.0308 -1.564997,0.1267 -0.393212,0.14491 -1.035657,0.0272 -1.405357,0.12721 -0.07937,0.0215 -0.143953,0.0821 -0.215934,0.12312 1.111072,-0.64891 2.218222,-1.30515 3.333225,-1.94673 0.02449,-0.0141 -0.16086,0.0553 -0.302486,0.30245 -0.116519,0.20338 -0.151749,0.42453 -0.167849,0.65536 0.0066,0.48589 0.178517,0.92044 0.384974,1.34572 0.210511,0.50565 0.389404,1.02668 0.515286,1.56231 0.11271,0.45442 0.287315,0.81272 0.687367,1.04446 0.134411,0.0489 0.23954,0.11515 0.386898,0.0698 0.05235,-0.0162 0.184485,-0.12173 0.136597,-0.0943 -1.143337,0.65386 -2.281599,1.31731 -3.423417,1.97403 -0.04522,0.026 0.09659,-0.0444 0.133623,-0.0819 0.04166,-0.0423 0.06436,-0.10099 0.09656,-0.15148 0.179474,-0.51498 0.172681,-1.07023 0.09521,-1.6046 -0.121558,-0.53446 -0.127243,-1.08772 -0.220428,-1.62564 -0.110027,-0.52368 -0.403571,-0.97144 -0.584462,-1.47051 -0.275568,-0.58702 -0.361247,-1.22611 -0.482354,-1.85831 -0.184024,-0.62431 -0.38717,-1.24303 -0.636664,-1.84247 -0.348197,-0.58415 -0.552421,-1.23207 -0.773835,-1.87418 -0.241303,-0.66029 -0.52569,-1.29496 -0.730103,-1.97023 -0.225372,-0.83589 -0.40403,-1.68327 -0.614447,-2.52306 -0.139665,-0.62277 -0.381194,-1.20865 -0.508033,-1.83531 -0.09643,-0.56073 -0.103572,-1.13178 -0.110261,-1.69965 -0.06605,-0.49208 -0.167109,-0.9764 -0.218805,-1.47119 -0.02702,-0.66646 -0.12561,-1.32548 -0.203568,-1.98677 -0.0182,-0.61268 -0.165982,-1.20147 -0.278195,-1.79896 -0.09731,-0.58974 -0.09873,-1.18665 -0.185413,-1.7778 -0.06596,-0.5314 -0.236678,-1.04009 -0.447836,-1.52586 -0.195087,-0.40142 -0.342502,-0.8223 -0.511571,-1.2355 -0.195199,-0.42714 -0.258154,-0.8963 -0.39599,-1.34344 -0.05489,-0.17562 -0.08125,-0.40482 -0.231236,-0.53079 -0.02599,-0.0219 -0.0622,-0.0476 -0.09393,-0.0366 -0.03068,0.0107 -0.07928,0.10223 -0.05057,0.0865 1.18052,-0.64149 2.345315,-1.31387 3.517972,-1.9708 -0.317235,0.17466 -0.452424,0.53428 -0.608236,0.85205 -0.176247,0.39489 -0.365901,0.78286 -0.551155,1.17333 -0.233638,0.46802 -0.378079,0.9593 -0.457772,1.4781 -0.06493,0.57695 -0.05235,1.15578 -0.136559,1.73052 -0.06089,0.57909 -0.261016,1.11501 -0.481275,1.64398 -0.198183,0.48171 -0.241023,1.00272 -0.269395,1.51957 -0.05883,1.93823 0.472071,0.63506 -3.678615,2.40968 -0.06905,0.0296 0.0066,-0.15532 0.0084,-0.23301 0.0028,-0.0931 0.0038,-0.18622 0.0056,-0.27933 -0.02336,-0.68225 0.0516,-1.35383 0.225832,-2.0109 0.08904,-0.0837 0.170815,-0.90278 0.231284,-0.942 3.61779,-2.34642 2.76475,-3.33119 3.791072,-1.9437 0.343664,1.03105 0.325538,2.16416 0.372496,3.24336 -4.69e-4,1.82827 -0.220212,3.64771 -0.338664,5.47071 -0.08369,1.43475 -0.05864,2.87233 -0.247496,4.29836 -0.133688,0.79105 -0.269066,1.581 -0.339667,2.38127 -0.04372,0.57916 -0.04504,1.16045 -0.04654,1.74103 -0.01342,0.51972 -0.02083,1.02841 0.132479,1.52705 0.229059,0.52775 0.589349,0.96308 0.970965,1.37626 0.464593,0.40442 1.043801,0.63384 1.589054,0.89642 0.446419,0.27218 0.871128,0.57598 1.305895,0.86581 0.46176,0.14497 0.845853,0.44617 1.279372,0.65376 0.420121,0.13647 0.91272,0.3132 1.297939,0.0231 -1.128166,0.66354 -2.251989,1.33514 -3.38449,1.99059 -0.04935,0.0285 0.09607,-0.0645 0.133107,-0.10878 0.177551,-0.21235 0.182148,-0.49173 0.161442,-0.75324 -0.0991,-0.43294 -0.414135,-0.72855 -0.64176,-1.08663 -0.309606,-0.3514 -0.46433,-0.80031 -0.650897,-1.22696 -0.244269,-0.53234 -0.538545,-1.03178 -0.757078,-1.57672 -0.293037,-0.6364 -0.629975,-1.25158 -1.001542,-1.84174 -0.441888,-0.80426 -0.785759,-1.65541 -1.030403,-2.54495 -0.200866,-0.72115 -0.425187,-1.43546 -0.669362,-2.14194 -0.202714,-0.54077 -0.467295,-1.03652 -0.589293,-1.6075 -0.0926,-0.6317 -0.234521,-1.25266 -0.317667,-1.8861 -0.0547,-0.59349 -0.196362,-1.17199 -0.275774,-1.76213 -0.09935,-0.5681 -0.05404,-1.10477 0.123959,-1.6468 0.118086,-0.31775 0.299136,-0.66072 0.593384,-0.84098 3.649718,-2.23582 2.354857,-1.87106 3.999078,-2.30097 0.427777,-0.16108 0.756505,-0.5141 1.223341,-0.53038 0.506297,0.18906 0.590757,0.74292 0.645803,1.2344 0.04363,0.67732 0.04044,1.35839 -0.0084,2.03507 -0.09462,0.82132 -0.182149,1.64254 -0.222774,2.46885 -0.02768,0.70466 -0.0273,1.41003 -0.02674,2.11514 0.01726,0.625 -0.03565,1.25285 0.02458,1.87563 0.100297,0.53783 0.178198,1.07763 0.220006,1.62379 0.06727,0.62517 0.02064,1.23497 -0.104041,1.84757 -0.124625,0.59911 -0.318857,1.17471 -0.5295,1.7456 -0.180553,0.36091 -0.320068,0.73801 -0.365365,1.14376 0.521787,1.49678 0.164068,0.30338 -3.734338,1.82584 -0.05179,0.0203 -0.03396,-0.10972 -0.04935,-0.16508 -0.06192,-0.22267 -0.101028,-0.44493 -0.13533,-0.67372 -0.155709,-0.5671 -0.20414,-1.15536 -0.317816,-1.7305 -0.102202,-0.4722 -0.371953,-0.85328 -0.31671,-1.35023 0.961434,-1.95277 3.029295,-2.32388 4.805947,-2.32664 0.55593,0.003 1.111851,0.007 1.667772,0.01 0.280174,0.0406 0.459357,-0.0312 0.683444,-0.18339 0.05733,-0.0388 0.234708,-0.14596 0.175365,-0.11066 -3.384677,2.01353 -4.380853,2.82672 -3.201778,1.87827 0.392724,-0.24582 0.600345,-0.67187 0.914015,-1.0006 0.31669,-0.31003 0.618735,-0.62312 0.893909,-0.97358 0.298179,-0.36856 0.526844,-0.78527 0.822884,-1.15497 0.416753,-0.42709 0.574423,-0.954 0.663527,-1.5386 0.07084,-0.61208 0.06802,-1.22975 0.06821,-1.84523 -0.0047,-0.62211 -0.0056,-1.24412 0.0019,-1.8662 -0.044,-0.66066 0.07159,-1.34424 -0.03453,-1.99909 -0.466235,1.32722 0.06174,-0.19886 3.558343,-1.76819 0.107841,-0.0485 -0.153081,0.18724 -0.211486,0.2933 -0.392931,0.71348 -0.6776,1.51534 -1.026256,2.25312 -0.676023,1.46019 -1.51923,2.82542 -2.252289,4.25297 -0.342463,0.57564 -0.612533,1.1709 -0.791444,1.81995 -0.129974,0.57534 -0.300094,1.13964 -0.440275,1.71221 -0.08219,0.5564 -0.205285,1.10446 -0.304418,1.65767 -0.08416,0.57577 -0.207011,1.14557 -0.330332,1.71357 -0.163731,0.47804 -0.260519,0.96871 -0.310574,1.47228 -0.03331,0.47151 0.278965,0.51529 0.651555,0.56482 0.213635,-0.023 0.393184,-0.10616 0.585615,-0.19405 0.07421,-0.0339 0.296828,-0.13401 0.22663,-0.0918 -1.088001,0.65396 -4.334036,2.64388 -3.282307,1.92848 1.218255,-0.82866 2.521852,-1.51261 3.782769,-2.2689 -5.740988,3.50717 -3.349072,2.23968 -2.176396,1.04364 0.337501,-0.27045 0.594041,-0.6283 0.838084,-0.98757 0.315349,-0.50916 0.622911,-1.0227 0.92064,-1.54326 0.23664,-0.43082 0.545665,-0.80555 0.84725,-1.18622 0.27964,-0.37108 0.511233,-0.77839 0.862722,-1.08184 0.316053,-0.26429 0.496118,-0.63922 0.424184,-1.06085 -0.210474,-0.37439 -0.693353,-0.36643 -1.063832,-0.3962 0.202292,-0.29893 -1.354252,0.61115 -0.995604,0.40006 3.310754,-1.94859 4.274393,-2.81449 3.132509,-1.81031 -0.09317,0.13819 -0.153776,0.18072 -0.141006,0.36897 0.03115,0.45972 0.395558,1.08058 0.584536,1.48928 0.361744,0.73783 0.772746,1.45156 1.109824,2.20199 0.224444,0.47998 0.623651,0.81343 1.040667,1.1062 0.445829,0.34492 0.755548,0.83632 1.062105,1.31022 0.352775,0.56691 0.50019,1.18478 0.584922,1.84587 0.126483,0.75707 0.257338,1.51208 0.331655,2.27701 0.0835,0.4693 0.17984,0.97044 0.502169,1.3276 0.259956,0.33723 0.657437,0.49077 0.975254,0.75858 0.172165,0.14585 0.232127,0.37227 0.358582,0.55186 0.0106,0.0151 0.05864,0.0261 0.0426,0.0346 -3.681965,1.93928 -3.592327,3.22738 -3.602197,1.55476 -0.1803,-0.89523 -0.455445,-1.76048 -0.781208,-2.60835 -0.332894,-0.78264 -0.623248,-1.56031 -0.789137,-2.40097 -0.165138,-1.21398 -0.36621,-2.42155 -0.574075,-3.62818 -0.144122,-0.79403 -0.226133,-1.59697 -0.263277,-2.4035 0.0227,-0.58522 -0.08397,-1.1559 -0.168591,-1.73077 -0.02711,-0.49817 -0.116134,-0.95859 -0.326026,-1.4054 -0.210079,-0.41844 -0.390726,-0.848 -0.572415,-1.28175 -0.189972,-0.46814 -0.392218,-0.91738 -0.501146,-1.41571 -0.09823,-0.55526 -0.103252,-1.12173 -0.109867,-1.68445 -0.182101,-1.80513 2.443247,-4.2853 3.986215,-3.01966 0.295083,0.18009 0.482128,0.8506 0.790412,0.94603 -0.233253,-1.55006 0.04175,-0.0398 -3.51799,1.97154 -0.04522,0.0256 0.01257,-0.10666 0.01163,-0.16022 -0.0047,-0.26714 -0.04672,-0.53926 -0.07121,-0.80491 -5.6e-5,-0.54593 -0.137029,-1.06804 -0.236828,-1.59895 -0.04691,-0.42636 -0.17119,-0.83375 -0.429335,-1.17149 -0.216112,-0.37873 -0.50215,-0.47282 -0.881899,-0.28682 -1.222599,0.69632 -2.677617,1.54613 2.990827,-1.77911 0.140931,-0.0827 -0.251972,0.21367 -0.392322,0.29739 -1.243728,0.74183 -2.49514,1.46958 -3.742715,2.20436 -0.402379,0.30823 -0.884761,0.38086 -1.368241,0.4289 -0.640549,-0.0471 -0.837878,-0.59335 -0.946356,-1.16769 -0.09982,-0.60679 -0.04194,-1.22539 -0.103234,-1.83438 -0.106517,-0.35608 -0.314326,-0.67172 -0.629637,-0.8546 -0.379214,-0.15743 -0.746804,-0.34003 -1.117236,-0.521 -0.417484,-0.1599 -0.774312,-0.44099 -1.192144,-0.60509 -0.227972,-0.0728 -0.444131,-0.13558 -0.682469,-0.0856 -0.04944,0.0104 -0.188209,0.0739 -0.14416,0.0483 3.433775,-2.00055 4.798442,-2.13937 3.377725,-1.98042 -0.124334,0.10432 0.20597,0.65836 0.258783,0.80677 0.116932,0.47954 0.315753,0.93276 0.540337,1.3669 0.440931,0.69458 0.87825,1.39237 1.339446,2.07266 0.38839,0.55613 0.871589,1.02834 1.330778,1.51845 0.309344,0.37564 0.73394,0.58805 1.092391,0.89863 0.263493,0.15899 0.566551,0.69473 0.900721,0.43348 1.292009,-0.70876 -0.07421,0.0394 -3.296709,1.92358 -0.04438,0.026 0.09638,-0.039 0.136841,-0.0714 0.157341,-0.12579 0.198727,-0.32888 0.248828,-0.51507 0.09615,-0.53633 0.09007,-1.08525 0.09298,-1.62878 -0.0047,-0.50488 0.04851,-1.0202 -0.132628,-1.49907 -0.176622,-0.37336 -0.269198,-0.78104 -0.476594,-1.13892 -0.627742,-1.52913 -0.537559,-0.22814 3.611955,-2.29903 0.06624,-0.0331 0.09923,0.11319 0.152322,0.16619 0.09966,0.0995 0.207836,0.18933 0.310451,0.28552 0.49957,0.30236 0.84042,0.71747 1.071169,1.26295 0.246548,0.54542 0.366932,1.12916 0.437741,1.72339 0.05564,0.58378 0.05573,1.17112 0.05742,1.75714 0.05461,0.57438 0.159537,1.14113 0.214921,1.71594 0.04888,0.59339 0.05761,1.18936 0.05536,1.78458 -0.03856,0.61755 0.0213,1.21865 0.112851,1.82627 0.09593,0.6169 0.132384,1.24075 0.15402,1.86449 0.0084,0.37297 0.0019,0.19929 0.01745,0.52112 0,0 -3.657506,1.94752 -3.657506,1.94752 l 0,0 c 0.0066,-0.32644 0.0056,-0.15208 2.44e-4,-0.52306 -0.01426,-0.60652 -0.03725,-1.21431 -0.129391,-1.81444 -0.103046,-0.62842 -0.180619,-1.24747 -0.137601,-1.88824 -0.0084,-0.58283 -0.0056,-1.16637 -0.0455,-1.74814 -0.04757,-0.58811 -0.13975,-1.16832 -0.232081,-1.75029 1.88e-4,-0.572 0.0038,-1.14486 -0.03668,-1.7157 -0.05226,-0.55613 -0.145407,-1.10532 -0.38505,-1.61175 -0.196428,-0.50273 -0.552242,-0.79997 -0.982487,-1.09234 -0.108703,-0.0946 -0.213419,-0.19424 -0.325097,-0.28497 -0.03274,-0.0267 -0.137995,-0.0491 -0.10328,-0.0731 1.128738,-0.77642 2.298984,-1.48534 3.448486,-2.22801 -0.05038,-0.0332 -0.03415,-0.0366 -0.03481,0.0368 0.186586,0.38766 0.319505,0.79309 0.488002,1.18843 0.210839,0.5307 0.211158,1.08471 0.194439,1.65236 3.84e-4,0.56631 0.0056,1.13422 -0.04729,1.69851 -0.244766,1.89459 -1.980183,3.00778 -4.100294,3.08027 -0.425254,-0.12533 -0.716527,-0.42986 -1.055848,-0.71055 -0.389788,-0.29774 -0.793359,-0.56581 -1.112723,-0.95318 -0.469903,-0.50812 -0.944282,-1.01633 -1.340413,-1.59094 -0.464302,-0.69454 -0.901658,-1.40795 -1.375793,-2.0956 -0.255603,-0.44175 -0.47619,-0.91552 -0.59527,-1.4183 -0.131897,-0.38614 -0.396168,-0.7077 -0.434542,-1.12699 0.179634,-2.00952 3.061429,-2.77681 4.629644,-2.10685 0.408571,0.19559 0.791623,0.44439 1.210721,0.61702 0.383296,0.19448 0.78559,0.34751 1.153302,0.57525 0.374767,0.30568 0.649847,0.69689 0.791716,1.17467 0.082,0.60109 0.0084,1.21252 0.0896,1.81557 0.06661,0.42843 0.135987,0.70852 0.614353,0.61185 0.466498,-0.096 0.88266,-0.28596 1.297273,-0.52637 -1.098349,0.66345 -2.199166,1.32251 -3.295067,1.99034 -0.135837,0.0828 0.269235,-0.16985 0.40434,-0.25393 1.226287,-0.76333 2.450537,-1.53051 3.688458,-2.27322 0.07497,-0.045 0.33978,-0.089 0.419924,-0.10466 0.496446,0.0232 0.868211,0.22625 1.133636,0.67654 0.276478,0.39996 0.466573,0.85269 0.51188,1.34783 0.09438,0.54476 0.251005,1.07688 0.247008,1.63588 0.02655,0.27532 0.141814,1.02539 0.134073,1.03116 -3.416727,2.54527 -2.45352,3.28739 -3.679234,2.23186 -0.248829,-0.2743 -0.41225,-0.65407 -0.726022,-0.85118 -0.86322,1.14525 -0.07459,0.084 3.365903,-2.0592 0.04034,-0.0251 -0.08979,0.0372 -0.123387,0.0714 -0.174914,0.17846 -0.159067,0.4445 -0.15295,0.67599 0.0038,0.53566 0.0028,1.07421 0.07881,1.60531 0.08904,0.47563 0.28404,0.89605 0.460418,1.34088 0.17863,0.42813 0.366886,0.84694 0.570642,1.26134 0.227962,0.48687 0.359239,0.98199 0.372993,1.52822 0.08106,0.5909 0.219884,1.17469 0.183744,1.77594 0.01801,0.79731 0.06812,1.59367 0.188134,2.38226 0.180525,1.20445 0.405419,2.40099 0.5743,3.60744 0.171753,0.81255 0.484643,1.55903 0.772005,2.33218 0.327039,0.89028 0.601171,1.79364 0.86989,2.70467 0.214995,1.77125 0.144103,0.40049 -3.582804,2.61414 -0.0075,0.004 -0.198858,-0.37102 -0.212528,-0.38974 -0.03218,-0.044 -0.07412,-0.0793 -0.111255,-0.11897 -0.355515,-0.25901 -0.752189,-0.46971 -1.016705,-0.8406 -0.346479,-0.4536 -0.519817,-0.9985 -0.607091,-1.56795 -0.05564,-0.76274 -0.161958,-1.51864 -0.308284,-2.26844 -0.07684,-0.59633 -0.204572,-1.14711 -0.523627,-1.65863 -0.27811,-0.43387 -0.558153,-0.88052 -0.975723,-1.18342 -0.46341,-0.35705 -0.912954,-0.73755 -1.150899,-1.30153 -0.312365,-0.75645 -0.696562,-1.48206 -1.066309,-2.20908 -0.33888,-0.6908 -0.853593,-1.46748 -0.699967,-2.27017 0.871738,-1.5154 0.11376,-0.28406 3.842102,-2.52211 0.332153,-0.19939 0.769387,-0.22799 1.139407,-0.20563 0.553622,0.0945 1.071928,0.2622 1.332053,0.82955 0.145032,0.52106 0.08885,1.03556 -0.22982,1.48016 -0.459545,0.4486 0.155428,-0.12922 -0.334488,0.2604 -0.239315,0.19032 -0.385895,0.51083 -0.558539,0.75883 -0.29649,0.38299 -0.629055,0.73137 -0.875172,1.1527 -0.340934,0.48179 -0.578401,1.0374 -0.916201,1.52367 -0.207809,0.41139 -0.484568,0.78035 -0.784052,1.12011 -0.231883,0.16317 -0.354398,0.34428 -0.546716,0.54956 -1.1597,1.23791 -3.963275,0.43526 -4.259597,2.67366 1.070428,-0.64525 4.312504,-2.52213 3.211274,-1.93577 -0.756392,0.40275 -3.052863,2.59179 -4.719649,2.32839 -0.53117,-0.16366 -0.926962,-0.47438 -0.946909,-1.09671 0.0335,-0.52616 0.08557,-1.05453 0.273325,-1.54947 0.190527,-0.52903 0.242186,-1.12058 0.35589,-1.67097 0.08482,-0.56342 0.238395,-1.1099 0.291508,-1.6781 0.117561,-0.5895 0.342736,-1.14303 0.429128,-1.73996 0.211675,-0.67626 0.37047,-1.35382 0.817359,-1.92383 0.748943,-1.44343 1.658079,-2.79345 2.3393,-4.27681 0.450276,-0.95988 0.347474,-0.68727 0.695511,-1.62012 0.07196,-0.19295 0.142217,-0.38664 0.208466,-0.58178 0.04353,-0.12821 0.0084,-0.31837 0.120769,-0.38809 3.727347,-2.31758 3.147896,-3.35594 3.875766,-1.88487 0.09876,0.6834 -0.0056,1.38499 0.03434,2.07365 0.0094,0.61973 0.01314,1.23946 0.01304,1.85927 2.35e-4,0.63319 0.0019,1.26751 -0.0502,1.89891 -0.06624,0.63005 -0.144103,1.25864 -0.550629,1.76213 -0.319102,0.35278 -0.544024,0.74234 -0.833627,1.11337 -0.239043,0.39027 -0.505707,0.75263 -0.869281,1.02247 -0.534519,0.62801 0.245995,-0.26718 -0.312703,0.30385 -0.223299,0.22824 -0.284415,0.58821 -0.57294,0.75837 -1.420894,1.14506 -2.94855,2.55774 -4.78874,2.50761 -0.554879,-0.003 -1.109861,-0.0103 -1.664684,5.5e-4 -0.245732,0.01 -0.497863,0.0112 -0.739542,0.0656 -0.06614,0.0148 -0.252984,0.0957 -0.194786,0.0597 3.334266,-2.06189 4.681219,-1.9551 3.219014,-2.03799 -0.03959,0.004 -0.08453,-0.009 -0.118808,0.0117 -0.147546,0.0906 0.256587,0.85976 0.258501,1.05082 0.123321,0.58022 0.155794,1.18019 0.343853,1.74675 0.02749,0.20448 0.05639,0.40481 0.114642,0.60279 0.01642,0.0556 0.103478,0.13669 0.0547,0.16508 -3.657215,2.12713 -4.461447,0.74431 -3.61203,2.09687 0.162558,-0.39256 0.116604,-0.86486 0.36257,-1.23023 0.287315,-0.51178 0.428312,-1.11076 0.583974,-1.67668 0.154067,-0.56611 0.205332,-1.13382 0.147237,-1.72098 -0.03378,-0.54146 -0.100016,-1.07803 -0.206908,-1.60955 -0.08031,-0.63612 -0.03021,-1.28162 -0.04429,-1.92213 0.0038,-0.71486 0.01163,-1.42983 0.04081,-2.14416 0.03556,-0.83124 0.09382,-1.65909 0.214423,-2.48246 0.06117,-0.64678 0.03396,-1.29749 0.0099,-1.94635 -0.01614,-0.19312 0.02177,-0.76414 -0.286705,-0.61892 -0.389581,0.19526 -0.758437,0.43501 -1.17868,0.55967 -1.386452,0.66771 -0.20218,0.10664 3.048706,-1.88389 0.07055,-0.0432 -0.147865,0.0739 -0.216807,0.11976 -0.187317,0.12461 -0.365563,0.27472 -0.477071,0.47709 -0.176603,0.48914 -0.329873,0.93402 -0.216553,1.46884 0.06887,0.5936 0.214357,1.17189 0.273653,1.76539 0.06924,0.62463 0.207809,1.23344 0.304137,1.8528 0.107859,0.5545 0.368528,1.0334 0.554701,1.56045 0.251296,0.71742 0.456665,1.45244 0.660233,2.18582 0.21493,0.85538 0.549682,1.6593 0.985077,2.41969 0.385088,0.61186 0.738848,1.24905 1.044017,1.90794 0.214254,0.54195 0.530222,1.02373 0.774913,1.55084 0.175843,0.40782 0.321794,0.83011 0.613649,1.1684 0.265651,0.41007 0.613294,0.76125 0.737093,1.25716 0.348619,2.19963 -1.765881,2.43743 -3.790518,3.49191 -0.510717,0.0409 -1.018093,-0.0778 -1.480688,-0.30509 -0.433115,-0.2418 -0.868023,-0.4691 -1.307031,-0.69684 -0.41071,-0.2918 -0.831863,-0.56709 -1.263402,-0.82448 -0.578889,-0.29858 -1.200711,-0.54185 -1.665679,-1.02633 -0.422664,-0.45744 -0.800809,-0.95518 -1.072351,-1.52722 -0.192159,-0.53853 -0.216779,-1.08641 -0.190752,-1.65757 1.13e-4,-0.59271 -9.29e-4,-1.1861 0.03772,-1.77775 0.0668,-0.82026 0.207659,-1.62836 0.376465,-2.43234 0.24257,-1.42023 0.255443,-2.8598 0.32521,-4.29735 0.117982,-1.80648 0.35057,-3.60788 0.349265,-5.42003 -0.05798,-0.96852 -0.10221,-1.94946 -0.364352,-2.88573 0.621925,1.38126 0.0213,0.14605 3.513205,-2.03795 0.03443,-0.0216 -0.08613,0.0203 -0.108431,0.0552 -0.141617,0.22242 -0.07403,0.56283 -0.207696,0.79151 -0.195903,0.6186 -0.32506,1.23788 -0.27082,1.89581 0.0019,0.0915 0.0019,0.1829 0.0047,0.27434 0.0019,0.0747 0.06877,0.18534 0.0075,0.22411 -4.295653,2.71283 -3.675557,3.41371 -3.655339,1.45895 0.01754,-0.55437 0.04016,-1.11554 0.204835,-1.64789 0.187806,-0.51908 0.481622,-0.99579 0.526338,-1.56362 0.101188,-0.5703 0.113564,-1.1373 0.140162,-1.71643 0.05733,-0.54305 0.142743,-1.08845 0.399612,-1.57354 0.138989,-0.4105 0.35254,-0.79209 0.550798,-1.17272 0.06999,-0.21535 0.17254,-0.36933 0.264787,-0.5673 0.0775,-0.16633 0.08547,-0.36625 0.230842,-0.49662 1.611684,-0.91638 3.680042,-3.54734 4.301948,-1.18663 0.135791,0.43502 0.200594,0.88719 0.378905,1.30694 0.171377,0.40957 0.308903,0.83341 0.505613,1.23197 0.222623,0.52166 0.406188,1.06686 0.480017,1.63521 0.09415,0.58567 0.132328,1.17099 0.19427,1.76065 0.103656,0.61119 0.263296,1.2108 0.2681,1.83651 0.07224,0.66182 0.207471,1.31426 0.230017,1.98036 0.04569,0.50883 0.141081,1.00649 0.231771,1.50812 0.0038,0.5437 0.0047,1.08988 0.07778,1.62933 0.106799,0.62599 0.341572,1.20999 0.466338,1.83123 0.198371,0.83191 0.38095,1.66713 0.619364,2.488 0.215896,0.66316 0.456299,1.31135 0.709828,1.95981 0.238883,0.6258 0.429297,1.27264 0.777193,1.84694 0.266251,0.62426 0.46586,1.27359 0.673406,1.92096 0.13017,0.6079 0.186473,1.23444 0.465616,1.79836 0.179117,0.52476 0.501831,0.97931 0.621306,1.52476 0.111921,0.54066 0.09421,1.10313 0.220446,1.64351 0.09821,0.5976 0.117823,1.19908 0.0168,1.79958 -0.382198,1.83694 -2.926352,3.34266 -4.514167,2.39024 -0.442001,-0.34296 -0.704574,-0.76784 -0.838347,-1.32726 -0.107465,-0.50714 -0.284002,-0.99128 -0.474247,-1.47019 -0.231865,-0.48148 -0.433848,-0.97245 -0.476012,-1.51693 -0.14049,-2.21352 2.302935,-2.66808 4.034609,-3.56593 0.549315,-0.0703 1.105536,-0.084 1.649344,-0.20205 0.553913,-0.0957 1.107234,-0.13323 1.661194,-0.003 0.548443,0.15447 0.979795,0.43635 1.219578,0.99679 0.215934,0.48916 0.502254,0.94143 0.753756,1.41076 0.342924,0.54529 0.642707,1.12462 0.904183,1.71642 0.314551,0.67003 0.616483,1.33838 0.560058,2.10625 -3.244262,2.09833 -3.342898,3.59596 -4.040801,1.26098 -0.102042,-0.57649 -0.192337,-1.14121 -0.131108,-1.73147 0.08557,-2.52855 0.08754,-1.43947 3.799563,-3.47982 0.416799,0.36839 0.488621,0.87435 0.536208,1.41822 0.09223,0.56175 0.193163,1.11519 0.129964,1.68845 -0.0047,0.0978 -0.02167,0.43783 -0.02411,0.43962 -1.75664,1.25846 -2.755753,3.36124 -3.999115,1.98328 -0.270511,-0.34797 -0.558248,-0.67079 -0.979438,-0.81974 -0.208513,-0.0192 -0.108647,-0.0353 -0.299859,0.0467 1.105208,-0.68156 2.210416,-1.36312 3.315633,-2.04469 0.06342,-0.0392 -0.134139,0.0665 -0.192431,0.11342 -0.166714,0.13427 -0.179362,0.20886 -0.27918,0.40073 -0.155043,0.53034 -0.314382,1.06386 -0.387658,1.61389 -0.0501,0.28409 -0.09656,0.5956 -0.258746,0.83931 -0.0273,0.041 -0.07299,0.0675 -0.09688,0.11087 -0.02496,0.0453 -0.03096,0.0995 -0.04644,0.14925 -4.368468,2.38163 -3.698478,3.36387 -3.720282,1.08744 -9.2e-4,-0.60137 -0.0028,-1.20276 -0.0028,-1.80415 0.0028,-0.87015 0.01435,-1.74071 0.07093,-2.60919 0.08369,-1.13993 0.252366,-2.25673 0.748211,-3.29321 0.249316,-0.58436 0.473666,-1.17983 0.741953,-1.75522 0.04391,-0.0941 0.399133,-0.85832 0.513991,-0.94112 1.210187,-0.87236 2.489943,-1.63514 3.73491,-2.45271 0.100935,-0.007 0.203174,-0.039 0.302795,-0.0208 0.430648,0.0789 0.626654,0.54954 0.815435,0.89803 0.193144,0.54381 0.318464,1.10608 0.455859,1.66802 0.09449,0.74452 0.185234,1.48363 0.185516,2.2364 0.05141,0.70288 0.145876,1.39851 0.285597,2.0886 0.195199,2.65237 0.90742,1.00487 -3.429046,3.62881 -0.267611,-0.45434 -0.232156,-1.07622 -0.297381,-1.5862 -0.05967,-0.83431 -0.153458,-1.66909 -0.372619,-2.47661 -0.131399,-0.63641 -0.378126,-1.23378 -0.478413,-1.87766 -0.111753,-0.97873 -0.306511,-1.94588 -0.668846,-2.86074 -0.251324,-0.76986 -0.507377,-1.57057 -1.054834,-2.17486 5.748437,-3.61457 3.192649,-3.15156 3.207286,-1.20796 -0.0047,0.58542 -0.0107,1.17172 -0.06361,1.75503 -0.06051,0.58012 -0.19503,1.15141 -0.21265,1.73343 -0.01079,0.57322 -0.02195,1.15181 -0.147865,1.71281 -0.0038,0.0141 -0.114445,0.44322 -0.142085,0.46052 -0.964952,0.60345 -3.408706,3.50169 -4.148567,1.58263 -0.10069,-0.70925 -0.0379,-1.4344 -0.137103,-2.14584 -0.07769,-0.71548 -0.218552,-1.42763 -0.159847,-2.1506 0.03575,-0.57616 0.08932,-1.15531 0.265839,-1.70636 0.101601,-0.21663 0.128059,-0.43268 0.201991,-0.65992 0.0456,-0.14018 0.123772,-0.26762 0.166583,-0.40876 0.02524,-0.0831 0.03321,-0.17089 0.04982,-0.25633 0.141776,-0.55306 0.316334,-1.08757 0.358827,-1.66482 0.09918,-0.66052 0.03246,-1.33752 0.157951,-1.99645 0.394864,-1.87056 2.071117,-3.66023 4.219403,-3.38028 0.458794,0.16766 0.794447,0.45932 0.94796,0.95464 0.202301,0.41193 0.397022,0.83007 0.551004,1.26412 0.206486,0.51253 0.371999,1.0424 0.645503,1.52311 0.179371,0.45535 0.323023,0.92581 0.413732,1.4089 0.14445,0.56467 0.190695,1.14576 0.36195,1.70365 0.168037,0.48838 0.362702,0.96546 0.422589,1.48537 0.136541,0.503 0.280653,1.00078 0.410035,1.50556 0.188406,0.54365 0.336909,1.09512 0.420149,1.66752 0.120788,0.46378 0.248932,0.91952 0.32688,1.394 0.12986,0.48762 0.173207,0.98286 0.269319,1.47836 0.112344,0.55696 0.110298,1.1129 0.06661,1.68013 -0.04259,0.5289 -0.10373,1.06544 -0.38398,1.52351 -0.257272,0.36536 -0.362495,0.86345 -0.760089,1.10133 -0.222145,0.22607 -0.06164,0.0909 -0.326185,0.24943 -1.232198,0.73839 -2.45399,1.49575 -3.693299,2.22113 -1.119554,0.65529 2.222425,-1.34103 3.334022,-2.01085 0.05958,-0.0359 -0.118602,0.0728 -0.177898,0.10905 -1.23307,0.74085 -2.466149,1.4817 -3.699219,2.22254 -2.775362,1.42915 4.45623,-2.93545 2.244342,-1.36227 -0.234699,0.14046 -0.438126,0.31731 -0.670113,0.46083 -1.506892,0.93215 -2.648372,1.89456 -4.172885,2.4674 -0.513268,0.14311 -1.03698,0.16564 -1.561788,0.24187 -0.558998,0.0959 -1.115097,0.19692 -1.68496,0.14963 -0.530804,-0.0124 -1.072529,-0.0209 -1.578095,-0.2101 -0.443229,-0.21272 -0.748126,-0.55562 -1.101183,-0.89424 -0.41147,-0.32771 -0.76478,-0.71899 -1.158527,-1.06858 -0.428603,-0.32842 -0.841471,-0.68169 -1.337561,-0.89782 -0.39796,-0.17052 -0.785571,-0.36444 -1.189114,-0.52103 -0.428189,-0.16176 -0.836179,-0.35864 -1.245745,-0.56607 -0.481106,-0.25508 -0.976464,-0.48183 -1.42659,-0.79606 -0.391298,-0.2663 -0.793377,-0.52189 -1.15195,-0.83481 -0.337557,-0.34667 -0.578645,-0.73481 -0.642791,-1.23651 -0.105214,-0.55042 -0.09413,-1.09679 -0.02439,-1.65375 0.06521,-0.51082 0.222482,-1.00133 0.25867,-1.5115 0.01004,-0.42244 0.03106,-0.76066 -0.220128,-1.12172 -0.156844,-0.42481 -0.357663,-0.82978 -0.505922,-1.2589 -0.135574,-0.47848 -0.377,-0.90943 -0.566016,-1.36588 -0.242608,-0.47924 -0.403467,-0.98563 -0.558163,-1.50168 -0.108028,-0.54993 -0.18653,-1.08925 -0.138727,-1.6541 0.0066,-0.63728 0.01801,-1.27513 0.07431,-1.91017 0.06277,-0.65931 0.191568,-1.31193 0.213541,-1.97205 -0.0028,-0.54074 0.0094,-1.09061 -0.0958,-1.62258 -0.03349,-0.083 -0.02289,-0.0921 -0.0365,-0.0201 1.155094,-0.68294 2.310188,-1.36588 3.465291,-2.04882 0.05188,-0.0317 -0.125151,0.0112 -0.175084,0.0462 -0.118358,0.083 -0.23801,0.31545 -0.30727,0.43198 -0.320584,0.41707 -0.639452,0.81517 -0.811448,1.32823 -0.126746,0.48986 -0.35771,0.9857 -0.277801,1.50084 0.09101,0.43014 0.279856,0.70942 0.620734,0.97588 0.268934,0.34226 0.490601,0.73041 0.849915,0.98261 0.130921,0.10631 0.192178,0.16377 0.339274,0.25043 0.04034,0.0238 0.08087,0.0527 0.126745,0.0593 0.02646,0.004 0.09778,-0.0444 0.07468,-0.0304 -3.501975,2.1176 -4.552146,1.27422 -3.333468,2.17961 0.134758,-0.32866 -0.189429,-0.93046 -0.172879,-1.29388 3.1e-4,-0.59556 9.2e-4,-1.19111 0.0028,-1.78666 0.0019,-0.65559 0.0056,-1.3112 -0.0028,-1.96676 0,-0.57721 0,-1.15443 -9e-6,-1.73166 -1.9e-5,-0.57655 -4.7e-5,-1.15311 -6.6e-5,-1.72967 0,-0.57796 -3.7e-5,-1.15593 5.26e-4,-1.7339 9.29e-4,-0.62585 0.0028,-1.2517 0.0066,-1.87755 0.0028,-0.72955 0.01285,-1.45967 -0.01464,-2.18884 0,0 3.66381,-1.94385 3.66381,-1.94385 z"
       inkscape:connector-curvature="0" />
    <path
       style="fill:#000000;fill-opacity:1;fill-rule:nonzero;stroke:none;stroke-width:1px;stroke-linecap:butt;stroke-linejoin:miter;stroke-opacity:1"
       id="path3386"
       d="m 51.182777,240.7332 c -0.182195,-0.62714 -0.38733,-1.24788 -0.613518,-1.85927 -0.222849,-0.51952 -0.311671,-1.08086 -0.478048,-1.61924 -0.09082,-0.5268 -0.3097,-0.98391 -0.591667,-1.42229 -0.165485,-0.30029 -0.07928,-0.1619 -0.254561,-0.41775 0,0 3.537497,-2.16698 3.537497,-2.16698 l 0,0 c 0.183189,0.28298 0.09872,0.14043 0.25456,0.42691 0.298752,0.47119 0.547571,0.96208 0.651123,1.5237 0.162033,0.53368 0.243396,1.08754 0.450717,1.60671 0.223853,0.60837 0.415026,1.22962 0.638147,1.83824 0,0 -3.59425,2.08997 -3.59425,2.08997 z"
       inkscape:connector-curvature="0" />
    <path
       style="fill:#000000;fill-opacity:1;fill-rule:nonzero;stroke:none;stroke-width:1px;stroke-linecap:butt;stroke-linejoin:miter;stroke-opacity:1"
       id="path3388"
       d="m 58.10997,245.88132 c -0.252149,-0.77464 -0.669108,-1.47347 -0.955053,-2.23355 -0.293779,-0.92208 -0.416715,-1.88418 -0.582501,-2.83554 -0.128631,-0.69775 -0.228581,-1.39999 -0.297325,-2.10672 0,0 3.616486,-1.96026 3.616486,-1.96026 l 0,0 c 0.04907,0.69902 0.126023,1.39557 0.257854,2.08355 0.163618,0.9251 0.265369,1.86313 0.557122,2.75949 0.280878,0.7682 0.680498,1.47929 1.0031,2.22871 0,0 -3.599683,2.06432 -3.599683,2.06432 z"
       inkscape:connector-curvature="0" />
    <path
       style="fill:#000000;fill-opacity:1;fill-rule:nonzero;stroke:none;stroke-width:1px;stroke-linecap:butt;stroke-linejoin:miter;stroke-opacity:1"
       id="path3390"
       d="m 137.52957,218.17772 c 0.36081,0.55423 0.72889,1.10216 1.09457,1.65252 0.26204,0.43085 0.50034,0.87331 0.73622,1.32004 0.24746,0.31763 0.39866,0.69859 0.64746,1.01474 0.22747,0.37163 0.45677,0.74155 0.74002,1.07145 0.28696,0.38396 0.49188,0.8377 0.664,1.28916 0.18176,0.39218 0.43002,0.73146 0.58292,1.13884 0.14767,0.32166 0.27798,0.64836 0.42864,0.96852 0,0 -3.57341,2.11453 -3.57341,2.11453 l 0,0 c -0.15621,-0.33248 -0.2922,-0.67063 -0.4459,-1.00435 -0.14254,-0.40878 -0.4156,-0.73726 -0.58014,-1.13664 -0.14766,-0.40874 -0.33197,-0.81961 -0.59159,-1.1631 -0.27759,-0.34379 -0.52934,-0.70495 -0.75692,-1.08542 -0.24957,-0.34432 -0.43177,-0.73092 -0.67826,-1.07757 -0.22651,-0.43599 -0.45094,-0.87065 -0.69809,-1.29458 -0.36216,-0.56337 -0.72318,-1.12902 -1.12827,-1.66038 0,0 3.55875,-2.14776 3.55875,-2.14776 z"
       inkscape:connector-curvature="0" />
    <path
       style="fill:#000000;fill-opacity:1;fill-rule:nonzero;stroke:none;stroke-width:1px;stroke-linecap:butt;stroke-linejoin:miter;stroke-opacity:1"
       id="path3392"
       d="m 133.32825,226.68795 c 0.52054,-0.49813 1.02253,-1.01552 1.53047,-1.52732 0.10594,-0.22177 0.71336,-0.52997 0.74605,-0.76606 -0.20588,-0.2839 -0.44007,-0.4908 -0.79716,-0.46801 -1.15439,0.93711 -0.12678,0.0925 3.30774,-1.88748 0.028,-0.0161 -0.11457,-0.006 -0.21912,0.23489 -0.0628,0.14487 -0.0763,0.28585 -0.10256,0.44076 -0.10895,0.53304 9.2e-4,0.82946 0.20798,1.29325 0.1517,0.45392 0.2669,0.9202 0.39526,1.3827 0.13817,0.5056 0.17152,1.01057 0.0622,1.52283 -0.0652,0.0363 -0.025,0.15011 -0.0725,0.20234 -0.0184,0.0202 0.0314,-0.0536 0.058,-0.0576 0.0418,-0.006 0.29579,0.005 0.31262,0.006 0.24753,0.0462 0.37268,-0.0419 0.55914,-0.18225 0.0532,-0.04 0.22325,-0.14345 0.16629,-0.10958 -3.25779,1.93692 -4.41313,2.71877 -3.12812,1.8549 0.37741,-0.23378 0.72015,-0.49021 0.91503,-0.90687 0.19883,-0.50141 -0.0959,-0.76363 -0.52275,-0.92272 -0.47187,-0.0967 -1.00804,-0.24617 -1.42866,0.0562 -1.31297,0.83204 0.42215,-0.26978 3.18014,-1.88869 0.0526,-0.0309 -0.10148,0.0702 -0.14415,0.11485 -0.13915,0.14555 -0.2123,0.35724 -0.30399,0.53503 -0.44242,1.34061 -4.89953,3.61643 -4.07699,2.05478 0.21244,-0.39713 0.46099,-0.76335 0.75392,-1.10103 0.28572,-0.39514 0.59021,-0.7607 0.92211,-1.11301 0.25046,-0.33427 0.53968,-0.63458 0.75408,-0.99606 0.21676,-0.3438 0.56286,-0.55885 0.7892,-0.89273 0.21414,-0.36862 0.076,-0.6695 -0.058,-1.03178 -0.11711,-0.2154 -0.0564,-0.10203 -0.18182,-0.34034 0,0 3.56448,-2.13294 3.56448,-2.13294 l 0,0 c 0.13403,0.2522 0.0645,0.12212 0.20865,0.39015 0.16653,0.44383 0.3733,0.86471 0.21186,1.35135 -0.14498,0.42127 -0.40491,0.70983 -0.76242,0.95184 -0.26045,0.33014 -0.42781,0.73467 -0.74971,1.0187 -0.14328,0.22909 -0.28225,0.33402 -0.47178,0.51232 -0.1951,0.18353 -0.14023,0.18951 -0.2936,0.41615 -0.0466,0.069 -0.10252,0.13051 -0.15378,0.19576 -0.25685,0.34295 -0.6113,0.61948 -0.75337,1.04132 -0.92259,1.25125 0.0128,0.0141 -3.92299,1.82922 -0.03,0.0138 0.0699,0.0135 0.0982,-0.004 0.11853,-0.0715 0.28941,-0.27238 0.38041,-0.38009 0.78439,-1.89971 1.45741,-2.23627 4.24582,-3.16627 0.54327,-0.0727 1.10127,0.0114 1.60992,0.22249 0.52753,0.30313 0.97019,0.79297 0.82451,1.46988 -0.13185,0.53604 -0.36901,0.86504 -0.80673,1.17637 -1.65668,0.97812 3.72595,-2.2009 -3.90611,2.3649 -0.2674,0.15996 -0.58037,0.11755 -0.87272,0.0885 -0.39943,-0.0763 -0.85048,-0.32213 -0.67223,-0.82266 0.23319,-0.39619 0.15929,-0.84913 0.0604,-1.28213 -0.11753,-0.44282 -0.24254,-0.88186 -0.36637,-1.32155 -0.22145,-0.49695 -0.41145,-0.94104 -0.30867,-1.50848 0.14857,-1.92495 1.37351,-3.57767 4.05981,-3.13705 0.45077,0.16494 0.80293,0.43947 1.05123,0.8712 0.24773,0.67204 -0.1893,0.77071 -0.59444,1.2164 -0.53024,0.46366 -0.97947,1.02121 -1.50325,1.49196 0,0 -3.80141,1.63959 -3.80141,1.63959 z"
       inkscape:connector-curvature="0" />
    <path
       style="fill:#000000;fill-opacity:1;fill-rule:nonzero;stroke:none;stroke-width:1px;stroke-linecap:butt;stroke-linejoin:miter;stroke-opacity:1"
       id="path3394"
       d="m 137.2603,217.52049 c 0.44236,0.45619 1.01548,0.66863 1.61147,0.79828 0.56463,0.0967 1.13859,0.0935 1.70904,0.0943 0.65352,-0.1499 0.88068,-0.25753 1.50977,0.0233 0.42652,0.27019 0.65992,0.62223 0.80662,1.11262 0.15872,0.45902 0.31711,0.91899 0.45396,1.38573 0.16133,0.54017 0.18788,1.08197 0.10937,1.637 -0.0903,0.4856 -0.31886,0.93066 -0.57219,1.3442 -0.28572,0.34771 -0.46473,0.75425 -0.67797,1.1482 -0.27642,0.31326 -0.43988,0.70145 -0.6321,1.07135 -0.26455,0.56012 -0.41504,0.13665 -0.3412,0.0739 0.0302,-0.0257 0.078,-0.008 0.11682,-0.0118 0.44366,-0.006 0.89783,0.1033 1.27534,-0.18225 1.31807,-0.83137 -0.50269,0.31907 -3.17901,1.89249 -0.0528,0.031 0.10123,-0.071 0.14401,-0.11575 0.15495,-0.16204 0.23037,-0.39767 0.31779,-0.60124 0.16917,-0.49289 0.24571,-1.01116 0.37894,-1.51557 0.13233,-0.50514 0.15979,-1.02884 0.17917,-1.54926 0.0339,-0.54864 -0.0123,-1.09704 -0.16222,-1.62456 -0.12044,-0.43234 -0.20661,-0.78928 -0.64248,-0.93628 -0.47855,-0.10011 -0.97075,-0.0893 -1.45664,-0.0903 -0.55536,0.003 -1.11071,0.007 -1.66607,0.009 -1.20135,0.39963 -4.15129,2.31372 2.9663,-1.80462 0.0561,-0.0325 -0.10006,0.0837 -0.14818,0.12789 -0.15599,0.14318 -0.12123,0.11329 -0.24664,0.28578 -0.18606,0.40113 -0.34467,0.81473 -0.4361,1.25059 -0.0877,0.53506 -0.0905,1.07977 -0.0966,1.621 0.0395,0.54002 -0.0518,1.062 -0.14695,1.58881 -0.0544,0.54836 -0.17856,1.08327 -0.27603,1.62399 -0.0738,0.47286 -0.25872,0.90222 -0.51239,1.29774 -1.22302,0.72807 -2.44605,1.45616 -3.66907,2.18422 -0.0407,0.023 -0.16215,0.0929 -0.12203,0.0688 1.1401,-0.68251 2.28134,-1.36293 3.42201,-2.0444 0,0 -3.82973,1.5983 -3.82973,1.5983 l 0,0 c 1.21317,-0.74133 2.42227,-1.48996 3.63955,-2.22398 0.0411,-0.0248 0.1746,-0.0766 0.13376,-0.0513 -1.12824,0.69887 -2.26528,1.3822 -3.39794,2.0733 0.39741,-0.15872 0.51705,-0.65392 0.65664,-1.03242 0.0824,-0.5434 0.23522,-1.0702 0.26841,-1.62048 0.0782,-0.51163 0.23767,-1.0053 0.18417,-1.53005 0.002,-0.56057 0.002,-1.1227 0.0586,-1.6808 0.0641,-0.48313 0.20835,-0.92033 0.37343,-1.37046 0.07,-0.18962 0.14992,-0.45072 0.33109,-0.56502 1.72839,-1.0905 2.50921,-2.25372 4.1583,-2.30399 0.55685,-0.003 1.11374,-0.009 1.6706,-0.004 0.52935,0.011 1.07496,0.0119 1.56958,0.23408 0.47134,0.29126 0.67676,0.69946 0.80935,1.24467 0.17122,0.56388 0.25117,1.15867 0.22209,1.75003 -0.0115,0.54568 -0.0252,1.09497 -0.13254,1.63127 -0.12193,0.52312 -0.27269,1.03166 -0.36038,1.5636 -0.6591,2.00044 -1.53341,2.26988 -4.2311,3.26628 -0.46713,0.0828 -0.94941,0.0564 -1.41923,0.006 -0.40679,-0.13325 -0.67344,-0.60386 -0.17342,-0.82376 0.27962,-0.32685 0.35772,-0.76116 0.62147,-1.09839 0.33917,-0.3037 0.33278,-0.81718 0.70339,-1.10579 0.22769,-0.39007 0.47967,-0.76033 0.64111,-1.19039 0.0847,-0.5023 0.14778,-0.96959 -0.0187,-1.46905 -0.13239,-0.46907 -0.30572,-0.92422 -0.46332,-1.38442 -0.0924,-0.36431 -0.25777,-0.62092 -0.60927,-0.76296 -0.47267,-0.13046 -0.93542,0.10272 -1.41598,0.0804 -0.58968,-0.0112 -1.18388,-0.0299 -1.75895,-0.18084 -0.64874,-0.19687 -1.25204,-0.49555 -1.75619,-0.97482 0,0 3.50829,-2.23862 3.50829,-2.23862 z"
       inkscape:connector-curvature="0" />
    <path
       style="fill:none;fill-rule:evenodd;stroke:#000000;stroke-width:0.53303194px;stroke-linecap:butt;stroke-linejoin:miter;stroke-opacity:1"
       d="m 82.429027,290.94964 1.108783,3.17501 -1.663174,-0.86591 z"
       id="path3396"
       inkscape:connector-curvature="0" />
    <path
       style="fill:none;fill-rule:evenodd;stroke:#000000;stroke-width:0.53303194px;stroke-linecap:butt;stroke-linejoin:miter;stroke-opacity:1"
       d="m 92.685298,234.66538 c 0.09411,1.65654 0.940924,0.34555 1.385974,0.57727 0.116875,0.0608 0.160325,0.22779 0.2772,0.28864 0.08266,0.043 0.194552,-0.043 0.277191,0 0.116885,0.0609 0.160316,0.22779 0.277191,0.28864 0.165297,0.0861 0.423733,-0.13607 0.554391,0 0.0653,0.068 -0.0653,0.2206 0,0.28864 0.0653,0.0681 0.211862,-0.0681 0.27721,0 0.573531,0.5972 -0.87643,-0.0233 0.277191,0.57726 0.08266,0.043 0.194561,-0.043 0.2772,0 0.116876,0.0609 0.160316,0.2278 0.277191,0.28865 0.08266,0.043 0.211862,-0.0681 0.2772,0 0.0653,0.068 -0.06539,0.22061 0,0.28864 0.130668,0.13606 0.389108,-0.0861 0.554388,0 0.11688,0.0609 0.1848,0.19242 0.27719,0.28863 0.0924,0.0962 0.20473,0.17543 0.2772,0.28865 0.11462,0.179 0.13111,0.42514 0.2772,0.57727 0.0653,0.068 0.21187,-0.0681 0.2772,0 0.0653,0.068 -0.0653,0.2206 0,0.28863 0.0653,0.0681 0.21186,-0.0681 0.2772,0 0.0653,0.0681 -0.0653,0.2206 0,0.28864 0.0653,0.068 0.18479,0 0.27719,0 0.0923,0 0.1848,0 0.2772,0"
       id="path3398"
       inkscape:connector-curvature="0" />
    <path
       style="fill:none;fill-rule:evenodd;stroke:#000000;stroke-width:0.53303194px;stroke-linecap:butt;stroke-linejoin:miter;stroke-opacity:1"
       d="m 99.892405,237.8404 c -2.1433,-0.16959 -0.24911,-0.37511 -1.66319,-0.86592 -0.0876,-0.0304 -0.21186,0.068 -0.2772,0 -0.46199,-0.48107 1.01639,-0.28865 -0.55439,-0.28865 l 5.266735,1.73184 c -0.3696,-0.0962 -0.73522,-0.21084 -1.10879,-0.28863 -0.55112,-0.11479 -1.11553,-0.15705 -1.663165,-0.28864 -0.48132,-0.11567 -3.057921,-0.90203 -3.603559,-1.15457 -0.304437,-0.14088 -0.545919,-0.39879 -0.831601,-0.57726 -0.526413,-0.3289 -1.152635,-0.51152 -1.663164,-0.86592 -0.513804,-0.35667 -0.02543,-0.28863 -0.554391,-0.28863 0.369588,0.0962 0.739175,0.19241 1.108782,0.28863 0.09232,0.0962 0.153223,0.24561 0.277191,0.28864 1.200157,0.41656 -0.101882,-0.55179 1.108792,0.28864 0.620246,0.43057 -0.106058,0.57726 0.554391,0.57726"
       id="path3400"
       inkscape:connector-curvature="0" />
    <path
       style="fill:none;fill-rule:evenodd;stroke:#000000;stroke-width:0.53303194px;stroke-linecap:butt;stroke-linejoin:miter;stroke-opacity:1"
       d="m 98.506415,237.55175 1.940375,1.15455"
       id="path3402"
       inkscape:connector-curvature="0" />
    <path
       style="fill:none;fill-rule:evenodd;stroke:#000000;stroke-width:0.53303194px;stroke-linecap:butt;stroke-linejoin:miter;stroke-opacity:1"
       d="m 96.566037,236.97448 3.049168,2.3091"
       id="path3404"
       inkscape:connector-curvature="0" />
    <path
       style="fill:none;fill-rule:evenodd;stroke:#000000;stroke-width:0.53303194px;stroke-linecap:butt;stroke-linejoin:miter;stroke-opacity:1"
       d="m 95.457245,236.10857 6.098325,2.3091 c 0.462,-0.0962 0.92126,-0.20799 1.38599,-0.28863 0.18228,-0.0317 0.36959,0 0.55439,0 0.36959,0 0.73919,0 1.10877,0 1.20119,0 2.40238,0 3.60356,0 3.50893,0 7.55358,0 10.25626,0"
       id="path3406"
       inkscape:connector-curvature="0" />
    <path
       style="fill:none;fill-rule:evenodd;stroke:#000000;stroke-width:0.53303194px;stroke-linecap:butt;stroke-linejoin:miter;stroke-opacity:1"
       d="m 102.66161,237.76938 c 1.85231,0 3.70462,0 5.55694,0 0.35281,0 0.70564,0 1.05846,0 0.0882,0 0.20225,-0.065 0.26462,0 0.0624,0.065 -0.0624,0.2106 0,0.27553 0.0624,0.065 0.26462,-0.0918 0.26462,0 0,0.0918 -0.35283,0 -0.26462,0 1.49948,0 0.0882,-0.18369 0.52922,0.27555 0.12474,0.12989 0.37145,-0.0822 0.52923,0 0.11158,0.0581 0.17641,0.18369 0.26462,0.27553"
       id="path3408"
       inkscape:connector-curvature="0" />
    <path
       style="fill:none;fill-rule:evenodd;stroke:#000000;stroke-width:0.53303194px;stroke-linecap:butt;stroke-linejoin:miter;stroke-opacity:1"
       d="m 102.39699,238.59599 7.40926,-0.55108"
       id="path3410"
       inkscape:connector-curvature="0" />
    <path
       style="fill:#000000"
       d="m 100.74347,238.66188 c -0.0828,-0.0225 -0.15059,-0.0784 -0.15059,-0.12402 0,-0.11334 0.0902,-0.0999 0.34421,0.0513 0.20774,0.12365 0.11782,0.15739 -0.19362,0.0726 z"
       id="path3420"
       inkscape:connector-curvature="0" />
    <path
       style="fill:#000000"
       d="m 98.393515,237.9693 c -0.0918,-0.0699 -0.14703,-0.14778 -0.12274,-0.17308 0.0243,-0.0253 0.14042,0.0309 0.25804,0.12509 0.24495,0.19598 0.11814,0.24097 -0.1353,0.0479 z"
       id="path3432"
       inkscape:connector-curvature="0" />
    <path
       style="fill:none;fill-rule:evenodd;stroke:#000000;stroke-width:0.53303194px;stroke-linecap:butt;stroke-linejoin:miter;stroke-opacity:1"
       d="m 95.991905,237.0028 c 1.11873,0.80646 1.03267,0.80646 1.03267,0.80646 z"
       id="path3448"
       inkscape:connector-curvature="0" />
    <path
       style="fill:none;fill-rule:evenodd;stroke:#000000;stroke-width:0.53303194px;stroke-linecap:butt;stroke-linejoin:miter;stroke-opacity:1"
       d="m 98.207965,237.67558 1.11735,0.87259 z"
       id="path3450"
       inkscape:connector-curvature="0" />
    <path
       style="fill:none;fill-rule:evenodd;stroke:#000000;stroke-width:0.53303194px;stroke-linecap:butt;stroke-linejoin:miter;stroke-opacity:1"
       d="m 100.23317,238.25731 1.25701,0.58173 z"
       id="path3452"
       inkscape:connector-curvature="0" />
    <path
       style="fill:none;fill-rule:evenodd;stroke:#000000;stroke-width:0.53303194px;stroke-linecap:butt;stroke-linejoin:miter;stroke-opacity:1"
       d="m 102.95671,239.27534 6.42475,-0.29087 z"
       id="path3454"
       inkscape:connector-curvature="0" />
    <path
       style="fill:none;fill-rule:evenodd;stroke:#000000;stroke-width:0.53303194px;stroke-linecap:butt;stroke-linejoin:miter;stroke-opacity:1"
       d="m 106.51826,238.54817 3.42188,-0.21814 z"
       id="path3456"
       inkscape:connector-curvature="0" />
    <path
       style="fill:none;fill-rule:evenodd;stroke:#000000;stroke-width:0.53303194px;stroke-linecap:butt;stroke-linejoin:miter;stroke-opacity:1"
       d="m 84.031591,280.21484 0.768177,1.81792 z"
       id="path3458"
       inkscape:connector-curvature="0" />
    <path
       style="fill:none;fill-rule:evenodd;stroke:#000000;stroke-width:0.53303194px;stroke-linecap:butt;stroke-linejoin:miter;stroke-opacity:1"
       d="m 84.101424,294.54002 0,-0.509 z"
       id="path3460"
       inkscape:connector-curvature="0" />
    <path
       style="fill:none;fill-rule:evenodd;stroke:#000000;stroke-width:0.53303194px;stroke-linecap:butt;stroke-linejoin:miter;stroke-opacity:1"
       d="m 84.310931,292.6494 0.488837,-0.72717 z"
       id="path3462"
       inkscape:connector-curvature="0" />
    <path
       style="fill:none;fill-rule:evenodd;stroke:#000000;stroke-width:0.53303194px;stroke-linecap:butt;stroke-linejoin:miter;stroke-opacity:1"
       d="m 94.855924,293.59472 c 0,0.4363 0.558679,2.03606 0.558679,2.03606 l 0.419004,-0.29086 z"
       id="path3464"
       inkscape:connector-curvature="0" />
    <path
       style="fill:none;fill-rule:evenodd;stroke:#000000;stroke-width:0.53303194px;stroke-linecap:butt;stroke-linejoin:miter;stroke-opacity:1"
       d="m 97.439795,295.04905 0.27933,-0.65445 z"
       id="path3466"
       inkscape:connector-curvature="0" />
    <path
       style="fill:none;fill-rule:evenodd;stroke:#000000;stroke-width:0.53303194px;stroke-linecap:butt;stroke-linejoin:miter;stroke-opacity:1"
       d="m 100.23317,291.34049 0.419,-0.9453 z"
       id="path3468"
       inkscape:connector-curvature="0" />
    <path
       style="fill:none;fill-rule:evenodd;stroke:#000000;stroke-width:0.53303194px;stroke-linecap:butt;stroke-linejoin:miter;stroke-opacity:1"
       d="m 83.123741,293.23113 -0.768177,-1.16346 -0.0699,1.01803 z"
       id="path3470"
       inkscape:connector-curvature="0" />
    <path
       style="fill:none;fill-rule:evenodd;stroke:#000000;stroke-width:0.53303194px;stroke-linecap:butt;stroke-linejoin:miter;stroke-opacity:1"
       d="m 84.310931,294.83089 -0.419005,-0.50901 z"
       id="path3472"
       inkscape:connector-curvature="0" />
    <path
       style="fill:none;fill-rule:evenodd;stroke:#000000;stroke-width:0.53303194px;stroke-linecap:butt;stroke-linejoin:miter;stroke-opacity:1"
       d="m 83.263415,293.66743 -0.27933,-0.29087 z"
       id="path3474"
       inkscape:connector-curvature="0" />
    <path
       style="fill:none;fill-rule:evenodd;stroke:#000000;stroke-width:0.53303194px;stroke-linecap:butt;stroke-linejoin:miter;stroke-opacity:1"
       d="m 93.459226,296.35795 -1.047506,-0.0727 1.396688,-0.29087 z"
       id="path3476"
       inkscape:connector-curvature="0" />
    <path
       style="fill:none;fill-rule:evenodd;stroke:#000000;stroke-width:0.53303194px;stroke-linecap:butt;stroke-linejoin:miter;stroke-opacity:1"
       d="m 94.995589,295.92165 0.0699,0.50901 1.326837,-0.65445 1.536369,-0.72716 z"
       id="path3478"
       inkscape:connector-curvature="0" />
    <path
       style="fill:none;fill-rule:evenodd;stroke:#000000;stroke-width:0.53303194px;stroke-linecap:butt;stroke-linejoin:miter;stroke-opacity:1"
       d="m 82.425406,290.46789 -0.558679,-2.32693 z"
       id="path3480"
       inkscape:connector-curvature="0" />
    <path
       style="fill:none;fill-rule:evenodd;stroke:#000000;stroke-width:0.53303194px;stroke-linecap:butt;stroke-linejoin:miter;stroke-opacity:1"
       d="m 82.076234,290.75876 -0.27934,-1.52706 z"
       id="path3482"
       inkscape:connector-curvature="0" />
    <path
       style="fill:none;fill-rule:evenodd;stroke:#000000;stroke-width:0.53303194px;stroke-linecap:butt;stroke-linejoin:miter;stroke-opacity:1"
       d="m 71.034983,227.29919 -1.817738,-3.88514 1.530724,3.38704 z"
       id="path3484"
       inkscape:connector-curvature="0" />
    <path
       style="fill:none;fill-rule:evenodd;stroke:#000000;stroke-width:0.53303194px;stroke-linecap:butt;stroke-linejoin:miter;stroke-opacity:1"
       d="m 72.661378,233.87406 -0.669691,-3.88514 1.339391,1.89276 z"
       id="path3486"
       inkscape:connector-curvature="0" />
    <path
       style="fill:none;fill-rule:evenodd;stroke:#000000;stroke-width:0.53303194px;stroke-linecap:butt;stroke-linejoin:miter;stroke-opacity:1"
       d="m 72.948392,232.87787 -0.765362,-1.99239 1.243719,0.9962 z"
       id="path3488"
       inkscape:connector-curvature="0" />
    <path
       style="fill:none;fill-rule:evenodd;stroke:#000000;stroke-width:0.53303194px;stroke-linecap:butt;stroke-linejoin:miter;stroke-opacity:1"
       d="m 72.278702,238.65579 0.478347,-2.98859 0.574029,1.29507 z"
       id="path3490"
       inkscape:connector-curvature="0" />
    <path
       style="fill:none;fill-rule:evenodd;stroke:#000000;stroke-width:0.53303194px;stroke-linecap:butt;stroke-linejoin:miter;stroke-opacity:1"
       d="m 72.661378,237.46035 0.287014,-1.0958 z"
       id="path3492"
       inkscape:connector-curvature="0" />
    <path
       style="fill:none;fill-rule:evenodd;stroke:#000000;stroke-width:0.53303194px;stroke-linecap:butt;stroke-linejoin:miter;stroke-opacity:1"
       d="m 72.852721,233.17673 -0.09567,-2.09201 z"
       id="path3494"
       inkscape:connector-curvature="0" />
    <path
       style="fill:none;fill-rule:evenodd;stroke:#000000;stroke-width:0.53303194px;stroke-linecap:butt;stroke-linejoin:miter;stroke-opacity:1"
       d="m 64.242379,224.11138 -0.382686,-1.69352 z"
       id="path3496"
       inkscape:connector-curvature="0" />
    <path
       style="fill:none;fill-rule:evenodd;stroke:#000000;stroke-width:0.53303194px;stroke-linecap:butt;stroke-linejoin:miter;stroke-opacity:1"
       d="m 89.325109,189.3466 0.944836,-1.96768 2.56457,-1.40548 -0.809863,1.68658 z"
       id="path3498"
       inkscape:connector-curvature="0" />
    <path
       style="fill:none;fill-rule:evenodd;stroke:#000000;stroke-width:0.53303194px;stroke-linecap:butt;stroke-linejoin:miter;stroke-opacity:1"
       d="m 90.674876,187.80056 1.349776,-0.84328 z"
       id="path3500"
       inkscape:connector-curvature="0" />
    <path
       style="fill:none;fill-rule:evenodd;stroke:#000000;stroke-width:0.53303194px;stroke-linecap:butt;stroke-linejoin:miter;stroke-opacity:1"
       d="m 90.269945,188.5033 0.944845,-0.98383 z"
       id="path3502"
       inkscape:connector-curvature="0" />
    <path
       style="fill:none;fill-rule:evenodd;stroke:#000000;stroke-width:0.53303194px;stroke-linecap:butt;stroke-linejoin:miter;stroke-opacity:1"
       d="m 91.484738,186.95728 1.079819,-0.42164 z"
       id="path3504"
       inkscape:connector-curvature="0" />
    <path
       style="fill:none;fill-rule:evenodd;stroke:#000000;stroke-width:0.53303194px;stroke-linecap:butt;stroke-linejoin:miter;stroke-opacity:1"
       d="m 92.834515,186.53564 2.56456,0.84328 0.404931,-1.68658 -2.834518,-0.42164 z"
       id="path3506"
       inkscape:connector-curvature="0" />
    <path
       style="fill:none;fill-rule:evenodd;stroke:#000000;stroke-width:0.53303194px;stroke-linecap:butt;stroke-linejoin:miter;stroke-opacity:1"
       d="m 94.724196,186.39509 -1.349767,-0.5622 0.404922,-0.28109 z"
       id="path3508"
       inkscape:connector-curvature="0" />
    <path
       style="fill:none;fill-rule:evenodd;stroke:#000000;stroke-width:0.53303194px;stroke-linecap:butt;stroke-linejoin:miter;stroke-opacity:1"
       d="m 95.129118,186.67619 0.40494,-1.12439 -0.809862,0.28109 z"
       id="path3510"
       inkscape:connector-curvature="0" />
    <path
       style="fill:none;fill-rule:evenodd;stroke:#000000;stroke-width:0.53303194px;stroke-linecap:butt;stroke-linejoin:miter;stroke-opacity:1"
       d="m 92.834515,184.98961 -3.914337,4.63808 z"
       id="path3512"
       inkscape:connector-curvature="0" />
    <path
       style="fill:none;fill-rule:evenodd;stroke:#000000;stroke-width:0.53303194px;stroke-linecap:butt;stroke-linejoin:miter;stroke-opacity:1"
       d="m 92.024652,187.80056 2.294604,-0.84328 z"
       id="path3514"
       inkscape:connector-curvature="0" />
    <path
       style="fill:none;fill-rule:evenodd;stroke:#000000;stroke-width:0.53303194px;stroke-linecap:butt;stroke-linejoin:miter;stroke-opacity:1"
       d="m 92.699541,186.81673 1.349767,-0.14054 z"
       id="path3516"
       inkscape:connector-curvature="0" />
    <path
       style="fill:#ff2a2a;fill-rule:evenodd;stroke:#000000;stroke-width:0.53303194px;stroke-linecap:butt;stroke-linejoin:miter;stroke-opacity:1"
       d="m 93.104472,187.09783 -0.674888,-1.40549 0.809862,1.96768 z"
       id="path3518"
       inkscape:connector-curvature="0" />
    <path
       style="fill:#00ffff"
       d="m 97.039565,326.38536 c -1.402939,-0.27601 -2.591734,-0.54444 -2.641761,-0.59652 -0.0501,-0.0521 0.102699,-0.65348 0.339377,-1.33643 0.236669,-0.68294 0.590917,-2.32754 0.787213,-3.65467 0.338805,-2.2906 0.474201,-2.60567 2.670371,-6.21365 1.974575,-3.24395 2.354985,-4.06707 2.596805,-5.61905 0.29488,-1.89253 0.39632,-6.75025 0.14097,-6.75025 -0.0805,0 -1.207155,0.89008 -2.503545,1.97794 -1.851427,1.55362 -2.502268,1.94973 -3.033739,1.84639 -0.37214,-0.0724 -2.005834,-0.27953 -3.630437,-0.46039 -2.181603,-0.24286 -3.408734,-0.54136 -4.693997,-1.14181 -0.957109,-0.44715 -1.904515,-0.81301 -2.105344,-0.81301 -0.344856,0 -1.727508,3.81126 -1.462589,4.03162 0.06539,0.0544 2.095173,1.58428 4.510554,3.39968 l 4.391606,3.30073 1.037477,2.3137 1.037467,2.3137 -1.455618,3.37786 c -0.800592,1.85781 -1.479872,3.40311 -1.50952,3.43396 -0.02965,0.0308 -0.676033,0.14206 -1.436422,0.24709 l -1.382539,0.19096 -0.707989,-1.22942 c -0.389404,-0.67619 -1.334925,-2.783 -2.101168,-4.68179 -0.857919,-2.12597 -1.541626,-3.45235 -1.779609,-3.45235 -0.467239,0 -0.467501,-8e-4 1.444876,5.19432 0.794869,2.15936 1.397495,3.97579 1.339203,4.03649 -0.05827,0.0607 -1.652272,-0.12077 -3.54216,-0.4033 l -3.436148,-0.51369 -1.414496,-3.5228 c -0.965402,-2.40435 -1.56647,-3.5534 -1.893153,-3.61917 -0.375086,-0.0755 -0.440011,0.0304 -0.300056,0.48959 0.09823,0.32228 0.465232,1.67075 0.815558,2.99661 0.566063,2.14239 0.586751,2.3959 0.185844,2.27825 -0.248105,-0.0728 -1.181861,-0.29198 -2.075019,-0.48703 -1.475875,-0.3223 -2.087151,-0.72879 -6.705076,-4.45879 l -5.081159,-4.10415 -2.075329,-3.94555 -2.075338,-3.94553 -0.984289,-5.91831 -0.984298,-5.91832 1.181233,-2.66402 c 0.649678,-1.46522 1.208976,-2.69291 1.242865,-2.72819 0.03387,-0.0353 1.048163,-0.24157 2.253921,-0.4584 l 2.192289,-0.39423 2.620432,4.14919 2.620404,4.1492 1.273254,0.18154 c 0.700286,0.0999 1.760431,0.24953 2.35587,0.3326 l 1.082615,0.15105 0.62397,-2.46362 0.623971,-2.46363 -0.759301,-0.63121 c -0.801624,-0.6664 -1.93588,-0.95669 -3.758178,-0.9618 -1.61295,-0.004 -4.243046,-1.18874 -4.478579,-2.01648 -0.1039,-0.36518 -0.392631,-2.13463 -0.641619,-3.93213 l -0.452705,-3.26817 -1.710742,-2.2274 -1.710752,-2.2274 1.771446,-0.19187 c 1.561845,-0.16917 2.038259,-0.0914 4.026352,0.65772 2.447919,0.92232 2.172398,0.62922 4.435299,4.71838 0.822509,1.48631 1.214699,1.97001 1.367237,1.6862 0.117626,-0.21888 0.763438,-2.39148 1.435108,-4.82798 1.050068,-3.80914 1.550052,-5.06767 3.567558,-8.97997 1.832533,-3.55363 2.552926,-5.2979 3.289775,-7.96552 0.780739,-2.82655 1.161098,-3.71706 2.205687,-5.16407 l 1.262258,-1.74855 6.901664,-0.0167 c 3.795913,-0.009 7.148645,-0.0858 7.450515,-0.17028 0.439125,-0.12286 0.618275,0.0462 0.895925,0.84577 0.19086,0.54964 2.97136,6.54935 6.17887,13.33269 l 5.83181,12.33337 -1.0907,6.34104 -1.09071,6.34105 0.43538,2.31783 c 0.3924,2.08916 0.5483,2.43326 1.58005,3.48764 l 1.14468,1.16978 1.30472,-1.93759 c 0.7176,-1.06567 2.91459,-3.64748 4.8822,-5.73732 l 3.57748,-3.79975 3.08842,1.05843 3.08842,1.05843 0.15883,1.89584 c 0.10965,1.30862 -0.0135,2.93105 -0.39763,5.23803 -0.50767,3.04914 -0.67026,3.52714 -1.8543,5.45147 l -1.29783,2.10926 -1.0563,-1.50592 c -0.58096,-0.82826 -1.46641,-2.10832 -1.96768,-2.84459 -0.50126,-0.73627 -0.99223,-1.33866 -1.09105,-1.33866 -0.57327,0 -0.40238,0.55335 0.64394,2.08507 0.64606,0.94575 1.5739,2.31185 2.06189,3.03577 l 0.88724,1.31622 -2.10097,3.40434 c -1.15552,1.87239 -2.17694,3.40026 -2.26979,3.39528 -0.0929,-0.005 -0.95721,-1.08296 -1.9208,-2.39551 -1.54326,-2.10217 -2.44316,-2.89394 -2.44316,-2.14961 0,0.13026 0.85067,1.36676 1.89036,2.74779 1.03969,1.38102 1.88838,2.63777 1.88596,2.79277 -0.0125,0.80765 -1.57879,1.71599 -10.85687,6.29651 l -10.105935,4.98922 -2.55082,-0.50182 z m -4.679364,-29.30928 c 1.536034,0.054 1.725079,-0.002 1.945084,-0.57126 0.187496,-0.48552 0.247656,-0.51734 0.260857,-0.13787 0.02252,0.64478 0.232897,0.62432 1.912593,-0.18602 1.14963,-0.55461 1.58238,-0.98086 2.35931,-2.32383 0.5233,-0.90454 1.242395,-2.00468 1.597995,-2.44472 0.3556,-0.44006 0.58437,-0.90488 0.50836,-1.03294 -0.076,-0.12807 -0.57168,-3.06335 -1.101505,-6.52285 -0.52981,-3.45951 -1.01855,-6.34754 -1.08606,-6.41785 -0.0675,-0.0703 -0.23409,-0.01 -0.37014,0.13522 -0.14972,0.15917 0.0637,2.81743 0.54048,6.73248 0.88798,7.2915 0.9857,6.59194 -1.27892,9.15645 l -1.308144,1.48138 -1.312294,-1.9999 c -0.721772,-1.09994 -1.428888,-1.92486 -1.571377,-1.83316 -0.155221,0.0999 -0.185094,1.04968 -0.0745,2.36961 l 0.18455,2.20289 -1.532609,0.1994 c -2.105062,0.27386 -6.24571,0.0366 -6.734593,-0.38585 -0.817265,-0.70627 -0.694179,-1.93405 0.379589,-3.78633 1.208291,-2.08433 0.994891,-2.77395 -0.417325,-1.34868 -0.512922,0.51764 -1.106428,1.31498 -1.318928,1.77185 l -0.386344,0.83066 -0.330539,-0.94101 c -0.623745,-1.77579 -1.018412,-4.26082 -0.821243,-5.17109 0.10785,-0.49792 0.884198,-1.77399 1.725228,-2.83568 0.841031,-1.06171 1.497098,-2.00225 1.457927,-2.0901 -1.062218,-2.38211 -2.861332,-5.63767 -3.116081,-5.63863 -0.497544,-0.002 -0.43396,0.32572 0.608978,3.13768 0.520999,1.40475 0.947285,2.70584 0.947285,2.89134 0,0.1855 -0.470458,0.81559 -1.045452,1.40024 -1.465123,1.48971 -1.740634,2.58562 -1.622689,6.45457 0.09861,3.23473 0.104847,3.26152 0.910074,3.90901 0.445923,0.35857 1.131535,0.97202 1.523593,1.36322 1.050528,1.04823 1.746161,1.41347 2.734333,1.43563 0.485816,0.0108 1.126891,0.13451 1.42461,0.2747 0.29772,0.14018 1.028489,0.16638 1.623918,0.0583 0.595439,-0.10815 1.848231,-0.16971 2.783994,-0.1368 z"
       id="path3530"
       inkscape:connector-curvature="0" />
    <path
       style="fill:#000080"
       d="m 96.748523,326.23974 c -1.116438,-0.23694 -2.070713,-0.46607 -2.120608,-0.50919 -0.04991,-0.0431 0.16252,-1.19841 0.472005,-2.56734 0.309494,-1.36891 0.691045,-3.05962 0.847889,-3.75714 0.156844,-0.69752 1.057426,-2.59983 2.001286,-4.22736 2.966885,-5.11593 2.933115,-5.01455 3.074885,-9.22974 0.0691,-2.0538 0.0324,-3.73418 -0.0815,-3.73418 -0.11393,0 -1.241235,0.82434 -2.505135,1.83186 -1.709283,1.36257 -2.514642,1.83054 -3.14365,1.82669 -1.914967,-0.0118 -6.438075,-0.8624 -8.147513,-1.53238 -1.006224,-0.39438 -1.980784,-0.71705 -2.16569,-0.71705 -0.351565,0 -1.493936,2.78767 -1.493936,3.64555 0,0.31684 1.603221,1.70061 4.448735,3.83978 l 4.448743,3.34443 0.982403,2.29578 0.982412,2.29576 -1.388647,3.21005 c -0.763767,1.76552 -1.472216,3.28871 -1.574342,3.38487 -0.102127,0.0962 -0.749543,0.25017 -1.438712,0.34224 l -1.253035,0.1674 -0.811354,-1.61044 c -0.446241,-0.88575 -1.324022,-2.84056 -1.95062,-4.34402 -1.096885,-2.63187 -1.726344,-3.60487 -2.088276,-3.22801 -0.094,0.0979 0.51947,2.1012 1.363268,4.4518 0.843817,2.35061 1.472281,4.3383 1.396594,4.41711 -0.171274,0.17835 -5.490715,-0.50764 -6.229684,-0.80337 -0.304353,-0.1218 -0.766985,-0.81475 -1.05687,-1.58303 -1.128279,-2.99028 -2.367776,-5.45286 -2.744607,-5.45286 -0.504393,0 -0.507311,-0.0305 0.281891,2.9403 0.367843,1.38467 0.61958,2.56885 0.559411,2.6315 -0.287971,0.29985 -3.204227,-0.61827 -4.334392,-1.36458 -1.494874,-0.98715 -9.116001,-7.09008 -9.536357,-7.63662 -0.15872,-0.20638 -1.161051,-2.04343 -2.227407,-4.08235 l -1.938826,-3.70711 -0.971772,-5.87491 -0.971764,-5.87491 1.205111,-2.68184 1.205111,-2.68183 1.947664,-0.34778 c 1.071215,-0.19127 2.049809,-0.34777 2.17465,-0.34777 0.160325,0 4.802663,7.06175 5.331281,8.10975 0.09082,0.18002 4.723205,0.71378 4.869813,0.56113 0.291498,-0.30353 1.233614,-4.5094 1.094596,-4.88662 -0.283468,-0.7692 -1.589175,-1.31864 -3.725039,-1.56745 -2.257966,-0.26305 -4.15839,-0.94389 -4.762404,-1.70615 -0.185835,-0.23454 -0.574498,-2.03149 -0.863707,-3.99323 l -0.525822,-3.5668 -1.646211,-2.09778 -1.64622,-2.09778 0.978434,-0.19113 c 1.366337,-0.26691 3.217372,0.0212 5.124036,0.79771 1.574783,0.64129 1.671073,0.74189 3.182554,3.32477 0.857261,1.46492 1.714392,2.6993 1.904749,2.74307 0.230608,0.0531 0.776142,-1.40477 1.63468,-4.36828 0.982478,-3.39134 1.824418,-5.55243 3.544486,-9.09796 1.311103,-2.70254 2.731481,-6.15468 3.391348,-8.24252 0.848893,-2.68584 1.437248,-4.01932 2.331485,-5.28418 l 1.196076,-1.69182 7.44352,0 c 4.628206,0 7.443531,0.10341 7.443531,0.27336 0,0.15035 2.72886,6.09862 6.06416,13.21837 l 6.06415,12.94501 -1.08352,6.15705 -1.08354,6.15706 0.41805,2.33284 c 0.42149,2.35199 0.93197,3.33364 2.29555,4.41432 0.61104,0.48428 0.64379,0.48059 1.04666,-0.11833 1.28375,-1.90845 3.91395,-5.02106 6.49551,-7.68689 l 2.93502,-3.03081 2.90487,1.01289 c 3.38621,1.18071 3.33589,1.10142 3.09253,4.87274 -0.25341,3.92727 -0.87153,6.37946 -2.15324,8.54227 -0.62591,1.05618 -1.20134,1.91392 -1.27873,1.90609 -0.0774,-0.008 -0.9338,-1.17085 -1.90313,-2.58448 -0.96933,-1.41364 -1.91323,-2.62261 -2.09756,-2.68659 -0.76442,-0.26533 -0.22582,0.99623 1.53708,3.60032 l 1.87224,2.7656 -2.03363,3.26432 c -1.1185,1.79537 -2.12214,3.26432 -2.23033,3.26432 -0.10818,0 -0.97813,-1.01457 -1.93323,-2.25459 -1.55291,-2.0162 -2.41906,-2.73294 -2.41906,-2.00177 0,0.13906 0.79166,1.37136 1.75925,2.73846 0.96759,1.36709 1.75925,2.62868 1.75925,2.80355 0,0.78904 -1.3504,1.55606 -12.39724,7.04165 -4.51117,2.24013 -8.408565,4.0588 -8.660905,4.04148 -0.25235,-0.0173 -1.37226,-0.22535 -2.488703,-0.46228 z m -2.706533,-29.3056 c 0.223289,-0.0883 0.611492,-0.13451 0.862684,-0.1026 0.6258,0.0796 2.398521,-0.90071 3.084121,-1.70538 0.31,-0.36384 1.12978,-1.52018 1.82173,-2.56964 l 1.258105,-1.90812 -1.081755,-6.52762 c -0.59496,-3.59019 -1.13261,-6.58058 -1.19476,-6.64529 -0.0621,-0.0647 -0.23131,-0.0416 -0.37591,0.0514 -0.2929,0.1885 -0.29024,0.22631 0.52175,7.41773 0.31889,2.82422 0.50298,5.45365 0.4091,5.84316 -0.15225,0.63162 -2.38851,3.54963 -2.881155,3.7595 -0.106865,0.0456 -0.764687,-0.74956 -1.46183,-1.76684 -0.715842,-1.04457 -1.393451,-1.76857 -1.556834,-1.66342 -0.186408,0.11996 -0.237457,0.97391 -0.143531,2.40094 l 0.145792,2.21476 -1.395337,0.0512 c -3.060387,0.11239 -6.010401,-0.11419 -6.605408,-0.50734 -0.810444,-0.53549 -0.768102,-1.2045 0.202986,-3.20762 0.805443,-1.66144 1.011131,-2.53642 0.596236,-2.53642 -0.283843,0 -2.072111,1.96073 -2.42907,2.66331 -0.243274,0.47881 -0.331993,0.36464 -0.688774,-0.88636 -0.225241,-0.78977 -0.488481,-2.11507 -0.584978,-2.94512 -0.188359,-1.62032 0.0019,-2.05007 2.31318,-5.21842 l 0.855489,-1.17285 -1.303184,-2.57365 c -0.716762,-1.41552 -1.464438,-2.713 -1.661504,-2.88332 -0.771198,-0.66644 -0.702031,0.2092 0.234417,2.96783 l 0.976802,2.87755 -0.934019,1.11955 c -1.50464,1.8035 -1.705056,2.55045 -1.705056,6.35481 l 0,3.42151 1.285611,1.25625 c 1.842948,1.8009 2.396683,2.14147 4.098943,2.52108 1.45484,0.32443 6.434387,0.25606 7.336159,-0.10073 z"
       id="path3534"
       inkscape:connector-curvature="0" />
    <path
       style="fill:#00ff00"
       d="m 84.543068,254.12061 c -1.0192,-2.64632 -2.341411,-5.0111 -3.335157,-5.9649 -0.617291,-0.59249 -2.859841,-1.99526 -4.983442,-3.11726 -3.055471,-1.61437 -3.831697,-2.13946 -3.720198,-2.51658 0.642669,-2.1739 1.038002,-4.93075 1.098894,-7.66308 0.06549,-2.93901 0.01436,-3.34705 -0.548622,-4.3794 -0.341469,-0.62612 -0.886646,-1.99509 -1.211509,-3.04216 -0.90817,-2.92714 -4.715483,-8.61167 -5.335437,-7.96613 -0.11029,0.11486 0.201682,0.99253 0.693296,1.95039 3.173087,6.18258 4.070608,8.30915 4.600756,10.90087 0.594453,2.90616 0.594538,2.9048 -0.651742,10.36473 -0.416978,2.49591 -0.475524,2.63172 -1.290077,2.99259 -0.469303,0.20793 -2.177024,1.29025 -3.794938,2.40516 l -2.941654,2.02709 -2.283757,-0.29087 c -1.256066,-0.15998 -3.342541,-0.60989 -4.636634,-0.9998 -1.294092,-0.38991 -2.8723,-0.84288 -3.507135,-1.00662 -1.75467,-0.45257 -3.57222,-2.19228 -8.37873,-8.0199 -3.286097,-3.9842 -4.360269,-5.46952 -4.27017,-5.90463 0.06614,-0.31975 0.504571,-3.67773 0.974127,-7.46218 l 0.853743,-6.88082 1.149943,-1.85573 c 1.267888,-2.04609 4.054115,-7.7121 4.634129,-9.42392 0.203258,-0.59987 0.552571,-2.36512 0.776245,-3.92279 0.34055,-2.37166 0.651958,-3.36313 1.915286,-6.09808 l 1.508581,-3.26594 3.272034,-2.53642 c 8.437895,-6.5409 9.651524,-7.31543 13.467469,-8.5949 1.939745,-0.65038 3.99524,-1.24794 4.567758,-1.3279 1.316151,-0.18382 7.730488,1.09507 10.986656,2.19053 1.345432,0.45264 3.097456,1.21405 3.893386,1.69204 1.527534,0.91734 1.522458,0.90043 0.818719,2.72486 -0.547336,1.41896 -0.02627,1.6558 1.340375,0.60927 1.330862,-1.01913 0.861803,-1.25867 4.790204,2.44629 1.491993,1.40715 3.014418,2.75886 3.383168,3.00381 1.06756,0.70916 3.206755,1.02353 10.125015,1.48794 11.17552,0.75019 12.81329,1.41898 19.11763,7.80676 2.38417,2.41573 3.11711,3.37592 4.40434,5.76996 0.96749,1.79938 1.63763,3.43079 1.79438,4.36827 0.2794,1.67123 -0.0526,10.67533 -0.46058,12.48746 -0.66707,2.96357 -2.08548,4.75737 -5.89926,7.46052 -4.43437,3.14301 -3.46,2.96481 -15.78719,2.88746 l -10.6523,-0.0668 -2.474385,-1.0998 c -1.36092,-0.6049 -3.446768,-1.55054 -4.635235,-2.10145 -1.188457,-0.5509 -2.259466,-0.89894 -2.38002,-0.77341 -0.269281,0.2804 1.130512,2.57096 1.571143,2.57096 0.174511,0 0.853199,0.40568 1.508178,0.90152 2.143745,1.62285 4.101724,2.56697 5.656669,2.7276 0.81873,0.0846 3.80268,0.14385 6.631,0.13172 3.85254,-0.0165 4.9727,0.0528 4.46578,0.27676 -2.14231,0.94616 -8.86735,4.2119 -9.33081,4.53114 -0.30142,0.20761 -1.26729,1.47233 -2.146385,2.81047 l -1.59834,2.43298 0.60064,2.2822 c 0.33036,1.25521 0.52194,2.36427 0.42573,2.46458 -0.0962,0.10029 -3.389654,0.22635 -7.318758,0.28013 l -7.143803,0.0978 -0.309006,-0.80233 z m -24.883844,-7.2726 c 1.126224,-0.10078 2.235063,-0.42052 3.112515,-0.89751 2.11588,-1.1502 5.796991,-3.77414 6.38301,-4.54989 0.721669,-0.95532 0.682948,-2.86383 -0.132722,-6.54182 -1.317773,-5.94208 -2.714546,-9.92232 -4.071143,-11.60108 -0.374429,-0.46334 -0.680771,-0.99992 -0.680771,-1.1924 0,-0.94233 -0.890785,-3.31802 -1.300285,-3.46781 -0.252431,-0.0923 -0.861699,-0.47812 -1.353942,-0.8573 -0.648346,-0.49943 -1.086246,-0.63943 -1.589054,-0.50802 -0.513259,0.13413 -0.790337,0.0383 -1.063559,-0.36789 -0.203212,-0.3021 -0.913096,-0.90739 -1.577504,-1.34507 -0.980893,-0.64617 -1.360632,-1.15553 -2.019533,-2.70887 -0.446316,-1.05219 -0.999009,-1.98799 -1.2282,-2.07958 -0.558576,-0.22318 -2.588354,1.04545 -3.608633,2.25544 -0.452978,0.5372 -0.889941,0.90763 -0.97106,0.82318 -0.08106,-0.0844 -0.928454,0.22699 -1.883001,0.69211 l -1.73553,0.84569 -0.128285,3.69915 c -0.12606,3.63504 -0.143586,3.72134 -1.012154,4.98072 -1.285611,1.86407 -1.364281,3.09363 -0.319599,4.99492 0.464537,0.84543 0.844605,1.74035 0.844605,1.9887 0,0.24834 0.365385,1.4093 0.811964,2.5799 0.675104,1.76964 0.811954,2.52663 0.811954,4.49148 0,2.24946 0.03697,2.39546 0.767745,3.03579 0.42227,0.36998 2.036046,1.39616 3.586163,2.28041 1.550126,0.88424 3.366485,2.10316 4.036353,2.7087 0.872152,0.78842 1.410039,1.07212 1.89457,0.99931 0.372149,-0.056 1.463893,-0.17214 2.426096,-0.25826 z m 40.772526,-35.78915 c 1.0906,-1.08811 1.23237,-1.35839 1.07166,-2.04322 -0.10187,-0.4341 -0.30748,-1.61358 -0.45691,-2.6211 -0.36247,-2.44391 -0.67006,-2.75061 -2.030315,-2.0244 -1.67225,0.89277 -2.177977,1.6629 -2.380897,3.62565 -0.264844,2.56162 0.561477,4.2809 2.070727,4.30848 0.25789,0.005 1.03447,-0.55572 1.725735,-1.24541 z"
       id="path3536"
       inkscape:connector-curvature="0" />
    <path
       style="fill:#b3b3b3"
       d="m 96.480555,326.06223 c -0.957521,-0.21019 -1.514896,-0.48292 -1.567437,-0.76693 -0.134308,-0.72627 1.238465,-6.36086 1.863796,-7.64998 0.319721,-0.65913 1.244581,-2.36063 2.055221,-3.78114 0.81065,-1.4205 1.647815,-3.18444 1.860375,-3.91988 0.51263,-1.77365 0.54545,-7.85334 0.0413,-7.65189 -0.18985,0.0759 -1.298795,0.85035 -2.464325,1.72109 -1.16554,0.87076 -2.319498,1.6009 -2.564358,1.62257 -1.760177,0.15575 -6.169863,-0.59052 -8.56982,-1.45031 -0.862581,-0.30901 -1.777835,-0.56185 -2.033925,-0.56185 -0.487579,0 -1.614873,2.31126 -1.614873,3.31095 0,0.73066 1.042074,1.7057 5.192479,4.8585 l 3.574735,2.71551 0.986268,2.23997 0.986278,2.23999 -1.391763,3.21135 c -1.480556,3.41624 -1.853203,3.8014 -3.512999,3.63073 -0.763654,-0.0785 -0.918762,-0.31918 -2.464957,-3.82465 -1.70789,-3.87205 -2.617383,-5.42528 -2.97073,-5.07337 -0.157754,0.15708 1.392381,5.29797 2.522687,8.36627 0.122111,0.33146 -0.232081,0.36664 -2.132083,0.21174 -4.088594,-0.33335 -3.972394,-0.24944 -5.718339,-4.129 -1.003278,-2.22933 -1.669441,-3.38495 -1.951286,-3.38495 -0.55684,0 -0.539876,0.43196 0.113376,2.8866 0.631702,2.37368 0.662035,2.76726 0.202986,2.63395 -2.874026,-0.83468 -3.748936,-1.3311 -7.405615,-4.202 -5.608932,-4.40362 -6.015918,-4.85436 -8.188457,-9.06872 l -1.888668,-3.66371 -0.94205,-5.77008 -0.94204,-5.77011 1.152664,-2.56844 c 0.633962,-1.41264 1.354439,-2.64907 1.601044,-2.74761 0.246623,-0.0985 1.208066,-0.25624 2.136567,-0.35044 l 1.688187,-0.1713 2.561436,3.9782 c 2.832022,4.3984 2.744945,4.33307 5.815061,4.36304 l 1.880815,0.0183 0.46921,-1.83186 c 0.702453,-2.74254 0.65602,-3.28642 -0.325688,-3.81503 -0.457191,-0.24618 -1.888265,-0.63739 -3.180172,-0.86933 -2.777716,-0.49871 -4.126705,-1.11402 -4.55892,-2.07941 -0.173479,-0.38751 -0.5497,-2.18563 -0.836048,-3.99583 -0.514169,-3.2504 -0.5374,-3.31162 -1.871123,-4.93192 -2.099029,-2.55004 -2.122297,-2.4393 0.48089,-2.28859 1.563778,0.0905 2.723365,0.33681 3.72336,0.79075 1.319322,0.59888 1.601213,0.90101 3.078542,3.29962 0.894444,1.4522 1.763321,2.59476 1.93087,2.53901 0.167549,-0.0558 0.975356,-2.1219 1.795136,-4.59144 0.819779,-2.46954 2.357127,-6.39239 3.416324,-8.71744 1.838988,-4.03677 2.34157,-5.28066 4.018414,-9.94548 0.40617,-1.12993 1.223238,-2.8103 1.815721,-3.73418 l 1.077239,-1.67977 4.781713,0.002 c 2.629936,5.5e-4 5.945522,0.0817 7.367972,0.17982 l 2.586285,0.17836 2.73376,5.94987 c 1.50357,3.27241 4.22888,9.15063 6.05623,13.0627 l 3.32245,7.11286 -1.08481,6.13289 c -1.03369,5.844 -1.06856,6.22234 -0.73998,8.03211 0.18965,1.04457 0.5484,2.34596 0.79723,2.89197 0.423,0.92821 1.80354,2.39532 2.25397,2.39532 0.11041,0 0.94758,-0.98286 1.86037,-2.18413 0.91279,-1.20128 3.12373,-3.70041 4.91319,-5.55364 l 3.25358,-3.36949 1.96993,0.65612 c 2.65722,0.88501 3.43561,1.33331 3.73398,2.15046 0.34661,0.94928 -0.15283,6.14927 -0.79788,8.30738 -0.51971,1.73872 -2.15498,4.85185 -2.4777,4.71689 -0.0966,-0.0405 -0.95312,-1.14416 -1.90329,-2.4528 -0.95017,-1.3086 -1.87983,-2.42885 -2.06591,-2.48944 -0.74908,-0.24387 -0.24745,1.01585 1.45442,3.65242 l 1.79273,2.77735 -1.96504,3.09458 c -1.08077,1.70202 -2.05379,3.09457 -2.16229,3.09457 -0.10851,0 -0.95286,-0.95116 -1.87635,-2.11368 -1.52252,-1.9166 -2.45355,-2.60609 -2.45355,-1.81701 0,0.16316 0.75801,1.43564 1.68446,2.82772 1.34821,2.0258 1.62909,2.62762 1.40713,3.01477 -0.6467,1.12796 -19.50668,10.51096 -21.018435,10.45684 -0.48596,-0.0174 -1.55222,-0.17841 -2.369478,-0.35782 z m -2.787934,-28.95402 c 1.37068,-0.20513 2.495741,-0.56533 3.214801,-1.02923 1.177503,-0.75966 4.171558,-4.85059 4.171558,-5.69982 0,-0.51116 -1.778845,-11.11844 -2.060605,-12.28737 -0.20703,-0.85891 -0.91807,-0.89276 -0.9122,-0.0434 0.003,0.34875 0.24579,2.79006 0.54088,5.42512 0.79514,7.1007 0.78107,7.28492 -0.70453,9.22975 -0.68083,0.89126 -1.330233,1.62048 -1.443149,1.62048 -0.112916,0 -0.772793,-0.76092 -1.466389,-1.69095 -0.693597,-0.93001 -1.383009,-1.69095 -1.532028,-1.69095 -0.159912,0 -0.270924,0.9982 -0.270924,2.43602 l 0,2.43599 -3.474034,-0.14671 c -1.910717,-0.0807 -3.737621,-0.29361 -4.0598,-0.47315 -0.770607,-0.42944 -0.746335,-1.30061 0.08819,-3.16731 1.325505,-2.96484 0.548622,-3.32793 -1.467721,-0.68598 l -0.796042,1.04305 -0.297279,-1.07324 c -0.163496,-0.59027 -0.367392,-1.89757 -0.453081,-2.90509 l -0.155821,-1.83184 1.518639,-2.15763 c 0.835242,-1.1867 1.51863,-2.31727 1.51863,-2.51239 0,-0.43084 -2.068433,-4.43449 -2.646937,-5.12338 -0.227774,-0.27126 -0.517068,-0.49319 -0.642857,-0.49319 -0.40038,0 -0.250704,0.85277 0.605366,3.44894 l 0.834068,2.52945 -0.849024,1.10011 c -1.416156,1.83496 -1.631067,2.69834 -1.631067,6.55264 l 0,3.50357 1.538492,1.46413 c 0.846162,0.80527 1.85097,1.58949 2.232886,1.74269 1.99299,0.79945 5.249674,0.98111 8.599956,0.4797 z"
       id="path3538"
       inkscape:connector-curvature="0" />
    <path
       style="fill:url(#linearGradient3548);fill-opacity:1"
       d="m 83.923188,252.48932 c -1.692568,-3.9132 -2.847418,-4.96305 -9.323425,-8.47571 -1.821791,-0.98815 -1.972359,-1.1366 -1.830442,-1.80433 0.573316,-2.69755 0.992048,-6.69723 0.902278,-8.6187 -0.08913,-1.90711 -0.2965,-2.72243 -1.345704,-5.29001 -0.682197,-1.66948 -1.790586,-3.95226 -2.463082,-5.07284 -1.288134,-2.14643 -3.019611,-4.1061 -3.336452,-3.77617 -0.103262,0.10752 0.862328,2.44505 2.145762,5.19449 3.521322,7.54354 3.793606,8.92212 2.907803,14.72192 -0.865405,5.66623 -0.917149,5.81782 -2.222735,6.51136 -0.614447,0.32641 -2.28446,1.39662 -3.711097,2.37823 l -2.593927,1.78476 -2.435872,-0.3943 c -2.448032,-0.39627 -4.181433,-0.82213 -7.448803,-1.83001 -1.336838,-0.41237 -2.144955,-0.89703 -3.330804,-1.99756 -1.645751,-1.52739 -7.904924,-8.95799 -9.036862,-10.72814 l -0.661631,-1.03469 0.939413,-7.27913 0.939395,-7.27913 1.405357,-2.3955 c 2.918198,-4.97423 4.273248,-8.27899 5.026703,-12.25936 0.559815,-2.95746 0.968968,-4.26276 2.122522,-6.77131 l 1.429011,-3.1076 4.504005,-3.45943 c 6.862221,-5.27075 8.664703,-6.36261 12.72333,-7.7073 3.238811,-1.07307 3.639576,-1.14365 5.559009,-0.97893 5.037183,0.4323 13.434397,3.03984 14.258004,4.42746 0.10101,0.1702 0.03096,0.87706 -0.155503,1.57081 -0.458992,1.70704 -0.107146,2.01493 1.226052,1.07286 1.305061,-0.9222 1.424826,-0.86658 4.60313,2.13801 4.293362,4.05869 4.076622,3.978 12.450047,4.63508 11.9746,0.93966 13.69483,1.51519 18.73841,6.26915 3.12428,2.94487 4.9588,5.31391 6.48684,8.37685 1.20954,2.42451 1.27888,2.6872 1.38047,5.23005 0.0588,1.47254 -0.0251,4.51625 -0.18664,6.76379 -0.26171,3.6427 -0.38308,4.27573 -1.11754,5.82948 -0.9507,2.01119 -2.39258,3.4627 -5.82999,5.86896 -3.33172,2.33228 -3.64041,2.37982 -15.49705,2.3869 l -9.82885,0.006 -4.380459,-1.93278 c -5.356519,-2.36343 -5.273008,-2.33299 -5.473432,-1.99532 -0.551455,0.92911 2.746258,3.72206 6.517336,5.51977 1.49784,0.71405 1.81311,0.75213 7.322425,0.88456 l 5.75719,0.13839 -3.70359,1.81876 c -2.03699,1.00032 -4.06898,1.98623 -4.51557,2.1909 -0.98781,0.45271 -1.55676,1.09236 -3.301475,3.7117 l -1.34692,2.02217 0.55757,2.25986 c 0.30667,1.24291 0.5,2.31339 0.42963,2.37884 -0.0704,0.0654 -3.296957,0.20583 -7.170208,0.31197 l -7.042258,0.19296 -1.041371,-2.40766 z m -22.494939,-5.94666 c 1.566958,-0.44952 6.778127,-3.88662 7.657353,-5.05052 0.808924,-1.07081 0.785336,-3.01647 -0.08557,-7.05983 -1.076216,-4.99654 -2.431097,-8.8581 -3.904504,-11.12832 -0.452715,-0.69751 -0.823617,-1.48758 -0.824255,-1.7557 -5.25e-4,-0.26812 -0.194805,-0.99144 -0.431492,-1.60739 -0.497506,-1.29471 -2.537108,-2.83704 -3.751741,-2.83704 -1.147213,0 -3.786259,-2.52228 -4.77674,-4.5654 -0.442761,-0.91331 -0.971323,-1.72699 -1.1746,-1.80822 -0.542438,-0.21674 -2.313874,0.81986 -3.384686,1.98065 -0.512997,0.55609 -1.083488,1.01108 -1.267766,1.01108 -0.184278,0 -1.056945,0.326 -1.939267,0.72444 l -1.604225,0.72445 -0.258435,3.85519 c -0.243593,3.63354 -0.307993,3.93534 -1.120154,5.24904 -1.013618,1.63957 -1.095535,2.80146 -0.31048,4.40381 1.244301,2.5397 2.450125,6.85624 2.615019,9.36105 0.193707,2.94253 0.06858,2.7932 4.8788,5.82428 1.752888,1.10458 3.606006,2.32385 4.118036,2.70951 0.830222,0.62533 1.108473,0.68259 2.571203,0.52917 0.902138,-0.0946 2.249212,-0.34674 2.993501,-0.56025 z m 39.044361,-35.46619 1.25671,-1.23638 -0.44465,-2.61214 c -0.24456,-1.43667 -0.61722,-2.79183 -0.82814,-3.01145 -0.902665,-0.93994 -3.50974,1.21373 -3.86654,3.1941 -0.271299,1.50585 0.08228,3.5132 0.749015,4.2522 0.87787,0.973 1.70617,0.81802 3.133605,-0.58633 z"
       id="path3540"
       inkscape:connector-curvature="0" />
    <path
       style="fill:url(#linearGradient3558);fill-opacity:1"
       d="m 96.883853,326.04639 c -0.148859,-0.06 -0.60559,-0.18598 -1.01495,-0.27999 -0.601049,-0.13803 -0.744298,-0.32668 -0.744298,-0.98018 0,-1.44776 1.36551,-6.32761 2.21526,-7.91657 0.45591,-0.85251 1.45259,-2.75483 2.21483,-4.22736 l 1.385885,-2.67733 0.0971,-3.62062 c 0.0534,-1.99134 -0.0125,-3.73471 -0.14643,-3.87415 -0.14421,-0.15016 -1.270865,0.45243 -2.763295,1.47796 l -2.519802,1.73149 -2.47465,-0.31746 c -1.361054,-0.17461 -3.388092,-0.57909 -4.50454,-0.89884 -1.116448,-0.31975 -2.469133,-0.65368 -3.005979,-0.74208 -0.937781,-0.1544 -0.99885,-0.11173 -1.556263,1.08724 -0.319092,0.68638 -0.580174,1.56198 -0.580174,1.94578 0,0.9068 1.41566,2.3057 5.502912,5.4378 3.14556,2.41046 3.219099,2.49223 4.145742,4.60952 l 0.943363,2.15553 -1.016179,2.37471 c -1.542799,3.60533 -1.939877,4.11736 -3.271817,4.21909 l -1.12128,0.0856 -1.741206,-3.74936 c -1.768894,-3.80898 -2.697855,-5.32005 -3.047581,-4.95729 -0.106677,0.11065 0.364465,2.0124 1.046981,4.22613 0.682507,2.21371 1.155132,4.1023 1.050266,4.19685 -0.34785,0.31368 -4.660437,-0.24824 -5.310856,-0.69201 -0.353648,-0.24128 -1.279363,-1.77732 -2.07183,-3.43777 -1.335121,-2.79745 -1.912086,-3.56316 -2.345108,-3.11227 -0.09694,0.10094 -0.01238,0.97265 0.187862,1.93713 0.716142,3.44898 0.720815,3.35679 -0.158571,3.13916 -1.618936,-0.40067 -3.596792,-1.59973 -7.001998,-4.24496 -4.796405,-3.72591 -5.87265,-4.95305 -8.017051,-9.1411 l -1.792012,-3.49984 -0.890785,-5.63649 -0.890784,-5.63648 1.139857,-2.4782 c 1.241448,-2.69909 1.429263,-2.85281 3.762822,-3.07951 l 1.431646,-0.13909 2.173365,3.31249 c 3.041069,4.63503 3.358716,4.89686 6.088311,5.01841 l 2.193425,0.0977 0.445453,-1.84654 c 0.907354,-3.7613 0.722457,-4.02782 -3.437894,-4.95526 -2.903946,-0.64737 -4.078386,-1.15545 -4.480868,-1.93853 -0.143353,-0.27893 -0.523477,-1.958 -0.84469,-3.73126 -0.61561,-3.3983 -0.800601,-3.84237 -2.478834,-5.95024 -0.576712,-0.72436 -0.941205,-1.38612 -0.809993,-1.47056 0.45294,-0.29148 4.277497,0.31933 5.486586,0.87624 0.997865,0.45963 1.513066,1.01528 2.908826,3.13725 0.932892,1.41829 1.809641,2.5787 1.94833,2.5787 0.295993,0 0.634394,-0.81025 2.47175,-5.9183 0.752677,-2.09255 2.208727,-5.74072 3.235649,-8.10703 1.026922,-2.36634 2.427391,-5.7905 3.112149,-7.60926 0.684768,-1.81877 1.748788,-4.17609 2.364492,-5.23849 l 1.119451,-1.93164 6.360361,0.17929 c 8.858121,0.24971 8.123741,0.0404 9.283431,2.64569 0.53017,1.19108 3.21977,7.02628 5.97688,12.96712 l 5.01292,10.80153 -0.9308,5.26246 c -1.02857,5.81517 -1.148,8.22847 -0.51675,10.44185 0.4256,1.49227 2.0357,3.69806 2.6994,3.69806 0.19312,0 1.14436,-0.98286 2.11386,-2.18413 0.9695,-1.20129 3.20276,-3.6713 4.96278,-5.48894 l 3.20005,-3.3048 2.25229,0.81344 c 2.98864,1.07939 3.29637,1.39447 3.29507,3.37388 -0.002,3.03165 -0.71873,6.45509 -1.87833,8.97149 -0.60224,1.30692 -1.19864,2.33371 -1.32532,2.28178 -0.12668,-0.052 -1.01035,-1.10047 -1.96367,-2.33008 -0.95331,-1.2296 -1.88555,-2.28644 -2.07163,-2.34853 -0.75214,-0.25099 -0.25463,1.13236 1.2856,3.57485 0.89316,1.41634 1.62392,2.69948 1.62392,2.85143 0,0.35828 -3.5463,5.90806 -3.77525,5.90806 -0.0958,0 -0.93753,-0.88775 -1.87047,-1.97278 -1.59114,-1.85052 -2.48036,-2.43417 -2.46892,-1.62047 0.003,0.19375 0.67259,1.4159 1.48859,2.71592 0.816,1.3 1.48365,2.5309 1.48365,2.73535 0,0.51513 -3.04767,2.31916 -8.82329,5.22281 -7.81124,3.92707 -10.59996,5.11035 -12.287685,5.21379 -0.81872,0.0502 -1.61039,0.0422 -1.759242,-0.0178 l 0,-2e-5 z m -1.218949,-29.30511 c 1.451541,-0.55915 2.601571,-1.65444 4.258151,-4.05543 1.221435,-1.77034 1.226395,-1.78706 1.046565,-3.52282 -0.0994,-0.9592 -0.57215,-3.96207 -1.050605,-6.67304 -0.71245,-4.0367 -0.95569,-4.94605 -1.34359,-5.02305 -0.60638,-0.12037 -0.61954,1.02061 -0.0676,5.86563 0.2207,1.93754 0.40234,4.49427 0.40363,5.68164 0.002,2.09666 -0.029,2.20013 -1.08655,3.59325 -0.5989,0.78894 -1.184651,1.43443 -1.301658,1.43443 -0.117007,0 -0.79106,-0.69752 -1.497895,-1.55004 -0.706845,-0.85251 -1.399944,-1.55003 -1.540219,-1.55003 -0.140275,0 -0.255048,1.08646 -0.255048,2.41436 l 0,2.41435 -2.909539,-0.1911 c -4.385085,-0.28802 -4.78812,-0.40539 -4.884936,-1.4227 -0.04438,-0.46726 0.168675,-1.45568 0.473647,-2.19651 1.095769,-2.66184 0.464311,-3.22693 -1.288679,-1.15323 l -1.077221,1.2743 -0.280868,-1.34476 c -0.761056,-3.64374 -0.727195,-3.87648 0.902127,-6.19961 0.817941,-1.16626 1.487171,-2.37904 1.487171,-2.69508 0,-0.75467 -2.401533,-5.19903 -2.921613,-5.40684 -0.840927,-0.33601 -0.807545,-0.0318 0.528027,4.81236 0.304165,1.10317 0.279461,1.20656 -0.542692,2.27184 -1.18887,1.54046 -1.394183,2.51122 -1.394183,6.59199 l 0,3.54137 1.538127,1.38273 c 2.315019,2.08114 3.522775,2.42974 7.93475,2.29027 2.500075,-0.079 4.03808,-0.26352 4.87075,-0.58428 z"
       id="path3556"
       inkscape:connector-curvature="0" />
  </g>
  </g>
</svg>
