<?xml version="1.0" encoding="UTF-8" standalone="no"?>
<!-- Created with Inkscape (http://www.inkscape.org/) -->

<svg
   xmlns:osb="http://www.openswatchbook.org/uri/2009/osb"
   xmlns:dc="http://purl.org/dc/elements/1.1/"
   xmlns:cc="http://creativecommons.org/ns#"
   xmlns:rdf="http://www.w3.org/1999/02/22-rdf-syntax-ns#"
   xmlns:svg="http://www.w3.org/2000/svg"
   xmlns="http://www.w3.org/2000/svg"
   xmlns:xlink="http://www.w3.org/1999/xlink"
   xmlns:sodipodi="http://sodipodi.sourceforge.net/DTD/sodipodi-0.dtd"
   xmlns:inkscape="http://www.inkscape.org/namespaces/inkscape"
   width="480"
   height="600"
   viewBox="0 0 480 600"
   id="svg2"
   version="1.1"
   inkscape:version="0.91 r13725"
   sodipodi:docname="Santa.svg"
   enable-background="new">
  <defs
     id="defs4">
    <inkscape:path-effect
       is_visible="true"
       id="path-effect53778"
       effect="spiro" />
    <inkscape:path-effect
       is_visible="true"
       id="path-effect53774"
       effect="spiro" />
    <inkscape:path-effect
       is_visible="true"
       id="path-effect53770"
       effect="spiro" />
    <inkscape:path-effect
       is_visible="true"
       id="path-effect53766"
       effect="spiro" />
    <inkscape:path-effect
       is_visible="true"
       id="path-effect53762"
       effect="spiro" />
    <inkscape:path-effect
       is_visible="true"
       id="path-effect53758"
       effect="spiro" />
    <inkscape:path-effect
       is_visible="true"
       id="path-effect53754"
       effect="spiro" />
    <inkscape:path-effect
       is_visible="true"
       id="path-effect53750"
       effect="spiro" />
    <inkscape:path-effect
       is_visible="true"
       id="path-effect53746"
       effect="spiro" />
    <inkscape:path-effect
       is_visible="true"
       id="path-effect53742"
       effect="spiro" />
    <inkscape:path-effect
       is_visible="true"
       id="path-effect53738"
       effect="spiro" />
    <inkscape:path-effect
       is_visible="true"
       id="path-effect53734"
       effect="spiro" />
    <inkscape:path-effect
       is_visible="true"
       id="path-effect53730"
       effect="spiro" />
    <linearGradient
       id="linearGradient7279">
      <stop
         id="stop7281"
         style="stop-color:#ffffff"
         offset="0" />
      <stop
         id="stop7283"
         style="stop-color:#ff0000;stop-opacity:1"
         offset="1" />
    </linearGradient>
    <inkscape:path-effect
       effect="spiro"
       id="path-effect7311"
       is_visible="true" />
    <inkscape:path-effect
       effect="spiro"
       id="path-effect7147"
       is_visible="true" />
    <inkscape:path-effect
       effect="spiro"
       id="path-effect18731"
       is_visible="true" />
    <inkscape:path-effect
       effect="spiro"
       id="path-effect18367"
       is_visible="true" />
    <inkscape:path-effect
       effect="spiro"
       id="path-effect18115"
       is_visible="true" />
    <linearGradient
       id="linearGradient4105">
      <stop
         id="stop10732"
         style="stop-color:#ffffff"
         offset="0" />
      <stop
         id="stop10734"
         style="stop-color:#a3bcdf"
         offset="1" />
    </linearGradient>
    <linearGradient
       id="linearGradient8147"
       osb:paint="solid">
      <stop
         style="stop-color:#ffd80c;stop-opacity:1;"
         offset="0"
         id="stop8149" />
    </linearGradient>
    <pattern
       y="0"
       x="0"
       height="6"
       width="6"
       patternUnits="userSpaceOnUse"
       id="EMFhbasepattern" />
    <pattern
       y="0"
       x="0"
       height="6"
       width="6"
       patternUnits="userSpaceOnUse"
       id="EMFhbasepattern-1" />
    <pattern
       y="0"
       x="0"
       height="6"
       width="6"
       patternUnits="userSpaceOnUse"
       id="EMFhbasepattern-2" />
    <filter
       inkscape:label="In and Out"
       inkscape:menu="Shadows and Glows"
       inkscape:menu-tooltip="Inner colorized shadow, outer black shadow"
       style="color-interpolation-filters:sRGB;"
       id="filter5144">
      <feGaussianBlur
         result="result0"
         in="SourceAlpha"
         stdDeviation="4"
         id="feGaussianBlur5146" />
      <feOffset
         dx="5"
         dy="5"
         result="result4"
         id="feOffset5148" />
      <feComposite
         in="SourceGraphic"
         in2="result4"
         operator="xor"
         result="result3"
         id="feComposite5150" />
    </filter>
    <linearGradient
       id="linearGradient10736">
      <stop
         offset="0"
         style="stop-color:#ffffff"
         id="stop4107" />
      <stop
         offset="1"
         style="stop-color:#d3ebf2;stop-opacity:1"
         id="stop4109" />
    </linearGradient>
  </defs>
  <sodipodi:namedview
     id="base"
     pagecolor="#ffffff"
     bordercolor="#666666"
     borderopacity="1.0"
     inkscape:pageopacity="0.0"
     inkscape:pageshadow="2"
     inkscape:zoom="0.45254834"
     inkscape:cx="-24.800011"
     inkscape:cy="376.7889"
     inkscape:document-units="px"
     inkscape:current-layer="layer23"
     showgrid="false"
     inkscape:window-width="1301"
     inkscape:window-height="744"
     inkscape:window-x="65"
     inkscape:window-y="24"
     inkscape:window-maximized="1"
     units="px"
     inkscape:snap-smooth-nodes="false"
     inkscape:object-nodes="false"
     inkscape:snap-others="false"
     inkscape:object-paths="false"
     inkscape:snap-intersection-paths="false"
     inkscape:snap-nodes="false"
     inkscape:snap-object-midpoints="true"
     inkscape:snap-global="false" />
  <metadata
     id="metadata7">
    <rdf:RDF>
      <cc:Work
         rdf:about="">
        <dc:format>image/svg+xml</dc:format>
        <dc:type
           rdf:resource="http://purl.org/dc/dcmitype/StillImage" />
        <dc:title></dc:title>
        <cc:license
           rdf:resource="http://creativecommons.org/licenses/by/3.0/" />
        <dc:creator>
          <cc:Agent>
            <dc:title>Nicco Kunzmann</dc:title>
          </cc:Agent>
        </dc:creator>
        <dc:contributor>
          <cc:Agent>
            <dc:title>Nicco Kunzmann, </dc:title>
          </cc:Agent>
        </dc:contributor>
      </cc:Work>
      <cc:License
         rdf:about="http://creativecommons.org/licenses/by/3.0/">
        <cc:permits
           rdf:resource="http://creativecommons.org/ns#Reproduction" />
        <cc:permits
           rdf:resource="http://creativecommons.org/ns#Distribution" />
        <cc:requires
           rdf:resource="http://creativecommons.org/ns#Notice" />
        <cc:requires
           rdf:resource="http://creativecommons.org/ns#Attribution" />
        <cc:permits
           rdf:resource="http://creativecommons.org/ns#DerivativeWorks" />
      </cc:License>
    </rdf:RDF>
  </metadata>
  <g
     inkscape:groupmode="layer"
     id="layer23"
     inkscape:label="Santa"
     onclick="characterChange('Flappyfish');">
    <g
       id="g7269"
       transform="translate(0,19.586446)">
      <path
         inkscape:connector-curvature="0"
         id="path7139"
         d="m 125.42225,267.46849 c -0.43199,-0.18817 -1.28259,-0.90693 -1.89024,-1.59725 -1.14205,-1.29744 -4.05192,-6.85376 -4.30711,-8.22433 -0.21108,-1.13361 0.49841,-1.86944 3.15203,-3.26906 4.00619,-2.11302 5.51196,-3.90262 5.50023,-6.53703 -0.007,-1.47438 -0.51041,-2.68791 -2.38555,-5.74563 -1.2003,-1.95729 -1.34539,-2.34923 -1.34299,-3.62794 0.003,-1.6042 0.41503,-2.59903 1.86654,-4.50677 1.47541,-1.93914 1.64531,-1.85775 1.44915,0.69423 -0.097,1.26205 -0.0665,2.23845 0.0725,2.32439 0.13189,0.0815 0.93053,-0.19035 1.77477,-0.60414 2.10537,-1.03189 4.59611,-1.26775 13.51879,-1.28013 8.86778,-0.0123 14.82989,-0.33727 16.75157,-0.91304 2.88861,-0.86548 4.71572,-2.93406 5.77404,-6.53712 0.79832,-2.71792 0.43584,-3.82113 -1.43963,-4.38146 -0.61212,-0.18288 -1.51886,-0.53964 -2.01496,-0.79279 -1.04533,-0.5334 -3.35032,-2.5035 -3.35032,-2.86354 0,-0.14614 1.39664,-0.21523 3.46472,-0.17138 2.52146,0.0534 3.55334,-0.0147 3.79027,-0.25053 0.53799,-0.5354 -0.078,-0.90438 -5.61646,-3.36413 -8.54576,-3.79538 -12.06973,-6.15773 -13.23851,-8.87464 -0.66383,-1.54311 -0.60839,-3.18887 0.1715,-5.09082 l 0.47554,-1.15972 0.13947,2.72041 c 0.12038,2.34792 0.23526,2.88386 0.83903,3.91411 0.38475,0.65653 1.19836,1.60243 1.80802,2.102 2.11556,1.73354 6.25783,3.26884 6.73525,2.49636 0.10007,-0.16192 -0.25146,-1.07395 -0.78118,-2.02675 -0.52972,-0.9528 -1.13749,-2.07246 -1.35061,-2.48814 -0.56728,-1.10646 -0.67727,-2.95958 -0.23816,-4.01283 l 0.3757,-0.90115 0.56335,1.93287 c 0.94551,3.24406 1.342,4.18334 2.52623,5.98462 1.27333,1.9368 2.75869,3.33746 4.395,4.14439 1.564,0.77127 1.72058,0.44063 0.94618,-1.99795 -0.69403,-2.18552 -0.72666,-3.10559 -0.11014,-3.10559 0.36298,0 0.67202,0.65544 1.92661,4.08613 0.5613,1.53487 1.69531,2.86549 3.01655,3.53953 0.80445,0.4104 1.43232,0.49642 3.26539,0.44734 l 2.26945,-0.0608 2.66511,1.52221 c 1.47111,0.84025 3.54064,1.77445 4.61936,2.08523 1.25,0.36012 1.98343,0.70853 2.03522,0.96681 0.12152,0.60595 -1.87486,2.62553 -3.22073,3.25817 -0.65618,0.30844 -1.96781,0.62201 -2.94419,0.70387 -2.86564,0.24025 -3.78933,1.1625 -4.38616,4.37938 -0.31019,1.67191 -0.17086,3.62241 0.56338,7.88671 0.54812,3.18335 0.63018,5.49844 0.24415,6.88799 -0.64405,2.31827 -2.65113,4.2999 -5.37775,5.30953 -0.65769,0.24353 -1.2473,0.48336 -1.31023,0.53296 -0.0629,0.0496 0.58884,0.81184 1.4484,1.69386 3.12694,3.20867 3.55318,4.55149 2.12781,6.70341 -1.67397,2.52723 -7.20797,6.96069 -7.86654,6.30213 -0.10065,-0.10065 0.46056,-1.02565 1.24714,-2.05554 1.85446,-2.42811 2.5703,-3.83882 2.69703,-5.31506 0.13552,-1.57861 -0.42843,-2.45397 -2.67968,-4.15938 -3.31437,-2.51076 -5.68271,-3.35376 -12.32272,-4.38619 -2.08331,-0.32394 -5.15672,-1.04056 -7.27278,-1.6958 -2.01562,-0.62414 -3.8975,-1.1348 -4.18195,-1.1348 -0.78347,0 -1.24057,0.93224 -1.7856,3.64163 -0.57717,2.86914 -1.21117,4.2381 -2.61112,5.63805 -1.81717,1.81717 -3.82879,2.56099 -8.30879,3.07229 -3.02647,0.3454 -3.28796,0.50678 -3.28089,2.02478 0.007,1.40273 0.64198,2.94343 1.94752,4.72192 0.50505,0.68803 0.84522,1.36917 0.75592,1.51366 -0.20476,0.3313 -0.33807,0.32112 -1.30393,-0.0996 z"
         style="fill:#501616;fill-opacity:1;fill-rule:nonzero;stroke:#ffffff;stroke-width:0.25771639;stroke-opacity:1" />
      <path
         inkscape:connector-curvature="0"
         id="path7141"
         d="m 134.12882,267.14667 c -1.13351,-0.55874 -2.73727,-2.19842 -3.29044,-3.36414 -0.64964,-1.36901 -0.21311,-1.96878 2.70358,-3.71456 3.929,-2.3517 5.298,-3.97366 6.04056,-7.15676 0.19689,-0.84399 0.43519,-1.65945 0.52955,-1.81213 0.29983,-0.48514 1.33132,-0.30173 2.88542,0.51304 1.87539,0.98323 2.92548,1.96236 2.92548,2.72779 0,1.37844 -3.5077,4.02406 -8.03127,6.05745 -1.32343,0.5949 -2.79471,1.36577 -3.2695,1.71306 -0.74907,0.54791 -0.84224,0.73649 -0.70438,1.42579 0.0874,0.4369 0.6788,1.45614 1.31426,2.26498 0.63546,0.80884 1.15538,1.5384 1.15538,1.62125 0,0.3033 -1.44076,0.12739 -2.25864,-0.27577 z"
         style="fill:#501616;fill-opacity:1;fill-rule:nonzero;stroke:#ffffff;stroke-width:0.25771639;stroke-opacity:1" />
      <path
         inkscape:connector-curvature="0"
         id="path7143"
         d="m 93.348826,274.35245 c -2.641276,-0.15581 -8.575832,-0.87815 -17.715288,-2.15629 -15.789312,-2.20811 -21.845469,-2.67956 -39.497751,-3.07473 -13.013804,-0.29133 -13.883201,-0.39465 -11.661666,-1.38587 4.072539,-1.8171 17.664745,-3.77053 26.235789,-3.77053 l 4.280128,0 -0.178546,-0.81291 c -0.442409,-2.01428 -1.089203,-3.44982 -1.689543,-3.74991 -0.341644,-0.17077 -3.038218,-1.4383 -5.992387,-2.81673 -6.19066,-2.88859 -7.404941,-3.78421 -8.530207,-6.29163 -0.865936,-1.92956 -0.946115,-4.44994 -0.261966,-8.23471 0.845873,-4.67945 0.517967,-7.31027 -1.182003,-9.48332 -0.810676,-1.03628 -2.541278,-2.11392 -3.39477,-2.11392 -1.539444,0 -2.193117,0.7896 -2.773578,3.35031 -0.467605,2.06285 -0.861694,2.57717 -1.974712,2.57717 -0.728445,0 -1.13488,-0.2085 -1.902165,-0.97578 -1.185915,-1.18592 -1.652117,-2.66356 -1.314478,-4.16629 0.551907,-2.45635 1.741468,-3.22777 4.92806,-3.19579 2.808356,0.0282 5.383445,0.61457 15.7207,3.57984 12.79851,3.67128 17.50752,4.75496 24.611915,5.66392 3.931814,0.50304 10.500325,0.56412 13.41202,0.1247 4.43726,-0.66964 8.911462,-2.57862 11.544929,-4.92579 1.62918,-1.45206 3.194418,-3.55766 4.671793,-6.28461 1.71518,-3.16587 3.57599,-4.52299 6.17618,-4.50438 1.2126,0.009 2.83308,0.86515 3.64098,1.92436 1.03408,1.35574 1.18234,3.50073 0.32878,4.75667 -0.98225,1.44532 -2.07868,1.92501 -4.80877,2.10384 -2.62708,0.17209 -3.60925,0.62342 -3.92486,1.80355 -0.28723,1.07399 0.25445,4.03107 1.21629,6.63983 2.49002,6.7536 2.65856,7.33412 2.66093,9.16508 0.003,2.19369 -0.61635,3.61661 -2.14652,4.93284 -1.40852,1.2116 -3.77808,2.5274 -6.085843,3.37943 l -1.86112,0.68712 0.164861,1.17854 c 0.252163,1.80264 0.863116,3.51423 2.23584,6.26375 0.688695,1.37943 1.252171,2.68004 1.252171,2.89024 0,0.99522 -2.333622,1.16723 -3.698928,0.27264 -1.391164,-0.91152 -2.962249,-5.46876 -2.992706,-8.68091 l -0.009,-0.94825 -1.739585,0.50046 c -2.405012,0.6919 -9.868948,2.18654 -13.59454,2.72229 -4.215446,0.60619 -13.196522,0.61894 -16.612682,0.0236 -1.341053,-0.23372 -2.465606,-0.39761 -2.499006,-0.36421 -0.0334,0.0334 0.464338,0.89818 1.106082,1.92173 0.719802,1.14806 1.380984,1.9101 1.725858,1.98913 0.307476,0.0705 3.748289,0.59843 7.646249,1.17324 3.89796,0.57482 10.856303,1.80755 15.462983,2.73941 12.04468,2.43644 15.761406,2.4944 20.364326,0.31757 3.13402,-1.48216 4.83679,-3.38533 5.40398,-6.03997 0.21369,-1.00015 0.18515,-1.7653 -0.12956,-3.47332 -0.22199,-1.20483 -0.47404,-2.86924 -0.56011,-3.69871 -0.13992,-1.34834 -0.10837,-1.49851 0.29774,-1.41744 0.56918,0.11363 2.16854,2.7362 3.25152,5.33173 1.56908,3.76056 0.95949,6.88107 -1.87627,9.60462 -1.55706,1.49545 -5.54119,3.56255 -8.12903,4.21762 -1.66239,0.4208 -6.052974,0.92751 -7.411933,0.85541 -0.425232,-0.0226 -1.410997,-0.0787 -2.190589,-0.12464 l 0,2e-5 z"
         style="fill:#ff0000;fill-opacity:1;fill-rule:nonzero;stroke:#ffffff;stroke-width:0.25771639;stroke-opacity:1" />
      <path
         inkscape:connector-curvature="0"
         inkscape:original-d="m 54.378158,263.93783 c 2.645802,-0.0367 6.311436,-0.13148 7.731492,1.28858"
         inkscape:path-effect="#path-effect7147"
         id="path7145"
         d="m 54.378158,263.93783 7.731492,1.28858"
         style="fill:#1a1a1a;fill-rule:evenodd;stroke:#000000;stroke-width:1px;stroke-linecap:butt;stroke-linejoin:miter;stroke-opacity:1" />
      <path
         inkscape:connector-curvature="0"
         id="path7149"
         d="m 93.219968,274.11872 c -4.08364,-0.40657 -7.468121,-0.82244 -16.751566,-2.05835 -17.602341,-2.3434 -22.251836,-2.70904 -40.900883,-3.21642 -5.627949,-0.15312 -10.556775,-0.36827 -10.952947,-0.47811 -0.652938,-0.18103 -0.527469,-0.26108 1.341418,-0.85588 5.548666,-1.76591 15.496372,-3.09542 23.452192,-3.13438 4.372828,-0.0214 5.306852,0.0545 8.731766,0.70963 2.61361,0.49995 3.889162,0.64622 4.004717,0.45925 0.243745,-0.39439 9.664305,1.09394 23.214953,3.66767 6.050972,1.14929 10.114386,1.71246 12.314818,1.70677 3.911634,-0.0101 8.143914,-1.60735 10.498694,-3.96213 2.17013,-2.17013 2.58299,-4.25141 1.79489,-9.04808 -0.63722,-3.87826 -0.50184,-4.01073 1.17123,-1.14604 2.29415,3.92814 2.91272,7.27015 1.79955,9.72273 -1.35302,2.98105 -6.71514,6.32413 -11.44968,7.13843 -2.437128,0.41917 -6.554707,0.66561 -8.269152,0.49491 z"
         style="fill:#1a1a1a;fill-opacity:1;fill-rule:nonzero;stroke:#ffffff;stroke-width:0.25771639;stroke-opacity:1" />
      <path
         inkscape:connector-curvature="0"
         id="path7151"
         d="m 43.283411,222.56649 c -0.08475,-0.35436 -0.338193,-1.67356 -0.56322,-2.93155 -1.007229,-5.63085 -4.165616,-11.16156 -9.103105,-15.94062 -1.407863,-1.36269 -3.464787,-3.01945 -4.737962,-3.81623 l -2.249969,-1.40808 -0.005,-1.10357 c -0.0028,-0.60697 -0.179008,-1.51992 -0.391624,-2.02878 -0.212616,-0.50886 -0.386574,-0.95216 -0.386574,-0.9851 0,-0.25605 7.488795,-0.35121 10.179797,-0.12937 7.562794,0.62349 12.633368,2.55809 17.996526,6.86632 3.791263,3.04552 10.463742,8.87865 11.51559,10.06702 1.09571,1.23791 1.727837,2.29067 1.507647,2.51086 -0.06533,0.0653 -0.808998,-0.15978 -1.652591,-0.50026 -7.539609,-3.04298 -17.068575,0.2425 -20.753141,7.15545 -0.44699,0.83864 -0.900356,1.83157 -1.007478,2.20651 l -0.194767,0.68169 -0.15408,-0.64429 z"
         style="fill:#ff0000;fill-opacity:1;fill-rule:nonzero;stroke:#000000;stroke-width:0.25771639;stroke-opacity:1" />
      <path
         inkscape:connector-curvature="0"
         id="path7153"
         d="m 18.944945,201.52114 c -2.701738,-1.33167 -3.33356,-4.85196 -1.24558,-6.93994 2.081596,-2.0816 5.520396,-1.62136 6.911926,0.92507 0.677792,1.24033 0.534721,3.45023 -0.299189,4.62135 -1.140848,1.60218 -3.63172,2.2489 -5.367157,1.39352 z"
         style="fill:#f9f9f9;fill-opacity:1;fill-rule:nonzero;stroke:#000000;stroke-width:0.25771639;stroke-opacity:1" />
      <path
         inkscape:connector-curvature="0"
         id="path7155"
         d="m 110.48697,234.47173 c 1.40066,-0.90054 5.59201,-2.52003 8.99507,-3.47559 5.99553,-1.68352 11.51492,-2.40926 21.54432,-2.83285 7.92016,-0.33452 22.93676,-0.63031 22.93676,-0.45181 0,0.0768 -0.1131,0.43718 -0.25134,0.80077 l -0.25134,0.66107 -6.64257,0.002 c -7.25441,0.002 -17.42362,0.35497 -22.49214,0.78095 -6.90807,0.58058 -11.55712,1.51442 -18.55558,3.72721 -2.05529,0.64984 -4.31675,1.24224 -5.02547,1.31643 l -1.28858,0.13489 1.03087,-0.66279 z"
         style="fill:#1a1a1a;fill-opacity:1;fill-rule:nonzero;stroke:#000000;stroke-width:0.25771639;stroke-opacity:1" />
      <path
         inkscape:connector-curvature="0"
         id="path7217"
         d="m 42.410358,218.36806 c -0.08925,-0.23475 -0.215648,-0.9478 -0.280887,-1.58456 -0.09343,-0.91191 -0.04999,-1.30236 0.204548,-1.83876 0.408801,-0.86149 2.482461,-2.6169 4.087924,-3.46055 1.590707,-0.83589 4.692629,-1.87117 6.304401,-2.10411 4.446316,-0.64262 10.314721,0.42342 12.244743,2.22435 0.225513,0.21043 0.410024,0.31196 0.410024,0.22562 0,-0.2505 1.095097,0.85163 1.546213,1.55614 0.573952,0.89635 0.701067,1.65317 0.465337,2.77057 -0.23761,1.12633 -1.294743,2.69159 -1.81782,2.69159 -0.617538,0 -1.414091,-1.20143 -1.659752,-2.50338 -0.303241,-1.60712 -0.924408,-2.314 -2.304891,-2.62294 -0.853876,-0.19109 -1.140288,-0.18472 -1.767558,0.0393 -0.501331,0.17905 -0.989318,0.2232 -1.477499,0.13366 -0.400913,-0.0735 -1.838601,-0.19012 -3.194862,-0.25909 -2.251283,-0.11448 -2.592327,-0.0889 -3.91801,0.29445 -2.841996,0.82172 -4.459881,1.85094 -5.204757,3.31102 -0.20171,0.39538 -0.491065,0.69784 -0.670177,0.70051 -0.173362,0.003 -0.875342,0.19556 -1.559955,0.42884 l -1.244751,0.42413 -0.162271,-0.4268 z"
         style="fill:#ffffff;fill-opacity:1;fill-rule:nonzero;stroke:#000000;stroke-width:0.18223301;stroke-opacity:1" />
      <path
         inkscape:connector-curvature="0"
         id="path7219"
         d="m 53.991548,239.92501 c -1.180597,-0.39203 -2.225211,-0.99048 -2.890893,-1.65616 l -0.62266,-0.62266 -0.111112,0.55556 c -0.06111,0.30555 -0.111111,0.75032 -0.111111,0.98836 0,0.23804 -0.05748,0.4328 -0.127739,0.4328 -0.07026,0 -1.156821,-0.50603 -2.414588,-1.12451 -2.073605,-1.01965 -2.435535,-1.27442 -3.881387,-2.73222 -1.591231,-1.60439 -1.594544,-1.6065 -1.597329,-1.01673 -0.0049,1.02867 -0.224294,1.11273 -0.944521,0.36183 -1.187217,-1.23779 -1.799243,-2.96805 -2.075682,-5.86818 l -0.129566,-1.35927 -0.610516,0.70626 -0.610517,0.70627 0,-1.36404 c 0,-3.07352 1.209157,-5.00689 4.562234,-7.29477 l 0.449174,-0.30648 -0.592257,-0.12632 c -0.325742,-0.0695 -0.592257,-0.19391 -0.592257,-0.27651 0,-0.28122 1.181863,-1.04153 2.095679,-1.34818 2.004904,-0.67278 2.421516,-0.67934 4.009126,-0.0631 0.801825,0.31121 1.661013,0.75912 1.909305,0.99534 l 0.451441,0.42949 -0.595375,0 c -1.139665,0 -2.695307,1.11878 -3.120525,2.24422 -0.538059,1.42409 0.04974,3.10522 1.380899,3.94941 0.476112,0.30195 1.06505,0.54899 1.308749,0.54899 0.423813,0 0.439154,0.041 0.3526,0.94176 -0.0559,0.58172 -0.205662,1.02597 -0.391747,1.16204 -0.269623,0.19715 -0.235273,0.27821 0.327119,0.772 0.635023,0.55756 1.583495,0.89256 1.926632,0.68049 0.102673,-0.0634 0.186679,-0.0285 0.186679,0.0776 0,0.10615 0.16401,0.19299 0.364466,0.19299 0.200456,0 0.364466,-0.0743 0.364466,-0.16517 0,-0.0908 0.151551,-0.12554 0.336779,-0.0771 0.409221,0.10701 1.515434,-0.33538 2.446551,-0.97842 l 0.687651,-0.4749 0.405747,0.3709 c 0.607975,0.55575 1.5884,1.00322 1.976015,0.90186 0.188748,-0.0494 0.343179,-0.0154 0.343179,0.0754 0,0.0908 0.32802,0.16517 0.728932,0.16517 0.400913,0 0.728932,-0.0743 0.728932,-0.16517 0,-0.0908 0.16401,-0.12229 0.364466,-0.0699 0.200457,0.0524 0.364466,0.006 0.364466,-0.10245 0,-0.10878 0.122594,-0.15073 0.272429,-0.0932 0.273002,0.10476 1.549901,-1.00262 1.549901,-1.34414 0,-0.0942 -0.205012,-0.26461 -0.455582,-0.37878 -0.376018,-0.17132 -0.455583,-0.33556 -0.455583,-0.94041 0,-0.5617 0.07074,-0.73284 0.302897,-0.73284 0.530125,0 1.839066,-0.88661 2.217205,-1.50181 0.555676,-0.90405 0.652888,-1.76573 0.298988,-2.65021 -0.283152,-0.70767 -1.178287,-1.68686 -1.753592,-1.91825 -0.179669,-0.0723 -0.12892,-0.19302 0.189364,-0.45058 0.316599,-0.2562 0.373241,-0.38991 0.208336,-0.49183 -0.68405,-0.42276 1.834531,-0.62271 3.285643,-0.26084 0.961179,0.2397 2.20873,1.13766 2.880871,2.0736 l 0.59342,0.82632 -0.958236,0 -0.958236,0 0.573112,0.59226 c 1.178876,1.21826 1.868174,3.91901 1.866507,7.31319 l -9.11e-4,1.84402 -0.440643,-0.5467 c -0.413502,-0.51302 -0.448632,-0.52425 -0.570359,-0.18223 -0.606506,1.70412 -2.417005,4.94887 -2.625046,4.70456 -0.06966,-0.0818 -0.293197,-0.37069 -0.496751,-0.64196 l -0.370097,-0.49322 -0.610061,0.94148 c -0.335533,0.51782 -1.123354,1.47781 -1.750713,2.13332 l -1.140653,1.19184 -0.0061,-0.73394 c -0.0033,-0.40367 -0.137464,-0.92155 -0.298067,-1.15085 l -0.292009,-0.4169 -1.212986,1.17104 c -1.616393,1.5605 -2.835212,2.17159 -4.490038,2.25122 -0.742857,0.0358 -1.580073,-0.0397 -2.004563,-0.18066 l -2e-6,0 z"
         style="fill:#ffffff;fill-opacity:1;fill-rule:nonzero;stroke:#000000;stroke-width:0.18223301;stroke-opacity:1" />
      <path
         inkscape:connector-curvature="0"
         id="path7221"
         d="m 51.629404,230.15794 c -0.0541,-0.0875 -0.260201,-0.11684 -0.458002,-0.0651 -0.319667,0.0836 -2.009028,-0.72568 -2.009028,-0.96241 0,-0.0494 0.13017,-0.28851 0.289267,-0.53132 0.205066,-0.31297 0.289692,-0.88134 0.290729,-1.95259 0.0018,-1.8689 0.198949,-2.55198 0.908927,-3.14939 l 0.55343,-0.46568 0.686218,0.61996 c 0.927765,0.83818 1.82598,1.11758 3.558468,1.1069 1.571075,-0.01 3.157518,-0.5317 3.619238,-1.1909 0.221477,-0.3162 0.261585,-0.31714 0.844946,-0.0198 1.059767,0.54017 1.358994,1.14305 1.43187,2.88492 0.0586,1.40055 0.105963,1.57113 0.50975,1.8357 l 0.445153,0.29168 -0.504688,0.52678 c -1.207699,1.26057 -3.640261,1.29924 -5.330744,0.0847 l -0.855453,-0.61458 -0.444502,0.36594 c -0.932369,0.76759 -3.310983,1.59855 -3.535579,1.23515 z"
         style="fill:#ffffff;fill-opacity:1;fill-rule:nonzero;stroke:#000000;stroke-width:0.18223301;stroke-opacity:1" />
      <path
         inkscape:connector-curvature="0"
         id="path7223"
         d="m 48.842243,217.95955 c 0.24266,-0.28839 0.631175,-1.03233 0.863366,-1.6532 0.549388,-1.46905 1.201818,-2.11184 2.420264,-2.38452 2.306357,-0.51614 3.78131,0.73221 3.775315,3.19531 -0.003,1.25119 -0.192496,1.30368 -1.289459,0.35725 -1.698288,-1.46524 -2.118075,-1.49326 -3.568148,-0.23823 -0.875861,0.75805 -1.797004,1.24772 -2.347136,1.24772 -0.238599,0 -0.210564,-0.10082 0.145798,-0.52433 z"
         style="fill:#ffffff;fill-opacity:1;fill-rule:nonzero;stroke:#000000;stroke-width:0.18223301;stroke-opacity:1" />
      <path
         inkscape:connector-curvature="0"
         id="path7225"
         d="m 62.863506,217.50001 c -0.698877,-0.64136 -1.450511,-1.22318 -1.670296,-1.29294 -0.761831,-0.2418 -1.648772,0.0809 -2.407938,0.87616 l -0.72825,0.76284 0.112345,-1.067 c 0.239973,-2.27915 1.466785,-3.31115 3.388248,-2.8502 1.240894,0.29769 1.874536,1.0484 2.168695,2.56938 0.123984,0.64107 0.342023,1.34721 0.484531,1.5692 0.642622,1.00102 0.123593,0.78243 -1.347335,-0.56744 z"
         style="fill:#ffffff;fill-opacity:1;fill-rule:nonzero;stroke:#000000;stroke-width:0.18223301;stroke-opacity:1" />
      <path
         inkscape:connector-curvature="0"
         id="path7227"
         d="m 60.129402,218.43259 c -0.349933,-0.42165 0.158782,-0.94271 0.770477,-0.78918 0.380139,0.0954 0.482382,0.21855 0.438378,0.52801 -0.06812,0.47908 -0.882063,0.65493 -1.208855,0.26117 z"
         style="fill:#000000;fill-opacity:1;fill-rule:nonzero;stroke:#000000;stroke-width:0.18223301;stroke-opacity:1" />
      <path
         inkscape:connector-curvature="0"
         id="path7229"
         d="m 52.032544,219.01599 c -0.761848,-0.44374 -0.006,-1.49653 0.77449,-1.0788 0.407742,0.21821 0.477655,0.72508 0.145786,1.05695 -0.263387,0.26338 -0.496095,0.26891 -0.920276,0.0219 z"
         style="fill:#000000;fill-opacity:1;fill-rule:nonzero;stroke:#000000;stroke-width:0.18223301;stroke-opacity:1" />
      <path
         inkscape:connector-curvature="0"
         id="path7233"
         d="m 54.356015,224.48982 c -1.138309,-0.14349 -1.685304,-0.37082 -2.323471,-0.96562 -1.094171,-1.01982 -0.331473,-2.4965 1.56345,-3.02705 1.34595,-0.37684 3.533755,-0.17995 4.537646,0.40837 0.87463,0.51257 1.347465,1.30669 1.14947,1.93052 -0.379097,1.19443 -2.615732,1.94516 -4.927095,1.65378 z"
         style="fill:#ff0000;fill-opacity:1;fill-rule:nonzero;stroke:#000000;stroke-width:0.18223301;stroke-opacity:1" />
      <path
         inkscape:connector-curvature="0"
         id="path7239"
         d="m 61.550216,225.83852 c -0.0076,-0.98585 -0.652236,-2.0659 -1.43181,-2.39882 -0.649571,-0.27741 -0.705755,-0.35527 -0.623253,-0.86367 0.0684,-0.42149 -0.02569,-0.69706 -0.382994,-1.12169 -0.260518,-0.30961 -0.473669,-0.60623 -0.473669,-0.65916 0,-0.19542 1.307083,-0.51934 2.09568,-0.51934 1.240572,0 2.016989,0.34063 2.79748,1.22732 0.990033,1.12473 1.101656,2.03212 0.409156,3.32607 -0.273674,0.51137 -1.265289,1.25036 -1.885447,1.40512 -0.458454,0.11441 -0.501482,0.0807 -0.505143,-0.39583 z"
         style="fill:#ffb380;fill-opacity:1;fill-rule:nonzero;stroke:#ff9955;stroke-width:0.18223301;stroke-opacity:1" />
      <path
         inkscape:connector-curvature="0"
         id="path7241"
         d="m 48.342325,226.19868 c -0.844207,-0.44605 -1.20699,-0.81791 -1.570715,-1.60999 -0.669166,-1.45724 -0.216702,-2.92152 1.192449,-3.85907 0.976434,-0.64965 2.545327,-0.79315 3.578378,-0.32731 0.394844,0.17805 0.717898,0.34854 0.717898,0.37888 0,0.0303 -0.205012,0.26017 -0.455583,0.51074 -0.268184,0.26818 -0.455798,0.66513 -0.456106,0.96501 -3.75e-4,0.36429 -0.157144,0.61325 -0.550276,0.87389 -0.703033,0.46608 -1.27153,1.63247 -1.27153,2.60879 0,0.86507 -0.240038,0.9581 -1.184515,0.45906 z"
         style="fill:#ffb380;fill-opacity:1;fill-rule:nonzero;stroke:#ff9955;stroke-width:0.18223301;stroke-opacity:1" />
      <path
         inkscape:connector-curvature="0"
         id="path7243"
         d="m 52.172323,220.49347 c -0.06024,-0.0975 -0.4546,-0.2794 -0.876362,-0.4043 -1.002623,-0.29692 -2.415582,-1.34578 -2.018317,-1.49822 0.155147,-0.0595 0.347979,-0.0675 0.428515,-0.0177 0.08053,0.0498 0.439523,-0.032 0.79775,-0.18164 0.857358,-0.35823 1.027494,-0.34364 1.027494,0.0881 0,0.19815 0.208371,0.4968 0.463047,0.66367 0.668688,0.43814 1.359283,0.10508 1.359283,-0.65556 0,-0.65491 0.331156,-0.71406 1.282658,-0.22912 1.104243,0.5628 1.44415,0.25191 1.447332,-1.32377 0.0024,-1.1898 -0.322204,-2.02389 -1.029239,-2.64468 l -0.659426,-0.57898 1.256109,0.11518 c 3.591279,0.32931 3.403144,0.28954 3.076697,0.65026 -0.610332,0.67441 -1.136201,3.64274 -0.645347,3.64274 0.09513,0 0.395565,-0.29185 0.667638,-0.64856 0.717399,-0.94056 1.367058,-1.23127 2.231406,-0.99853 0.383356,0.10323 0.853543,0.36394 1.044859,0.57935 0.191316,0.21542 0.732466,0.6981 1.202557,1.07262 l 0.85471,0.68095 -0.737896,0.118 c -0.614551,0.0983 -0.72249,0.1769 -0.645731,0.47043 0.143501,0.54875 -0.220046,0.70019 -1.628143,0.67825 -0.896139,-0.014 -1.527516,0.0812 -2.02425,0.30524 -0.672131,0.30309 -0.780658,0.30558 -1.574188,0.0362 -1.07492,-0.36494 -3.108363,-0.37285 -4.119746,-0.016 -0.911369,0.32155 -1.035839,0.33168 -1.18141,0.0961 z m 9.157739,-1.87291 c 0.101715,-0.12529 0.214262,-0.37616 0.250105,-0.55749 0.06014,-0.30428 0.132783,-0.29367 0.942074,0.13755 0.482298,0.25699 0.825255,0.38369 0.762126,0.28154 -0.219948,-0.35588 -1.578952,-0.93029 -2.443155,-1.03264 -1.005151,-0.11905 -1.967909,0.24636 -2.36504,0.89764 l -0.250055,0.41007 0.433978,-0.38725 c 0.238688,-0.21299 0.630487,-0.48881 0.870664,-0.61294 0.396008,-0.20466 0.427935,-0.19222 0.342737,0.13358 -0.05167,0.1976 -0.01859,0.49392 0.07351,0.6585 0.197476,0.35287 1.11605,0.40032 1.383056,0.0714 z"
         style="fill:#ffb380;fill-opacity:1;fill-rule:nonzero;stroke:#ff9955;stroke-width:0.18223301;stroke-opacity:1" />
      <path
         inkscape:connector-curvature="0"
         id="path7245"
         d="m 46.838903,217.96644 c -0.42597,-0.16025 -0.77449,-0.34653 -0.77449,-0.41395 0,-0.39762 1.800757,-2.03617 2.770045,-2.52053 1.431287,-0.71522 1.749515,-0.72921 1.275398,-0.0561 -0.194132,0.27563 -0.41525,0.70615 -0.491374,0.95672 -0.20803,0.68476 -0.771069,1.74679 -1.100945,2.07667 -0.350087,0.35009 -0.654811,0.34231 -1.678634,-0.0428 z"
         style="fill:#ffb380;fill-opacity:1;fill-rule:nonzero;stroke:#ff9955;stroke-width:0.18223301;stroke-opacity:1" />
      <path
         inkscape:connector-curvature="0"
         id="path7247"
         d="m 49.999196,218.26176 c 0.17718,-0.10245 0.604687,-0.44388 0.950016,-0.75874 0.857557,-0.78188 1.254921,-1.01671 1.720415,-1.01671 0.475833,0 0.821778,0.20476 1.602576,0.94852 0.330301,0.31464 0.734632,0.6571 0.898514,0.76103 0.234155,0.14849 0.267373,0.18896 0.155112,0.18896 -0.07857,0 -0.250956,-0.0705 -0.383081,-0.15671 -0.408631,-0.26657 -1.01758,-0.42933 -1.839805,-0.49174 -0.422191,-0.032 -0.788918,-0.0451 -0.814949,-0.029 -0.02603,0.0161 -0.377702,0.11389 -0.781489,0.21734 -0.403788,0.10345 -0.920365,0.2638 -1.14795,0.35633 -0.570551,0.23197 -0.774881,0.22102 -0.359359,-0.0193 z"
         style="fill:#ffb380;fill-opacity:1;fill-rule:nonzero;stroke:#ff9955;stroke-width:0.0644291;stroke-opacity:1" />
      <path
         inkscape:connector-curvature="0"
         id="path7249"
         d="m 53.13074,217.95989 -0.149116,-0.15493 0.232264,0 c 0.248863,0 0.274613,0.0356 0.147067,0.20325 -0.07404,0.0973 -0.09407,0.0931 -0.230215,-0.0483 z"
         style="fill:#ffb380;fill-opacity:1;fill-rule:nonzero;stroke:#ff9955;stroke-width:0.0644291;stroke-opacity:1" />
      <path
         inkscape:connector-curvature="0"
         id="path7251"
         d="m 51.613252,218.32011 c -0.0033,-0.0705 -0.07336,-0.19708 -0.124517,-0.22485 -0.02656,-0.0144 -0.08416,-0.0323 -0.128011,-0.0398 -0.06911,-0.0118 -0.04333,-0.0222 0.193623,-0.0777 0.150342,-0.0353 0.2928,-0.0694 0.316574,-0.0759 0.02973,-0.008 0.01733,0.0141 -0.03971,0.0712 -0.08153,0.0815 -0.164374,0.22013 -0.198616,0.33229 -0.01249,0.0409 -0.01794,0.0451 -0.01934,0.0148 z"
         style="fill:#ffb380;fill-opacity:1;fill-rule:nonzero;stroke:#ff9955;stroke-width:0.02277913;stroke-opacity:1" />
      <path
         inkscape:connector-curvature="0"
         id="path7253"
         d="m 48.934747,218.82943 c -0.150342,-0.059 -0.380981,-0.15008 -0.51253,-0.20231 l -0.239181,-0.095 0.182233,0.0175 c 0.236591,0.0228 0.513296,0.0223 0.677144,-0.001 l 0.130445,-0.0186 -0.03349,0.0642 c -0.04422,0.0848 -0.04322,0.0948 0.02239,0.22439 0.03089,0.061 0.05396,0.11258 0.05125,0.11459 -0.0027,0.002 -0.127922,-0.0447 -0.278264,-0.10369 z"
         style="fill:#ffb380;fill-opacity:1;fill-rule:nonzero;stroke:#ff9955;stroke-width:0.02277913;stroke-opacity:1" />
      <path
         inkscape:connector-curvature="0"
         id="path7255"
         d="m 48.308321,218.49419 c -0.175141,-0.0139 -0.175265,-0.0254 -0.0014,-0.13262 0.09085,-0.056 0.169706,-0.10185 0.175224,-0.10185 0.0055,0 -0.0016,0.0217 -0.01574,0.0482 -0.01417,0.0265 -0.02172,0.0829 -0.01676,0.12529 0.0053,0.0458 -7.07e-4,0.0755 -0.01489,0.0732 -0.01315,-0.002 -0.07003,-0.008 -0.126406,-0.0121 z"
         style="fill:#ffb380;fill-opacity:1;fill-rule:nonzero;stroke:#ff9955;stroke-width:0.02277913;stroke-opacity:1" />
      <path
         inkscape:connector-curvature="0"
         id="path7257"
         d="m 61.930238,220.25219 c -0.09396,-0.0291 -0.19647,-0.0539 -0.227791,-0.0553 -0.132282,-0.006 0.02241,-0.0412 0.239181,-0.0551 0.125285,-0.008 0.289295,-0.0296 0.364466,-0.0478 0.07517,-0.0182 0.146164,-0.0335 0.157762,-0.034 0.0116,-4.4e-4 -0.05427,0.0556 -0.146372,0.12448 -0.0921,0.0689 -0.178472,0.12421 -0.191931,0.1229 -0.01346,-0.001 -0.101351,-0.0262 -0.195315,-0.0553 z"
         style="fill:#ffb380;fill-opacity:1;fill-rule:nonzero;stroke:#ff9955;stroke-width:0.02277913;stroke-opacity:1" />
      <path
         inkscape:connector-curvature="0"
         id="path7259"
         d="m 64.902914,218.94503 c -0.194579,-0.0164 -0.586511,-0.14557 -0.478361,-0.1576 0.105315,-0.0117 0.148064,-0.064 0.148064,-0.18106 l 0,-0.10187 0.169948,0.16144 c 0.09347,0.0888 0.211354,0.18883 0.26196,0.22232 0.08793,0.0582 0.111982,0.0819 0.07493,0.0739 -0.0094,-0.002 -0.08884,-0.01 -0.176539,-0.0172 z"
         style="fill:#ffb380;fill-opacity:1;fill-rule:nonzero;stroke:#ff9955;stroke-width:0.02277913;stroke-opacity:1" />
      <path
         inkscape:connector-curvature="0"
         id="path7261"
         d="m 55.396733,218.23679 c -0.241288,-0.12079 -0.556079,-0.35114 -0.743569,-0.5441 -0.06217,-0.064 -0.105462,-0.11634 -0.0962,-0.11634 0.0093,0 0.111382,0.0787 0.226935,0.17497 0.115553,0.0962 0.292101,0.22777 0.39233,0.29229 0.271016,0.17448 0.391896,0.21113 0.534392,0.16203 0.05062,-0.0174 0.09203,-0.0234 0.09203,-0.0133 0,0.033 -0.117193,0.15854 -0.148028,0.15854 -0.01654,0 -0.132596,-0.0513 -0.257893,-0.11405 z"
         style="fill:#ffb380;fill-opacity:1;fill-rule:nonzero;stroke:#ff9955;stroke-width:0.02277913;stroke-opacity:1" />
      <path
         inkscape:connector-curvature="0"
         id="path7263"
         d="m 50.404001,214.57954 c 0,-0.0939 -0.0822,-0.19116 -0.164113,-0.19423 -0.05125,-0.002 -0.05115,-0.002 0.0047,-0.0205 0.105827,-0.0345 0.738611,-0.20529 0.760811,-0.20529 0.01211,0 -0.05588,0.0538 -0.151104,0.11959 -0.09522,0.0658 -0.235483,0.17839 -0.311692,0.25025 l -0.138561,0.13065 0,-0.0804 z"
         style="fill:#ffb380;fill-opacity:1;fill-rule:nonzero;stroke:#ff9955;stroke-width:0.02277913;stroke-opacity:1" />
      <path
         inkscape:connector-curvature="0"
         id="path7265"
         d="m 54.470075,213.96106 c -0.08908,-0.0484 -0.506366,-0.18883 -0.56118,-0.18883 -0.02336,0 -0.04247,-0.009 -0.04247,-0.0204 0,-0.0112 0.08457,-0.0248 0.187928,-0.0302 0.206813,-0.0108 0.183594,-0.0217 0.457774,0.21506 0.08041,0.0694 0.0613,0.0805 -0.04205,0.0243 z"
         style="fill:#ffb380;fill-opacity:1;fill-rule:nonzero;stroke:#ff9955;stroke-width:0.02277913;stroke-opacity:1" />
      <path
         inkscape:connector-curvature="0"
         id="path7267"
         d="m 59.003121,214.08114 -0.136675,-0.0269 0.148064,-0.0161 c 0.08144,-0.009 0.204443,-0.022 0.27335,-0.0292 l 0.125285,-0.013 -0.08421,0.059 c -0.09165,0.0642 -0.121053,0.0666 -0.325811,0.0263 z"
         style="fill:#ffb380;fill-opacity:1;fill-rule:nonzero;stroke:#ff9955;stroke-width:0.02277913;stroke-opacity:1" />
    </g>
  </g>
</svg>
