<?xml version="1.0" encoding="UTF-8" standalone="no"?>
<!-- Created with Inkscape (http://www.inkscape.org/) -->

<svg
   xmlns:osb="http://www.openswatchbook.org/uri/2009/osb"
   xmlns:dc="http://purl.org/dc/elements/1.1/"
   xmlns:cc="http://creativecommons.org/ns#"
   xmlns:rdf="http://www.w3.org/1999/02/22-rdf-syntax-ns#"
   xmlns:svg="http://www.w3.org/2000/svg"
   xmlns="http://www.w3.org/2000/svg"
   xmlns:xlink="http://www.w3.org/1999/xlink"
   xmlns:sodipodi="http://sodipodi.sourceforge.net/DTD/sodipodi-0.dtd"
   xmlns:inkscape="http://www.inkscape.org/namespaces/inkscape"
   width="480"
   height="600"
   viewBox="0 0 480 600"
   id="svg2"
   version="1.1"
   inkscape:version="0.91 r13725"
   sodipodi:docname="bat.svg"
   enable-background="new">
  <defs
     id="defs4">
    <inkscape:path-effect
       is_visible="true"
       id="path-effect16485"
       effect="spiro" />
    <inkscape:path-effect
       is_visible="true"
       id="path-effect16481"
       effect="spiro" />
    <inkscape:path-effect
       is_visible="true"
       id="path-effect16477"
       effect="spiro" />
    <inkscape:path-effect
       is_visible="true"
       id="path-effect16473"
       effect="spiro" />
    <inkscape:path-effect
       is_visible="true"
       id="path-effect16469"
       effect="spiro" />
    <inkscape:path-effect
       is_visible="true"
       id="path-effect16465"
       effect="spiro" />
    <inkscape:path-effect
       is_visible="true"
       id="path-effect16461"
       effect="spiro" />
    <inkscape:path-effect
       is_visible="true"
       id="path-effect16457"
       effect="spiro" />
    <inkscape:path-effect
       is_visible="true"
       id="path-effect16453"
       effect="spiro" />
    <inkscape:path-effect
       is_visible="true"
       id="path-effect16449"
       effect="spiro" />
    <inkscape:path-effect
       is_visible="true"
       id="path-effect16445"
       effect="spiro" />
    <inkscape:path-effect
       is_visible="true"
       id="path-effect16441"
       effect="spiro" />
    <inkscape:path-effect
       is_visible="true"
       id="path-effect16437"
       effect="spiro" />
    <inkscape:path-effect
       is_visible="true"
       id="path-effect16433"
       effect="spiro" />
    <inkscape:path-effect
       is_visible="true"
       id="path-effect16429"
       effect="spiro" />
    <inkscape:path-effect
       is_visible="true"
       id="path-effect16425"
       effect="spiro" />
    <inkscape:path-effect
       is_visible="true"
       id="path-effect16421"
       effect="spiro" />
    <inkscape:path-effect
       is_visible="true"
       id="path-effect16417"
       effect="spiro" />
    <inkscape:path-effect
       is_visible="true"
       id="path-effect16413"
       effect="spiro" />
    <inkscape:path-effect
       is_visible="true"
       id="path-effect16409"
       effect="spiro" />
    <inkscape:path-effect
       is_visible="true"
       id="path-effect16405"
       effect="spiro" />
    <inkscape:path-effect
       is_visible="true"
       id="path-effect16401"
       effect="spiro" />
    <inkscape:path-effect
       is_visible="true"
       id="path-effect16397"
       effect="spiro" />
    <inkscape:path-effect
       is_visible="true"
       id="path-effect16393"
       effect="spiro" />
    <inkscape:path-effect
       is_visible="true"
       id="path-effect16389"
       effect="spiro" />
    <inkscape:path-effect
       is_visible="true"
       id="path-effect16385"
       effect="spiro" />
    <linearGradient
       id="linearGradient7279">
      <stop
         id="stop7281"
         style="stop-color:#ffffff"
         offset="0" />
      <stop
         id="stop7283"
         style="stop-color:#ff0000;stop-opacity:1"
         offset="1" />
    </linearGradient>
    <inkscape:path-effect
       effect="spiro"
       id="path-effect7311"
       is_visible="true" />
    <inkscape:path-effect
       effect="spiro"
       id="path-effect7147"
       is_visible="true" />
    <inkscape:path-effect
       effect="spiro"
       id="path-effect18731"
       is_visible="true" />
    <inkscape:path-effect
       effect="spiro"
       id="path-effect18367"
       is_visible="true" />
    <inkscape:path-effect
       effect="spiro"
       id="path-effect18115"
       is_visible="true" />
    <linearGradient
       id="linearGradient4105">
      <stop
         id="stop10732"
         style="stop-color:#ffffff"
         offset="0" />
      <stop
         id="stop10734"
         style="stop-color:#a3bcdf"
         offset="1" />
    </linearGradient>
    <linearGradient
       id="linearGradient8147"
       osb:paint="solid">
      <stop
         style="stop-color:#ffd80c;stop-opacity:1;"
         offset="0"
         id="stop8149" />
    </linearGradient>
    <pattern
       y="0"
       x="0"
       height="6"
       width="6"
       patternUnits="userSpaceOnUse"
       id="EMFhbasepattern" />
    <pattern
       y="0"
       x="0"
       height="6"
       width="6"
       patternUnits="userSpaceOnUse"
       id="EMFhbasepattern-1" />
    <pattern
       y="0"
       x="0"
       height="6"
       width="6"
       patternUnits="userSpaceOnUse"
       id="EMFhbasepattern-2" />
    <filter
       inkscape:label="In and Out"
       inkscape:menu="Shadows and Glows"
       inkscape:menu-tooltip="Inner colorized shadow, outer black shadow"
       style="color-interpolation-filters:sRGB;"
       id="filter5144">
      <feGaussianBlur
         result="result0"
         in="SourceAlpha"
         stdDeviation="4"
         id="feGaussianBlur5146" />
      <feOffset
         dx="5"
         dy="5"
         result="result4"
         id="feOffset5148" />
      <feComposite
         in="SourceGraphic"
         in2="result4"
         operator="xor"
         result="result3"
         id="feComposite5150" />
    </filter>
    <linearGradient
       id="linearGradient10736">
      <stop
         offset="0"
         style="stop-color:#ffffff"
         id="stop4107" />
      <stop
         offset="1"
         style="stop-color:#d3ebf2;stop-opacity:1"
         id="stop4109" />
    </linearGradient>
  </defs>
  <sodipodi:namedview
     id="base"
     pagecolor="#ffffff"
     bordercolor="#666666"
     borderopacity="1.0"
     inkscape:pageopacity="0.0"
     inkscape:pageshadow="2"
     inkscape:zoom="0.45254834"
     inkscape:cx="20.52183"
     inkscape:cy="733.21116"
     inkscape:document-units="px"
     inkscape:current-layer="g5649"
     showgrid="false"
     inkscape:window-width="1301"
     inkscape:window-height="744"
     inkscape:window-x="65"
     inkscape:window-y="24"
     inkscape:window-maximized="1"
     units="px"
     inkscape:snap-smooth-nodes="false"
     inkscape:object-nodes="false"
     inkscape:snap-others="false"
     inkscape:object-paths="false"
     inkscape:snap-intersection-paths="false"
     inkscape:snap-nodes="false"
     inkscape:snap-object-midpoints="true"
     inkscape:snap-global="false" />
  <metadata
     id="metadata7">
    <rdf:RDF>
      <cc:Work
         rdf:about="">
        <dc:format>image/svg+xml</dc:format>
        <dc:type
           rdf:resource="http://purl.org/dc/dcmitype/StillImage" />
        <dc:title></dc:title>
        <cc:license
           rdf:resource="http://creativecommons.org/licenses/by/3.0/" />
        <dc:creator>
          <cc:Agent>
            <dc:title>Nicco Kunzmann</dc:title>
          </cc:Agent>
        </dc:creator>
        <dc:contributor>
          <cc:Agent>
            <dc:title>Nicco Kunzmann, </dc:title>
          </cc:Agent>
        </dc:contributor>
      </cc:Work>
      <cc:License
         rdf:about="http://creativecommons.org/licenses/by/3.0/">
        <cc:permits
           rdf:resource="http://creativecommons.org/ns#Reproduction" />
        <cc:permits
           rdf:resource="http://creativecommons.org/ns#Distribution" />
        <cc:requires
           rdf:resource="http://creativecommons.org/ns#Notice" />
        <cc:requires
           rdf:resource="http://creativecommons.org/ns#Attribution" />
        <cc:permits
           rdf:resource="http://creativecommons.org/ns#DerivativeWorks" />
      </cc:License>
    </rdf:RDF>
  </metadata>
  <g
     sodipodi:insensitive="true"
     onclick="characterChange('alien');"
     inkscape:label="bat"
     id="g5649"
     inkscape:groupmode="layer">
    <g
       transform="matrix(1.8586722,0,0,2.0228421,-33.140248,-245.41149)"
       id="g5651">
      <path
         inkscape:connector-curvature="0"
         style="fill:#000000;fill-opacity:1;fill-rule:evenodd;stroke:#000000;stroke-width:1px;stroke-linecap:butt;stroke-linejoin:miter;stroke-opacity:1"
         d="m 40.097656,226.39648 c -4.492814,-0.007 -9.866771,0.0162 -16.283203,0.0762 24.421212,16.5101 22.446249,22.14294 19.376953,24.02343 -0.0099,0.0211 -0.02158,0.037 -0.0332,0.0547 8.073789,1.60374 25.873306,8.14104 26.902344,19.29492 4.725218,-15.88954 32.91015,-19.86523 32.91015,-19.86523 -18.709551,-2.39867 14.39063,-23.02734 14.39063,-23.02735 l -40.296874,0.48047 -3.837891,13.43164 c -2.878399,-16.31093 -9.115234,0 -9.115234,0 l -4.265625,-12.80078 c -0.195461,-0.1765 -0.36801,-0.37248 -0.40625,-0.64453 -0.01355,-0.0964 0.01812,-0.19379 0.02344,-0.29101 0.003,-0.0557 -0.01329,-0.11059 -0.01953,-0.16602 -0.05401,-0.0666 -0.07188,-0.0848 -0.08398,-0.12305 -2.805497,-0.23734 -8.370805,-0.42745 -19.261719,-0.44336 z m 29.962891,43.44922 c -0.468517,1.57549 -0.715151,3.2625 -0.671875,5.08008 0.624737,-1.7876 0.819508,-3.47986 0.671875,-5.08008 z"
         id="path5654" />
      <g
         id="g5656">
        <path
           inkscape:connector-curvature="0"
           id="path5658"
           d="m 66.562988,234.80307 -0.119933,-4.19767 1.4392,3.35813"
           style="fill:none;fill-rule:evenodd;stroke:#000000;stroke-width:1px;stroke-linecap:butt;stroke-linejoin:miter;stroke-opacity:1" />
        <path
           inkscape:connector-curvature="0"
           id="path5660"
           d="m 70.520787,233.124 0.959467,-2.63853 0,3.598"
           style="fill:none;fill-rule:evenodd;stroke:#000000;stroke-width:1px;stroke-linecap:butt;stroke-linejoin:miter;stroke-opacity:1" />
        <path
           inkscape:connector-curvature="0"
           id="path5662"
           d="m 67.882255,233.96353 c 0.486018,-0.9891 -0.808166,0.25555 -0.599667,0.3598 0.07151,0.0358 0.168352,-0.0358 0.239867,0 0.03576,0.0179 0,0.08 0,0.11994 0,0.04 0,0.0799 0,0.11993 0,0.54597 -0.05654,0.007 0.119933,0.3598 0.01788,0.0358 0,0.0799 0,0.11993 0,0.08 0,0.15991 0,0.23987 0,0.04 0.02827,-0.0917 0,-0.11993 -0.02827,-0.0283 -0.09166,0.0283 -0.119933,0 -0.02827,-0.0283 0,-0.08 0,-0.11994 0,-0.08 0.03576,-0.16835 0,-0.23986 -0.01788,-0.0358 -0.09166,0.0283 -0.119934,0 -0.02334,-0.0233 0.0219,-0.55588 0,-0.59967 -0.01788,-0.0358 -0.09166,0.0283 -0.119933,0 -0.02827,-0.0283 0,-0.08 0,-0.11993 0,-0.04 0,-0.08 0,-0.11994 0,-0.04 0,-0.0799 0,-0.11993 0,-0.04 -0.03998,-0.11993 0,-0.11993 0.03998,0 0.03998,0.11993 0,0.11993 -0.03998,0 -0.01264,-0.15786 0,-0.11993 0.09204,0.2761 0.169278,0.55718 0.239867,0.83953 0.0097,0.0388 -0.01788,0.0842 0,0.11993 0.02528,0.0506 0.102054,0.0663 0.119933,0.11994 1.81e-4,5.4e-4 -1.15e-4,0.35968 0,0.3598 0.06321,0.0632 0.19028,0.0455 0.239867,0.11993 0.05301,0.0795 -0.04798,0.5037 0,0.59966 0.01788,0.0358 0.150874,0.0253 0.119933,0 -0.464117,-0.37972 -0.959467,-0.71959 -1.4392,-1.07939"
           style="fill:none;fill-rule:evenodd;stroke:#000000;stroke-width:1px;stroke-linecap:butt;stroke-linejoin:miter;stroke-opacity:1" />
        <path
           inkscape:connector-curvature="0"
           id="path5664"
           d="m 71.015572,232.19903 c -0.812211,0.18819 -0.03645,0.62937 -0.134985,0.92497 -0.02827,0.0848 -0.07035,0.16549 -0.119933,0.23987 -0.03136,0.047 -0.09465,0.0694 -0.119933,0.11993 -0.119934,0.23987 0.239866,0 0,0.3598 -0.04959,0.0744 -0.176656,0.0567 -0.239867,0.11993 -0.05654,0.0565 0.07996,0.23987 0,0.23987 -0.03998,0 -0.0044,-0.0802 0,-0.11993 0.03559,-0.32034 0.07995,-0.63965 0.119933,-0.95947"
           style="fill:none;fill-rule:evenodd;stroke:#000000;stroke-width:1px;stroke-linecap:butt;stroke-linejoin:miter;stroke-opacity:1" />
        <path
           inkscape:connector-curvature="0"
           id="path5666"
           d="m 67.882255,233.96353 c -0.575316,0.40437 -0.479734,0.21274 -0.479734,0.7196 0,0.27985 0,0.55969 0,0.83953 0,0.04 -0.03576,0.10206 0,0.11994 0.07152,0.0358 0.168353,-0.0358 0.239867,0 0.03576,0.0179 0,0.08 0,0.11993 0,0.08 0,0.15991 0,0.23987 0,0.51971 0,-0.85952 0,0.3598 0,0.04 0,0.0799 0,0.11993 0,0.04 0.02827,0.0917 0,0.11993 -0.02827,0.0283 -0.07996,0 -0.119933,0 -0.03998,0 -0.07996,0 -0.119934,0 -0.07995,0 -0.159911,0 -0.239866,0 -0.171621,0 -0.271565,0.0565 -0.3598,-0.11993 -0.01788,-0.0358 0.01788,-0.0842 0,-0.11993 -0.02528,-0.0506 -0.102055,-0.0663 -0.119934,-0.11994 -0.0183,-0.0549 0,-0.53272 0,-0.59966 0,-0.3598 0,-0.7196 0,-1.0794 0,-0.04 0,0.0799 0,0.11993 0,0.15991 0,0.31982 0,0.47974 0,0.04 0.03576,0.10205 0,0.11993 -0.07151,0.0358 -0.159911,0 -0.239866,0 -0.03998,0 -0.119933,0.04 -0.119933,0 0,-0.04 0.119933,0.04 0.119933,0 0,-0.0565 -0.09465,-0.0694 -0.119933,-0.11993 -0.01788,-0.0358 0,-0.08 0,-0.11994 0,-0.04 0,-0.08 0,-0.11993 0,-0.04 -0.03576,-0.10206 0,-0.11993 0.07151,-0.0358 0.159911,0 0.239866,0"
           style="fill:none;fill-rule:evenodd;stroke:#000000;stroke-width:1px;stroke-linecap:butt;stroke-linejoin:miter;stroke-opacity:1" />
        <path
           inkscape:connector-curvature="0"
           id="path5668"
           d="m 70.635285,233.20767 c 0.795204,0.43439 0.725036,0.12067 0.725036,0.63593 0,0.04 -0.03576,0.10205 0,0.11993 0.07151,0.0358 0.183329,-0.0565 0.239866,0 0.05654,0.0565 0,0.15991 0,0.23987 0,0.3598 0,0.7196 0,1.0794 0,0.15991 0,0.31982 0,0.47973 0,0.08 0,0.31982 0,0.23987 0,-0.59967 0,-1.19933 0,-1.799 0,-0.0982 -0.01755,-0.68451 0,-0.7196 0.01788,-0.0358 0.09166,0.0283 0.119934,0 0.05654,-0.0565 -0.07996,-0.23987 0,-0.23987 0.03998,0 0,0.08 0,0.11994 0,0.0799 0,0.15991 0,0.23986 0,0.19989 0,0.39978 0,0.59967 0,0.19989 0,0.39978 0,0.59967 0,0.04 0.03998,0.11993 0,0.11993 -0.07996,0 0.03576,-0.16835 0,-0.23987 -0.02529,-0.0506 -0.102055,-0.0663 -0.119934,-0.11993 -0.01,-0.0299 0.01235,-0.58731 0,-0.59967 -0.02827,-0.0283 -0.09167,-0.0283 -0.119933,0 -0.02827,0.0283 0,0.08 0,0.11994"
           style="fill:none;fill-rule:evenodd;stroke:#000000;stroke-width:1px;stroke-linecap:butt;stroke-linejoin:miter;stroke-opacity:1" />
      </g>
    </g>
  </g>
</svg>
