<svg xmlns="http://www.w3.org/2000/svg" viewBox="0 0 630 408" width="512" height="332">
	<defs>
		<clipPath clipPathUnits="userSpaceOnUse" id="cp1">
			<path d="M-688 -704L1278 -704L1278 881L-688 881Z" />
		</clipPath>
	</defs>
	<style>
		tspan { white-space:pre }
		.shp0 { fill: #f9c7b1 } 
		.shp1 { fill: #d19a86 } 
		.shp2 { fill: #494949 } 
		.shp3 { fill: #fff4f1 } 
	</style>
	<g id="Page 1" clip-path="url(#cp1)">
		<path id="Path 30" fill-rule="evenodd" class="shp0" d="M81.36 120.47C76.82 120.47 73.25 118.47 71.01 114.66C69.82 112.65 69.07 110.24 68.69 107.6C62.82 109.7 57.39 108.83 52.74 104.95C33.57 88.96 56.12 50.41 57.09 48.79L60.67 50.91C60.45 51.29 38.94 88.03 55.4 101.76C59.15 104.88 63.5 105.39 68.39 103.28C68.38 94.5 71.56 84.2 76.09 76.53C81.44 67.48 88 62.52 95.01 62.8C96.82 62.85 98.21 63.97 98.71 65.78C100.8 73.24 87.47 96.24 74.26 104.8C73.74 105.13 73.22 105.44 72.7 105.74C72.93 108.44 73.55 110.78 74.59 112.56C76.13 115.16 78.49 116.4 81.67 116.29C102.94 115.73 113.37 102.24 113.47 102.11L116.79 104.61C116.32 105.23 105.03 119.83 81.78 120.46C81.64 120.46 81.5 120.47 81.36 120.47ZM94.66 66.78C89.7 66.81 84.16 71.07 79.68 78.64C75.61 85.51 73.15 93.82 72.68 100.86C73.61 100.21 74.56 99.48 75.53 98.67C87.95 88.24 96.24 69.53 94.66 66.78Z" />
		<path id="Path 31" class="shp1" d="M355.92 284.29C355.92 284.29 363.69 368.78 367.21 369.38C370.71 369.96 373.99 354.51 373.99 354.51C373.99 354.51 372.42 369.83 375.73 371.71C379.04 373.6 429.89 284.29 429.89 284.29L355.92 284.29Z" />
		<path id="Path 32" class="shp0" d="M144.97 293C144.97 293 172.14 367.05 174.94 369.65C177.74 372.24 177.54 353.53 177.54 353.53C177.54 353.53 179.43 369.12 183.79 369.65C188.14 370.16 204.78 302.36 204.78 302.36L144.97 293Z" />
		<path id="Path 33" class="shp1" d="M235.17 280.42C235.17 280.42 240.71 363.02 243.47 366.34C246.22 369.63 250.84 351.76 250.84 351.76C250.84 351.76 248.19 367.88 251.89 369.02C255.58 370.16 289.31 307.54 289.31 307.54L235.17 280.42ZM382.12 94.01C382.12 94.01 347.57 95.27 327.71 73.89C327.71 73.89 386.03 22.77 398.12 16.48C398.12 16.48 414.12 51.69 415.55 78.93L382.12 94.01ZM510.51 94.04C510.51 94.04 558.05 85.45 577.9 69.63C577.9 69.63 519.58 31.78 507.49 27.13C507.49 27.13 491.49 53.18 490.06 73.34L510.51 94.04Z" />
		<path id="Path 34" class="shp0" d="M504.92 143.38C484.11 64.29 360.8 25.74 255.76 30.26C212.67 28.53 169.11 38.84 135.61 61.94C91.22 92.56 73.93 123.51 72.76 151.23C58.74 219.84 105.79 288.14 147.05 299.42C362.1 358.24 546.53 301.5 504.92 143.38ZM339.19 130.22C319.78 200.27 355.87 262.47 413.79 282.95C457.93 298.54 528.61 298.53 566.45 213.75C596.62 146.15 540.03 64.95 502.17 64.08C457.64 63.04 358.6 60.18 339.19 130.22Z" />
		<path id="Path 35" class="shp1" d="M327.71 73.89C327.71 73.89 337.31 103.65 380.7 119.16C380.7 119.16 391.73 24.44 398.12 16.48C398.12 16.48 336.24 62.17 327.71 73.89Z" />
		<path id="Path 36" class="shp0" d="M327.71 73.89C327.71 73.89 332.06 95.07 375.44 110.58C375.44 110.58 391.73 24.44 398.12 16.48C398.12 16.48 336.24 62.17 327.71 73.89Z" />
		<path id="Path 37" class="shp1" d="M577.9 69.63C577.9 69.63 568.3 91.65 524.91 103.13C524.91 103.13 513.89 33.02 507.49 27.13C507.49 27.13 569.37 60.94 577.9 69.63Z" />
		<path id="Path 38" class="shp0" d="M577.9 69.63C577.9 69.63 571.4 84.54 528.01 96.01C528.01 96.01 513.89 33.02 507.49 27.13C507.49 27.13 569.37 60.94 577.9 69.63ZM270.53 304.11C270.53 304.11 311.08 384.66 313.87 384.01C316.67 383.38 311.98 364.93 311.98 364.93C311.98 364.93 319.1 383.12 321.6 382.29C324.11 381.45 325.28 303.18 325.28 303.18L270.53 304.11Z" />
		<path id="Path 39" class="shp1" d="M103.7 192.27C94.55 181.38 87.75 130.21 123.82 112.34C159.88 94.48 163.35 117.36 155.72 145.11C148.09 172.85 118.27 209.6 103.7 192.27ZM159.05 187.49C141.94 196.3 144.22 223.62 155.72 216.72C167.22 209.8 178.17 177.66 159.05 187.49ZM523.92 198.49C523.92 225.61 506.54 234.29 468.7 234.29C430.85 234.29 413.47 225.61 413.47 198.49C413.47 171.37 430.85 162.7 468.7 162.7C506.54 162.7 523.92 171.37 523.92 198.49Z" />
		<path id="Path 40" class="shp2" d="M447.92 198.49C447.92 209.57 443.29 212.76 437.59 212.76C431.87 212.76 427.25 209.57 427.25 198.49C427.25 187.41 431.87 184.23 437.59 184.23C443.29 184.23 447.92 187.41 447.92 198.49ZM510.13 198.49C510.13 209.57 505.51 212.76 499.8 212.76C494.1 212.76 489.47 209.57 489.47 198.49C489.47 187.41 494.1 184.23 499.8 184.23C505.51 184.23 510.13 187.41 510.13 198.49Z" />
		<path id="Path 41" class="shp3" d="M445.15 136.66C445.92 143.3 441.34 149.28 434.94 150.02C428.54 150.75 422.73 145.97 421.96 139.34C421.2 132.7 425.77 126.72 432.17 125.98C438.57 125.24 444.38 130.02 445.15 136.66Z" />
		<path id="Path 42" class="shp2" d="M434.71 126.97C433.26 127.15 430.2 128.09 430.56 130.22C430.92 132.34 432.83 130.8 431.61 134.31C430.39 137.82 426.21 136.85 426.56 138.86C426.91 140.87 427.2 148.8 437.58 147.76C449.11 146.61 447.19 125.41 434.71 126.97Z" />
		<path id="Path 43" class="shp3" d="M440.06 142.8C439.94 141.75 439.02 141 438.01 141.11C436.99 141.23 436.27 142.18 436.4 143.23C436.52 144.27 437.43 145.03 438.44 144.91C439.46 144.8 440.18 143.85 440.06 142.8ZM477.27 137.71C478.04 144.35 483.85 149.13 490.25 148.39C496.65 147.65 501.23 141.67 500.46 135.04C499.69 128.4 493.88 123.62 487.48 124.35C481.08 125.09 476.51 131.07 477.27 137.71Z" />
		<path id="Path 44" class="shp2" d="M485.23 125.9C486.68 125.75 489.88 125.96 490.01 128.12C490.15 130.27 487.93 129.2 489.92 132.34C491.91 135.48 495.76 133.59 495.87 135.62C495.99 137.66 497.51 145.44 487.17 146.8C475.68 148.3 472.72 127.22 485.23 125.9Z" />
		<path id="Path 45" class="shp3" d="M483.63 142.54C483.5 141.48 484.22 140.54 485.24 140.42C486.25 140.31 487.17 141.06 487.29 142.11C487.42 143.16 486.69 144.11 485.68 144.23C484.67 144.34 483.74 143.58 483.63 142.54Z" />
		<path id="Path 46" class="shp2" d="M425.39 124.34C425.39 124.34 432.13 114.64 439.79 118.26C439.79 118.26 433.58 117.92 425.39 124.34ZM499.68 123.96C499.68 123.96 490.91 116.05 484.26 121.32C484.26 121.32 490.24 119.57 499.68 123.96Z" />
	</g>
</svg>