<?xml version="1.0" encoding="UTF-8" standalone="no"?>
<!-- Created with Inkscape (http://www.inkscape.org/) -->

<svg
   xmlns:osb="http://www.openswatchbook.org/uri/2009/osb"
   xmlns:dc="http://purl.org/dc/elements/1.1/"
   xmlns:cc="http://creativecommons.org/ns#"
   xmlns:rdf="http://www.w3.org/1999/02/22-rdf-syntax-ns#"
   xmlns:svg="http://www.w3.org/2000/svg"
   xmlns="http://www.w3.org/2000/svg"
   xmlns:xlink="http://www.w3.org/1999/xlink"
   xmlns:sodipodi="http://sodipodi.sourceforge.net/DTD/sodipodi-0.dtd"
   xmlns:inkscape="http://www.inkscape.org/namespaces/inkscape"
   width="480"
   height="600"
   viewBox="0 0 480 600"
   id="svg2"
   version="1.1"
   inkscape:version="0.91 r13725"
   sodipodi:docname="Super_rocket.svg"
   enable-background="new">
  <defs
     id="defs4">
    <inkscape:path-effect
       is_visible="true"
       id="path-effect53778"
       effect="spiro" />
    <inkscape:path-effect
       is_visible="true"
       id="path-effect53774"
       effect="spiro" />
    <inkscape:path-effect
       is_visible="true"
       id="path-effect53770"
       effect="spiro" />
    <inkscape:path-effect
       is_visible="true"
       id="path-effect53766"
       effect="spiro" />
    <inkscape:path-effect
       is_visible="true"
       id="path-effect53762"
       effect="spiro" />
    <inkscape:path-effect
       is_visible="true"
       id="path-effect53758"
       effect="spiro" />
    <inkscape:path-effect
       is_visible="true"
       id="path-effect53754"
       effect="spiro" />
    <inkscape:path-effect
       is_visible="true"
       id="path-effect53750"
       effect="spiro" />
    <inkscape:path-effect
       is_visible="true"
       id="path-effect53746"
       effect="spiro" />
    <inkscape:path-effect
       is_visible="true"
       id="path-effect53742"
       effect="spiro" />
    <inkscape:path-effect
       is_visible="true"
       id="path-effect53738"
       effect="spiro" />
    <inkscape:path-effect
       is_visible="true"
       id="path-effect53734"
       effect="spiro" />
    <inkscape:path-effect
       is_visible="true"
       id="path-effect53730"
       effect="spiro" />
    <linearGradient
       id="linearGradient7279">
      <stop
         id="stop7281"
         style="stop-color:#ffffff"
         offset="0" />
      <stop
         id="stop7283"
         style="stop-color:#ff0000;stop-opacity:1"
         offset="1" />
    </linearGradient>
    <inkscape:path-effect
       effect="spiro"
       id="path-effect7311"
       is_visible="true" />
    <inkscape:path-effect
       effect="spiro"
       id="path-effect7147"
       is_visible="true" />
    <inkscape:path-effect
       effect="spiro"
       id="path-effect18731"
       is_visible="true" />
    <inkscape:path-effect
       effect="spiro"
       id="path-effect18367"
       is_visible="true" />
    <inkscape:path-effect
       effect="spiro"
       id="path-effect18115"
       is_visible="true" />
    <linearGradient
       id="linearGradient4105">
      <stop
         id="stop10732"
         style="stop-color:#ffffff"
         offset="0" />
      <stop
         id="stop10734"
         style="stop-color:#a3bcdf"
         offset="1" />
    </linearGradient>
    <linearGradient
       id="linearGradient8147"
       osb:paint="solid">
      <stop
         style="stop-color:#ffd80c;stop-opacity:1;"
         offset="0"
         id="stop8149" />
    </linearGradient>
    <pattern
       y="0"
       x="0"
       height="6"
       width="6"
       patternUnits="userSpaceOnUse"
       id="EMFhbasepattern" />
    <pattern
       y="0"
       x="0"
       height="6"
       width="6"
       patternUnits="userSpaceOnUse"
       id="EMFhbasepattern-1" />
    <pattern
       y="0"
       x="0"
       height="6"
       width="6"
       patternUnits="userSpaceOnUse"
       id="EMFhbasepattern-2" />
    <filter
       inkscape:label="In and Out"
       inkscape:menu="Shadows and Glows"
       inkscape:menu-tooltip="Inner colorized shadow, outer black shadow"
       style="color-interpolation-filters:sRGB;"
       id="filter5144">
      <feGaussianBlur
         result="result0"
         in="SourceAlpha"
         stdDeviation="4"
         id="feGaussianBlur5146" />
      <feOffset
         dx="5"
         dy="5"
         result="result4"
         id="feOffset5148" />
      <feComposite
         in="SourceGraphic"
         in2="result4"
         operator="xor"
         result="result3"
         id="feComposite5150" />
    </filter>
    <linearGradient
       id="linearGradient10736">
      <stop
         offset="0"
         style="stop-color:#ffffff"
         id="stop4107" />
      <stop
         offset="1"
         style="stop-color:#d3ebf2;stop-opacity:1"
         id="stop4109" />
    </linearGradient>
  </defs>
  <sodipodi:namedview
     id="base"
     pagecolor="#ffffff"
     bordercolor="#666666"
     borderopacity="1.0"
     inkscape:pageopacity="0.0"
     inkscape:pageshadow="2"
     inkscape:zoom="0.45254834"
     inkscape:cx="428.19027"
     inkscape:cy="376.7889"
     inkscape:document-units="px"
     inkscape:current-layer="layer18"
     showgrid="false"
     inkscape:window-width="1301"
     inkscape:window-height="744"
     inkscape:window-x="65"
     inkscape:window-y="24"
     inkscape:window-maximized="1"
     units="px"
     inkscape:snap-smooth-nodes="false"
     inkscape:object-nodes="false"
     inkscape:snap-others="false"
     inkscape:object-paths="false"
     inkscape:snap-intersection-paths="false"
     inkscape:snap-nodes="false"
     inkscape:snap-object-midpoints="true"
     inkscape:snap-global="false" />
  <metadata
     id="metadata7">
    <rdf:RDF>
      <cc:Work
         rdf:about="">
        <dc:format>image/svg+xml</dc:format>
        <dc:type
           rdf:resource="http://purl.org/dc/dcmitype/StillImage" />
        <dc:title></dc:title>
        <cc:license
           rdf:resource="http://creativecommons.org/licenses/by/3.0/" />
        <dc:creator>
          <cc:Agent>
            <dc:title>Nicco Kunzmann</dc:title>
          </cc:Agent>
        </dc:creator>
        <dc:contributor>
          <cc:Agent>
            <dc:title>Nicco Kunzmann, </dc:title>
          </cc:Agent>
        </dc:contributor>
      </cc:Work>
      <cc:License
         rdf:about="http://creativecommons.org/licenses/by/3.0/">
        <cc:permits
           rdf:resource="http://creativecommons.org/ns#Reproduction" />
        <cc:permits
           rdf:resource="http://creativecommons.org/ns#Distribution" />
        <cc:requires
           rdf:resource="http://creativecommons.org/ns#Notice" />
        <cc:requires
           rdf:resource="http://creativecommons.org/ns#Attribution" />
        <cc:permits
           rdf:resource="http://creativecommons.org/ns#DerivativeWorks" />
      </cc:License>
    </rdf:RDF>
  </metadata>
  <g
     inkscape:groupmode="layer"
     id="layer18"
     inkscape:label="Super_rocket"
     sodipodi:insensitive="true"
     onclick="characterChange('bird');">
    <g
       transform="translate(2.652643,23.280459)"
       style="display:inline"
       id="g8224">
      <g
         id="g7943">
        <g
           id="g7892"
           transform="translate(4.9497475,2.8284271)">
          <g
             transform="translate(-1.5223363,-4.4587279)"
             id="g7865">
            <g
               id="g7816"
               transform="translate(3.7109374,-21.484374)">
              <path
                 inkscape:connector-curvature="0"
                 id="path7799"
                 d="m 103.71093,234.57033 10.35157,7.22656 6.44531,11.32812 0.78125,11.13282"
                 style="fill:none;fill-rule:evenodd;stroke:#000000;stroke-width:1px;stroke-linecap:butt;stroke-linejoin:miter;stroke-opacity:1" />
              <g
                 id="g7809">
                <path
                   style="fill:none;fill-rule:evenodd;stroke:#000000;stroke-width:1px;stroke-linecap:butt;stroke-linejoin:miter;stroke-opacity:1"
                   d="m 103.71093,252.73439 4.6875,9.76562 12.89063,1.75782 30.27343,-6.83594 13.28125,-4.88281 -27.34375,-15.82031 -23.04687,-4.88282 -10.74219,2.73438 -9.374996,10.54687 z"
                   id="path7793"
                   inkscape:connector-curvature="0" />
                <path
                   style="fill:none;fill-rule:evenodd;stroke:#000000;stroke-width:1px;stroke-linecap:butt;stroke-linejoin:miter;stroke-opacity:1"
                   d="m 103.71093,252.73439 10.35157,-10.9375 7.42187,-1.5625 15.42969,2.14844 27.92968,10.15625"
                   id="path7795"
                   inkscape:connector-curvature="0" />
                <path
                   style="fill:none;fill-rule:evenodd;stroke:#000000;stroke-width:1px;stroke-linecap:butt;stroke-linejoin:miter;stroke-opacity:1"
                   d="m 108.39843,262.50001 12.10938,-9.375 44.33593,-0.58593"
                   id="path7797"
                   inkscape:connector-curvature="0" />
                <path
                   style="fill:none;fill-rule:evenodd;stroke:#000000;stroke-width:1px;stroke-linecap:butt;stroke-linejoin:miter;stroke-opacity:1"
                   d="m 114.45312,231.83595 7.03125,8.39844 -0.97656,12.89062 11.71875,8.59375"
                   id="path7801"
                   inkscape:connector-curvature="0" />
                <path
                   style="fill:none;fill-rule:evenodd;stroke:#000000;stroke-width:1px;stroke-linecap:butt;stroke-linejoin:miter;stroke-opacity:1"
                   d="m 137.49999,236.71877 -0.58593,5.66406 -16.40625,10.74218"
                   id="path7803"
                   inkscape:connector-curvature="0" />
              </g>
            </g>
            <g
               id="g7851">
              <path
                 sodipodi:nodetypes="scscsscsscs"
                 inkscape:connector-curvature="0"
                 id="path7825"
                 d="m 103.22524,227.07407 c -2.25586,-1.83671 -4.261512,-3.40677 -4.28991,-3.48425 -0.0284,-0.0775 2.0009,-2.29191 4.34246,-4.92573 l 4.25737,-4.78875 4.19396,2.9417 c 2.30668,1.61793 4.40551,3.09187 4.66407,3.27541 l 0.47012,0.33372 -3.1081,3.27567 c -1.70945,1.80162 -3.85516,4.04878 -4.76825,4.99368 l -1.66015,1.718 z"
                 style="fill:#000080;fill-opacity:1;fill-rule:nonzero;stroke:#0a0ebb;stroke-width:0.5;stroke-linecap:round;stroke-linejoin:round;stroke-miterlimit:4;stroke-dasharray:none;stroke-dashoffset:0;stroke-opacity:1" />
              <path
                 sodipodi:nodetypes="scccss"
                 inkscape:connector-curvature="0"
                 id="path7827"
                 d="m 110.24211,235.73998 c -1.12532,-2.32848 -2.02189,-4.30379 -1.99239,-4.38957 0.0641,-0.18648 9.26423,-10.11362 9.45327,-10.19513 0.12186,-0.0525 5.63359,9.79207 5.7722,10.29672 0.0526,0.19168 -10.83721,8.70941 -11.1314,8.70941 -0.0549,0 -0.97637,-2.09295 -2.10168,-4.42143 z"
                 style="fill:#000080;fill-opacity:1;fill-rule:nonzero;stroke:#0a0ebb;stroke-width:0.5;stroke-linecap:round;stroke-linejoin:round;stroke-miterlimit:4;stroke-dasharray:none;stroke-dashoffset:0;stroke-opacity:1" />
              <path
                 sodipodi:nodetypes="sccccs"
                 inkscape:connector-curvature="0"
                 id="path7829"
                 d="m 113.44174,216.58188 c -2.43757,-1.69023 -4.98951,-3.23235 -4.99579,-3.29189 -0.0188,-0.17818 9.32638,-2.248 9.53751,-2.11751 0.27856,0.17216 6.42481,7.26005 6.34377,7.32451 -0.0678,0.0539 -6.20882,1.16672 -6.3682,1.16106 -0.0469,-0.002 -2.07972,-1.38595 -4.51729,-3.07617 z"
                 style="fill:#000080;fill-opacity:1;fill-rule:nonzero;stroke:#0a0ebb;stroke-width:0.5;stroke-linecap:round;stroke-linejoin:round;stroke-miterlimit:4;stroke-dasharray:none;stroke-dashoffset:0;stroke-opacity:1" />
              <path
                 sodipodi:nodetypes="scccs"
                 inkscape:connector-curvature="0"
                 id="path7831"
                 d="m 121.23088,225.18143 c -1.3762,-2.41433 -2.60765,-4.49966 -2.57422,-4.52904 0.0787,-0.0692 5.84532,-1.17055 5.87459,-1.12414 0.0288,0.0456 -0.66756,9.74373 -0.74176,10.28804 -0.0378,0.2776 -0.88086,-1.69149 -2.55861,-4.63486 z"
                 style="fill:#000080;fill-opacity:1;fill-rule:nonzero;stroke:#0a0ebb;stroke-width:0.5;stroke-linecap:round;stroke-linejoin:round;stroke-miterlimit:4;stroke-dasharray:none;stroke-dashoffset:0;stroke-opacity:1" />
              <path
                 sodipodi:nodetypes="scscscccs"
                 inkscape:connector-curvature="0"
                 id="path7835"
                 d="m 132.63994,219.2093 -7.10874,-1.00027 -2.91366,-3.48009 c -2.1126,-2.5233 -3.40808,-3.67036 -3.08029,-3.58941 0.24865,0.0614 5.55323,1.28267 11.03174,2.44383 5.47852,1.16117 10.15716,1.85923 10.15392,1.95637 -0.0249,0.7451 -0.53043,4.09208 -0.60916,4.36549 -0.0541,0.18799 -0.15842,0.33337 -0.23175,0.32307 -0.0733,-0.0103 -3.33225,-0.46884 -7.24206,-1.01899 z"
                 style="fill:#000080;fill-opacity:1;fill-rule:nonzero;stroke:#0a0ebb;stroke-width:0.5;stroke-linecap:round;stroke-linejoin:round;stroke-miterlimit:4;stroke-dasharray:none;stroke-dashoffset:0;stroke-opacity:1" />
              <path
                 sodipodi:nodetypes="cssscc"
                 inkscape:connector-curvature="0"
                 id="path7837"
                 d="m 125.01202,229.47123 c 0.0158,-1.54316 0.46104,-10.08376 0.58181,-10.20453 0.1016,-0.1016 13.65139,1.91011 13.78432,2.04304 0.0454,0.0454 -10.50254,6.61955 -13.53854,8.55212 l -1.04454,0.78915 z"
                 style="fill:#000080;fill-opacity:1;fill-rule:nonzero;stroke:#0a0ebb;stroke-width:0.5;stroke-linecap:round;stroke-linejoin:round;stroke-miterlimit:4;stroke-dasharray:none;stroke-dashoffset:0;stroke-opacity:1" />
              <path
                 sodipodi:nodetypes="ssscsscs"
                 inkscape:connector-curvature="0"
                 id="path7839"
                 d="m 133.45351,226.3206 c 4.01179,-2.49129 7.23409,-4.7064 7.2985,-4.7064 0.0644,0 5.6189,1.99952 12.34332,4.44336 l 12.88913,4.44336 -9.34778,0.12019 c -4.77674,0.0614 -13.5628,0.18448 -19.52472,0.26304 l -11.31591,0.19168 z"
                 style="fill:#000080;fill-opacity:1;fill-rule:nonzero;stroke:#0a0ebb;stroke-width:0.5;stroke-linecap:round;stroke-linejoin:round;stroke-miterlimit:4;stroke-dasharray:none;stroke-dashoffset:0;stroke-opacity:1" />
              <path
                 sodipodi:nodetypes="sccsscs"
                 inkscape:connector-curvature="0"
                 id="path7841"
                 d="m 131.09591,235.94152 c -2.71802,-1.99641 -5.41577,-3.85026 -5.38331,-3.88094 0.0944,-0.0892 39.779,-0.37651 40.02819,-0.29147 0.12394,0.0423 -3.31732,0.90806 -6.02677,1.8969 -4.7473,1.73259 -5.25901,1.87274 -14.08442,3.85743 -5.03698,1.13273 -9.25573,2.0569 -9.375,2.05371 -0.11927,-0.003 -2.44068,-1.63922 -5.15869,-3.63563 z"
                 style="fill:#000080;fill-opacity:1;fill-rule:nonzero;stroke:#0a0ebb;stroke-width:0.5;stroke-linecap:round;stroke-linejoin:round;stroke-miterlimit:4;stroke-dasharray:none;stroke-dashoffset:0;stroke-opacity:1" />
              <path
                 sodipodi:nodetypes="ccccsccc"
                 inkscape:connector-curvature="0"
                 id="path7843"
                 d="m 151.17446,224.12015 c -5.31738,-1.93835 -9.72042,-3.5808 -9.78453,-3.64988 -0.0641,-0.0691 -0.0202,-1.05694 0.0977,-2.19525 l 0.21421,-2.06964 9.57032,5.54604 c 5.26367,3.05033 11.9846,6.6097 11.9846,6.6097 0,0 -3.25438,-1.02294 -12.08226,-4.24097 z"
                 style="fill:#000080;fill-opacity:1;fill-rule:nonzero;stroke:#0a0ebb;stroke-width:0.5;stroke-linecap:round;stroke-linejoin:round;stroke-miterlimit:4;stroke-dasharray:none;stroke-dashoffset:0;stroke-opacity:1" />
              <path
                 sodipodi:nodetypes="ccccc"
                 inkscape:connector-curvature="0"
                 id="path7845"
                 d="m 125.51662,241.38959 c -0.14749,-0.76959 -0.76121,-8.33488 -0.67315,-8.55894 0.0734,-0.18666 9.77302,6.78378 9.87601,7.09774 0.0436,0.13302 -8.70537,2.25165 -9.16782,2.21781 -0.072,-0.005 0.0216,-0.4612 -0.035,-0.75661 z"
                 style="fill:#000080;fill-opacity:1;fill-rule:nonzero;stroke:#0a0ebb;stroke-width:0.5;stroke-linecap:round;stroke-linejoin:round;stroke-miterlimit:4;stroke-dasharray:none;stroke-dashoffset:0;stroke-opacity:1" />
              <path
                 sodipodi:nodetypes="sscsccs"
                 inkscape:connector-curvature="0"
                 id="path7847"
                 d="m 118.89907,241.37142 c -2.76611,-0.3848 -5.44434,-0.69648 -5.44434,-0.76723 0,-0.24537 10.17371,-8.17412 10.30423,-8.02823 0.0721,0.0806 0.12481,2.41715 0.25129,4.56559 0.12648,2.14844 0.27664,4.14795 0.3337,4.44336 0.0724,0.37493 0.0253,0.52941 -0.15592,0.51163 -0.14282,-0.014 -2.52285,-0.34032 -5.28896,-0.72512 z"
                 style="fill:#000080;fill-opacity:1;fill-rule:nonzero;stroke:#0a0ebb;stroke-width:0.5;stroke-linecap:round;stroke-linejoin:round;stroke-miterlimit:4;stroke-dasharray:none;stroke-dashoffset:0;stroke-opacity:1" />
              <path
                 inkscape:transform-center-y="0.0027169417"
                 inkscape:transform-center-x="-0.31156402"
                 d="m 127.50855,231.64943 -2.28156,3.12271 -3.67491,-1.20492 0.0103,-3.86739 3.68131,-1.18526 z"
                 inkscape:randomized="0"
                 inkscape:rounded="0"
                 inkscape:flatsided="true"
                 sodipodi:arg2="0.63099109"
                 sodipodi:arg1="0.0026725594"
                 sodipodi:r2="2.661514"
                 sodipodi:r1="3.2898121"
                 sodipodi:cy="231.64064"
                 sodipodi:cx="124.21875"
                 sodipodi:sides="5"
                 id="path7849"
                 style="fill:#cccccc;fill-opacity:1;fill-rule:nonzero;stroke:#707077;stroke-width:0.5;stroke-linecap:round;stroke-linejoin:round;stroke-miterlimit:4;stroke-dasharray:none;stroke-dashoffset:0;stroke-opacity:1"
                 sodipodi:type="star" />
            </g>
          </g>
          <path
             inkscape:connector-curvature="0"
             id="path7888"
             d="m 167.03234,226.59598 7.0927,1.64263 -16.79378,7.24785 -34.1179,8.13172 -15.02602,-2.47487 2.39969,-4.5864 12.89063,1.75782 10.9375,-2.53907 19.33593,-4.29687 z"
             style="fill:#ececec;fill-rule:evenodd;stroke:#000000;stroke-width:1px;stroke-linecap:butt;stroke-linejoin:miter;stroke-opacity:1" />
        </g>
        <path
           style="fill:#ffff00;fill-opacity:1;fill-rule:nonzero;stroke:#707077;stroke-width:0.5;stroke-linecap:round;stroke-linejoin:round;stroke-miterlimit:4;stroke-dasharray:none;stroke-dashoffset:0;stroke-opacity:1"
           id="path7917"
           sodipodi:type="arc"
           sodipodi:cx="117.82167"
           sodipodi:cy="242.20396"
           sodipodi:rx="1.4142135"
           sodipodi:ry="1.3258252"
           sodipodi:start="0"
           sodipodi:end="6.2768847"
           d="m 119.23588,242.20396 a 1.4142135,1.3258252 0 0 1 -1.41198,1.32583 1.4142135,1.3258252 0 0 1 -1.41644,-1.32165 1.4142135,1.3258252 0 0 1 1.40753,-1.32999 1.4142135,1.3258252 0 0 1 1.42087,1.31746 l -1.41419,0.008 z" />
        <use
           id="use7921"
           xlink:href="#path7917"
           x="0"
           y="0"
           width="100%"
           height="100%"
           transform="translate(9.2658389,1.3181925)"
           style="fill:#ffff00;fill-opacity:1" />
        <use
           id="use7923"
           xlink:href="#path7917"
           x="0"
           y="0"
           width="100%"
           height="100%"
           transform="translate(18.534423,-0.13762869)"
           style="fill:#ffff00;fill-opacity:1" />
        <use
           id="use7933"
           xlink:href="#path7917"
           x="0"
           y="0"
           width="100%"
           height="100%"
           transform="translate(27.836953,-2.4232864)"
           style="fill:#ffff00;fill-opacity:1" />
        <use
           id="use7937"
           xlink:href="#path7917"
           x="0"
           y="0"
           width="100%"
           height="100%"
           transform="translate(36.412833,-4.3549661)"
           style="fill:#ffff00;fill-opacity:1" />
        <use
           id="use7939"
           xlink:href="#path7917"
           x="0"
           y="0"
           width="100%"
           height="100%"
           transform="translate(44.472194,-6.6538986)"
           style="fill:#ffff00;fill-opacity:1" />
        <use
           id="use7941"
           xlink:href="#path7917"
           x="0"
           y="0"
           width="100%"
           height="100%"
           transform="translate(54.17108,-10.402567)"
           style="fill:#ffff00;fill-opacity:1" />
      </g>
      <path
         sodipodi:nodetypes="cccccccssscccccc"
         inkscape:connector-curvature="0"
         id="path7976"
         d="m 179.07479,231.06704 24.21841,1.41421 31.28947,3.71231 24.92552,10.96016 15.20279,2.12132 -14.49569,5.65685 L 200.25,263.25 c 0,0 -9.64785,-5.47581 -15,-6.5 -15.96796,-3.05563 -33.55794,-4.28912 -48.75,1.5 -3.75884,1.43236 -6.94735,4.45176 -9.25,7.75 -1.26751,1.81554 -2.25,6.25 -2.25,6.25 l -25.75,-5.75 13.88709,-22.52826 15.02602,2.47487 34.1179,-8.13172 z"
         style="fill:none;fill-rule:evenodd;stroke:#000000;stroke-width:1px;stroke-linecap:butt;stroke-linejoin:miter;stroke-opacity:1" />
      <path
         inkscape:connector-curvature="0"
         id="path7978"
         d="m 221.5012,260.32358 1.14905,3.8007 -4.77297,1.23744 -2.47488,4.59619 23.06936,0.44194 30.93592,-10.25305 -35.44372,3.53554 -0.26517,-2.65165 15.64474,-2.82843 5.21491,-2.38648 z"
         style="fill:none;fill-rule:evenodd;stroke:#000000;stroke-width:1px;stroke-linecap:butt;stroke-linejoin:miter;stroke-opacity:1" />
      <path
         inkscape:connector-curvature="0"
         id="path7980"
         d="M 234.58267,236.19356 207.5,244.875 l -10,0.75 -23.25,-3.125 27,-1 8,-4.125 -6.5,-4.875 z"
         style="fill:none;fill-rule:evenodd;stroke:#000000;stroke-width:1px;stroke-linecap:butt;stroke-linejoin:miter;stroke-opacity:1" />
      <path
         inkscape:connector-curvature="0"
         id="path7982"
         d="m 239.35564,238.49166 -15.02601,4.77297"
         style="fill:none;fill-rule:evenodd;stroke:#000000;stroke-width:1px;stroke-linecap:butt;stroke-linejoin:miter;stroke-opacity:1" />
      <path
         inkscape:connector-curvature="0"
         id="path7984"
         d="m 244.48217,240.78976 -12.72792,4.24264"
         style="fill:none;fill-rule:evenodd;stroke:#000000;stroke-width:1px;stroke-linecap:butt;stroke-linejoin:miter;stroke-opacity:1" />
      <path
         inkscape:connector-curvature="0"
         id="path7986"
         d="m 249.96225,243.26463 -10.78338,4.06586"
         style="fill:none;fill-rule:evenodd;stroke:#000000;stroke-width:1px;stroke-linecap:butt;stroke-linejoin:miter;stroke-opacity:1" />
      <path
         inkscape:connector-curvature="0"
         id="path7988"
         d="M 267.10959,248.21438 259,251.5 l -57.5,7.75 -8.45985,-4.49488 -9.36916,-2.82843 -12.55115,-1.06066 -15.2028,0.17677 -12.19759,1.41422 -8.3085,2.12132 -7.07107,3.53553 -4.77297,5.83363 -1.94454,4.41942 -20.32932,-5.12652"
         style="fill:none;fill-rule:evenodd;stroke:#000000;stroke-width:1px;stroke-linecap:butt;stroke-linejoin:miter;stroke-opacity:1" />
      <path
         inkscape:connector-curvature="0"
         id="path7990"
         d="m 200.25,263.25 12,14.25 -19,18.75 -40.5,8 -61.25,2.75 38.25,-9.75 23.5,-12.25 -7,-9.75 -21.25,-3"
         style="fill:none;fill-rule:evenodd;stroke:#000000;stroke-width:1px;stroke-linecap:butt;stroke-linejoin:miter;stroke-opacity:1" />
      <path
         inkscape:connector-curvature="0"
         id="path7994"
         d="m 107.65701,306.19713 24.74873,-6.09879 26.51651,-14.49569 -11.04854,-13.61181 -21.92031,-3.09359"
         style="fill:none;fill-rule:evenodd;stroke:#000000;stroke-width:1px;stroke-linecap:butt;stroke-linejoin:miter;stroke-opacity:1" />
      <path
         inkscape:connector-curvature="0"
         id="path7996"
         d="M 147.87371,271.99084 146.25,275.25"
         style="fill:none;fill-rule:evenodd;stroke:#000000;stroke-width:1px;stroke-linecap:butt;stroke-linejoin:miter;stroke-opacity:1" />
      <path
         inkscape:connector-curvature="0"
         id="path7998"
         d="m 153.25,285 5.67225,0.60265"
         style="fill:none;fill-rule:evenodd;stroke:#000000;stroke-width:1px;stroke-linecap:butt;stroke-linejoin:miter;stroke-opacity:1" />
      <path
         inkscape:connector-curvature="0"
         id="path8000"
         d="m 129.75,297.25 2.65574,2.84834"
         style="fill:none;fill-rule:evenodd;stroke:#000000;stroke-width:1px;stroke-linecap:butt;stroke-linejoin:miter;stroke-opacity:1" />
      <path
         inkscape:connector-curvature="0"
         id="path8002"
         d="m 180.13545,256.16933 12.19759,12.72792 3.18198,9.36917 -7.77817,9.36916 -27.57716,9.72272 -48.96715,8.13173"
         style="fill:none;fill-rule:evenodd;stroke:#000000;stroke-width:1px;stroke-linecap:butt;stroke-linejoin:miter;stroke-opacity:1" />
      <path
         inkscape:connector-curvature="0"
         id="path8004"
         d="M 192.33304,268.89725 212.25,277.5"
         style="fill:none;fill-rule:evenodd;stroke:#000000;stroke-width:1px;stroke-linecap:butt;stroke-linejoin:miter;stroke-opacity:1" />
      <path
         inkscape:connector-curvature="0"
         id="path8006"
         d="M 187.73685,287.63558 193.25,296.25"
         style="fill:none;fill-rule:evenodd;stroke:#000000;stroke-width:1px;stroke-linecap:butt;stroke-linejoin:miter;stroke-opacity:1" />
      <path
         inkscape:connector-curvature="0"
         id="path8008"
         d="m 216.99339,266.95271 20.94804,0.26516 18.91511,-5.56846"
         style="fill:none;fill-rule:evenodd;stroke:#000000;stroke-width:1px;stroke-linecap:butt;stroke-linejoin:miter;stroke-opacity:1" />
      <path
         inkscape:connector-curvature="0"
         id="path8010"
         d="m 237.94143,267.21787 0.53033,3.18198"
         style="fill:none;fill-rule:evenodd;stroke:#000000;stroke-width:1px;stroke-linecap:butt;stroke-linejoin:miter;stroke-opacity:1" />
      <path
         inkscape:connector-curvature="0"
         id="path8012"
         d="m 208.25,281.5 14.5,5.25 -14.75,4.25 -9,-0.25"
         style="fill:none;fill-rule:evenodd;stroke:#000000;stroke-width:1px;stroke-linecap:butt;stroke-linejoin:miter;stroke-opacity:1" />
      <path
         inkscape:connector-curvature="0"
         id="path8014"
         d="m 149.90664,280.91807 -7.15946,0.26516 -3.62392,2.56326 0.35355,2.82843 2.20971,1.59099 2.74004,-1.94454 0.53033,-2.91682 -2.47487,-2.03293"
         style="fill:none;fill-rule:evenodd;stroke:#000000;stroke-width:1px;stroke-linecap:butt;stroke-linejoin:miter;stroke-opacity:1" />
      <path
         inkscape:connector-curvature="0"
         id="path8016"
         d="m 141.68652,288.16591 5.12653,0"
         style="fill:none;fill-rule:evenodd;stroke:#000000;stroke-width:1px;stroke-linecap:butt;stroke-linejoin:miter;stroke-opacity:1" />
      <path
         inkscape:connector-curvature="0"
         id="path8018"
         d="M 101.47428,222.00253 90.625,227.625 l -3.375,8.75 6.375,6.125 19.51209,1.47174 L 95.5,239.125 l -4.875,-4.25 3.625,-9.125"
         style="fill:none;fill-rule:evenodd;stroke:#000000;stroke-width:1px;stroke-linecap:butt;stroke-linejoin:miter;stroke-opacity:1" />
      <path
         inkscape:connector-curvature="0"
         id="path8020"
         d="m 98,224.375 -2.625,7 4.375,4.25 13.38709,8.34674 L 104.875,232.5 l -4.625,-5.25 1.22428,-5.24747"
         style="fill:none;fill-rule:evenodd;stroke:#000000;stroke-width:1px;stroke-linecap:butt;stroke-linejoin:miter;stroke-opacity:1" />
      <path
         inkscape:connector-curvature="0"
         id="path8022"
         d="M 94.25,225.75 80.875,209.5 69.375,205.625 36.5,206 l 2.875,2.5 8.125,2.5 10.625,1.5 6.625,3.25 2.375,4.5 -0.75,3.375 -6.125,4.75 -1.375,2.75 7.5,2 7.25,-0.375 9.125,-1.625 7.875,-3.5 z"
         style="fill:none;fill-rule:evenodd;stroke:#000000;stroke-width:1px;stroke-linecap:butt;stroke-linejoin:miter;stroke-opacity:1" />
      <path
         inkscape:connector-curvature="0"
         id="path8024"
         d="m 62.375,232.25 1.25,-2.75 5,-4.125 1.125,-6.125 -3.125,-5.5 -7.75,-3.875 -11,-1.5 -6.625,-2.25"
         style="fill:none;fill-rule:evenodd;stroke:#000000;stroke-width:1px;stroke-linecap:butt;stroke-linejoin:miter;stroke-opacity:1" />
      <path
         inkscape:connector-curvature="0"
         id="path8026"
         d="m 72.875,207 -0.875,2.875 3.75,1.625 5.125,-2"
         style="fill:none;fill-rule:evenodd;stroke:#000000;stroke-width:1px;stroke-linecap:butt;stroke-linejoin:miter;stroke-opacity:1" />
      <path
         inkscape:connector-curvature="0"
         id="path8028"
         d="m 59.75,206.125 3.125,1.875 4,-0.25 2.5,-2.125"
         style="fill:none;fill-rule:evenodd;stroke:#000000;stroke-width:1px;stroke-linecap:butt;stroke-linejoin:miter;stroke-opacity:1" />
      <path
         inkscape:connector-curvature="0"
         id="path8030"
         d="m 84.75,214.125 -0.125,3.625 3.875,5.625 5.75,2.375"
         style="fill:none;fill-rule:evenodd;stroke:#000000;stroke-width:1px;stroke-linecap:butt;stroke-linejoin:miter;stroke-opacity:1" />
      <path
         inkscape:connector-curvature="0"
         id="path8032"
         d="m 66.375,223.625 2.25,1.75"
         style="fill:none;fill-rule:evenodd;stroke:#000000;stroke-width:1px;stroke-linecap:butt;stroke-linejoin:miter;stroke-opacity:1" />
      <path
         inkscape:connector-curvature="0"
         id="path8034"
         d="m 67.125,220.25 2.625,-1"
         style="fill:none;fill-rule:evenodd;stroke:#000000;stroke-width:1px;stroke-linecap:butt;stroke-linejoin:miter;stroke-opacity:1" />
      <path
         inkscape:connector-curvature="0"
         id="path8036"
         d="m 64.75,215.75 1.875,-2"
         style="fill:none;fill-rule:evenodd;stroke:#000000;stroke-width:1px;stroke-linecap:butt;stroke-linejoin:miter;stroke-opacity:1" />
      <path
         inkscape:connector-curvature="0"
         id="path8038"
         d="m 58.125,212.5 0.75,-2.625"
         style="fill:none;fill-rule:evenodd;stroke:#000000;stroke-width:1px;stroke-linecap:butt;stroke-linejoin:miter;stroke-opacity:1" />
      <path
         inkscape:connector-curvature="0"
         id="path8040"
         d="m 47.5,211 0.375,-2.625"
         style="fill:none;fill-rule:evenodd;stroke:#000000;stroke-width:1px;stroke-linecap:butt;stroke-linejoin:miter;stroke-opacity:1" />
      <path
         inkscape:connector-curvature="0"
         id="path8042"
         d="m 39.375,208.5 1.875,-2.375"
         style="fill:none;fill-rule:evenodd;stroke:#000000;stroke-width:1px;stroke-linecap:butt;stroke-linejoin:miter;stroke-opacity:1" />
      <path
         inkscape:connector-curvature="0"
         id="path8046"
         d="m 99.25,266.5 5.22503,8.40766 -16.263459,5.12652 -56.214989,-24.57196 49.143921,14.84924 7.954951,-2.29809 -5.833631,-6.36396 L 93.625,242.5"
         style="fill:none;fill-rule:evenodd;stroke:#000000;stroke-width:1px;stroke-linecap:butt;stroke-linejoin:miter;stroke-opacity:1" />
      <path
         inkscape:connector-curvature="0"
         id="path8048"
         d="m 58.875,231.125 6.002047,6.65955 11.313708,0.35356 L 87.25,236.375"
         style="fill:none;fill-rule:evenodd;stroke:#000000;stroke-width:1px;stroke-linecap:butt;stroke-linejoin:miter;stroke-opacity:1" />
      <path
         inkscape:connector-curvature="0"
         id="path8050"
         d="m 64.877047,237.78455 2.298097,5.12653 0,5.65685 -2.65165,4.41942 -0.176777,2.2981 18.915106,6.36396"
         style="fill:none;fill-rule:evenodd;stroke:#000000;stroke-width:1px;stroke-linecap:butt;stroke-linejoin:miter;stroke-opacity:1" />
      <path
         inkscape:connector-curvature="0"
         id="path8052"
         d="m 64.523494,252.98735 21.38998,2.82843"
         style="fill:none;fill-rule:evenodd;stroke:#000000;stroke-width:1px;stroke-linecap:butt;stroke-linejoin:miter;stroke-opacity:1" />
      <path
         inkscape:connector-curvature="0"
         id="path8054"
         d="m 67.175144,248.56793 22.273864,1.41421"
         style="fill:none;fill-rule:evenodd;stroke:#000000;stroke-width:1px;stroke-linecap:butt;stroke-linejoin:miter;stroke-opacity:1" />
      <path
         inkscape:connector-curvature="0"
         id="path8056"
         d="M 67.175144,242.91108 93.625,242.5"
         style="fill:none;fill-rule:evenodd;stroke:#000000;stroke-width:1px;stroke-linecap:butt;stroke-linejoin:miter;stroke-opacity:1" />
      <path
         inkscape:connector-curvature="0"
         id="path8060"
         d="m 67.175144,242.9111 -2.987644,1.37015 0.09375,3.15625 2.893894,1.13043 -3.643894,0.0883 -1,1.875 1.992244,2.4561"
         style="fill:none;fill-rule:evenodd;stroke:#000000;stroke-width:1px;stroke-linecap:butt;stroke-linejoin:miter;stroke-opacity:1" />
      <path
         inkscape:connector-curvature="0"
         id="path8062"
         d="m 64.877047,237.78455 -2.502047,2.02795 0.9375,2.4375 3.862644,0.66108"
         style="fill:none;fill-rule:evenodd;stroke:#000000;stroke-width:1px;stroke-linecap:butt;stroke-linejoin:miter;stroke-opacity:1" />
      <path
         inkscape:connector-curvature="0"
         id="path8064"
         d="m 70.799066,237.96133 2.032932,4.77297 0.787802,7.11736 -2.99751,4.10796"
         style="fill:none;fill-rule:evenodd;stroke:#000000;stroke-width:1px;stroke-linecap:butt;stroke-linejoin:miter;stroke-opacity:1" />
      <path
         inkscape:connector-curvature="0"
         id="path8066"
         d="m 76.190755,238.13811 4.209317,4.56743 0.298489,6.83466 -2.828427,5.03814"
         style="fill:none;fill-rule:evenodd;stroke:#000000;stroke-width:1px;stroke-linecap:butt;stroke-linejoin:miter;stroke-opacity:1" />
      <path
         inkscape:connector-curvature="0"
         id="path8068"
         d="m 82.819882,237.16583 3.800698,5.39169 0.176777,7.24785 -0.883883,6.01041"
         style="fill:none;fill-rule:evenodd;stroke:#000000;stroke-width:1px;stroke-linecap:butt;stroke-linejoin:miter;stroke-opacity:1" />
      <path
         inkscape:connector-curvature="0"
         id="path8070"
         d="m 93.625,242.5 2.62991,3.59306 10.6066,0.61872 -10.960153,19.53382 3.977476,6.8059 -11.490486,4.15426 -56.391765,-21.74354"
         style="fill:none;fill-rule:evenodd;stroke:#000000;stroke-width:1px;stroke-linecap:butt;stroke-linejoin:miter;stroke-opacity:1" />
      <path
         inkscape:connector-curvature="0"
         id="path8072"
         d="m 88.388347,277.20576 -0.176776,2.82842"
         style="fill:none;fill-rule:evenodd;stroke:#000000;stroke-width:1px;stroke-linecap:butt;stroke-linejoin:miter;stroke-opacity:1" />
      <path
         inkscape:connector-curvature="0"
         id="path8074"
         d="m 99.878833,273.0515 4.596197,1.85616"
         style="fill:none;fill-rule:evenodd;stroke:#000000;stroke-width:1px;stroke-linecap:butt;stroke-linejoin:miter;stroke-opacity:1" />
      <path
         inkscape:connector-curvature="0"
         id="path8076"
         d="M 95.901357,266.2456 99.25,266.5"
         style="fill:none;fill-rule:evenodd;stroke:#000000;stroke-width:1px;stroke-linecap:butt;stroke-linejoin:miter;stroke-opacity:1" />
      <path
         inkscape:connector-curvature="0"
         id="path8078"
         d="m 106.86151,246.71178 6.27558,-2.74004"
         style="fill:none;fill-rule:evenodd;stroke:#000000;stroke-width:1px;stroke-linecap:butt;stroke-linejoin:miter;stroke-opacity:1" />
      <path
         inkscape:connector-curvature="0"
         id="path8080"
         d="M 96.25491,246.09306 95.901357,266.2456"
         style="fill:none;fill-rule:evenodd;stroke:#000000;stroke-width:1px;stroke-linecap:butt;stroke-linejoin:miter;stroke-opacity:1" />
      <path
         inkscape:connector-curvature="0"
         id="path8082"
         d="m 64.78131,232.0901 c -0.664765,-0.19088 -1.260212,-0.3986 -1.323215,-0.4616 -0.384082,-0.38408 1.00492,-2.04434 3.180373,-3.80146 1.361887,-1.1 2.526587,-2.16875 2.588222,-2.375 0.06163,-0.20625 0.348907,-1.70174 0.638387,-3.32331 l 0.526323,-2.94831 -1.623514,-2.92669 -1.623515,-2.92669 -4.202199,-2.06124 -4.202199,-2.06125 -5.5,-0.74971 c -3.724551,-0.50769 -6.024565,-0.94775 -7.125,-1.36323 l -1.625,-0.61352 7.303632,-0.013 7.303633,-0.013 1.821367,1.0929 1.821368,1.0929 2.187945,-0.12427 c 2.130166,-0.12099 2.218346,-0.15104 3.339165,-1.13762 l 1.151222,-1.01335 1.160832,0.30934 c 0.63846,0.17014 1.24628,0.39383 1.35071,0.4971 0.104433,0.10326 0.02128,0.74356 -0.184795,1.42288 -0.206067,0.67931 -0.37573,1.34762 -0.377025,1.48512 -0.0012,0.1375 0.58811,0.49384 1.309793,0.79186 0.721685,0.29802 1.710455,0.71155 2.197267,0.91896 0.85502,0.36429 0.969313,0.344 3.361565,-0.59695 1.362048,-0.53574 2.48837,-0.94928 2.50294,-0.91897 0.01457,0.0303 0.779993,0.97159 1.700935,2.09174 l 1.674445,2.03663 0,1.85699 0,1.85698 1.98242,2.87599 1.98242,2.87599 2.28279,0.9462 c 2.76615,1.14655 2.979775,0.901 -3.206275,3.68539 -4.30559,1.93797 -4.532352,2.00871 -9.041355,2.82059 -5.55732,1.00063 -11.365576,1.33678 -13.333662,0.77166 z"
         style="fill:#ffff00;fill-opacity:1;fill-rule:nonzero;stroke:#060608;stroke-width:1;stroke-linecap:round;stroke-linejoin:round;stroke-miterlimit:4;stroke-dasharray:none;stroke-dashoffset:0;stroke-opacity:1" />
      <path
         inkscape:connector-curvature="0"
         id="path8085"
         d="m 131.6186,298.33079 c -0.46445,-0.47919 -0.79589,-0.91195 -0.73654,-0.96168 0.70922,-0.59428 22.56595,-11.66707 23.02978,-11.66707 0.34834,0 1.15498,0.0715 1.79252,0.15888 l 1.15918,0.15889 -12.06179,6.59028 c -6.63398,3.62465 -12.12408,6.59065 -12.20024,6.59111 -0.0761,4.6e-4 -0.51846,-0.39122 -0.98291,-0.87041 z"
         style="fill:#ffff00;fill-opacity:1;fill-rule:nonzero;stroke:#040408;stroke-width:1;stroke-linecap:round;stroke-linejoin:round;stroke-miterlimit:4;stroke-dasharray:none;stroke-dashoffset:0;stroke-opacity:1" />
      <path
         inkscape:connector-curvature="0"
         id="path8087"
         d="m 135.17648,273.08842 c -4.98492,-0.71776 -9.1257,-1.36724 -9.20175,-1.44329 -0.31407,-0.31407 0.30825,-1.82001 0.78002,-1.88757 0.5192,-0.0743 19.86033,2.61126 20.03038,2.7813 0.0557,0.0557 -0.0931,0.50896 -0.33075,1.00723 -0.38286,0.80288 -0.53341,0.90262 -1.32321,0.87665 -0.49016,-0.0161 -4.96977,-0.61656 -9.95469,-1.33432 z"
         style="fill:#ffff00;fill-opacity:1;fill-rule:nonzero;stroke:#08080d;stroke-width:1;stroke-linecap:round;stroke-linejoin:round;stroke-miterlimit:4;stroke-dasharray:none;stroke-dashoffset:0;stroke-opacity:1" />
      <path
         inkscape:connector-curvature="0"
         id="path8089"
         d="m 154.42884,284.52129 c -0.72966,-0.0906 -1.13772,-0.55414 -4.0625,-4.61474 -1.78825,-2.48271 -3.24665,-4.64125 -3.24089,-4.79676 0.006,-0.15551 0.20907,-0.65523 0.4518,-1.11048 l 0.44131,-0.82772 1.49279,1.82772 c 0.82104,1.00525 2.93109,3.59961 4.68901,5.76523 l 3.19621,3.9375 -1.0783,-0.04 c -0.59306,-0.022 -1.44331,-0.0853 -1.88943,-0.14074 z"
         style="fill:#ffff00;fill-opacity:1;fill-rule:nonzero;stroke:#07070c;stroke-width:1;stroke-linecap:round;stroke-linejoin:round;stroke-miterlimit:4;stroke-dasharray:none;stroke-dashoffset:0;stroke-opacity:1" />
      <path
         sodipodi:nodetypes="cscscscccc"
         inkscape:connector-curvature="0"
         id="path8091"
         d="m 98.739972,305.83593 c 0.1375,-0.0662 7.112488,-1.86525 15.499968,-3.99796 l 15.24996,-3.87766 0.86036,0.86036 c 0.64234,0.64234 0.76906,0.89396 0.50004,0.99296 -0.19818,0.0729 -5.62602,1.42655 -12.06187,3.00806 l -11.70155,2.87546 -4.29845,0.12954 c -2.36415,0.0713 -4.185958,0.0754 -4.048458,0.009 z"
         style="fill:#ffff00;fill-opacity:1;fill-rule:nonzero;stroke:#05050a;stroke-width:1;stroke-linecap:round;stroke-linejoin:round;stroke-miterlimit:4;stroke-dasharray:none;stroke-dashoffset:0;stroke-opacity:1" />
      <g
         id="g8103">
        <path
           sodipodi:type="star"
           style="fill:#ff0000;fill-opacity:1;fill-rule:nonzero;stroke:#0a0a11;stroke-width:0.1;stroke-linecap:round;stroke-linejoin:round;stroke-miterlimit:4;stroke-dasharray:none;stroke-dashoffset:0;stroke-opacity:1"
           id="path8099"
           sodipodi:sides="5"
           sodipodi:cx="47.53125"
           sodipodi:cy="243.90623"
           sodipodi:r1="12.840974"
           sodipodi:r2="6.0166745"
           sodipodi:arg1="0.84738761"
           sodipodi:arg2="0.62724362"
           inkscape:flatsided="false"
           inkscape:rounded="0"
           inkscape:randomized="0"
           d="m 56.03125,253.53123 -3.628609,-6.09372 -11.398665,7.52699 4.674171,-5.33407 -10.680974,-8.51481 6.517406,2.79708 4.79746,-12.78943 -0.646193,7.06277 13.645967,0.6105 -6.916775,1.56795 z"
           inkscape:transform-center-x="0.38776561"
           inkscape:transform-center-y="0.49849396" />
        <path
           sodipodi:type="star"
           style="fill:#ffff00;fill-opacity:1;fill-rule:nonzero;stroke:#0a0a11;stroke-width:0.1;stroke-linecap:round;stroke-linejoin:round;stroke-miterlimit:4;stroke-dasharray:none;stroke-dashoffset:0;stroke-opacity:1"
           id="path8101"
           sodipodi:sides="5"
           sodipodi:cx="47.53125"
           sodipodi:cy="243.90623"
           sodipodi:r1="6.9058967"
           sodipodi:r2="3.0752068"
           sodipodi:arg1="0.37042269"
           sodipodi:arg2="1.6008395"
           inkscape:flatsided="false"
           inkscape:rounded="0"
           inkscape:randomized="0"
           d="m 53.96875,246.40623 -6.529875,0.57382 -0.295969,3.82115 -2.563577,-6.03296 -3.725589,0.89932 4.945498,-4.30239 -2.006572,-3.26535 5.620062,3.37394 2.48546,-2.91741 -1.472108,6.3876 z"
           inkscape:transform-center-x="0.38817024"
           inkscape:transform-center-y="0.26596156" />
      </g>
      <use
         transform="matrix(0.56066444,0,0,0.58469141,112.47418,141.13661)"
         height="100%"
         width="100%"
         y="0"
         x="0"
         xlink:href="#g8103"
         id="use8109" />
      <path
         inkscape:connector-curvature="0"
         id="path8112"
         d="m 88.946799,278.41845 c 0.0776,-0.78035 0.08967,-0.78635 5.509126,-2.73615 l 5.431359,-1.95409 1.419976,0.54339 c 0.78098,0.29886 1.31812,0.57594 1.19364,0.61571 -0.12449,0.0398 -2.926335,0.92008 -6.226335,1.95622 -3.3,1.03614 -6.316245,1.99033 -6.702766,2.12044 -0.678934,0.22852 -0.700129,0.21002 -0.625,-0.54552 z"
         style="fill:#f4f00b;fill-opacity:1;fill-rule:nonzero;stroke:#000000;stroke-width:1;stroke-linecap:round;stroke-linejoin:round;stroke-miterlimit:4;stroke-dasharray:none;stroke-dashoffset:0;stroke-opacity:1" />
      <path
         sodipodi:nodetypes="scsscs"
         inkscape:connector-curvature="0"
         id="path8120"
         d="m 76.618093,274.31643 c -6.493036,-2.84213 -43.528281,-18.26806 -43.472462,-18.32388 0.05582,-0.0558 37.221108,15.01349 43.761451,17.5314 11.75125,4.52399 11.891532,4.14428 11.891532,4.83319 0,0.38342 -0.08437,1.13631 -0.1875,1.13293 -0.103125,-0.003 -5.499984,-2.33151 -11.993021,-5.17364 z"
         style="fill:#f4f00b;fill-opacity:1;fill-rule:nonzero;stroke:#05050a;stroke-width:0.5;stroke-linecap:round;stroke-linejoin:round;stroke-miterlimit:4;stroke-dasharray:none;stroke-dashoffset:0;stroke-opacity:1" />
      <path
         sodipodi:nodetypes="sssssss"
         inkscape:connector-curvature="0"
         id="path8122"
         d="m 101.3161,273.00437 c -0.8081,-0.34862 -1.2101,-0.83837 -2.5625,-3.12185 -0.882219,-1.48959 -1.604035,-2.75522 -1.604035,-2.8125 0,-0.0573 0.377121,-0.10414 0.838045,-0.10414 0.803115,0 0.917737,0.12942 2.75,3.10499 1.05158,1.70774 1.91196,3.17024 1.91196,3.25 0,0.20931 -0.25483,0.14883 -1.33347,-0.3165 z"
         style="fill:#f4f00b;fill-opacity:1;fill-rule:nonzero;stroke:#05050a;stroke-width:1;stroke-linecap:round;stroke-linejoin:round;stroke-miterlimit:4;stroke-dasharray:none;stroke-dashoffset:0;stroke-opacity:1" />
      <path
         sodipodi:nodetypes="ccccsscc"
         inkscape:connector-curvature="0"
         id="path8124"
         d="m 97.877248,265.72679 -0.897318,-0.13591 5.14732,-9.176 5.14732,-9.17601 1.97276,-0.89289 c 1.08503,-0.49109 2.01032,-0.85535 2.05622,-0.80945 0.0862,0.0862 -12.080402,19.94831 -12.367636,20.19026 -0.08874,0.0747 -0.565142,0.0747 -1.058666,0 z"
         style="fill:#f4f00b;fill-opacity:1;fill-rule:nonzero;stroke:#05050a;stroke-width:1;stroke-linecap:round;stroke-linejoin:round;stroke-miterlimit:4;stroke-dasharray:none;stroke-dashoffset:0;stroke-opacity:1" />
      <path
         sodipodi:nodetypes="scscsscscs"
         inkscape:connector-curvature="0"
         id="path8126"
         d="m 99.558877,245.69318 c -1.631129,-0.11019 -2.987553,-0.23453 -3.014277,-0.27632 -0.02672,-0.0418 -0.431934,-0.57266 -0.900468,-1.1797 l -0.851879,-1.10372 1.491156,0.15091 c 0.820136,0.083 4.134911,0.33598 7.366161,0.56216 3.23125,0.22618 6.04375,0.47104 6.25,0.54413 0.2352,0.0834 -0.18419,0.3946 -1.125,0.83492 -1.32658,0.62086 -1.77459,0.70005 -3.875,0.68499 -1.30625,-0.009 -3.70956,-0.10718 -5.340693,-0.21737 z"
         style="fill:#f4f00b;fill-opacity:1;fill-rule:nonzero;stroke:#05050a;stroke-width:1;stroke-linecap:round;stroke-linejoin:round;stroke-miterlimit:4;stroke-dasharray:none;stroke-dashoffset:0;stroke-opacity:1" />
      <path
         sodipodi:nodetypes="scccsssscssscsscscccscscccssssscs"
         inkscape:connector-curvature="0"
         id="path8128"
         d="m 112.00465,268.74545 -11.76991,-2.65457 0.46738,-0.75 c 0.25707,-0.4125 0.5572,-0.90036 0.66696,-1.08413 0.15887,-0.26598 2.22265,0.18013 10.11974,2.1875 5.4561,1.3869 10.06742,2.52163 10.24738,2.52163 0.17997,0 0.79254,-1.06792 1.36128,-2.37315 0.81177,-1.86296 1.52606,-2.96757 3.32253,-5.13808 l 2.28844,-2.76493 3.53306,-1.77143 c 4.88464,-2.4491 9.45967,-3.63409 17.53306,-4.54128 8.92198,-1.00255 18.50311,-1.14828 27.125,-0.41258 l 6.625,0.5653 4.75,1.45 c 4.12025,1.25776 5.30627,1.74589 8.94582,3.68182 2.6208,1.39404 4.40385,2.1975 4.75,2.14039 0.79494,-0.13113 38.21012,-5.14674 48.30417,-6.4753 l 8.5,-1.11876 4.17154,-1.66346 4.17153,-1.66346 2.52794,0.32216 c 1.39036,0.17718 2.49442,0.3548 2.45346,0.3947 -0.041,0.0399 -2.71822,1.10802 -5.94947,2.37359 l -5.875,2.30105 -29.875,4.1802 -29.87499,4.18021 -2.5,-1.31253 c -6.29071,-3.30268 -10.3388,-4.78193 -15.625,-5.70969 -17.00681,-2.98481 -31.73736,-2.60321 -43.40062,1.12432 -4.5549,1.45572 -7.57404,3.32643 -10.2051,6.32325 -1.9062,2.1712 -2.97679,4.04454 -3.65732,6.39967 -0.41926,1.45095 -0.68865,1.99885 -0.97109,1.97506 -0.21498,-0.0181 -5.68734,-1.22749 -12.16079,-2.6875 z"
         style="fill:#ffff00;fill-opacity:1;fill-rule:nonzero;stroke:#05050a;stroke-width:1;stroke-linecap:round;stroke-linejoin:round;stroke-miterlimit:4;stroke-dasharray:none;stroke-dashoffset:0;stroke-opacity:1" />
      <path
         inkscape:connector-curvature="0"
         id="path8130"
         d="m 222.61056,269.47247 -6.16401,-0.13159 0.43717,-0.84488 0.43718,-0.84488 9.97125,0.0476 c 5.48419,0.0262 10.0067,0.0831 10.05002,0.1264 0.0433,0.0433 0.14494,0.48647 0.2258,0.98475 l 0.14702,0.90598 -4.47021,-0.0559 c -2.45862,-0.0307 -7.24402,-0.11512 -10.63422,-0.1875 z"
         style="fill:#ffff00;fill-opacity:1;fill-rule:nonzero;stroke:#000000;stroke-width:0.25;stroke-linecap:round;stroke-linejoin:round;stroke-miterlimit:4;stroke-dasharray:none;stroke-dashoffset:0;stroke-opacity:1" />
      <path
         inkscape:connector-curvature="0"
         id="path8134"
         d="m 238.80269,268.669 c -0.0877,-0.43828 -0.0736,-0.87526 0.0312,-0.97106 0.21983,-0.20088 17.68801,-5.41018 19.19062,-5.72296 0.55,-0.11449 1.95625,-0.273 3.125,-0.35226 2.11303,-0.14329 2.05736,-0.12162 -9.875,3.84396 -6.6,2.19344 -12.07031,3.99057 -12.15625,3.99363 -0.0859,0.003 -0.22796,-0.35302 -0.31562,-0.79131 z"
         style="fill:#ffff00;fill-opacity:1;fill-rule:nonzero;stroke:#000000;stroke-width:0.25;stroke-linecap:round;stroke-linejoin:round;stroke-miterlimit:4;stroke-dasharray:none;stroke-dashoffset:0;stroke-opacity:1" />
      <path
         sodipodi:nodetypes="scscsssscscss"
         inkscape:connector-curvature="0"
         id="path8136"
         d="m 189.52457,243.95079 c -3.85,-0.52958 -7.225,-0.99855 -7.5,-1.04216 -0.275,-0.0436 3.94375,-0.22803 9.375,-0.40982 l 9.875,-0.33054 4.4375,-2.27976 c 2.44062,-1.25386 4.4375,-2.35596 4.4375,-2.44911 0,-0.0932 -1.14523,-1.0253 -2.54496,-2.07144 -1.39972,-1.04615 -2.36425,-1.90208 -2.1434,-1.90208 0.76356,0 24.31618,2.75802 25.11683,2.94118 0.68582,0.1569 -0.95382,0.74499 -11.19752,4.01617 l -12.00098,3.83235 -4.42749,0.34979 c -5.69085,0.4496 -5.24049,0.47155 -13.42748,-0.65458 z"
         style="fill:#ffff00;fill-opacity:1;fill-rule:nonzero;stroke:#05050a;stroke-width:1;stroke-linecap:round;stroke-linejoin:round;stroke-miterlimit:4;stroke-dasharray:none;stroke-dashoffset:0;stroke-opacity:1" />
      <path
         sodipodi:nodetypes="scscscsscscsscsccs"
         inkscape:connector-curvature="0"
         id="path8138"
         d="m 67.591643,268.61282 c -11.413586,-4.40614 -20.72027,-8.02173 -20.681518,-8.03464 0.03875,-0.0129 7.756726,2.29889 17.151054,5.13734 l 17.080596,5.16083 4.382884,-1.26678 c 2.410586,-0.69673 4.423189,-1.28021 4.472451,-1.29663 0.04926,-0.0164 -1.287046,-1.53045 -2.969573,-3.3645 -1.682527,-1.83405 -3.059141,-3.36207 -3.059141,-3.3956 0,-0.13077 9.682342,-18.11927 9.742972,-18.10017 0.03545,0.0112 0.503987,0.77318 1.041202,1.50238 l 0.976755,1.32583 -0.04955,1.94454 c -0.02725,1.0695 -0.109684,5.50438 -0.183176,9.8553 -0.07349,4.35092 -0.15187,7.97208 -0.174173,8.04704 -0.0223,0.075 0.809597,1.58639 1.848665,3.35876 1.039068,1.77236 1.864447,3.24738 1.834175,3.27783 -0.0466,0.0469 -10.317691,3.7751 -10.573254,3.83791 -0.04861,0.012 -9.426777,-3.5833 -20.840369,-7.98944 z"
         style="fill:#999999;fill-opacity:1;fill-rule:nonzero;stroke:#05050a;stroke-width:0.04419417;stroke-linecap:round;stroke-linejoin:round;stroke-miterlimit:4;stroke-dasharray:none;stroke-dashoffset:0;stroke-opacity:1" />
      <path
         inkscape:connector-curvature="0"
         id="path8140"
         d="m 96.63741,255.79825 c 0.0596,-4.37332 0.148774,-8.2151 0.198171,-8.53728 l 0.08981,-0.58579 1.359895,0.10098 c 0.747943,0.0555 2.752014,0.18702 4.453494,0.29218 1.70147,0.10517 3.10129,0.20401 3.11071,0.21965 0.0283,0.047 -9.079505,16.22081 -9.20473,16.34604 -0.06364,0.0636 -0.06695,-3.46246 -0.0074,-7.83578 z"
         style="fill:#ececec;fill-opacity:1;fill-rule:nonzero;stroke:#05050a;stroke-width:0.17677669;stroke-linecap:round;stroke-linejoin:round;stroke-miterlimit:4;stroke-dasharray:none;stroke-dashoffset:0;stroke-opacity:1" />
      <path
         sodipodi:nodetypes="cccscccccscscscscccccccssccccccssscccccssccscccssccccsscscccsssscccssccc"
         inkscape:connector-curvature="0"
         id="path8142"
         d="m 111.75439,265.28994 c -5.20166,-1.31533 -9.47928,-2.40575 -9.50583,-2.42315 -0.0338,-0.0222 10.95237,-17.95944 11.16446,-18.22831 0.0114,-0.0145 3.34454,0.52126 7.40695,1.19051 l 7.38621,1.21682 17.09736,-4.06985 17.09737,-4.06985 8.41999,-3.63078 8.41998,-3.63079 11.11384,0.63821 c 6.11261,0.35101 11.36072,0.67674 11.66246,0.72383 0.33756,0.0527 1.58932,0.86577 3.25372,2.11349 1.4878,1.11532 2.73686,2.05962 2.77569,2.09846 0.0388,0.0388 -1.50475,0.88777 -3.43018,1.88654 l -3.50079,1.81595 -12.99339,0.49464 c -7.14637,0.27206 -13.21216,0.49789 -13.47953,0.50186 -0.42917,0.006 -0.48612,0.0745 -0.48594,0.58175 l 1.8e-4,0.57452 11.71125,1.57078 11.71126,1.57079 5.03814,-0.38545 5.03813,-0.38545 6.36396,-2.04046 c 3.50018,-1.12226 9.55575,-3.0664 13.45683,-4.32031 l 7.09287,-2.27983 1.6921,0.76214 1.6921,0.76215 -6.89908,2.19004 -6.89908,2.19003 0.10469,0.52345 c 0.0576,0.2879 0.12527,0.54402 0.15042,0.56917 0.0251,0.0251 3.42506,-1.03124 7.55536,-2.34753 8.42462,-2.68486 5.71056,-3.17437 8.25956,-2.08413 l 2.95477,1.2638 -5.79819,1.92751 -5.79822,1.92751 0.10282,0.51744 c 0.0565,0.2846 0.12717,0.5418 0.15694,0.57156 0.0298,0.0298 2.79198,-0.85936 6.13826,-1.97584 3.34628,-1.11649 6.1481,-2.02997 6.22625,-2.02997 0.0781,0 2.49423,-0.52165 2.4663,0.36857 l 3.28787,1.32487 -8.18854,2.47961 c -1.3928,0.42176 -2.5445,0.96307 -2.62959,0.99627 -0.0851,0.0332 -0.0995,0.31155 -0.0321,0.61859 l 0.12262,0.55824 1.35792,-0.50349 c 0.74687,-0.27692 9.34448,-3.85888 9.98868,-3.58045 l 7.63074,3.29805 7.1875,1.29455 L 259,251.5 l -15.23754,1.44948 c -0.31599,0.0572 -4.75088,0.66536 -9.85531,1.35155 -5.10442,0.68619 -14.25262,1.91835 -20.32932,2.73815 -6.07669,0.81979 -11.28719,1.50467 -11.57887,1.52196 -0.37821,0.0224 -1.7219,-0.60385 -4.68458,-2.18337 l -4.15425,-2.21479 -4.77297,-1.4225 -4.77297,-1.4225 -6.54074,-0.52716 c -6.16103,-0.49655 -6.94611,-0.52249 -13.52342,-0.44679 -6.71403,0.0773 -7.22752,0.10788 -13.34664,0.79557 -5.96184,0.67002 -6.62979,0.78149 -10.57095,1.76409 l -4.20698,1.04887 -3.83636,1.93618 -3.83635,1.93617 -2.2981,2.83533 c -2.01981,2.49199 -2.41016,3.08451 -3.22349,4.89301 -0.50897,1.13173 -0.9465,2.07355 -0.97228,2.09294 -0.0258,0.0194 -4.30277,-1.04092 -9.50442,-2.35625 z"
         style="fill:#ececec;fill-opacity:1;fill-rule:nonzero;stroke:#05050a;stroke-width:0.17677669;stroke-linecap:round;stroke-linejoin:round;stroke-miterlimit:4;stroke-dasharray:none;stroke-dashoffset:0;stroke-opacity:1" />
      <path
         inkscape:connector-curvature="0"
         id="path8144"
         d="m 91.569232,225.0818 c -1.280851,-0.62238 -2.099393,-1.45155 -4.098973,-4.15209 -2.288337,-3.09054 -2.907082,-4.50088 -2.123929,-4.8412 0.253218,-0.11004 8.388691,8.87195 8.697865,9.60291 0.187451,0.44315 -0.818079,0.19548 -2.474963,-0.60962 z"
         style="fill:#ff0000;fill-opacity:1;fill-rule:nonzero;stroke:#05050a;stroke-width:1.34490538;stroke-linecap:round;stroke-linejoin:round;stroke-miterlimit:4;stroke-dasharray:none;stroke-dashoffset:0;stroke-opacity:1" />
      <path
         inkscape:connector-curvature="0"
         id="path8146"
         d="m 74.130862,210.13589 -1.406083,-0.66835 0.308422,-0.875 c 0.357867,-1.01527 0.232602,-1.01859 3.503744,0.0927 2.259673,0.76768 2.439918,0.87329 1.875,1.09859 -0.34375,0.1371 -1.060614,0.43139 -1.593031,0.65398 -1.171936,0.48996 -0.975674,0.512 -2.688052,-0.30194 z"
         style="fill:#ff0000;fill-opacity:1;fill-rule:nonzero;stroke:#05050a;stroke-width:1;stroke-linecap:round;stroke-linejoin:round;stroke-miterlimit:4;stroke-dasharray:none;stroke-dashoffset:0;stroke-opacity:1" />
      <path
         inkscape:connector-curvature="0"
         id="path8148"
         d="m 62.349445,206.96705 c -0.378125,-0.21476 -0.6875,-0.44314 -0.6875,-0.50749 0,-0.0644 1.317857,-0.11702 2.928571,-0.11702 2.598075,0 2.886417,0.0421 2.555035,0.37354 -0.573207,0.5732 -3.92037,0.74835 -4.796106,0.25097 z"
         style="fill:#ff0000;fill-opacity:1;fill-rule:nonzero;stroke:#05050a;stroke-width:1;stroke-linecap:round;stroke-linejoin:round;stroke-miterlimit:4;stroke-dasharray:none;stroke-dashoffset:0;stroke-opacity:1" />
      <path
         inkscape:connector-curvature="0"
         id="path8150"
         d="m 69.88357,237.35641 -4.653374,-0.1489 -1.240138,-1.36998 c -2.407379,-2.65944 -3.135319,-3.49499 -3.044704,-3.49477 0.05037,1.2e-4 1.273065,0.31729 2.717089,0.70482 2.536376,0.68068 2.74853,0.69796 6.25,0.50906 2.005044,-0.10817 5.69099,-0.55034 8.249502,-0.98963 4.251907,-0.73002 4.887173,-0.91006 7.875,-2.23182 1.7875,-0.79075 3.281007,-1.40971 3.318907,-1.37545 0.05588,0.0505 -2.408975,6.61285 -2.56068,6.81747 -0.10413,0.14046 -11.066124,1.80863 -11.633227,1.77032 -0.34375,-0.0232 -2.719019,-0.10923 -5.278375,-0.19112 z"
         style="fill:#ff0000;fill-opacity:1;fill-rule:nonzero;stroke:#05050a;stroke-width:1;stroke-linecap:round;stroke-linejoin:round;stroke-miterlimit:4;stroke-dasharray:none;stroke-dashoffset:0;stroke-opacity:1" />
      <path
         inkscape:connector-curvature="0"
         id="path8152"
         d="m 73.800962,257.82098 c -4.804791,-1.64564 -8.772833,-3.02892 -8.817871,-3.07396 -0.04504,-0.045 0.0049,-0.30186 0.110983,-0.57072 0.188197,-0.47699 0.429123,-0.45696 9.942871,0.82661 5.3625,0.7235 9.893871,1.32089 10.069714,1.32754 0.19836,0.007 -0.133762,0.8644 -0.875,2.25755 -0.657093,1.23501 -1.307214,2.24087 -1.444714,2.23526 -0.1375,-0.006 -4.181193,-1.35664 -8.985983,-3.00228 z"
         style="fill:#ff0000;fill-opacity:1;fill-rule:nonzero;stroke:#05050a;stroke-width:1;stroke-linecap:round;stroke-linejoin:round;stroke-miterlimit:4;stroke-dasharray:none;stroke-dashoffset:0;stroke-opacity:1" />
      <path
         inkscape:connector-curvature="0"
         id="path8154"
         d="m 66.954871,240.92794 c -1.173283,-2.56278 -1.260254,-2.39659 1.253662,-2.39566 l 2.204347,8.1e-4 0.689412,1.68669 c 0.379177,0.92768 0.688552,1.77106 0.6875,1.87419 -0.0011,0.10312 -0.949915,0.1875 -2.108585,0.1875 l -2.106673,0 -0.619663,-1.35353 z"
         style="fill:#4d4d4d;fill-opacity:1;fill-rule:nonzero;stroke:#05050a;stroke-width:1;stroke-linecap:round;stroke-linejoin:round;stroke-miterlimit:4;stroke-dasharray:none;stroke-dashoffset:0;stroke-opacity:1" />
      <path
         inkscape:connector-curvature="0"
         id="path8156"
         d="m 69.22538,248.09672 -1.4375,-0.0902 0,-2.23752 0,-2.23752 2.228026,0 2.228025,0 0.139666,0.9375 c 0.07682,0.51562 0.212167,1.58437 0.30078,2.375 l 0.161115,1.4375 -1.091306,-0.0473 c -0.600218,-0.026 -1.738181,-0.0879 -2.528806,-0.13748 z"
         style="fill:#4d4d4d;fill-opacity:1;fill-rule:nonzero;stroke:#05050a;stroke-width:1;stroke-linecap:round;stroke-linejoin:round;stroke-miterlimit:4;stroke-dasharray:none;stroke-dashoffset:0;stroke-opacity:1" />
      <path
         inkscape:connector-curvature="0"
         id="path8158"
         d="m 76.293849,248.54739 -2.119031,-0.14092 -0.160665,-1 c -0.08837,-0.55 -0.230875,-1.6317 -0.316688,-2.40377 l -0.156022,-1.40376 1.158111,-0.15874 c 0.636962,-0.0873 2.025902,-0.15873 3.086535,-0.15873 l 1.928423,0 0.161684,1.91272 c 0.08893,1.05199 0.161684,2.28949 0.161684,2.75 0,0.94394 0.403071,0.879 -3.744031,0.6032 z"
         style="fill:#4d4d4d;fill-opacity:1;fill-rule:nonzero;stroke:#05050a;stroke-width:1;stroke-linecap:round;stroke-linejoin:round;stroke-miterlimit:4;stroke-dasharray:none;stroke-dashoffset:0;stroke-opacity:1" />
      <path
         inkscape:connector-curvature="0"
         id="path8160"
         d="m 73.114067,241.84397 c -0.08697,-0.24063 -0.420936,-1.04213 -0.742154,-1.78111 -0.321218,-0.73899 -0.584033,-1.38234 -0.584033,-1.42968 0,-0.0473 0.928125,-0.0241 2.0625,0.0517 l 2.0625,0.13776 1.42847,1.54191 1.428471,1.54191 -1.178471,0.1656 c -0.648158,0.0911 -1.885126,0.17545 -2.748816,0.1875 -1.281104,0.0179 -1.59947,-0.0587 -1.728467,-0.4156 z"
         style="fill:#4d4d4d;fill-opacity:1;fill-rule:nonzero;stroke:#05050a;stroke-width:1;stroke-linecap:round;stroke-linejoin:round;stroke-miterlimit:4;stroke-dasharray:none;stroke-dashoffset:0;stroke-opacity:1" />
      <path
         inkscape:connector-curvature="0"
         id="path8162"
         d="m 79.772533,241.09397 c -0.476752,-0.51563 -1.18314,-1.29009 -1.569751,-1.72103 l -0.702928,-0.78352 1.706513,-0.2883 c 0.938582,-0.15856 2.056107,-0.34986 2.483389,-0.42511 0.73635,-0.12969 0.850463,-0.0318 2.1875,1.87629 0.775843,1.10721 1.410624,2.07297 1.410624,2.14614 0,0.0732 -1.045918,0.13303 -2.324263,0.13303 l -2.324263,0 -0.866821,-0.9375 z"
         style="fill:#4d4d4d;fill-opacity:1;fill-rule:nonzero;stroke:#05050a;stroke-width:1;stroke-linecap:round;stroke-linejoin:round;stroke-miterlimit:4;stroke-dasharray:none;stroke-dashoffset:0;stroke-opacity:1" />
      <path
         inkscape:connector-curvature="0"
         id="path8164"
         d="m 86.746074,241.59397 c -0.811221,-0.96104 -2.751055,-3.85298 -2.651349,-3.95268 0.28749,-0.28749 2.774831,-0.58298 3.151718,-0.37442 0.22904,0.12675 1.426592,1.25063 2.661225,2.49752 l 2.244787,2.26708 -2.51854,0 c -2.091258,0 -2.581195,-0.0742 -2.887841,-0.4375 z"
         style="fill:#4d4d4d;fill-opacity:1;fill-rule:nonzero;stroke:#05050a;stroke-width:1;stroke-linecap:round;stroke-linejoin:round;stroke-miterlimit:4;stroke-dasharray:none;stroke-dashoffset:0;stroke-opacity:1" />
      <path
         inkscape:connector-curvature="0"
         id="path8166"
         d="m 81.85038,248.85503 c -0.415968,-0.0801 -0.56289,-0.2829 -0.563998,-0.77845 -8.24e-4,-0.36856 -0.07375,-1.59824 -0.162055,-2.73261 l -0.160555,-2.0625 2.537054,0 2.537054,0 0,2.875 0,2.875 -1.8125,-0.0341 c -0.996875,-0.0187 -2.065625,-0.0828 -2.375,-0.14239 z"
         style="fill:#4d4d4d;fill-opacity:1;fill-rule:nonzero;stroke:#05050a;stroke-width:1;stroke-linecap:round;stroke-linejoin:round;stroke-miterlimit:4;stroke-dasharray:none;stroke-dashoffset:0;stroke-opacity:1" />
      <path
         inkscape:connector-curvature="0"
         id="path8168"
         d="m 74.36798,253.68515 c -1.124695,-0.15328 -2.111773,-0.34701 -2.193506,-0.43052 -0.08173,-0.0835 0.360347,-0.84321 0.9824,-1.6882 0.622054,-0.845 1.131006,-1.6241 1.131006,-1.73134 0,-0.10723 0.815625,-0.15948 1.8125,-0.1161 2.050794,0.0892 3.4375,0.27504 3.4375,0.46058 0,0.069 -0.460168,0.9639 -1.022597,1.98867 -1.142185,2.08112 -0.834102,1.96844 -4.147303,1.51691 z"
         style="fill:#4d4d4d;fill-opacity:1;fill-rule:nonzero;stroke:#05050a;stroke-width:1;stroke-linecap:round;stroke-linejoin:round;stroke-miterlimit:4;stroke-dasharray:none;stroke-dashoffset:0;stroke-opacity:1" />
      <path
         inkscape:connector-curvature="0"
         id="path8170"
         d="m 67.099311,252.72764 -1.563569,-0.24011 0.64134,-1.04053 c 0.352736,-0.57229 0.765025,-1.29366 0.916197,-1.60303 0.24255,-0.49638 0.453808,-0.5596 1.79723,-0.53778 0.837304,0.0136 2.105647,0.098 2.818539,0.1875 l 1.296167,0.16278 -1.259385,1.6875 c -1.410028,1.88935 -1.390847,1.88364 -4.646519,1.38367 z"
         style="fill:#4d4d4d;fill-opacity:1;fill-rule:nonzero;stroke:#05050a;stroke-width:1;stroke-linecap:round;stroke-linejoin:round;stroke-miterlimit:4;stroke-dasharray:none;stroke-dashoffset:0;stroke-opacity:1" />
      <path
         inkscape:connector-curvature="0"
         id="path8172"
         d="m 81.551235,254.63406 c -1.298905,-0.18903 -2.443304,-0.37382 -2.543109,-0.41064 -0.09981,-0.0368 0.338089,-0.9958 0.973098,-2.13106 l 1.154561,-2.0641 2.388548,0.16105 c 1.313701,0.0886 2.420682,0.18706 2.459957,0.21885 0.03928,0.0318 -0.06536,1.08503 -0.232518,2.34055 l -0.303928,2.28276 -0.767482,-0.0269 c -0.422115,-0.0148 -1.830222,-0.18152 -3.129127,-0.37054 z"
         style="fill:#4d4d4d;fill-opacity:1;fill-rule:nonzero;stroke:#05050a;stroke-width:1;stroke-linecap:round;stroke-linejoin:round;stroke-miterlimit:4;stroke-dasharray:none;stroke-dashoffset:0;stroke-opacity:1" />
      <path
         inkscape:connector-curvature="0"
         id="path8174"
         d="m 87.03788,252.56272 c 0,-0.25782 0.07031,-0.82032 0.15625,-1.25 0.122739,-0.6137 0.284495,-0.78125 0.754212,-0.78125 l 0.597961,0 -0.633423,1.25 c -0.681564,1.345 -0.875,1.51771 -0.875,0.78125 z"
         style="fill:#4d4d4d;fill-opacity:1;fill-rule:nonzero;stroke:#05050a;stroke-width:1;stroke-linecap:round;stroke-linejoin:round;stroke-miterlimit:4;stroke-dasharray:none;stroke-dashoffset:0;stroke-opacity:1" />
      <path
         inkscape:connector-curvature="0"
         id="path8176"
         d="m 87.28788,246.31054 0,-2.97092 2.5625,-0.11304 c 1.409375,-0.0622 2.590203,-0.0944 2.624061,-0.0717 0.03386,0.0227 -0.676733,1.41053 -1.579093,3.08396 l -1.640654,3.04261 -0.983407,0 -0.983407,0 0,-2.97093 z"
         style="fill:#4d4d4d;fill-opacity:1;fill-rule:nonzero;stroke:#05050a;stroke-width:1;stroke-linecap:round;stroke-linejoin:round;stroke-miterlimit:4;stroke-dasharray:none;stroke-dashoffset:0;stroke-opacity:1" />
      <path
         inkscape:connector-curvature="0"
         id="path8178"
         d="m 101.99324,240.28333 -6.16965,-1.7116 -2.224153,-1.93051 -2.224152,-1.93051 1.67993,-4.25927 1.679931,-4.25927 1.151367,-0.58515 c 0.633252,-0.32182 1.151367,-0.53769 1.151367,-0.4797 0,0.058 -0.505998,1.43827 -1.124439,3.06729 -0.618442,1.62902 -1.124692,3.08176 -1.125,3.2283 -3e-4,0.14655 1.040064,1.27727 2.311939,2.51271 1.843438,1.79064 3.23795,2.81946 6.875,5.07215 2.50938,1.55424 4.5625,2.8704 4.5625,2.92479 0,0.16285 -0.13955,0.12769 -6.54464,-1.64923 z"
         style="fill:#4d4d4d;fill-opacity:1;fill-rule:nonzero;stroke:#05050a;stroke-width:1;stroke-linecap:round;stroke-linejoin:round;stroke-miterlimit:4;stroke-dasharray:none;stroke-dashoffset:0;stroke-opacity:1" />
      <path
         inkscape:connector-curvature="0"
         id="path8180"
         d="m 109.1474,237.35298 c -2.05399,-2.84817 -4.71889,-6.30513 -5.92202,-7.68213 -1.20312,-1.377 -2.1875,-2.65857 -2.1875,-2.84793 0,-0.39201 0.74905,-3.37021 0.88151,-3.50486 0.0478,-0.0486 1.96329,1.44005 4.25658,3.30816 l 4.1696,3.39657 2.25216,4.68951 2.25217,4.6895 -0.84351,1.5645 c -0.46393,0.86047 -0.90673,1.56465 -0.98399,1.56483 -0.0773,1.9e-4 -1.82101,-2.32998 -3.875,-5.17815 z"
         style="fill:#4d4d4d;fill-opacity:1;fill-rule:nonzero;stroke:#05050a;stroke-width:1;stroke-linecap:round;stroke-linejoin:round;stroke-miterlimit:4;stroke-dasharray:none;stroke-dashoffset:0;stroke-opacity:1" />
      <path
         inkscape:connector-curvature="0"
         id="path8182"
         d="m 99.815367,242.38979 c -2.770974,-0.22423 -5.237009,-0.41536 -5.480077,-0.42474 -0.319351,-0.0123 -1.267853,-0.81243 -3.419367,-2.8844 l -2.977426,-2.86735 1.566024,-4.06586 1.566023,-4.06587 0.93715,-0.50371 c 0.515433,-0.27705 0.964252,-0.47592 0.997376,-0.44194 0.03312,0.034 -0.513224,1.49366 -1.214107,3.24375 -0.700884,1.75009 -1.406913,3.5152 -1.568953,3.92246 l -0.29462,0.74049 2.628663,2.29808 2.628663,2.29807 5.541504,1.51985 c 3.04782,0.83592 5.62105,1.55047 5.71827,1.58788 0.39185,0.15076 -1.8462,0.0303 -6.629123,-0.35671 z"
         style="fill:#808080;fill-opacity:1;fill-rule:nonzero;stroke:#05050a;stroke-width:0.17677669;stroke-linecap:round;stroke-linejoin:round;stroke-miterlimit:4;stroke-dasharray:none;stroke-dashoffset:0;stroke-opacity:1" />
      <path
         inkscape:connector-curvature="0"
         id="path8184"
         d="m 105.29545,238.40755 c -4.55227,-2.85865 -5.24126,-3.35588 -7.144346,-5.15586 l -2.106205,-1.9921 1.263887,-3.35678 c 0.755974,-2.0078 1.187368,-3.38263 1.073479,-3.42112 -0.104723,-0.0354 0.303226,-0.33794 0.906555,-0.67233 0.603329,-0.33439 1.13563,-0.56932 1.1829,-0.52205 0.0473,0.0473 -0.12085,0.96782 -0.37359,2.04567 -0.252748,1.07785 -0.459539,1.99408 -0.459539,2.03608 0,0.042 1.040399,1.25363 2.311999,2.69253 1.81463,2.05336 8.64816,11.1141 8.64816,11.46679 0,0.18774 -0.54978,-0.13579 -5.3033,-3.12083 z"
         style="fill:#808080;fill-opacity:1;fill-rule:nonzero;stroke:#05050a;stroke-width:0.17677669;stroke-linecap:round;stroke-linejoin:round;stroke-miterlimit:4;stroke-dasharray:none;stroke-dashoffset:0;stroke-opacity:1" />
      <path
         inkscape:connector-curvature="0"
         id="path8186"
         d="m 220.72989,266.3515 c -1.40938,-0.0446 -2.5625,-0.16744 -2.5625,-0.27307 0,-0.10563 1.04062,-0.44308 2.3125,-0.7499 1.27187,-0.30682 2.44759,-0.64156 2.6127,-0.74386 0.22679,-0.14052 0.17383,-0.60004 -0.21654,-1.87897 -0.28422,-0.93113 -0.4705,-1.73922 -0.41397,-1.79575 0.0565,-0.0565 5.94772,-0.89831 13.09154,-1.87062 7.14382,-0.97231 13.38252,-1.82684 13.86377,-1.89896 0.70829,-0.10614 0.79137,-0.0782 0.43606,0.14646 -0.24141,0.15268 -3.84141,0.88935 -8,1.63706 -4.15858,0.74771 -7.82999,1.42287 -8.15868,1.50035 -0.57875,0.13644 -0.59295,0.19666 -0.44957,1.90691 0.0814,0.97131 0.2033,1.82126 0.27081,1.88878 0.0675,0.0675 3.71753,-0.23756 8.11115,-0.67793 4.39362,-0.44037 8.17075,-0.76205 8.39362,-0.71485 0.22288,0.0472 -2.38337,0.90145 -5.79167,1.89832 l -6.1969,1.8125 -7.36991,-0.0527 c -4.05345,-0.029 -8.52304,-0.0892 -9.93241,-0.13375 z"
         style="fill:#808080;fill-opacity:1;fill-rule:nonzero;stroke:#05050a;stroke-width:1;stroke-linecap:round;stroke-linejoin:round;stroke-miterlimit:4;stroke-dasharray:none;stroke-dashoffset:0;stroke-opacity:1" />
      <path
         inkscape:connector-curvature="0"
         id="path8188"
         d="m 204.33949,286.24279 4.04518,-4.04518 6.1338,2.21941 c 3.37359,1.22067 6.10907,2.24305 6.07886,2.27195 -0.0302,0.0289 -2.82135,0.85049 -6.20252,1.82577 l -6.14757,1.77323 -3.97647,0 -3.97646,0 4.04518,-4.04518 z"
         style="fill:#808080;fill-opacity:1;fill-rule:nonzero;stroke:#05050a;stroke-width:1;stroke-linecap:round;stroke-linejoin:round;stroke-miterlimit:4;stroke-dasharray:none;stroke-dashoffset:0;stroke-opacity:1" />
      <path
         inkscape:connector-curvature="0"
         id="path8190"
         d="m 144.38583,287.02703 c 0.42447,-0.35357 0.68745,-0.97406 0.92358,-2.17919 l 0.33015,-1.68487 -0.70303,-0.65444 -0.70302,-0.65443 1.65444,-0.15629 c 0.90994,-0.086 2.21694,-0.15409 2.90444,-0.15141 1.24033,0.005 1.25822,0.0164 2.3125,1.49907 0.58437,0.82181 1.0625,1.58067 1.0625,1.68636 0,0.10568 -1.1826,0.7803 -2.62801,1.49915 -2.33758,1.16256 -2.80034,1.30607 -4.1875,1.29867 l -1.55949,-0.008 0.59344,-0.49431 z"
         style="fill:#808080;fill-opacity:1;fill-rule:nonzero;stroke:#05050a;stroke-width:1;stroke-linecap:round;stroke-linejoin:round;stroke-miterlimit:4;stroke-dasharray:none;stroke-dashoffset:0;stroke-opacity:1" />
      <path
         inkscape:connector-curvature="0"
         id="path8192"
         d="m 130.16739,301.30562 c 2.45307,-0.64199 3.50498,-1.16857 16.06047,-8.03982 7.38951,-4.04405 13.43639,-7.4417 13.4375,-7.55033 0.001,-0.10863 -2.57729,-3.37501 -5.72979,-7.25864 l -5.73182,-7.06114 -10.58068,-1.4678 c -5.81937,-0.8073 -10.63423,-1.51321 -10.69967,-1.56869 -0.38116,-0.32314 1.6254,-3.20535 3.61755,-5.19623 2.75318,-2.75142 4.54781,-3.82426 8.62644,-5.15696 10.08496,-3.29526 21.97909,-4.01471 36.28962,-2.1951 l 3.91462,0.49775 2.22944,2.30215 c 1.22619,1.26619 4.02086,4.17637 6.21038,6.46708 l 3.98094,4.16491 1.44119,4.21009 c 0.79265,2.31554 1.43563,4.37883 1.42883,4.58508 -0.007,0.20625 -1.66784,2.34022 -3.69119,4.74216 l -3.67883,4.36715 -13.69981,4.82788 -13.69982,4.82787 -15.8664,2.61747 c -8.72652,1.43961 -16.00535,2.60726 -16.17518,2.59479 -0.16984,-0.0125 0.87246,-0.33183 2.31621,-0.70967 z"
         style="fill:#808080;fill-opacity:1;fill-rule:nonzero;stroke:#05050a;stroke-width:1;stroke-linecap:round;stroke-linejoin:round;stroke-miterlimit:4;stroke-dasharray:none;stroke-dashoffset:0;stroke-opacity:1" />
      <path
         inkscape:connector-curvature="0"
         id="path8194"
         d="m 138.79239,301.55078 22,-3.7042 13.125,-4.65586 c 7.21875,-2.56071 13.26075,-4.62703 13.42667,-4.5918 0.16592,0.0352 1.31475,1.63905 2.55296,3.56405 1.91881,2.98313 2.18808,3.52688 1.82332,3.682 -0.23537,0.10009 -9.0342,1.88408 -19.55295,3.96442 -21.69242,4.29019 -17.31018,3.76367 -39.25,4.71584 -6.39375,0.27748 -12.6375,0.55519 -13.875,0.61713 -1.50549,0.0754 5.02967,-1.11308 19.75,-3.59158 z"
         style="fill:#cccccc;fill-opacity:1;fill-rule:nonzero;stroke:#05050a;stroke-width:1;stroke-linecap:round;stroke-linejoin:round;stroke-miterlimit:4;stroke-dasharray:none;stroke-dashoffset:0;stroke-opacity:1" />
      <path
         inkscape:connector-curvature="0"
         id="path8196"
         d="m 190.85727,291.35092 -2.35355,-3.68704 3.65786,-4.37546 c 2.01183,-2.4065 3.74061,-4.51255 3.84175,-4.68011 0.10113,-0.16756 -0.44143,-2.12484 -1.20569,-4.3495 -0.76426,-2.22467 -1.35935,-4.07207 -1.32241,-4.10532 0.0369,-0.0333 4.04184,1.64277 8.89978,3.7245 l 8.83262,3.78498 -8.83262,8.68594 c -4.85794,4.77726 -8.90722,8.68664 -8.99841,8.6875 -0.0912,8.6e-4 -1.22488,-1.65761 -2.51933,-3.68549 z"
         style="fill:#cccccc;fill-opacity:1;fill-rule:nonzero;stroke:#05050a;stroke-width:1;stroke-linecap:round;stroke-linejoin:round;stroke-miterlimit:4;stroke-dasharray:none;stroke-dashoffset:0;stroke-opacity:1" />
      <path
         inkscape:connector-curvature="0"
         id="path8198"
         d="m 200.88655,271.94181 -8.15584,-3.54938 -5.50655,-5.73973 c -3.0286,-3.15685 -5.47165,-5.77655 -5.42901,-5.82155 0.16453,-0.17361 4.36719,0.73515 6.01501,1.30065 2.38944,0.82002 6.49664,2.65673 9.48223,4.24038 l 2.5,1.32608 4.44273,5.23236 c 5.22353,6.15193 5.58545,6.61581 5.13679,6.58396 -0.18124,-0.0129 -3.99965,-1.62061 -8.48536,-3.57277 z"
         style="fill:#cccccc;fill-opacity:1;fill-rule:nonzero;stroke:#05050a;stroke-width:1;stroke-linecap:round;stroke-linejoin:round;stroke-miterlimit:4;stroke-dasharray:none;stroke-dashoffset:0;stroke-opacity:1" />
      <path
         inkscape:connector-curvature="0"
         id="path8200"
         d="m 63.894845,251.26112 c -0.63589,-0.77144 -0.639009,-0.78787 -0.280993,-1.4802 0.253004,-0.48925 0.335103,-0.52155 1.325825,-0.52155 0.580866,0 1.056121,0.0384 1.056121,0.0853 0,0.0731 -1.370891,2.38171 -1.503138,2.53128 -0.02591,0.0293 -0.294932,-0.24735 -0.597815,-0.6148 z"
         style="fill:#cccccc;fill-opacity:1;fill-rule:nonzero;stroke:#05050a;stroke-width:0.17677669;stroke-linecap:round;stroke-linejoin:round;stroke-miterlimit:4;stroke-dasharray:none;stroke-dashoffset:0;stroke-opacity:1" />
      <path
         inkscape:connector-curvature="0"
         id="path8202"
         d="m 65.642244,247.33449 -0.795495,-0.29359 -0.05241,-1.19517 -0.05241,-1.19516 0.818407,-0.36202 c 0.450124,-0.19911 0.854468,-0.32596 0.898542,-0.28189 0.04407,0.0441 0.05735,0.87693 0.0295,1.85078 l -0.05063,1.77064 -0.795495,-0.29359 z"
         style="fill:#cccccc;fill-opacity:1;fill-rule:nonzero;stroke:#05050a;stroke-width:0.17677669;stroke-linecap:round;stroke-linejoin:round;stroke-miterlimit:4;stroke-dasharray:none;stroke-dashoffset:0;stroke-opacity:1" />
      <path
         inkscape:connector-curvature="0"
         id="path8204"
         d="m 64.850848,241.94026 c -1.039251,-0.19939 -1.062371,-0.21673 -1.411217,-1.05846 l -0.354657,-0.85575 0.704111,-0.59562 c 0.387261,-0.3276 0.751189,-0.59681 0.80873,-0.59825 0.08004,-0.002 1.141261,2.20189 1.545296,3.20921 0.06667,0.16621 0.124874,0.17076 -1.292263,-0.10113 z"
         style="fill:#cccccc;fill-opacity:1;fill-rule:nonzero;stroke:#05050a;stroke-width:0.17677669;stroke-linecap:round;stroke-linejoin:round;stroke-miterlimit:4;stroke-dasharray:none;stroke-dashoffset:0;stroke-opacity:1" />
      <path
         inkscape:connector-curvature="0"
         id="path8206"
         d="m 60.913468,231.08922 c -0.60767,-0.15186 -1.104855,-0.34446 -1.104855,-0.42802 0,-0.0836 0.197597,-0.54185 0.439104,-1.01844 0.366749,-0.72375 0.910706,-1.23086 3.301131,-3.07755 l 2.862027,-2.21101 0.543762,0.45754 c 0.299069,0.25165 0.543763,0.51511 0.543763,0.58547 0,0.0704 -0.98465,0.94906 -2.188111,1.95266 -1.967071,1.64039 -2.238655,1.93738 -2.688452,2.93989 -0.275187,0.61334 -0.523554,1.10625 -0.551927,1.09536 -0.02837,-0.0109 -0.548772,-0.14404 -1.156442,-0.2959 z"
         style="fill:#cccccc;fill-opacity:1;fill-rule:nonzero;stroke:#05050a;stroke-width:0.17677669;stroke-linecap:round;stroke-linejoin:round;stroke-miterlimit:4;stroke-dasharray:none;stroke-dashoffset:0;stroke-opacity:1" />
      <path
         inkscape:connector-curvature="0"
         id="path8208"
         d="m 64.850848,241.94026 c -1.039251,-0.19939 -1.062371,-0.21673 -1.411217,-1.05846 l -0.354657,-0.85575 0.704111,-0.59562 c 0.387261,-0.3276 0.751189,-0.59681 0.80873,-0.59825 0.08004,-0.002 1.141261,2.20189 1.545296,3.20921 0.06667,0.16621 0.124874,0.17076 -1.292263,-0.10113 z"
         style="fill:#cccccc;fill-opacity:1;fill-rule:nonzero;stroke:#05050a;stroke-width:0.17677669;stroke-linecap:round;stroke-linejoin:round;stroke-miterlimit:4;stroke-dasharray:none;stroke-dashoffset:0;stroke-opacity:1" />
      <path
         inkscape:connector-curvature="0"
         id="path8210"
         d="m 38.588732,207.01692 -0.61204,-0.52314 1.110146,-0.007 1.110147,-0.007 -0.39209,0.53033 c -0.21565,0.29168 -0.439797,0.53033 -0.498106,0.53033 -0.05831,0 -0.381434,-0.23542 -0.718057,-0.52315 z"
         style="fill:#cccccc;fill-opacity:1;fill-rule:nonzero;stroke:#05050a;stroke-width:0.17677669;stroke-linecap:round;stroke-linejoin:round;stroke-miterlimit:4;stroke-dasharray:none;stroke-dashoffset:0;stroke-opacity:1" />
      <path
         inkscape:connector-curvature="0"
         id="path8212"
         d="m 43.721934,209.23706 c -1.604248,-0.50774 -3.013517,-0.95807 -3.131709,-1.00072 -0.138173,-0.0499 -0.01195,-0.31602 0.353553,-0.7455 l 0.568447,-0.66795 2.828428,0.94855 c 1.561626,0.52371 2.820509,1.0406 2.810749,1.15408 -0.0097,0.11305 -0.02961,0.44419 -0.04419,0.73587 -0.01511,0.30212 -0.121606,0.52355 -0.247488,0.51458 -0.121534,-0.009 -1.533537,-0.43117 -3.137786,-0.93891 z"
         style="fill:#cccccc;fill-opacity:1;fill-rule:nonzero;stroke:#05050a;stroke-width:0.17677669;stroke-linecap:round;stroke-linejoin:round;stroke-miterlimit:4;stroke-dasharray:none;stroke-dashoffset:0;stroke-opacity:1" />
      <path
         inkscape:connector-curvature="0"
         id="path8214"
         d="m 52.477557,211.13717 c -2.330606,-0.33605 -4.258071,-0.63161 -4.283257,-0.6568 -0.02519,-0.0252 0.01226,-0.3617 0.08321,-0.74782 l 0.129005,-0.70202 4.736242,0.64699 c 2.604934,0.35584 4.777193,0.68793 4.827243,0.73798 0.05005,0.05 0.02222,0.35826 -0.06184,0.68491 -0.201632,0.78349 -0.249657,0.78381 -5.4306,0.0368 z"
         style="fill:#cccccc;fill-opacity:1;fill-rule:nonzero;stroke:#05050a;stroke-width:0.17677669;stroke-linecap:round;stroke-linejoin:round;stroke-miterlimit:4;stroke-dasharray:none;stroke-dashoffset:0;stroke-opacity:1" />
      <path
         inkscape:connector-curvature="0"
         id="path8218"
         d="m 61.61022,213.58452 -2.7062,-1.35987 0.114792,-0.61737 c 0.06314,-0.33955 0.151128,-0.67616 0.195539,-0.74802 0.04441,-0.0719 1.518642,0.58913 3.27607,1.46888 l 3.195323,1.59953 -0.496765,0.51851 c -0.273221,0.28518 -0.581319,0.51394 -0.684662,0.50836 -0.103344,-0.006 -1.405688,-0.6221 -2.894097,-1.37002 z"
         style="fill:#cccccc;fill-opacity:1;fill-rule:nonzero;stroke:#05050a;stroke-width:0.17677669;stroke-linecap:round;stroke-linejoin:round;stroke-miterlimit:4;stroke-dasharray:none;stroke-dashoffset:0;stroke-opacity:1" />
      <path
         inkscape:connector-curvature="0"
         id="path8220"
         d="m 66.432622,217.67206 -0.99507,-1.86339 0.482951,-0.50409 c 0.265623,-0.27725 0.539193,-0.46933 0.607934,-0.42685 0.170795,0.10556 2.339719,3.99201 2.266185,4.06073 -0.03233,0.0302 -0.353118,0.1769 -0.712858,0.32597 l -0.654073,0.27103 -0.995069,-1.8634 z"
         style="fill:#cccccc;fill-opacity:1;fill-rule:nonzero;stroke:#05050a;stroke-width:0.17677669;stroke-linecap:round;stroke-linejoin:round;stroke-miterlimit:4;stroke-dasharray:none;stroke-dashoffset:0;stroke-opacity:1" />
      <path
         inkscape:connector-curvature="0"
         id="path8222"
         d="m 67.622835,223.83532 -0.58267,-0.47793 0.294455,-1.34005 c 0.279026,-1.26984 0.326462,-1.35163 0.905265,-1.56093 0.335945,-0.12148 0.636623,-0.19368 0.668173,-0.16045 0.03155,0.0332 -0.113616,0.95072 -0.322593,2.03885 l -0.379959,1.97843 -0.582671,-0.47792 z"
         style="fill:#cccccc;fill-opacity:1;fill-rule:nonzero;stroke:#05050a;stroke-width:0.17677669;stroke-linecap:round;stroke-linejoin:round;stroke-miterlimit:4;stroke-dasharray:none;stroke-dashoffset:0;stroke-opacity:1" />
    </g>
  </g>
</svg>
